<svg width="14" height="9" viewBox="0 0 14 9" fill="none" xmlns="http://www.w3.org/2000/svg">
<path d="M7.70996 7.93817L13.36 2.27818C13.4537 2.18521 13.5281 2.07461 13.5789 1.95275C13.6296 1.83089 13.6558 1.70019 13.6558 1.56818C13.6558 1.43616 13.6296 1.30546 13.5789 1.1836C13.5281 1.06174 13.4537 0.951138 13.36 0.858175C13.1726 0.671924 12.9191 0.567383 12.655 0.567383C12.3908 0.567383 12.1373 0.671924 11.95 0.858175L6.94996 5.80817L1.99996 0.858175C1.8126 0.671924 1.55915 0.567382 1.29496 0.567382C1.03078 0.567382 0.777327 0.671924 0.589964 0.858175C0.495476 0.950789 0.420305 1.06123 0.368809 1.18311C0.317312 1.30498 0.290514 1.43587 0.289965 1.56817C0.290514 1.70048 0.317312 1.83136 0.368809 1.95324C0.420305 2.07512 0.495476 2.18556 0.589964 2.27817L6.23996 7.93817C6.3336 8.03968 6.44726 8.12069 6.57376 8.1761C6.70026 8.2315 6.83686 8.26011 6.97496 8.26011C7.11307 8.26011 7.24967 8.2315 7.37617 8.1761C7.50267 8.12069 7.61632 8.03968 7.70996 7.93817Z" fill="#E40046"/>
</svg>
