<svg width="120" height="120" viewBox="0 0 120 120" fill="none" xmlns="http://www.w3.org/2000/svg">
<circle opacity="0.2" cx="60" cy="60" r="60" fill="#717C7D"/>
<path d="M49.8839 52.2992C50.5289 52.2992 51.0518 51.7763 51.0518 51.1313C51.0518 50.4863 50.5289 49.9635 49.8839 49.9635C49.239 49.9635 48.7161 50.4863 48.7161 51.1313C48.7161 51.7763 49.239 52.2992 49.8839 52.2992Z" fill="#002D72"/>
<path d="M57.8359 52.2953C58.4809 52.2953 59.0037 51.7725 59.0037 51.1275C59.0037 50.4825 58.4809 49.9596 57.8359 49.9596C57.1909 49.9596 56.668 50.4825 56.668 51.1275C56.668 51.7725 57.1909 52.2953 57.8359 52.2953Z" fill="#002D72"/>
<path d="M55.4564 55.282H51.9464C51.4076 55.282 50.9719 55.719 50.9719 56.2565C50.9719 56.794 51.4088 57.231 51.9464 57.231H55.4564C55.9952 57.231 56.4309 56.794 56.4309 56.2565C56.4309 55.719 55.9939 55.282 55.4564 55.282Z" fill="#002D72"/>
<path d="M91.1622 37.4072H88.2168V34.9503H92.0207C92.5595 34.9503 92.9952 34.5133 92.9952 33.9758C92.9952 33.4383 92.5608 33 92.0219 33H41.9127C41.3751 33 40.9382 33.437 40.9382 33.9745C40.9382 34.512 41.3751 34.949 41.9127 34.949H86.2678V37.4072H83.3224C82.3105 37.4072 81.4881 38.2295 81.4881 39.2414V47.7245C81.51 48.6719 81.6918 49.6554 82.3221 50.706C82.848 51.5709 83.5956 52.2863 84.4851 52.7735L83.8483 53.797C82.8983 55.3232 82.8106 57.2696 83.6175 58.8758L86.2652 64.144C86.9058 65.4188 86.6287 66.9888 85.591 67.9659L80.7443 72.3512V53.5521C80.7443 52.0504 79.5223 50.8297 78.0219 50.8297H75.2041C75.1306 50.3528 75.0224 49.8823 74.8767 49.4221C74.7504 49.0225 74.7311 48.5933 74.82 48.1808L75.5393 44.8461C75.6759 44.2119 75.4838 43.5596 75.025 43.1007C74.5661 42.6419 73.9138 42.4498 73.2796 42.5864C72.269 42.7192 69.7954 43.597 68.7655 43.218C68.3814 43.0904 67.9843 42.9873 67.5886 42.91C67.0601 42.8081 66.5484 43.1523 66.4452 43.6808C66.3421 44.2093 66.6876 44.721 67.2161 44.8242C67.5306 44.886 67.8464 44.9685 68.1519 45.0691C68.8905 45.314 69.6845 45.3565 70.4502 45.1915L73.6173 44.5084L72.9148 47.7683C72.5488 49.1656 73.3931 50.6724 73.366 52.2876V62.3716C73.366 63.1566 73.2461 63.9313 73.0115 64.6725C72.9367 64.9084 72.8839 65.1507 72.8504 65.3956C70.6539 63.4505 67.7678 62.2684 64.6097 62.2684H60.4268V61.3107C61.7829 60.0011 62.7535 58.2854 63.1338 56.3428C64.5427 55.8698 65.7389 54.4274 66.1836 53.0623C66.8539 50.9999 65.9077 48.8356 64.0735 48.2388C63.8737 48.1743 63.6094 48.1163 63.3142 48.1202V43.4759C63.3142 40.6452 61.0107 38.3417 58.1801 38.3417H49.5282C46.9488 38.3417 44.8091 40.2533 44.4482 42.7334H41.9449C40.5656 42.5929 39.1722 43.4282 37.6679 43.2851L34.426 42.5864C33.7918 42.4498 33.1396 42.6419 32.682 43.1007C32.2231 43.5596 32.031 44.2119 32.1677 44.8461L32.8869 48.1808C32.9759 48.592 32.9566 49.0212 32.8302 49.4221C32.6859 49.8823 32.5763 50.3528 32.5028 50.8297H30.0292V37.0501C30.0292 35.8913 30.9715 34.949 32.1303 34.949H37.4307C37.9695 34.949 38.4052 34.512 38.4052 33.9745C38.4052 33.437 37.9683 33 37.4307 33H32.1303C29.8938 33 28.0763 34.8175 28.0763 37.0501V51.3878C27.4228 51.8854 27 52.6691 27 53.5521L27.0245 85.2516C27.0245 86.1913 27.7889 86.957 28.7299 86.957H79.0261C79.9658 86.957 80.7314 86.1926 80.7314 85.2516L80.7469 74.9807L86.9084 69.407C86.9084 69.407 86.9174 69.3993 86.9213 69.3954C88.5893 67.8319 89.0379 65.3131 88.0105 63.27L85.3629 58.0018C84.8589 56.9977 84.913 55.7821 85.5073 54.8282L86.3864 53.4155C86.6661 53.458 86.9535 53.4799 87.2448 53.4799C89.3266 53.4799 91.1544 52.3688 92.165 50.7072C92.5363 50.1594 93.0248 48.8343 92.999 47.7257V39.2414C92.999 38.2295 92.1766 37.4072 91.1647 37.4072H91.1622ZM78.7953 53.5521V74.1145L77.7293 75.0787C77.5063 74.8776 77.282 74.6817 77.0526 74.4909C77.0113 72.1526 76.3217 69.9716 75.1564 68.1167C75.0134 67.2686 74.5789 66.209 74.869 65.2641C75.1655 64.3309 75.315 63.359 75.315 62.3729V52.78H78.0219C78.4486 52.78 78.7953 53.1267 78.7953 53.5534V53.5521ZM49.2291 62.7621C50.6019 63.533 52.181 63.97 53.8528 63.97C55.5247 63.97 57.1037 63.5317 58.4765 62.7621V64.532C58.4765 64.9728 58.1169 65.3324 57.6761 65.3324H50.0296C49.5888 65.3324 49.2291 64.9728 49.2291 64.532V62.7621ZM63.4689 50.095C64.281 50.3592 64.6664 51.4201 64.3287 52.4603C63.9974 53.4799 62.9559 54.5163 62.2263 54.5524C61.7519 54.5756 61.3639 54.9391 61.3072 55.4109C60.8574 59.1787 57.6529 62.021 53.8528 62.021C50.0528 62.021 46.8483 59.18 46.3984 55.4109C46.3417 54.9391 45.9537 54.5769 45.4794 54.5524C44.7498 54.515 43.7083 53.4786 43.377 52.4603C43.0393 51.4201 43.4247 50.3579 44.2368 50.095C44.278 50.0821 44.3102 50.0718 44.3399 50.0718C44.403 50.0718 44.4598 50.1169 44.5732 50.2767C44.8194 50.6222 45.2602 50.7691 45.6637 50.6402C46.1664 50.4971 46.4384 49.7869 46.3417 49.1102C46.3417 47.0451 48.0226 45.3643 50.0876 45.3643H57.6168C59.6818 45.3643 61.3626 47.0451 61.3626 49.1102C61.3407 49.6296 61.3021 50.3218 62.0407 50.6402C62.4441 50.7704 62.885 50.6222 63.1312 50.2767C63.2988 50.0408 63.3413 50.055 63.4676 50.095H63.4689ZM46.3417 43.4784C46.3417 41.7228 47.77 40.2933 49.5269 40.2933H58.1788C59.9344 40.2933 61.3639 41.7215 61.3639 43.4784V44.8242C60.3624 43.9476 59.0514 43.414 57.618 43.414H50.0889C48.6555 43.414 47.3446 43.9476 46.343 44.8242V43.4784H46.3417ZM37.2541 45.1941C38.0198 45.3591 38.8139 45.3166 39.5525 45.0717C40.322 44.8164 41.1264 44.6862 41.9423 44.6862H44.3914V48.1241C44.0962 48.1202 43.832 48.1769 43.6322 48.2426C41.7979 48.8395 40.8505 51.0024 41.5221 53.0661C41.9655 54.4312 43.163 55.8736 44.5719 56.3467C44.9534 58.2892 45.9228 60.0049 47.2788 61.3146V62.2723H43.096C39.9379 62.2723 37.0518 63.4543 34.8553 65.3995C34.8218 65.1546 34.7689 64.9122 34.6941 64.6763C34.4583 63.9339 34.3397 63.1604 34.3397 62.3754V52.2914C34.2572 50.8967 35.1518 49.377 34.7908 47.7721L34.0883 44.5122L37.2554 45.1954L37.2541 45.1941ZM28.9503 53.5534C28.9503 53.1267 29.297 52.78 29.7237 52.78H32.3907V62.3729C32.3907 63.359 32.5415 64.3309 32.8367 65.2641C33.1319 65.8584 32.6833 67.4735 32.5492 68.1167C31.3827 69.9742 30.693 72.1591 30.6531 74.4999C30.2638 74.8235 29.8835 75.1625 29.5162 75.5144C29.3164 75.7052 29.1282 75.9063 28.9503 76.1151V53.5521V53.5534ZM78.7812 85.008H28.9735V81.3575C28.9735 79.6908 29.6618 78.0744 30.8632 76.9246C33.5585 74.3427 36.9074 72.5999 40.5476 71.8832C41.0761 71.7788 41.4202 71.2671 41.3158 70.7386C41.2114 70.2101 40.6997 69.8659 40.1712 69.9703C37.5158 70.4924 35.0048 71.5146 32.7477 72.9686C33.5843 68.011 37.9051 64.2226 43.096 64.2226H47.2788V64.5358C47.2788 66.0517 48.5124 67.2853 50.0283 67.2853H57.6748C59.1907 67.2853 60.4242 66.0517 60.4242 64.5358V64.2226H64.6071C69.7941 64.2226 74.111 68.0046 74.9528 72.9557C71.5278 70.7515 67.5358 69.5669 63.3812 69.5669H44.9058C44.3669 69.5669 43.9313 70.0038 43.9313 70.5414C43.9313 71.0789 44.3682 71.5159 44.9058 71.5159H63.3812C67.8064 71.5159 72.0267 72.9918 75.4542 75.7078C75.4632 75.7155 75.4722 75.7219 75.4826 75.7297C75.9724 76.1189 76.4454 76.534 76.9018 76.9736C78.0954 78.1247 78.7812 79.7372 78.7812 81.3962V85.0093V85.008ZM91.0474 39.3574V42.0463H83.4397V39.3574H91.0474ZM90.7484 49.2042C90.3707 50.3167 88.7259 51.6108 87.2436 51.5296C85.1463 51.5296 83.4397 49.823 83.4397 47.7257V43.9979H91.0474V47.7257C90.992 48.2478 91.0732 48.329 90.7484 49.2055V49.2042Z" fill="#002D72"/>
</svg>
