<svg width="120" height="120" viewBox="0 0 120 120" fill="none" xmlns="http://www.w3.org/2000/svg">
<circle opacity="0.2" cx="60" cy="60" r="60" fill="#717C7D"/>
<path d="M57.0996 42.2756V46.1428C57.0996 47.1028 57.8798 47.883 58.8399 47.883H61.1602C62.1193 47.883 62.9004 47.1028 62.9004 46.1428V42.2756H66.7677C67.7267 42.2756 68.5079 41.4954 68.5079 40.5353V38.215C68.5079 37.2549 67.7267 36.4747 66.7677 36.4747H62.9004V32.6075C62.9004 31.6475 62.1193 30.8672 61.1602 30.8672H58.8399C57.8798 30.8672 57.0996 31.6475 57.0996 32.6075V36.4747H53.2324C52.2723 36.4747 51.4921 37.2549 51.4921 38.215V40.5353C51.4921 41.4954 52.2723 42.2756 53.2324 42.2756H57.0996ZM53.4257 38.4083H57.6797C58.4261 38.4083 59.0332 37.8012 59.0332 37.0548V32.8009H60.9668V37.0548C60.9668 37.8012 61.574 38.4083 62.3204 38.4083H66.5743V40.342H62.3204C61.574 40.342 60.9668 40.9491 60.9668 41.6955V45.9494H59.0332V41.6955C59.0332 40.9491 58.4261 40.342 57.6797 40.342H53.4257V38.4083Z" fill="#002D72"/>
<path d="M63.8673 84.5105C64.4009 84.5105 64.8341 84.0773 64.8341 83.5437V81.5646C64.8341 81.0309 64.4009 80.5978 63.8673 80.5978C63.3336 80.5978 62.9005 81.0309 62.9005 81.5646V83.5437C62.9005 84.0773 63.3336 84.5105 63.8673 84.5105Z" fill="#002D72"/>
<path d="M56.1328 84.5105C56.6664 84.5105 57.0996 84.0773 57.0996 83.5437V81.5646C57.0996 81.0309 56.6664 80.5978 56.1328 80.5978C55.5991 80.5978 55.166 81.0309 55.166 81.5646V83.5437C55.166 84.0773 55.5991 84.5105 56.1328 84.5105Z" fill="#002D72"/>
<path d="M56.069 55.6175H47.5234C46.427 55.6175 45.5298 56.5098 45.525 57.6062L45.5037 62.3667C45.5008 62.9023 45.7077 63.4061 46.0857 63.786C46.4637 64.166 46.9665 64.3748 47.5021 64.3748H56.0699C57.1721 64.3748 58.0683 63.4786 58.0683 62.3764V57.6159C58.0683 56.5137 57.1721 55.6175 56.0699 55.6175H56.069ZM56.1337 62.3764C56.1337 62.4122 56.1047 62.4412 56.069 62.4412H47.5011C47.4943 62.4412 47.474 62.4412 47.4557 62.4218C47.4373 62.4025 47.4373 62.3832 47.4373 62.3764L47.4586 57.6159C47.4586 57.5801 47.4876 57.552 47.5234 57.552H56.069C56.1047 57.552 56.1337 57.581 56.1337 57.6168V62.3774V62.3764Z" fill="#002D72"/>
<path d="M72.4689 55.6175H63.932C62.8298 55.6175 61.9336 56.5137 61.9336 57.6159V62.3764C61.9336 63.4786 62.8298 64.3748 63.932 64.3748H72.4466C73.543 64.3748 74.4402 63.4824 74.445 62.3861L74.4663 57.6255C74.4692 57.0899 74.2623 56.5862 73.8843 56.2072C73.5063 55.8273 73.0035 55.6184 72.4679 55.6184L72.4689 55.6175ZM72.5114 62.3764C72.5114 62.4122 72.4824 62.4402 72.4466 62.4402H63.932C63.8962 62.4402 63.8672 62.4112 63.8672 62.3754V57.6149C63.8672 57.5791 63.8962 57.5501 63.932 57.5501H72.4689C72.4756 57.5501 72.496 57.5501 72.5143 57.5694C72.5327 57.5888 72.5327 57.6081 72.5327 57.6149L72.5114 62.3754V62.3764Z" fill="#002D72"/>
<path d="M88.1669 47.4499H83.7873C83.2536 47.4499 82.8205 47.883 82.8205 48.4167C82.8205 48.9504 83.2536 49.3835 83.7873 49.3835H88.1669C89.766 49.3835 91.0674 50.6848 91.0674 52.2839V91.0016C91.0674 91.0374 91.0384 91.0664 91.0026 91.0664H80.2411V87.1992H85.1795C86.2759 87.1992 87.1731 86.3068 87.1779 85.2104L87.1992 80.4499C87.2021 79.9143 86.9952 79.4106 86.6172 79.0306C86.2391 78.6516 85.7364 78.4418 85.2008 78.4418H80.2401V74.6307H85.1785C86.2749 74.6307 87.1721 73.7383 87.1769 72.642L87.1982 67.8814C87.2011 67.3458 86.9942 66.8421 86.6162 66.4631C86.2382 66.0841 85.7354 65.8743 85.1998 65.8743H80.2391V62.0071H85.1776C86.2739 62.0071 87.1711 61.1147 87.176 60.0184L87.1972 55.2578C87.2001 54.7222 86.9932 54.2185 86.6152 53.8395C86.2372 53.4596 85.7345 53.2507 85.1988 53.2507H80.2382V43.2423C80.2382 40.5769 78.0696 38.4083 75.4041 38.4083H72.3345C71.8434 32.0351 66.4989 27 60 27C53.5011 27 48.1576 32.0351 47.6626 38.4083H44.5311C41.8656 38.4083 39.6971 40.5769 39.6971 43.2423V47.4499H31.834C29.1685 47.4499 27 49.6184 27 52.2839V91.0016C27 92.1038 27.8962 93 28.9984 93H40.6629C40.6629 93 40.6639 93 40.6648 93H79.2752C79.2752 93 79.2762 93 79.2772 93H91.0036C92.1057 93 93.0019 92.1038 93.0019 91.0016V52.2839C93.0019 49.6184 90.8334 47.4499 88.1679 47.4499H88.1669ZM85.2017 80.3764C85.2085 80.3764 85.2288 80.3764 85.2472 80.3957C85.2656 80.4151 85.2656 80.4354 85.2656 80.4412L85.2443 85.2017C85.2443 85.2375 85.2153 85.2655 85.1795 85.2655H80.2411V80.3764H85.2017ZM85.2017 67.8089C85.2085 67.8089 85.2288 67.8089 85.2472 67.8282C85.2656 67.8476 85.2656 67.8669 85.2656 67.8737L85.2443 72.6342C85.2443 72.67 85.2153 72.698 85.1795 72.698H80.2411V67.8089H85.2017ZM85.2017 55.1853C85.2085 55.1853 85.2288 55.1853 85.2472 55.2046C85.2656 55.224 85.2656 55.2433 85.2656 55.2501L85.2443 60.0106C85.2443 60.0464 85.2153 60.0744 85.1795 60.0744H80.2411V55.1853H85.2017ZM60 28.9336C65.7573 28.9336 70.4415 33.6178 70.4415 39.3751C70.4415 45.1325 65.7573 49.8166 60 49.8166C54.2427 49.8166 49.5585 45.1325 49.5585 39.3751C49.5585 33.6178 54.2427 28.9336 60 28.9336ZM39.6971 60.0735H34.8205C34.7847 60.0735 34.7557 60.0454 34.7557 60.0097L34.7335 55.2491C34.7335 55.2423 34.7335 55.222 34.7528 55.2027C34.7722 55.1834 34.7915 55.1834 34.7983 55.1834H39.6971V60.0725V60.0735ZM39.6971 72.6971H34.8205C34.7847 72.6971 34.7557 72.669 34.7557 72.6333L34.7335 67.8727C34.7335 67.8659 34.7335 67.8456 34.7528 67.8263C34.7722 67.807 34.7915 67.807 34.7983 67.807H39.6971V72.6961V72.6971ZM39.6971 85.2655H34.8205C34.7847 85.2655 34.7557 85.2375 34.7557 85.2017L34.7335 80.4412C34.7335 80.4344 34.7335 80.4141 34.7519 80.3948C34.7702 80.3754 34.7905 80.3754 34.7973 80.3754H39.6961V85.2646L39.6971 85.2655ZM28.9336 91.0016V52.2839C28.9336 50.6848 30.2349 49.3835 31.834 49.3835H39.6971V53.2498H34.7983C34.2636 53.2498 33.7599 53.4586 33.3829 53.8385C33.0048 54.2185 32.7979 54.7222 32.8008 55.2578L32.8231 60.0184C32.8279 61.1147 33.7241 62.0071 34.8215 62.0071H39.698V65.8743H34.7992C34.2636 65.8743 33.7609 66.0831 33.3838 66.4631C33.0058 66.8431 32.7989 67.3468 32.8018 67.8824L32.824 72.6429C32.8289 73.7393 33.7251 74.6316 34.8224 74.6316H39.699V78.4438H34.8002C34.2646 78.4438 33.7618 78.6526 33.3838 79.0326C33.0058 79.4115 32.7999 79.9162 32.8018 80.4518L32.824 85.2124C32.8289 86.3087 33.7251 87.2011 34.8224 87.2011H39.699V91.0683H28.9984C28.9626 91.0683 28.9336 91.0393 28.9336 91.0035V91.0016ZM49.427 72.1073V70.1737H70.574V72.1073H49.427ZM68.6404 74.0409V91.0664H60.9668V74.0409H68.6404ZM78.3074 91.0664H70.574V74.0409H70.7673C71.7264 74.0409 72.5076 73.2598 72.5076 72.3007V69.9803C72.5076 69.0213 71.7264 68.2401 70.7673 68.2401H49.2336C48.2736 68.2401 47.4934 69.0213 47.4934 69.9803V72.3007C47.4934 73.2598 48.2736 74.0409 49.2336 74.0409H49.427V80.8869C49.427 81.4206 49.8601 81.8537 50.3938 81.8537C50.9275 81.8537 51.3606 81.4206 51.3606 80.8869V74.0409H59.0342V91.0664H51.3606V85.399C51.3606 84.8653 50.9275 84.4322 50.3938 84.4322C49.8601 84.4322 49.427 84.8653 49.427 85.399V91.0664H41.6316V48.7531C41.6703 48.6487 41.6926 48.5356 41.6926 48.4167C41.6926 48.2978 41.6703 48.1856 41.6316 48.0802V43.2414C41.6316 41.6423 42.933 40.341 44.5321 40.341H47.6636C48.1586 46.7141 53.5031 51.7493 60.001 51.7493C66.4989 51.7493 71.8434 46.7141 72.3384 40.341H75.408C77.0071 40.341 78.3084 41.6423 78.3084 43.2414V91.0664H78.3074Z" fill="#002D72"/>
</svg>
