<svg width="45" height="60" viewBox="0 0 45 60" fill="none" xmlns="http://www.w3.org/2000/svg">
<path d="M22.5 0C10.091 0 0 10.091 0 22.5C0 38.0965 20.3098 58.5867 21.1723 59.4527C21.5402 59.816 22.0195 60 22.5 60C22.9805 60 23.4598 59.816 23.8277 59.4527C24.6902 58.5867 45 38.0965 45 22.5C45 10.091 34.909 0 22.5 0ZM22.5 55.4133C18.0223 50.6203 3.75 34.4133 3.75 22.5C3.75 12.1617 12.1617 3.75 22.5 3.75C32.8383 3.75 41.25 12.1617 41.25 22.5C41.25 34.4027 26.9777 50.6215 22.5 55.4133Z" fill="#002D72"/>
<path d="M22.5 11.25C16.2973 11.25 11.25 16.2973 11.25 22.5C11.25 28.7027 16.2973 33.75 22.5 33.75C28.7027 33.75 33.75 28.7027 33.75 22.5C33.75 16.2973 28.7027 11.25 22.5 11.25ZM22.5 30C18.3633 30 15 26.6367 15 22.5C15 18.3633 18.3633 15 22.5 15C26.6367 15 30 18.3633 30 22.5C30 26.6367 26.6367 30 22.5 30Z" fill="#E40046"/>
</svg>
