<svg width="120" height="120" viewBox="0 0 120 120" fill="none" xmlns="http://www.w3.org/2000/svg">
<circle opacity="0.2" cx="60" cy="60" r="60" fill="#717C7D"/>
<path d="M76.8775 77.4015L67.4237 73.3527C66.6377 73.0163 66.1302 72.2468 66.1302 71.3922V67.5967C69.5689 65.6178 71.9684 62.0292 72.2922 57.8664H72.9129C73.9144 57.8664 74.8735 57.44 75.5463 56.6976C76.2182 55.9551 76.545 54.9555 76.4454 53.953C76.3642 53.1419 75.9862 52.411 75.4216 51.8542C75.4264 51.8145 75.4303 51.7739 75.4303 51.7333V48.633C75.4303 43.5817 72.9912 39.0902 69.2286 36.2731C69.2286 36.2595 69.2305 36.247 69.2305 36.2334C69.2305 31.1425 65.089 27 59.9971 27C54.9052 27 50.7637 31.1416 50.7637 36.2334C50.7637 36.2441 50.7646 36.2547 50.7656 36.2653C50.3112 36.6047 49.8733 36.9701 49.4547 37.3626C46.6009 40.0337 44.8771 43.6445 44.6036 47.5318C44.5658 48.0645 44.967 48.5266 45.4997 48.5643C46.0314 48.602 46.4945 48.2008 46.5322 47.6681C46.772 44.269 48.2791 41.1107 50.7762 38.774C53.285 36.4268 56.5593 35.1342 59.9971 35.1342C67.4411 35.1342 73.4958 41.1899 73.4958 48.633V50.8381C73.259 50.7917 73.0144 50.7666 72.765 50.7666H71.3632C70.757 50.7666 70.263 50.2735 70.263 49.6664V48.9849C70.263 46.8957 69.0807 45.0763 67.3492 44.1617C68.2396 43.6339 68.751 43.2733 68.8245 43.2201C69.2586 42.9098 69.3601 42.3056 69.0497 41.8715C68.7394 41.4374 68.1352 41.3359 67.7011 41.6472C67.6354 41.6936 61.0315 46.3466 51.599 47.5579C50.5336 47.6952 49.7302 48.6001 49.7302 49.6674C49.7302 50.2735 49.2372 50.7675 48.6301 50.7675H47.0804C46.0788 50.7675 45.1198 51.1939 44.4479 51.9363C43.776 52.6788 43.4483 53.6784 43.5488 54.68C43.7277 56.4675 45.3441 57.8673 47.2283 57.8673H47.701C47.9263 60.7976 49.1763 63.5209 51.2761 65.6207C52.0591 66.4038 52.9292 67.0679 53.8631 67.6054V71.3931C53.8631 72.2478 53.3555 73.0173 52.5696 73.3537L43.1157 77.4025C40.8564 78.3702 39.3966 80.5831 39.3966 83.0405V92.0323C39.3966 92.5659 39.8297 92.999 40.3634 92.999C40.897 92.999 41.3301 92.5659 41.3301 92.0323V83.0405C41.3301 81.3574 42.3298 79.8425 43.8766 79.1803L49.7293 76.6735V82.7998H46.5632C44.8907 82.7998 43.5295 84.161 43.5295 85.8335V89.9663C43.5295 91.6388 44.8907 93 46.5632 93C47.0968 93 47.5299 92.5669 47.5299 92.0332C47.5299 91.4996 47.0968 91.0665 46.5632 91.0665C45.957 91.0665 45.463 90.5735 45.463 89.9663V85.8335C45.463 85.2273 45.956 84.7333 46.5632 84.7333H54.8298C55.436 84.7333 55.93 85.2264 55.93 85.8335V89.9663C55.93 90.5725 55.4369 91.0665 54.8298 91.0665C54.2962 91.0665 53.8631 91.4996 53.8631 92.0332C53.8631 92.5669 54.2962 93 54.8298 93C56.5023 93 57.8635 91.6388 57.8635 89.9663V85.8335C57.8635 84.161 56.5023 82.7998 54.8298 82.7998H51.6637V77.3068L58.314 81.7403C58.8254 82.0806 59.4113 82.2517 59.9961 82.2517C60.581 82.2517 61.1678 82.0815 61.6793 81.7403L68.3295 77.3068V84.9837C66.5526 85.4188 65.2292 87.0236 65.2292 88.9329C65.2292 91.1757 67.0534 93 69.2963 93C71.5391 93 73.3624 91.1757 73.3624 88.9329C73.3624 87.0236 72.0399 85.4188 70.263 84.9837V76.6745L76.1157 79.1813C77.6625 79.8435 78.6621 81.3594 78.6621 83.0415V92.0332C78.6621 92.5669 79.0952 93 79.6289 93C80.1625 93 80.5956 92.5669 80.5956 92.0332V83.0415C80.5956 80.584 79.1359 78.3711 76.8766 77.4034L76.8775 77.4015ZM52.8093 34.9738C53.4087 31.5476 56.4027 28.9345 59.9981 28.9345C63.5934 28.9345 66.5923 31.5515 67.1878 34.9815C65.0397 33.8456 62.5928 33.2007 59.9981 33.2007C57.4033 33.2007 55.0048 33.8166 52.8093 34.9738ZM49.5987 56.8996C49.5987 56.6434 49.4972 56.3969 49.3155 56.2161C49.1337 56.0354 48.8882 55.9329 48.632 55.9329H47.2292C46.3263 55.9329 45.5548 55.2977 45.4736 54.4866C45.4272 54.0207 45.5722 53.5759 45.8826 53.2328C46.189 52.8944 46.626 52.7001 47.0813 52.7001H48.631C50.3035 52.7001 51.6647 51.3389 51.6647 49.6625C51.6647 49.5678 51.7411 49.4885 51.8455 49.475C57.3811 48.7644 61.9422 46.9595 64.9391 45.4688C66.8204 45.5355 68.3305 47.0871 68.3305 48.9839V49.6654C68.3305 51.3379 69.6917 52.6991 71.3641 52.6991H72.7659C73.6689 52.6991 74.4403 53.3343 74.5216 54.1454C74.568 54.6113 74.4229 55.057 74.1126 55.3992C73.8062 55.7376 73.3692 55.9319 72.9129 55.9319H71.3632C70.8295 55.9319 70.3964 56.365 70.3964 56.8987C70.3964 62.6325 65.7309 67.298 59.9971 67.298C57.2196 67.298 54.6075 66.2162 52.644 64.2518C50.6796 62.2873 49.5978 59.6761 49.5978 56.8987L49.5987 56.8996ZM60.6081 80.1297C60.2378 80.3771 59.7583 80.3771 59.3881 80.1297L52.4536 75.5067L53.3333 75.1296C54.8308 74.4887 55.7985 73.0212 55.7985 71.3912V68.5016C57.1268 68.9821 58.5431 69.2325 59.9981 69.2325C61.453 69.2325 62.8858 68.9714 64.1976 68.4948V71.3912C64.1976 73.0202 65.1653 74.4877 66.6628 75.1296L67.5426 75.5067L60.6081 80.1297ZM71.4309 88.9309C71.4309 90.1075 70.4738 91.0646 69.2982 91.0646C68.1226 91.0646 67.1646 90.1075 67.1646 88.9309C67.1646 87.7544 68.1217 86.7983 69.2982 86.7983C70.4747 86.7983 71.4309 87.7554 71.4309 88.9309Z" fill="#002D72"/>
<path d="M54.8308 52.8325C54.2972 52.8325 53.8641 53.2656 53.8641 53.7993V54.8327C53.8641 55.3664 54.2972 55.7995 54.8308 55.7995C55.3645 55.7995 55.7976 55.3664 55.7976 54.8327V53.7993C55.7976 53.2656 55.3645 52.8325 54.8308 52.8325Z" fill="#002D72"/>
<path d="M65.1634 55.7995C65.6971 55.7995 66.1302 55.3664 66.1302 54.8327V53.7993C66.1302 53.2656 65.6971 52.8325 65.1634 52.8325C64.6298 52.8325 64.1967 53.2656 64.1967 53.7993V54.8327C64.1967 55.3664 64.6298 55.7995 65.1634 55.7995Z" fill="#002D72"/>
<path d="M63.8438 59.3842C63.5045 58.9723 62.8945 58.9134 62.4826 59.2527C61.8562 59.7689 60.9503 60.0657 59.9981 60.0657C59.0458 60.0657 58.14 59.7699 57.5126 59.2527C57.1007 58.9134 56.4907 58.9714 56.1514 59.3842C55.812 59.796 55.8701 60.4051 56.2829 60.7454C57.2641 61.5545 58.5837 61.9992 59.9981 61.9992C61.4124 61.9992 62.732 61.5536 63.7133 60.7454C64.1251 60.406 64.1841 59.796 63.8448 59.3842H63.8438Z" fill="#002D72"/>
<path d="M90.9215 74.1107L86.8418 72.7504C86.8148 72.7417 86.7964 72.7156 86.7964 72.6876V70.029C88.667 68.7346 89.8958 66.5749 89.8958 64.1328V61.0334C89.8958 58.2212 87.6075 55.9338 84.7962 55.9338H80.6633C77.851 55.9338 75.5637 58.2221 75.5637 61.0334V64.1328C75.5637 66.5749 76.7925 68.7346 78.6641 70.029V72.6876C78.6641 72.7166 78.6457 72.7417 78.6187 72.7504L77.2584 73.2039C76.7519 73.373 76.4783 73.9202 76.6474 74.4268C76.7828 74.8319 77.1598 75.088 77.5649 75.088C77.6664 75.088 77.7689 75.0716 77.8704 75.0378L78.7414 74.7478L81.5315 76.8398C81.8843 77.1047 82.3078 77.2371 82.7312 77.2371C83.1546 77.2371 83.5781 77.1047 83.9309 76.8398L85.8973 75.3655V79.857C84.6976 80.2621 83.8304 81.3971 83.8304 82.7312C83.8304 84.4036 85.1916 85.7648 86.8641 85.7648C88.5365 85.7648 89.8977 84.4036 89.8977 82.7312C89.8977 81.3971 89.0305 80.2611 87.8308 79.857V75.118L90.3115 75.9446C90.761 76.0944 91.0636 76.514 91.0636 76.9877V84.7981C91.0636 85.3317 91.4967 85.7648 92.0304 85.7648C92.564 85.7648 92.9971 85.3317 92.9971 84.7981V76.9877C92.9971 75.6797 92.1638 74.5235 90.9225 74.1097L90.9215 74.1107ZM77.4963 64.1328V61.0334C77.4963 59.2875 78.9164 57.8673 80.6624 57.8673H84.7952C86.5412 57.8673 87.9613 59.2875 87.9613 61.0334V64.1328C87.9613 67.0186 85.6141 69.3659 82.7283 69.3659C79.8426 69.3659 77.4953 67.0186 77.4953 64.1328H77.4963ZM82.7689 75.294C82.7457 75.3114 82.7128 75.3114 82.6887 75.294L80.3897 73.5703C80.5222 73.3015 80.5957 73.0018 80.5957 72.6876V70.9755C81.2695 71.1862 81.9858 71.2994 82.7283 71.2994C83.4708 71.2994 84.1871 71.1853 84.861 70.9755V72.6876C84.861 73.0008 84.9344 73.3015 85.0669 73.5703L82.7679 75.294H82.7689ZM86.8621 83.8313C86.256 83.8313 85.762 83.3383 85.762 82.7312C85.762 82.1241 86.255 81.631 86.8621 81.631C87.4692 81.631 87.9623 82.1241 87.9623 82.7312C87.9623 83.3383 87.4692 83.8313 86.8621 83.8313Z" fill="#002D72"/>
<path d="M36.0652 76.8398C36.4181 77.1047 36.8415 77.2372 37.2649 77.2372C37.6884 77.2372 38.1118 77.1047 38.4647 76.8398L41.2547 74.7478L42.1258 75.0378C42.2273 75.0716 42.3307 75.0881 42.4313 75.0881C42.8363 75.0881 43.2134 74.8319 43.3487 74.4268C43.5179 73.9202 43.2443 73.3731 42.7377 73.2039L41.3775 72.7505C41.3504 72.7418 41.3321 72.7157 41.3321 72.6876V70.0291C43.2027 68.7346 44.4324 66.5749 44.4324 64.1329V60C44.4324 57.7581 42.6082 55.9329 40.3653 55.9329H34.1655C31.9237 55.9329 30.0994 57.7571 30.0994 60V64.1329C30.0994 66.5749 31.3281 68.7346 33.1988 70.0291V72.6876C33.1988 72.7166 33.1804 72.7418 33.1534 72.7505L29.0737 74.1107C27.8333 74.5245 27 75.6807 27 76.9887V84.7991C27 85.3327 27.4331 85.7658 27.9667 85.7658C28.5004 85.7658 28.9335 85.3327 28.9335 84.7991V76.9887C28.9335 76.515 29.2361 76.0954 29.6856 75.9456L33.1998 74.7739V79.6985H32.0996C30.9965 79.6985 30.0994 80.5956 30.0994 81.6987V83.7656C30.0994 84.8687 30.9965 85.7658 32.0996 85.7658C32.6333 85.7658 33.0664 85.3327 33.0664 84.7991C33.0664 84.2654 32.6333 83.8323 32.0996 83.8323C32.0629 83.8323 32.0329 83.8023 32.0329 83.7656V81.6987C32.0329 81.662 32.0629 81.632 32.0996 81.632H36.2325C36.2692 81.632 36.2992 81.662 36.2992 81.6987V83.7656C36.2992 83.8023 36.2692 83.8323 36.2325 83.8323C35.6988 83.8323 35.2657 84.2654 35.2657 84.7991C35.2657 85.3327 35.6988 85.7658 36.2325 85.7658C37.3355 85.7658 38.2327 84.8687 38.2327 83.7656V81.6987C38.2327 80.5956 37.3355 79.6985 36.2325 79.6985H35.1323V76.1409L36.0652 76.8408V76.8398ZM34.1655 57.8654H40.3653C41.5418 57.8654 42.4989 58.8225 42.4989 59.999V62.0921C39.3986 61.833 37.2234 60.3935 36.3833 59.74C35.6756 59.1889 34.6789 59.1812 33.9596 59.7206L32.0329 61.1659V59.999C32.0329 58.8225 32.99 57.8654 34.1655 57.8654ZM32.0329 64.1319V63.5818L35.1197 61.2665C35.1342 61.2548 35.1642 61.2403 35.1961 61.2665C36.4316 62.2264 38.949 63.7839 42.4989 64.0314V64.1329C42.4989 67.0186 40.1517 69.3659 37.2659 69.3659C34.3802 69.3659 32.0329 67.0186 32.0329 64.1329V64.1319ZM37.2659 71.2984C38.0084 71.2984 38.7247 71.1843 39.3986 70.9745V72.6867C39.3986 72.9999 39.472 73.3006 39.6045 73.5693L37.3056 75.293C37.2823 75.3104 37.2495 75.3104 37.2253 75.293L34.9264 73.5693C35.0579 73.3006 35.1323 73.0009 35.1323 72.6867V70.9745C35.8061 71.1853 36.5225 71.2984 37.2649 71.2984H37.2659Z" fill="#002D72"/>
</svg>
