<svg width="120" height="120" viewBox="0 0 120 120" fill="none" xmlns="http://www.w3.org/2000/svg">
<circle opacity="0.2" cx="60" cy="60" r="60" fill="#717C7D"/>
<path d="M80.2749 49.6475C83.7973 44.261 84.914 38.4684 83.687 36.1615C83.28 35.3967 82.6003 34.9742 81.8123 35.0012C79.778 35.0737 76.2131 35.3754 71.2153 35.8975C70.6845 35.9526 70.2987 36.4283 70.3548 36.9601C70.4099 37.4909 70.8866 37.8767 71.4174 37.8216C76.3707 37.3034 79.8921 37.0046 81.8819 36.934C81.8829 36.934 81.8838 36.934 81.8848 36.934C81.9351 36.9756 82.0685 37.1651 82.1565 37.6215C82.5094 39.4585 81.7504 44.1392 78.2977 49.1254C77.4004 48.9426 76.4809 48.8247 75.5421 48.7773C75.5179 48.7763 75.4937 48.7753 75.4696 48.7744C75.341 48.7686 75.2124 48.7628 75.0828 48.7599C74.9262 48.756 74.7696 48.7541 74.6129 48.7541C74.4679 48.7541 74.3219 48.756 74.1778 48.7599C74.143 48.7599 74.1082 48.7618 74.0734 48.7628C73.9583 48.7657 73.8423 48.7705 73.7273 48.7763C73.6954 48.7782 73.6625 48.7792 73.6306 48.7811C73.3328 48.7966 73.0359 48.8198 72.7401 48.8498C72.7352 48.8498 72.7304 48.8508 72.7256 48.8517C72.5767 48.8672 72.4278 48.8836 72.2798 48.903C72.276 48.903 72.2731 48.903 72.2692 48.9039C69.7225 49.2278 67.2869 50.0797 65.0853 51.4207C65.0844 51.4207 65.0834 51.4217 65.0824 51.4227C64.9683 51.4923 64.8552 51.5628 64.7421 51.6354C64.7169 51.6518 64.6918 51.6673 64.6667 51.6837C64.5758 51.7427 64.4849 51.8026 64.394 51.8635C64.365 51.8829 64.336 51.9022 64.307 51.9216C64.2055 51.9902 64.1049 52.0608 64.0043 52.1314C63.9927 52.1401 63.9802 52.1478 63.9676 52.1565C63.9628 52.1604 63.957 52.1633 63.9521 52.1671C63.9376 52.1778 63.9231 52.1894 63.9077 52.2C63.7694 52.2996 63.6331 52.4011 63.4977 52.5036C63.4484 52.5413 63.3981 52.579 63.3488 52.6177C63.2299 52.7096 63.1119 52.8034 62.9959 52.8991C62.9118 52.9677 62.8286 53.0383 62.7455 53.1079C62.6739 53.1679 62.6033 53.2288 62.5328 53.2897C62.4457 53.3661 62.3587 53.4425 62.2736 53.5198C62.2495 53.5411 62.2263 53.5633 62.2021 53.5856C60.6029 55.0475 59.2812 56.7675 58.2872 58.6839C58.2476 58.7593 58.2099 58.8347 58.1712 58.9111C58.1315 58.9904 58.0909 59.0687 58.0532 59.149C57.9759 59.3085 57.9005 59.47 57.8279 59.6324C57.8096 59.673 57.7922 59.7136 57.7748 59.7542C57.7477 59.8161 57.7197 59.879 57.6926 59.9408C58.2688 58.5524 58.7542 56.93 59.1468 55.0794C59.168 54.9798 59.1893 54.8802 59.2096 54.7796C59.2202 54.7284 59.2309 54.6781 59.2406 54.6269C60.4888 48.435 60.4027 41.5276 60.3215 39.0727C61.5794 38.9219 64.0498 38.6289 66.9098 38.3099C67.4406 38.2509 67.8225 37.7723 67.7636 37.2415C67.7046 36.7107 67.226 36.3278 66.6952 36.3877C63.168 36.7822 60.2326 37.1351 59.4243 37.2337C58.5115 36.9292 55.0211 35.8879 50.4255 36.0164C47.3315 36.1035 44.3748 36.7068 41.6395 37.81C38.2187 39.1897 35.1421 41.3546 32.4958 44.2446C28.8613 48.2146 27.0126 52.9648 27.0001 58.3648C26.9894 62.9672 28.3421 67.1267 29.4782 69.8049C29.9258 70.8607 30.7612 71.6729 31.8277 72.0925C32.3343 72.2917 32.8622 72.3903 33.3901 72.3903C33.9877 72.3903 34.5842 72.2637 35.1479 72.0113C36.7268 71.3045 38.9381 70.7002 41.2799 70.0611C45.7507 68.84 50.8181 67.4564 54.3723 64.7027C55.1642 64.0897 55.8778 63.2708 56.5159 62.2526C56.6397 62.2497 56.7634 62.2459 56.8862 62.241C56.454 63.8025 56.222 65.4453 56.222 67.1421C56.222 77.2818 64.4714 85.5311 74.611 85.5311C84.7506 85.5311 93 77.2818 93 67.1421C93 58.9778 87.6512 52.0395 80.273 49.6465L80.2749 49.6475ZM53.1898 63.1741C49.9392 65.6918 45.069 67.0222 40.7722 68.1951C38.356 68.8545 36.0742 69.4781 34.359 70.2458C33.774 70.5078 33.1262 70.5243 32.5354 70.2922C31.9553 70.064 31.5018 69.6231 31.2592 69.0498C29.0295 63.7958 26.4122 53.7557 33.9229 45.5498C36.3614 42.8861 39.1866 40.8905 42.3212 39.62C44.8331 38.6009 47.5539 38.0401 50.4081 37.9512C50.676 37.9425 50.939 37.9386 51.1981 37.9386C54.5657 37.9386 57.2381 38.598 58.382 38.9345C58.3907 39.1907 58.4003 39.5165 58.4081 39.9014C58.4081 39.9062 58.4081 39.911 58.4081 39.9168C58.409 39.9855 58.411 40.0561 58.4119 40.1286C58.4119 40.1634 58.4129 40.1982 58.4139 40.234C58.4139 40.2746 58.4148 40.3152 58.4158 40.3568C58.4158 40.4032 58.4168 40.4496 58.4177 40.4969C58.4177 40.5231 58.4177 40.5492 58.4187 40.5753C58.4187 40.64 58.4197 40.7058 58.4206 40.7725C58.4206 40.7889 58.4206 40.8054 58.4206 40.8228C58.4206 40.8982 58.4216 40.9756 58.4226 41.0548C58.4226 41.0674 58.4226 41.079 58.4226 41.0916C58.4226 41.1767 58.4226 41.2627 58.4235 41.3517C58.4235 41.3546 58.4235 41.3575 58.4235 41.3613C58.4264 42.6937 58.4003 44.3664 58.2998 46.1986C58.2998 46.2006 58.2998 46.2035 58.2998 46.2054C58.293 46.3253 58.2862 46.4471 58.2785 46.5689C58.2775 46.5912 58.2756 46.6124 58.2746 46.6347C58.2679 46.7391 58.2621 46.8435 58.2553 46.9489C58.2427 47.1365 58.2302 47.3221 58.2166 47.5078C58.2166 47.5136 58.2166 47.5194 58.2157 47.5242C58.1741 48.0898 58.1277 48.6438 58.0745 49.1863C58.0745 49.194 58.0726 49.2027 58.0716 49.2104C57.5727 54.2981 56.5642 58.2836 55.1236 60.8197C55.1178 60.8304 55.113 60.842 55.1072 60.8536C54.5348 61.8523 53.8947 62.6307 53.1889 63.177L53.1898 63.1741ZM57.5534 60.2783C57.5534 60.2783 57.5504 60.2783 57.5495 60.2783C57.5766 60.2154 57.6046 60.1526 57.6317 60.0888C57.6123 60.1352 57.594 60.1806 57.5746 60.227C57.5679 60.2444 57.5601 60.2609 57.5534 60.2773V60.2783ZM74.6129 83.5984C65.5397 83.5984 58.1576 76.2163 58.1576 67.1431C58.1576 65.1755 58.5057 63.2872 59.1419 61.5362C59.1419 61.5362 59.1419 61.5352 59.1419 61.5342C59.17 61.4569 59.199 61.3805 59.228 61.3041C59.2406 61.2713 59.2531 61.2384 59.2657 61.2055C59.2937 61.133 59.3227 61.0595 59.3527 60.988C59.3682 60.9503 59.3836 60.9116 59.3991 60.8739C59.4281 60.8033 59.4581 60.7327 59.4881 60.6631C59.5045 60.6254 59.5209 60.5886 59.5374 60.5509C59.6379 60.3208 59.7443 60.0946 59.8545 59.8703C59.8777 59.8238 59.9 59.7774 59.9232 59.732C59.9531 59.673 59.9841 59.614 60.0141 59.555C60.0392 59.5077 60.0643 59.4593 60.0895 59.4119C60.1204 59.3539 60.1513 59.2969 60.1823 59.2389C60.2084 59.1915 60.2345 59.1451 60.2616 59.0977C60.3389 58.9594 60.4182 58.8231 60.4994 58.6878C60.5052 58.6771 60.511 58.6675 60.5178 58.6568C60.5565 58.593 60.5961 58.5302 60.6348 58.4663C60.657 58.4315 60.6783 58.3958 60.7005 58.361C60.7421 58.2952 60.7846 58.2304 60.8272 58.1647C60.8456 58.1366 60.8639 58.1086 60.8823 58.0806C60.9297 58.009 60.978 57.9375 61.0264 57.8659C61.0302 57.8611 61.0331 57.8553 61.037 57.8504C63.8632 53.7393 68.4645 51.0581 73.5329 50.7226C73.5851 50.7197 73.6373 50.7159 73.6895 50.713C73.7466 50.7101 73.8046 50.7072 73.8626 50.7043C73.9429 50.7004 74.0231 50.6975 74.1043 50.6946C74.1459 50.6936 74.1875 50.6917 74.23 50.6907C74.3567 50.6878 74.4843 50.6859 74.6119 50.6859C74.6264 50.6859 74.641 50.6859 74.6555 50.6859C74.7937 50.6859 74.9329 50.6878 75.0712 50.6917C75.1176 50.6927 75.1631 50.6956 75.2095 50.6965C75.3197 50.7004 75.4309 50.7052 75.5411 50.711C75.5866 50.7139 75.631 50.7168 75.6765 50.7197C75.7915 50.7275 75.9066 50.7352 76.0207 50.7449C76.0584 50.7478 76.0951 50.7516 76.1328 50.7545C76.2624 50.7661 76.392 50.7797 76.5206 50.7951C76.5428 50.798 76.565 50.8 76.5863 50.8029C77.2244 50.8802 77.8568 50.9934 78.4795 51.1442C85.6924 52.8884 91.0662 59.3974 91.0662 67.1392C91.0662 76.2124 83.6841 83.5945 74.611 83.5945L74.6129 83.5984Z" fill="#002D72"/>
<path d="M74.4186 78.2931C76.7227 78.2931 78.5965 76.4183 78.5965 74.1152C78.5965 71.8121 76.7217 69.9373 74.4186 69.9373C72.1155 69.9373 70.2407 71.8121 70.2407 74.1152C70.2407 76.4183 72.1155 78.2931 74.4186 78.2931ZM74.4186 71.8701C75.6562 71.8701 76.6627 72.8767 76.6627 74.1143C76.6627 75.3519 75.6562 76.3584 74.4186 76.3584C73.181 76.3584 72.1745 75.3519 72.1745 74.1143C72.1745 72.8767 73.181 71.8701 74.4186 71.8701Z" fill="#002D72"/>
<path d="M82.2329 67.3887C82.2329 65.8533 80.9837 64.6041 79.4483 64.6041C77.9129 64.6041 76.6637 65.8533 76.6637 67.3887C76.6637 68.9241 77.9129 70.1733 79.4483 70.1733C80.9837 70.1733 82.2329 68.9241 82.2329 67.3887ZM78.5974 67.3887C78.5974 66.9197 78.9793 66.5378 79.4483 66.5378C79.9172 66.5378 80.2991 66.9197 80.2991 67.3887C80.2991 67.8576 79.9172 68.2395 79.4483 68.2395C78.9793 68.2395 78.5974 67.8576 78.5974 67.3887Z" fill="#002D72"/>
<path d="M76.7217 63.6005C76.7217 61.0469 74.6439 58.9691 72.0904 58.9691C69.5368 58.9691 67.459 61.0469 67.459 63.6005C67.459 66.154 69.5368 68.2318 72.0904 68.2318C74.6439 68.2318 76.7217 66.154 76.7217 63.6005ZM69.3928 63.6005C69.3928 62.1134 70.6023 60.9029 72.0904 60.9029C73.5784 60.9029 74.7879 62.1124 74.7879 63.6005C74.7879 65.0885 73.5774 66.298 72.0904 66.298C70.6033 66.298 69.3928 65.0875 69.3928 63.6005Z" fill="#002D72"/>
<path d="M66.76 68.1187C65.3744 68.1187 64.248 69.2451 64.248 70.6306C64.248 72.0161 65.3754 73.1425 66.76 73.1425C68.1445 73.1425 69.2719 72.0152 69.2719 70.6306C69.2719 69.246 68.1455 68.1187 66.76 68.1187ZM66.76 71.2088C66.4409 71.2088 66.1818 70.9497 66.1818 70.6306C66.1818 70.3115 66.4409 70.0524 66.76 70.0524C67.079 70.0524 67.3382 70.3115 67.3382 70.6306C67.3382 70.9497 67.079 71.2088 66.76 71.2088Z" fill="#002D72"/>
<path d="M83.8746 60.3904C83.8746 58.7042 82.5026 57.3332 80.8174 57.3332C79.1321 57.3332 77.7601 58.7052 77.7601 60.3904C77.7601 62.0757 79.1321 63.4477 80.8174 63.4477C82.5026 63.4477 83.8746 62.0767 83.8746 60.3904ZM80.8174 61.5139C80.1976 61.5139 79.6939 61.0102 79.6939 60.3904C79.6939 59.7707 80.1976 59.2669 80.8174 59.2669C81.4371 59.2669 81.9409 59.7707 81.9409 60.3904C81.9409 61.0102 81.4371 61.5139 80.8174 61.5139Z" fill="#002D72"/>
<path d="M81.1809 73.7488C81.4284 73.7488 81.676 73.654 81.8645 73.4655L82.4852 72.8448C82.8633 72.4667 82.8623 71.8547 82.4852 71.4776C82.1082 71.0995 81.4952 71.0995 81.1181 71.4776L80.4973 72.0983C80.1193 72.4764 80.1203 73.0884 80.4973 73.4655C80.6859 73.654 80.9334 73.7488 81.1809 73.7488Z" fill="#002D72"/>
<path d="M88.9788 68.4445C88.4508 68.3604 87.9558 68.721 87.8727 69.2489C87.3795 72.3691 85.7803 75.232 83.3699 77.3117C80.9343 79.4128 77.8249 80.5701 74.6129 80.5701C67.2105 80.5701 61.1878 74.5474 61.1878 67.1441C61.1878 59.7407 67.2105 53.719 74.6129 53.719C77.8249 53.719 80.9343 54.8763 83.3699 56.9774C85.7803 59.0571 87.3795 61.92 87.8727 65.0401C87.9558 65.568 88.4518 65.9277 88.9788 65.8446C89.5067 65.7614 89.8664 65.2664 89.7832 64.7385C89.2185 61.1678 87.3892 57.892 84.6336 55.5135C81.8471 53.1098 78.289 51.7862 74.6139 51.7862C66.145 51.7862 59.2551 58.6762 59.2551 67.145C59.2551 75.6139 66.145 82.5048 74.6139 82.5048C78.289 82.5048 81.848 81.1812 84.6336 78.7775C87.3902 76.4 89.2195 73.1232 89.7832 69.5525C89.8664 69.0246 89.5067 68.5296 88.9788 68.4464V68.4445Z" fill="#002D72"/>
</svg>
