<svg width="164" height="165" viewBox="0 0 164 165" fill="none" xmlns="http://www.w3.org/2000/svg">
<ellipse cx="82" cy="82.5" rx="82" ry="82.5" fill="#002D72"/>
<path d="M157.5 82.5C157.5 124.477 123.694 158.5 82 158.5C40.3056 158.5 6.5 124.477 6.5 82.5C6.5 40.5233 40.3056 6.5 82 6.5C123.694 6.5 157.5 40.5233 157.5 82.5Z" stroke="white"/>
<path d="M127.399 127.776L122.887 101.36C122.401 98.5132 120.381 96.2282 117.618 95.3935L105.448 91.7219C105.195 88.7475 103.975 85.9405 101.945 83.7193C100.322 81.9422 98.2796 80.6493 96.0285 79.9341C96.4129 79.5058 96.7715 79.0795 97.0983 78.6631C99.9929 74.9815 101.543 70.9274 101.937 68.1603H102.876C105.318 68.1603 107.304 66.1741 107.304 63.7316V61.4605C107.304 59.8309 106.388 58.3547 105.009 57.5877V52.1291C105.009 51.3044 104.34 50.635 103.515 50.635C102.69 50.635 102.021 51.3044 102.021 52.1291V58.2571C101.439 58.3587 100.746 58.532 100.035 58.8309C99.963 58.8568 99.8913 58.8886 99.8236 58.9245C99.6642 58.9982 99.5028 59.0739 99.3435 59.1616V47.1248C99.3435 43.7998 96.6381 41.0944 93.3131 41.0944H89.1893C87.7669 41.0944 86.3783 41.5905 85.2766 42.4909L84.8722 42.8216C84.1291 43.4293 83.1908 43.7639 82.2306 43.7639C81.2703 43.7639 80.332 43.4293 79.5889 42.8216L79.1845 42.4909C78.0828 41.5905 76.6943 41.0944 75.2719 41.0944H71.148C67.8231 41.0944 65.1177 43.7998 65.1177 47.1248V59.1616C64.9583 59.0739 64.7969 58.9982 64.6376 58.9245C64.5698 58.8886 64.5001 58.8568 64.4284 58.8309C63.7192 58.532 63.0239 58.3567 62.4422 58.2571V42.7599C62.4422 37.9229 66.3767 33.9883 71.2138 33.9883H93.2474C98.0844 33.9883 102.019 37.9229 102.019 42.7599V45.1087C102.019 45.9334 102.688 46.6028 103.513 46.6028C104.338 46.6028 105.007 45.9334 105.007 45.1087V42.7599C105.007 36.2753 99.7319 31 93.2474 31H71.2138C64.7292 31 59.4539 36.2753 59.4539 42.7599V57.5877C58.0753 58.3547 57.1589 59.8309 57.1589 61.4605V63.7316C57.1589 66.1741 59.1451 68.1603 61.5875 68.1603H62.5258C62.9203 70.9274 64.4702 74.9835 67.3649 78.6631C67.6916 79.0795 68.0482 79.5058 68.4347 79.9321C63.259 81.5757 59.4838 86.2294 59.0156 91.7219L46.8453 95.3935C44.0802 96.2282 42.0621 98.5132 41.576 101.36L39.7432 112.088C39.6037 112.901 40.1516 113.672 40.9644 113.811C41.7772 113.951 42.5502 113.403 42.6876 112.59L44.5204 101.862C44.8153 100.141 46.0365 98.7563 47.7079 98.2523L58.9638 94.8556V97.81C56.3839 98.2841 54.1885 100.057 53.2841 102.514C53.043 103.165 52.8956 103.848 52.8398 104.542L51.7521 118.507C51.6704 119.559 52.035 120.607 52.7502 121.38C53.4674 122.155 54.4814 122.599 55.5372 122.599H57.3999C58.2247 122.599 58.8941 121.929 58.8941 121.105C58.8941 120.28 58.2247 119.611 57.3999 119.611H55.5372C55.3121 119.611 55.097 119.517 54.9436 119.352C54.7902 119.186 54.7145 118.963 54.7304 118.74L55.8181 104.775C55.852 104.354 55.9417 103.94 56.0871 103.546C56.7166 101.836 58.416 100.681 60.3145 100.667H60.5615C60.5735 100.665 60.5854 100.665 60.5954 100.665C62.4422 100.665 64.0758 101.713 64.7651 103.34C64.9583 103.797 65.0758 104.279 65.1157 104.775L66.2034 118.74C66.2213 118.963 66.1437 119.186 65.9903 119.352C65.8369 119.517 65.6217 119.611 65.3966 119.611H63.5339C62.7091 119.611 62.0397 120.28 62.0397 121.105C62.0397 121.929 62.7091 122.599 63.5339 122.599H65.3966C66.4504 122.599 67.4685 122.155 68.1836 121.38C68.9008 120.605 69.2634 119.559 69.1817 118.507L68.094 104.542C68.0303 103.725 67.837 102.928 67.5163 102.175C66.5321 99.852 64.4284 98.2383 61.9501 97.802V93.9551L67.084 92.4052C67.5521 93.3893 68.4765 95.515 70.3113 100.099C72.1601 104.723 74.457 110.652 76.6604 116.413C76.6763 116.461 76.6943 116.509 76.7142 116.554C78.1844 120.401 79.6108 124.171 80.8301 127.42C81.0492 128.004 81.607 128.388 82.2286 128.388C82.8501 128.388 83.4079 128.002 83.6271 127.42C84.8463 124.169 86.2727 120.401 87.7429 116.554C87.7629 116.509 87.7808 116.461 87.7967 116.413C89.9981 110.654 92.2951 104.731 94.1419 100.107C95.9786 95.517 96.905 93.3893 97.3712 92.4052L102.505 93.9551V102.779C98.947 103.47 96.2516 106.608 96.2516 110.365C96.2516 114.626 99.718 118.092 103.979 118.092C108.241 118.092 111.707 114.626 111.707 110.365C111.707 106.619 109.029 103.49 105.489 102.786V94.8596L116.747 98.2563C118.419 98.7603 119.642 100.143 119.935 101.866L124.447 128.283C124.523 128.721 124.405 129.149 124.118 129.488C123.831 129.826 123.429 130.014 122.985 130.014H41.4704C41.0262 130.014 40.6237 129.826 40.3369 129.488C40.05 129.149 39.9344 128.721 40.0081 128.283L41.4963 119.565C41.6358 118.752 41.0879 117.981 40.2751 117.841C39.4623 117.702 38.6913 118.25 38.5519 119.063L37.0637 127.776C36.8426 129.077 37.2031 130.402 38.0538 131.412C38.9045 132.42 40.1496 133 41.4704 133H122.993C124.314 133 125.559 132.422 126.409 131.412C127.26 130.402 127.621 129.077 127.399 127.776ZM102.037 61.2992C102.832 61.1 103.471 61.1039 103.479 61.1039C103.736 61.1079 103.987 61.0462 104.208 60.9306C104.274 61.096 104.314 61.2733 104.314 61.4586V63.7296C104.314 64.5245 103.667 65.172 102.872 65.172H102.035V61.2992H102.037ZM62.4242 65.172H61.5875C60.7926 65.172 60.1452 64.5245 60.1452 63.7296V61.4586C60.1452 61.2733 60.185 61.096 60.2508 60.9306C60.4739 61.0482 60.7229 61.1079 60.9799 61.1039C60.9919 61.1039 61.6294 61.1039 62.4222 61.2992V65.17L62.4242 65.172ZM65.4125 66.8474V62.9228C65.8647 63.0583 66.3608 63.0404 66.817 62.8491C67.5999 62.5224 68.1079 61.7614 68.1079 60.9127V47.1248C68.1079 45.4473 69.4726 44.0807 71.152 44.0807H75.2758C76.011 44.0807 76.7281 44.3377 77.2979 44.8019L77.7023 45.1326C78.9773 46.1745 80.587 46.7482 82.2345 46.7482C83.8821 46.7482 85.4918 46.1745 86.7668 45.1326L87.1712 44.8019C87.739 44.3377 88.4581 44.0807 89.1933 44.0807H93.3171C94.9945 44.0807 96.3612 45.4454 96.3612 47.1248V60.9127C96.3612 61.7614 96.8672 62.5204 97.6521 62.8491C97.9131 62.9587 98.188 63.0105 98.4589 63.0105C98.6621 63.0105 98.8633 62.9806 99.0566 62.9228V66.8454C99.0566 69.0269 97.5485 73.2623 94.7554 76.8143C93.8291 77.9917 92.6397 79.2568 91.1755 80.3604C91.1297 80.3923 91.0838 80.4242 91.042 80.462C88.7729 82.1395 85.8544 83.4244 82.2385 83.4244C78.6227 83.4244 75.7042 82.1395 73.4351 80.46C73.3932 80.4242 73.3494 80.3903 73.3016 80.3604C71.8373 79.2548 70.648 77.9897 69.7216 76.8123C66.9286 73.2583 65.4205 69.0229 65.4205 66.8434L65.4125 66.8474ZM92.0182 90.9808L82.2326 98.2941L72.4469 90.9808C73.4171 89.7476 73.961 88.1638 73.961 86.7514V84.3428C76.262 85.58 79.0072 86.4147 82.2326 86.4147C85.4579 86.4147 88.2031 85.58 90.5041 84.3428V86.7514C90.5041 88.1638 91.048 89.7476 92.0182 90.9808ZM69.9547 89.3133C69.1578 89.0105 68.2733 88.9607 67.4366 89.1858C67.4007 89.1938 67.3649 89.2037 67.329 89.2137L62.1692 90.7716C63.0418 86.4804 66.5261 83.0638 70.9747 82.4024V86.7494C70.9747 87.6857 70.5563 88.6559 69.9547 89.3113V89.3133ZM74.0088 101.304C74.0088 101.304 74.0028 101.29 74.0008 101.284C73.9251 101.093 73.8494 100.904 73.7757 100.717C73.7618 100.683 73.7498 100.649 73.7359 100.615C73.6642 100.432 73.5904 100.25 73.5207 100.073C73.5167 100.061 73.5108 100.049 73.5068 100.035C73.2856 99.4795 73.0725 98.9455 72.8673 98.4336C72.8533 98.3957 72.8374 98.3579 72.8215 98.322C72.7617 98.1746 72.7039 98.0311 72.6461 97.8877C72.6242 97.8359 72.6043 97.7841 72.5824 97.7323C72.5266 97.5948 72.4708 97.4574 72.417 97.3219C72.4011 97.2821 72.3852 97.2422 72.3692 97.2024C72.2696 96.9573 72.174 96.7203 72.0784 96.4872C72.0525 96.4234 72.0266 96.3597 72.0007 96.2979C71.9628 96.2083 71.927 96.1186 71.8911 96.031C71.8513 95.9354 71.8134 95.8397 71.7756 95.7481C71.7616 95.7142 71.7457 95.6764 71.7317 95.6425C71.7198 95.6146 71.7098 95.5887 71.6979 95.5608C71.5245 95.1425 71.3612 94.746 71.2058 94.3755C71.2058 94.3715 71.2038 94.3695 71.2018 94.3655C71.1181 94.1683 71.0385 93.975 70.9608 93.7898C70.9209 93.6941 70.8811 93.6005 70.8412 93.5089L79.2562 99.7982L75.74 101.292C75.74 101.292 75.7281 101.298 75.7221 101.3L74.2538 101.924C74.1702 101.713 74.0885 101.508 74.0068 101.302L74.0088 101.304ZM77.5728 110.45C77.278 109.685 76.9812 108.914 76.6823 108.145C76.2162 106.942 75.7719 105.799 75.3456 104.709L75.9034 104.472L78.1804 107.119L77.5728 110.45ZM82.2624 122.591C82.2206 122.501 82.1688 122.417 82.109 122.34C81.4337 120.557 80.577 118.298 79.6288 115.815L81.0233 108.179H83.4418L84.8363 115.815C83.8422 118.417 82.9497 120.77 82.2624 122.591ZM84.0036 105.193H80.4655L78.792 103.247L82.2365 101.784L85.681 103.247L84.0076 105.193H84.0036ZM87.7848 108.145C87.4879 108.914 87.1891 109.685 86.8943 110.45L86.2867 107.119L88.5637 104.472L89.1215 104.709C88.6952 105.799 88.251 106.942 87.7848 108.145ZM93.5063 93.7918C93.4326 93.9671 93.3549 94.1504 93.2772 94.3356C93.2673 94.3595 93.2573 94.3834 93.2474 94.4093C93.1697 94.5946 93.09 94.7839 93.0083 94.9811C93.0023 94.995 92.9983 95.007 92.9924 95.0209C92.9226 95.1903 92.8489 95.3656 92.7752 95.5449C92.7613 95.5787 92.7493 95.6086 92.7354 95.6425C92.7194 95.6823 92.7015 95.7242 92.6856 95.766C92.6537 95.8457 92.6198 95.9274 92.586 96.0091C92.5441 96.1087 92.5043 96.2083 92.4624 96.3119C92.4485 96.3437 92.4346 96.3776 92.4226 96.4115C92.319 96.6665 92.2114 96.9295 92.1019 97.1984C92.0839 97.2402 92.068 97.2821 92.0501 97.3259C91.9963 97.4594 91.9405 97.5948 91.8867 97.7323C91.8648 97.7861 91.8429 97.8399 91.821 97.8937C91.7632 98.0351 91.7054 98.1786 91.6476 98.322C91.6317 98.3618 91.6138 98.4037 91.5978 98.4435C91.3946 98.9475 91.1854 99.4735 90.9663 100.021C90.9583 100.039 90.9524 100.057 90.9444 100.075C90.8747 100.252 90.8029 100.432 90.7312 100.613C90.7173 100.647 90.7033 100.681 90.6914 100.715C90.6177 100.902 90.542 101.091 90.4663 101.284C90.4663 101.288 90.4643 101.292 90.4623 101.294C90.3806 101.502 90.2969 101.711 90.2133 101.924L88.743 101.3C88.743 101.3 88.7331 101.296 88.7271 101.294L85.2089 99.8002L93.6239 93.5109C93.584 93.6025 93.5442 93.6961 93.5044 93.7918H93.5063ZM97.1381 89.2157C97.1381 89.2157 97.1361 89.2157 97.1341 89.2157C96.2675 88.9567 95.3431 88.9986 94.5124 89.3153C93.9108 88.6599 93.4924 87.6897 93.4924 86.7534V82.4044C97.9688 83.0638 101.443 86.4486 102.304 90.7776L97.1381 89.2197V89.2157ZM108.731 110.367C108.731 112.981 106.603 115.108 103.989 115.108C101.375 115.108 99.2478 112.981 99.2478 110.367C99.2478 107.753 101.375 105.625 103.989 105.625C106.603 105.625 108.731 107.753 108.731 110.367Z" fill="white"/>
</svg>
