<svg width="18" height="18" viewBox="0 0 18 18" fill="none" xmlns="http://www.w3.org/2000/svg">
<mask id="mask0_1838_12752" style="mask-type:alpha" maskUnits="userSpaceOnUse" x="0" y="0" width="18" height="18">
<path fill-rule="evenodd" clip-rule="evenodd" d="M0 9C0 4.02944 4.02944 0 9 0C13.9706 0 18 4.02944 18 9C18 13.9706 13.9706 18 9 18C4.02944 18 0 13.9706 0 9Z" fill="white"/>
</mask>
<g mask="url(#mask0_1838_12752)">
<path fill-rule="evenodd" clip-rule="evenodd" d="M0 9C0 4.02944 4.02944 0 9 0C13.9706 0 18 4.02944 18 9C18 13.9706 13.9706 18 9 18C4.02944 18 0 13.9706 0 9Z" fill="#677283"/>
<path fill-rule="evenodd" clip-rule="evenodd" d="M8.99997 4.19971C7.69636 4.19971 7.53276 4.20541 7.02075 4.22871C6.50975 4.25211 6.16094 4.33301 5.85574 4.45171C5.54004 4.57431 5.27224 4.73831 5.00543 5.00522C4.73843 5.27202 4.57443 5.53982 4.45143 5.85542C4.33243 6.16073 4.25142 6.50963 4.22842 7.02044C4.20552 7.53244 4.19952 7.69614 4.19952 8.99976C4.19952 10.3034 4.20532 10.4665 4.22852 10.9785C4.25202 11.4895 4.33293 11.8383 4.45153 12.1435C4.57423 12.4592 4.73823 12.727 5.00513 12.9938C5.27184 13.2608 5.53964 13.4252 5.85514 13.5478C6.16054 13.6665 6.50945 13.7474 7.02035 13.7708C7.53236 13.7941 7.69586 13.7998 8.99937 13.7998C10.3031 13.7998 10.4662 13.7941 10.9782 13.7708C11.4892 13.7474 11.8384 13.6665 12.1438 13.5478C12.4594 13.4252 12.7268 13.2608 12.9935 12.9938C13.2605 12.727 13.4245 12.4592 13.5475 12.1436C13.6655 11.8383 13.7465 11.4894 13.7705 10.9786C13.7935 10.4666 13.7995 10.3034 13.7995 8.99976C13.7995 7.69614 13.7935 7.53254 13.7705 7.02054C13.7465 6.50953 13.6655 6.16073 13.5475 5.85552C13.4245 5.53982 13.2605 5.27202 12.9935 5.00522C12.7265 4.73821 12.4595 4.57421 12.1435 4.45171C11.8375 4.33301 11.4885 4.25211 10.9775 4.22871C10.4655 4.20541 10.3025 4.19971 8.99847 4.19971H8.99997ZM8.57048 5.06516C8.69828 5.06496 8.84088 5.06516 9.00108 5.06516C10.2827 5.06516 10.4346 5.06976 10.9407 5.09277C11.4087 5.11417 11.6627 5.19237 11.8319 5.25807C12.0559 5.34507 12.2156 5.44907 12.3835 5.61707C12.5515 5.78507 12.6555 5.94507 12.7427 6.16908C12.8084 6.33808 12.8867 6.59208 12.908 7.06009C12.931 7.56609 12.936 7.71809 12.936 8.99911C12.936 10.2801 12.931 10.4321 12.908 10.9381C12.8866 11.4061 12.8084 11.6601 12.7427 11.8291C12.6557 12.0531 12.5515 12.2126 12.3835 12.3805C12.2155 12.5485 12.056 12.6525 11.8319 12.7395C11.6629 12.8055 11.4087 12.8835 10.9407 12.9049C10.4347 12.9279 10.2827 12.9329 9.00108 12.9329C7.71937 12.9329 7.56747 12.9279 7.06146 12.9049C6.59346 12.8833 6.33945 12.8051 6.17015 12.7394C5.94615 12.6524 5.78615 12.5484 5.61815 12.3804C5.45014 12.2124 5.34614 12.0528 5.25894 11.8287C5.19324 11.6597 5.11494 11.4057 5.09364 10.9377C5.07064 10.4317 5.06604 10.2797 5.06604 8.99791C5.06604 7.71609 5.07064 7.56489 5.09364 7.05889C5.11504 6.59088 5.19324 6.33688 5.25894 6.16768C5.34594 5.94367 5.45014 5.78367 5.61815 5.61567C5.78615 5.44767 5.94615 5.34367 6.17015 5.25647C6.33935 5.19047 6.59346 5.11247 7.06146 5.09097C7.50427 5.07096 7.67587 5.06496 8.57048 5.06396V5.06516ZM11.5628 5.8625C11.2448 5.8625 10.9868 6.12021 10.9868 6.43831C10.9868 6.75631 11.2448 7.01432 11.5628 7.01432C11.8808 7.01432 12.1388 6.75631 12.1388 6.43831C12.1388 6.12031 11.8808 5.8623 11.5628 5.8623V5.8625ZM9.00024 6.53516C7.63893 6.53516 6.53522 7.63887 6.53522 9.00018C6.53522 10.3615 7.63893 11.4647 9.00024 11.4647C10.3616 11.4647 11.4649 10.3615 11.4649 9.00018C11.4649 7.63887 10.3615 6.53516 9.00014 6.53516H9.00024ZM9.00102 7.40039C9.88463 7.40039 10.601 8.1167 10.601 9.00041C10.601 9.88402 9.88463 10.6004 9.00102 10.6004C8.11731 10.6004 7.401 9.88402 7.401 9.00041C7.401 8.1167 8.11731 7.40039 9.00102 7.40039Z" fill="white"/>
</g>
</svg>
