<svg width="18" height="18" viewBox="0 0 18 18" fill="none" xmlns="http://www.w3.org/2000/svg">
<path fill-rule="evenodd" clip-rule="evenodd" d="M0 9C0 4.02944 4.02944 0 9 0C13.9706 0 18 4.02944 18 9C18 13.9706 13.9706 18 9 18C4.02944 18 0 13.9706 0 9Z" fill="#677283"/>
<path d="M5.576 7.55506H7.25308V12.9478H5.576V7.55506ZM6.41158 4.87646C6.95085 4.87646 7.38346 5.30907 7.38346 5.84834C7.38346 6.38762 6.95085 6.82022 6.41158 6.82022C5.8723 6.82022 5.4397 6.38169 5.4397 5.84834C5.4397 5.315 5.8723 4.87646 6.41158 4.87646Z" fill="white"/>
<path d="M8.30182 7.55525H9.9078V8.29008H9.9315C10.1567 7.8634 10.7019 7.41895 11.5197 7.41895C13.2146 7.41895 13.5286 8.53305 13.5286 9.98495V12.9421H11.8516V10.3227C11.8516 9.69457 11.8397 8.89454 10.9804 8.89454C10.1211 8.89454 9.97298 9.57604 9.97298 10.2812V12.948H8.2959V7.55525H8.30182Z" fill="white"/>
</svg>
