<svg width="18" height="18" viewBox="0 0 18 18" fill="none" xmlns="http://www.w3.org/2000/svg">
<path fill-rule="evenodd" clip-rule="evenodd" d="M0 9C0 4.02944 4.02944 0 9 0C13.9706 0 18 4.02944 18 9C18 13.9706 13.9706 18 9 18C4.02944 18 0 13.9706 0 9Z" fill="#677283"/>
<path fill-rule="evenodd" clip-rule="evenodd" d="M8.731 7.31424L8.74989 7.62566L8.43512 7.58753C7.28937 7.44135 6.28842 6.94562 5.43855 6.11305L5.02306 5.69994L4.91604 6.005C4.68941 6.68504 4.8342 7.40322 5.30635 7.88623C5.55816 8.15317 5.5015 8.1913 5.06713 8.03241C4.91604 7.98157 4.78384 7.94343 4.77125 7.9625C4.72718 8.00699 4.87827 8.58534 4.99788 8.81414C5.16156 9.13192 5.49521 9.44334 5.86034 9.62765L6.16881 9.77382L5.80368 9.78018C5.45114 9.78018 5.43855 9.78653 5.47632 9.92C5.60223 10.3331 6.09956 10.7716 6.65355 10.9623L7.04386 11.0958L6.70391 11.2991C6.20028 11.5915 5.60852 11.7567 5.01676 11.7695C4.73348 11.7758 4.50055 11.8012 4.50055 11.8203C4.50055 11.8839 5.26858 12.2398 5.71554 12.3796C7.05645 12.7927 8.64916 12.6147 9.84527 11.9093C10.6951 11.4072 11.545 10.4094 11.9416 9.44334C12.1557 8.92854 12.3697 7.98792 12.3697 7.53668C12.3697 7.24433 12.3886 7.20619 12.7411 6.85664C12.9489 6.65326 13.144 6.43082 13.1818 6.36727C13.2447 6.24651 13.2384 6.24651 12.9174 6.35456C12.3823 6.54522 12.3067 6.5198 12.5711 6.2338C12.7663 6.03042 12.9992 5.6618 12.9992 5.55376C12.9992 5.53469 12.9048 5.56647 12.7978 5.62367C12.6845 5.68723 12.4326 5.78256 12.2438 5.83976L11.9038 5.9478L11.5954 5.73807C11.4254 5.62367 11.1862 5.49656 11.0603 5.45843C10.7392 5.36945 10.2482 5.38216 9.95859 5.48385C9.17167 5.76985 8.67434 6.50709 8.731 7.31424Z" fill="white"/>
</svg>
