<svg width="18" height="18" viewBox="0 0 18 18" fill="none" xmlns="http://www.w3.org/2000/svg">
<path fill-rule="evenodd" clip-rule="evenodd" d="M0 9C0 4.02944 4.02944 0 9 0C13.9706 0 18 4.02944 18 9C18 13.9706 13.9706 18 9 18C4.02944 18 0 13.9706 0 9Z" fill="#677283"/>
<path fill-rule="evenodd" clip-rule="evenodd" d="M13.5991 6.77716C13.4887 6.35304 13.1634 6.01905 12.7504 5.90571C12.0018 5.69971 8.99977 5.69971 8.99977 5.69971C8.99977 5.69971 5.99775 5.69971 5.24911 5.90571C4.83604 6.01905 4.51073 6.35304 4.40033 6.77716C4.19977 7.54585 4.19977 9.14971 4.19977 9.14971C4.19977 9.14971 4.19977 10.7535 4.40033 11.5222C4.51073 11.9464 4.83604 12.2804 5.24911 12.3938C5.99775 12.5997 8.99977 12.5997 8.99977 12.5997C8.99977 12.5997 12.0018 12.5997 12.7504 12.3938C13.1634 12.2804 13.4887 11.9464 13.5991 11.5222C13.7998 10.7535 13.7998 9.14971 13.7998 9.14971C13.7998 9.14971 13.7998 7.54585 13.5991 6.77716Z" fill="white"/>
<path fill-rule="evenodd" clip-rule="evenodd" d="M8.10065 10.8003V7.80029L10.5006 9.30035L8.10065 10.8003Z" fill="#677283"/>
</svg>
