<svg width="164" height="61" viewBox="0 0 164 61" fill="none" xmlns="http://www.w3.org/2000/svg">
<path d="M40.1306 56.5212C37.5194 53.9379 36.2156 50.2489 36.2156 45.4472C36.2156 40.6456 37.4986 36.9565 40.068 34.3732C42.6375 31.7898 46.3056 30.4999 51.0795 30.4999C52.9883 30.4999 54.7581 30.6981 56.3853 31.091C58.0125 31.4838 59.3893 32.0436 60.5124 32.7738C60.7662 32.9407 60.8914 33.125 60.8914 33.3231C60.8914 33.49 60.8218 33.6882 60.6793 33.9107L59.5006 35.9308C59.3302 36.1847 59.1772 36.3098 59.0382 36.3098C58.9269 36.3098 58.7287 36.2403 58.4471 36.0977C56.6773 35.0303 54.4173 34.4984 51.6671 34.4984C48.4961 34.4984 46.0101 35.4093 44.216 37.2347C42.4184 39.0601 41.5214 41.7964 41.5214 45.4437C41.5214 49.091 42.4462 51.9074 44.2994 53.7188C46.1526 55.5303 48.6491 56.4343 51.7957 56.4343C54.7163 56.4343 57.1154 55.8884 58.9964 54.7932C59.2746 54.6541 59.4589 54.5846 59.5458 54.5846C59.7127 54.5846 59.8831 54.7098 60.0499 54.9636L61.3573 57.154C61.4407 57.3244 61.4824 57.4635 61.4824 57.5748C61.4824 57.7416 61.3295 57.9259 61.02 58.1206C58.8574 59.6366 55.589 60.3945 51.2081 60.3945C46.4378 60.3945 42.7453 59.1046 40.1341 56.5212" fill="#002D72"/>
<path d="M65.2655 57.8878C63.6383 56.2189 62.8247 53.865 62.8247 50.8366C62.8247 48.4792 63.3428 46.3931 64.3824 44.5851C65.422 42.7736 66.9031 41.3793 68.8259 40.3954C70.7486 39.4149 72.9878 38.9211 75.5433 38.9211C79.1072 38.9211 82.1252 39.7626 84.5973 41.4489V58.6284C84.5973 59.0491 84.5069 59.3446 84.3226 59.5115C84.1383 59.6784 83.8254 59.7654 83.3734 59.7654H81.0577C80.7483 59.7654 80.5153 59.7028 80.3624 59.5776C80.2094 59.4524 80.1016 59.2473 80.046 58.9657L79.7087 57.3245C78.8395 58.392 77.7651 59.1708 76.4891 59.661C75.2095 60.1513 73.6623 60.3982 71.8369 60.3982C69.0867 60.3982 66.8962 59.5637 65.269 57.8913M77.7964 55.2592C78.9333 54.39 79.5036 53.2392 79.5036 51.8067V43.5941C78.9125 43.2847 78.3179 43.0691 77.7129 42.9405C77.1079 42.8153 76.3708 42.7492 75.5016 42.7492C73.2833 42.7492 71.5031 43.4516 70.1541 44.8528C68.805 46.2575 68.134 48.1941 68.134 50.6627C68.134 52.6828 68.6034 54.171 69.5456 55.1271C70.4844 56.0833 71.9238 56.5596 73.8605 56.5596C75.3486 56.5596 76.6594 56.125 77.7964 55.2558" fill="#002D72"/>
<path d="M89.9381 59.3829C89.6843 59.1291 89.5591 58.7501 89.5591 58.2459V40.6874C89.5591 40.2667 89.6286 39.9712 89.7677 39.8043C89.9068 39.6339 90.2023 39.5505 90.6508 39.5505H93.0499C93.3594 39.5505 93.5819 39.6131 93.7245 39.7417C93.8635 39.8669 93.947 40.0859 93.9748 40.3954L94.1 41.9113C95.755 39.919 97.9315 38.9211 100.626 38.9211C101.86 38.9211 102.799 39.1332 103.446 39.5539C103.613 39.6652 103.721 39.7869 103.762 39.9121C103.804 40.0372 103.797 40.1867 103.741 40.3536L102.984 42.8814C102.9 43.163 102.744 43.3021 102.521 43.3021L102.184 43.2186C101.509 42.9092 100.737 42.7562 99.8682 42.7562C98.4357 42.7562 97.257 43.156 96.3322 43.9557C95.4073 44.7554 94.9414 45.8437 94.9414 47.2206V58.2529C94.9414 58.757 94.8232 59.136 94.5833 59.3898C94.3433 59.6437 93.9296 59.7688 93.342 59.7688H91.1515C90.5917 59.7688 90.1815 59.6437 89.9311 59.3898" fill="#002D72"/>
<path d="M104.969 49.6162C104.969 47.5092 105.375 45.6525 106.189 44.0392C107.003 42.426 108.174 41.1673 109.704 40.2703C111.234 39.3732 113.039 38.9247 115.114 38.9247C118.063 38.9247 120.194 39.5853 121.515 40.9031V32.694C121.515 32.162 121.64 31.7692 121.894 31.5153C122.148 31.2615 122.555 31.1364 123.115 31.1364H125.218C125.778 31.1364 126.188 31.2615 126.439 31.5153C126.692 31.7692 126.818 32.162 126.818 32.694V57.6619C125.75 58.4477 124.318 59.1013 122.524 59.6194C120.726 60.1374 118.859 60.3982 116.922 60.3982C108.95 60.3982 104.965 56.8065 104.965 49.6197M121.512 55.5548V46.9668C121.512 45.59 121.032 44.5538 120.079 43.8515C119.123 43.1492 117.889 42.798 116.373 42.798C114.325 42.798 112.795 43.4169 111.783 44.6512C110.775 45.8855 110.267 47.5857 110.267 49.7449C110.267 52.1579 110.827 53.8998 111.954 54.9638C113.077 56.0312 114.774 56.5632 117.047 56.5632C118.928 56.5632 120.417 56.2259 121.512 55.5514" fill="#002D72"/>
<path d="M132.335 35.4687C131.97 35.0758 131.79 34.5995 131.79 34.0362V33.1531C131.79 32.5933 131.97 32.1135 132.335 31.7206C132.701 31.3277 133.219 31.1295 133.893 31.1295H135.705C136.379 31.1295 136.904 31.3277 137.283 31.7206C137.662 32.1135 137.853 32.5898 137.853 33.1531V34.0362C137.853 34.5995 137.666 35.0758 137.283 35.4687C136.904 35.8616 136.379 36.0598 135.705 36.0598H133.893C133.219 36.0598 132.701 35.8651 132.335 35.4687ZM132.506 59.3831C132.252 59.1293 132.127 58.7503 132.127 58.2461V41.1083C132.127 40.5763 132.252 40.18 132.506 39.9296C132.76 39.6758 133.166 39.5506 133.726 39.5506H135.917C136.476 39.5506 136.887 39.6758 137.137 39.9296C137.391 40.1834 137.516 40.5763 137.516 41.1083V58.2461C137.516 58.7503 137.398 59.1293 137.158 59.3831C136.918 59.6369 136.504 59.7621 135.917 59.7621H133.726C133.163 59.7621 132.756 59.6369 132.506 59.3831Z" fill="#002D72"/>
<path d="M144.105 57.5088C142.127 55.5861 141.136 52.968 141.136 49.6579C141.136 46.3479 142.127 43.7297 144.105 41.807C146.083 39.8843 148.896 38.9211 152.547 38.9211C156.198 38.9211 159.018 39.8843 161.01 41.807C163.002 43.7297 164 46.3479 164 49.6579C164 52.968 163.002 55.5896 161.01 57.5088C159.018 59.4316 156.194 60.3947 152.547 60.3947C148.9 60.3947 146.083 59.435 144.105 57.5088ZM157.095 54.7099C158.134 53.559 158.653 51.8762 158.653 49.6579C158.653 47.4396 158.134 45.8055 157.095 44.6685C156.055 43.5316 154.539 42.9648 152.547 42.9648C150.555 42.9648 149.074 43.535 148.02 44.6685C146.967 45.8055 146.442 47.4674 146.442 49.6579C146.442 51.8484 146.967 53.5243 148.02 54.689C149.074 55.8538 150.579 56.4379 152.547 56.4379C154.515 56.4379 156.055 55.8642 157.095 54.7134" fill="#002D72"/>
<path d="M31.435 0.00738761C26.4734 -0.117782 23.9943 3.56777 23.9804 3.58863C22.5027 1.62416 19.8846 0.0317261 16.9049 0.000433745C12.6213 -0.0412894 8.96008 2.93149 8.04565 7.01688C6.59577 11.8324 8.77233 17.6459 13.188 21.2897C20.2219 27.0927 27.8329 27.2109 32.9335 27.0475C33.2534 27.0301 33.5107 26.7659 33.5107 26.4425C33.5107 26.2304 33.4029 26.0461 33.236 25.9384C33.236 25.9384 33.236 25.9384 33.2395 25.9349C32.7527 25.5872 31.4976 24.4919 31.5462 22.9586C31.6088 21.0394 32.6693 20.0971 33.0761 19.6833C34.0705 18.675 35.6177 17.2704 37.1615 15.7196C39.2824 13.5848 40.1725 11.2726 40.1725 8.97787C40.1795 4.09626 36.2262 0.12908 31.435 0.00738761Z" fill="#E40046"/>
<path d="M12.7604 57.8183C11.1332 56.1494 10.3196 53.7955 10.3196 50.7636C10.3196 48.4062 10.8376 46.3236 11.8772 44.5121C12.9168 42.7006 14.398 41.3063 16.3208 40.3224C18.2435 39.3384 20.4827 38.8481 23.0382 38.8481C26.6021 38.8481 29.62 39.6896 32.0921 41.3759V58.5554C32.0921 58.9761 32.0017 59.2716 31.8175 59.4385C31.6332 59.6054 31.3203 59.6924 30.8683 59.6924H28.5526C28.2432 59.6924 28.0137 59.6298 27.8572 59.5046C27.7042 59.3794 27.5965 59.1743 27.5408 58.8927L27.2036 57.2515C26.3343 58.319 25.26 59.0978 23.9839 59.588C22.7044 60.0783 21.1572 60.3252 19.3318 60.3252C16.5815 60.3252 14.3911 59.4907 12.7639 57.8183M25.2913 55.1863C26.4282 54.317 26.9949 53.1662 26.9949 51.7337V43.5211C26.4039 43.2117 25.8093 42.9961 25.2043 42.8675C24.5993 42.7423 23.8622 42.6797 22.993 42.6797C20.7747 42.6797 18.9945 43.3821 17.6455 44.7833C16.2964 46.1879 15.6254 48.1246 15.6254 50.5932C15.6254 52.6133 16.0948 54.1014 17.037 55.0576C17.9758 56.0103 19.4152 56.4901 21.3519 56.4901C22.84 56.4901 24.1508 56.0555 25.2878 55.1863" fill="#002D72"/>
<path d="M7.51713 55.7775C7.27027 55.7253 7.05817 55.6558 6.87042 55.5758C6.481 55.4054 6.18546 55.1864 5.97685 54.9152C5.76823 54.6475 5.62915 54.3172 5.55614 53.9243C5.48312 53.5314 5.44488 53.0933 5.44488 52.603L5.43445 32.8714C5.43445 32.8367 5.43097 32.8089 5.42749 32.7741V32.6872C5.42749 32.6454 5.42054 32.6072 5.41358 32.5655C5.37186 32.1865 5.25365 31.8909 5.05198 31.6893C4.79817 31.4355 4.38789 31.3103 3.82115 31.3103H1.6133C1.04656 31.3103 0.636279 31.4355 0.382463 31.6893C0.177324 31.8944 0.0591079 32.1934 0.0173847 32.5794C0.0139077 32.6142 0 32.642 0 32.6767V32.8506C0 32.8506 0 32.861 0 32.868V50.0058C0 50.0892 0.0104308 50.1622 0.0173847 50.2387V53.7087C0.0208616 54.7379 0.12517 55.6627 0.330309 56.4833C0.538925 57.3038 0.924864 58.0027 1.49856 58.5764C2.06877 59.1501 2.84761 59.5986 3.83158 59.915C4.6278 60.1723 6.00466 60.3323 7.1903 60.3948C7.68402 60.4227 8.12212 60.075 8.20208 59.5882L8.27162 56.8797C8.35855 56.3686 8.02128 55.8853 7.51365 55.7775" fill="#002D72"/>
</svg>
