<svg width="24" height="24" viewBox="0 0 24 24" fill="none" xmlns="http://www.w3.org/2000/svg">
<mask id="mask0_45_203" style="mask-type:alpha" maskUnits="userSpaceOnUse" x="0" y="0" width="24" height="24">
<path fill-rule="evenodd" clip-rule="evenodd" d="M0 12C0 5.37258 5.37258 0 12 0C18.6274 0 24 5.37258 24 12C24 18.6274 18.6274 24 12 24C5.37258 24 0 18.6274 0 12Z" fill="white"/>
</mask>
<g mask="url(#mask0_45_203)">
<path fill-rule="evenodd" clip-rule="evenodd" d="M0 12C0 5.37258 5.37258 0 12 0C18.6274 0 24 5.37258 24 12C24 18.6274 18.6274 24 12 24C5.37258 24 0 18.6274 0 12Z" fill="#002D72"/>
<path fill-rule="evenodd" clip-rule="evenodd" d="M12.0001 5.59961C10.2619 5.59961 10.0438 5.60721 9.36113 5.63828C8.67979 5.66948 8.21471 5.77734 7.80778 5.93561C7.38684 6.09908 7.02977 6.31775 6.67403 6.67362C6.31803 7.02936 6.09936 7.38643 5.93536 7.80723C5.77669 8.2143 5.66869 8.67951 5.63802 9.36058C5.60749 10.0433 5.59949 10.2615 5.59949 11.9997C5.59949 13.7378 5.60722 13.9553 5.63815 14.638C5.66949 15.3193 5.77736 15.7844 5.93549 16.1913C6.09909 16.6123 6.31776 16.9693 6.67363 17.3251C7.02924 17.6811 7.38631 17.9003 7.80698 18.0637C8.21418 18.222 8.67939 18.3299 9.36059 18.3611C10.0433 18.3921 10.2613 18.3997 11.9993 18.3997C13.7376 18.3997 13.955 18.3921 14.6377 18.3611C15.3191 18.3299 15.7847 18.222 16.1919 18.0637C16.6127 17.9003 16.9692 17.6811 17.3248 17.3251C17.6808 16.9693 17.8995 16.6123 18.0635 16.1915C18.2208 15.7844 18.3288 15.3192 18.3608 14.6381C18.3915 13.9554 18.3995 13.7378 18.3995 11.9997C18.3995 10.2615 18.3915 10.0434 18.3608 9.36072C18.3288 8.67937 18.2208 8.2143 18.0635 7.80737C17.8995 7.38643 17.6808 7.02936 17.3248 6.67362C16.9688 6.31762 16.6128 6.09895 16.1915 5.93561C15.7835 5.77734 15.3181 5.66948 14.6368 5.63828C13.9541 5.60721 13.7368 5.59961 11.9981 5.59961H12.0001ZM11.4271 6.75337C11.5975 6.7531 11.7876 6.75337 12.0012 6.75337C13.7101 6.75337 13.9126 6.7595 14.5874 6.79017C15.2114 6.8187 15.5501 6.92297 15.7757 7.01057C16.0743 7.12657 16.2873 7.26524 16.5112 7.48924C16.7352 7.71324 16.8738 7.92658 16.9901 8.22525C17.0777 8.45059 17.1821 8.78926 17.2105 9.41326C17.2412 10.0879 17.2478 10.2906 17.2478 11.9986C17.2478 13.7066 17.2412 13.9093 17.2105 14.584C17.182 15.208 17.0777 15.5467 16.9901 15.772C16.8741 16.0707 16.7352 16.2833 16.5112 16.5072C16.2872 16.7312 16.0745 16.8699 15.7757 16.9859C15.5503 17.0739 15.2114 17.1779 14.5874 17.2064C13.9127 17.2371 13.7101 17.2437 12.0012 17.2437C10.2923 17.2437 10.0898 17.2371 9.41508 17.2064C8.79107 17.1776 8.4524 17.0733 8.22667 16.9857C7.928 16.8697 7.71466 16.7311 7.49066 16.5071C7.26666 16.2831 7.12799 16.0703 7.01172 15.7715C6.92412 15.5461 6.81972 15.2075 6.79132 14.5834C6.76065 13.9088 6.75452 13.7061 6.75452 11.997C6.75452 10.2879 6.76065 10.0863 6.79132 9.41166C6.81985 8.78766 6.92412 8.44899 7.01172 8.22338C7.12772 7.92471 7.26666 7.71138 7.49066 7.48738C7.71466 7.26337 7.928 7.12471 8.22667 7.00844C8.45227 6.92044 8.79107 6.81644 9.41508 6.78777C10.0055 6.7611 10.2343 6.7531 11.4271 6.75177V6.75337ZM15.417 7.81668C14.993 7.81668 14.649 8.16029 14.649 8.58442C14.649 9.00843 14.993 9.35243 15.417 9.35243C15.841 9.35243 16.185 9.00843 16.185 8.58442C16.185 8.16042 15.841 7.81642 15.417 7.81642V7.81668ZM12.0002 8.71372C10.1851 8.71372 8.71353 10.1853 8.71353 12.0004C8.71353 13.8155 10.1851 15.2865 12.0002 15.2865C13.8153 15.2865 15.2864 13.8155 15.2864 12.0004C15.2864 10.1853 13.8152 8.71372 12.0001 8.71372H12.0002ZM12.0012 9.86718C13.1793 9.86718 14.1345 10.8223 14.1345 12.0005C14.1345 13.1787 13.1793 14.1339 12.0012 14.1339C10.8229 14.1339 9.86782 13.1787 9.86782 12.0005C9.86782 10.8223 10.8229 9.86718 12.0012 9.86718V9.86718Z" fill="white"/>
</g>
</svg>
