<svg width="24" height="24" viewBox="0 0 24 24" fill="none" xmlns="http://www.w3.org/2000/svg">
<path fill-rule="evenodd" clip-rule="evenodd" d="M0 12C0 5.37258 5.37258 0 12 0C18.6274 0 24 5.37258 24 12C24 18.6274 18.6274 24 12 24C5.37258 24 0 18.6274 0 12Z" fill="#002D72"/>
<path d="M7.43466 10.0734H9.67078V17.2637H7.43466V10.0734ZM8.54877 6.50195C9.2678 6.50195 9.84461 7.07876 9.84461 7.79779C9.84461 8.51683 9.2678 9.09363 8.54877 9.09363C7.82974 9.09363 7.25293 8.50892 7.25293 7.79779C7.25293 7.08666 7.82974 6.50195 8.54877 6.50195Z" fill="white"/>
<path d="M11.0693 10.0733H13.2106V11.0531H13.2422C13.5425 10.4842 14.2694 9.8916 15.3598 9.8916C17.6196 9.8916 18.0384 11.3771 18.0384 13.3129V17.2558H15.8023V13.7633C15.8023 12.9258 15.7865 11.8591 14.6408 11.8591C13.4951 11.8591 13.2975 12.7677 13.2975 13.708V17.2637H11.0614V10.0733H11.0693Z" fill="white"/>
</svg>
