<svg width="24" height="24" viewBox="0 0 24 24" fill="none" xmlns="http://www.w3.org/2000/svg">
<path fill-rule="evenodd" clip-rule="evenodd" d="M0 12C0 5.37258 5.37258 0 12 0C18.6274 0 24 5.37258 24 12C24 18.6274 18.6274 24 12 24C5.37258 24 0 18.6274 0 12Z" fill="#002D72"/>
<path fill-rule="evenodd" clip-rule="evenodd" d="M11.6412 9.75248L11.6664 10.1677L11.2467 10.1169C9.71904 9.92196 8.38444 9.26099 7.25128 8.15089L6.69729 7.60008L6.5546 8.00683C6.25242 8.91355 6.44548 9.87112 7.07501 10.5151C7.41076 10.8711 7.33522 10.9219 6.75605 10.71C6.5546 10.6423 6.37833 10.5914 6.36154 10.6168C6.30279 10.6761 6.50424 11.4473 6.66372 11.7523C6.88195 12.1761 7.32682 12.5913 7.81366 12.837L8.22495 13.0319L7.73812 13.0404C7.26807 13.0404 7.25128 13.0489 7.30164 13.2268C7.46952 13.7776 8.13262 14.3623 8.87127 14.6166L9.39169 14.7945L8.93842 15.0657C8.26692 15.4555 7.47791 15.6758 6.6889 15.6928C6.31118 15.7012 6.00061 15.7351 6.00061 15.7606C6.00061 15.8453 7.02465 16.3198 7.6206 16.5063C9.40847 17.0571 11.5321 16.8198 13.1269 15.8792C14.2601 15.2098 15.3932 13.8793 15.922 12.5913C16.2074 11.9049 16.4928 10.6507 16.4928 10.0491C16.4928 9.65927 16.518 9.60842 16.988 9.14235C17.265 8.87118 17.5252 8.57459 17.5756 8.48985C17.6595 8.32884 17.6511 8.32885 17.2231 8.4729C16.5096 8.72712 16.4089 8.69323 16.7614 8.3119C17.0216 8.04073 17.3322 7.54924 17.3322 7.40518C17.3322 7.37975 17.2063 7.42212 17.0636 7.49839C16.9125 7.58313 16.5767 7.71024 16.3249 7.78651L15.8717 7.93057L15.4604 7.65092C15.2337 7.49839 14.9148 7.32891 14.7469 7.27807C14.3188 7.15943 13.6641 7.17638 13.278 7.31196C12.2288 7.69329 11.5657 8.67628 11.6412 9.75248Z" fill="white"/>
</svg>
