<svg xmlns="http://www.w3.org/2000/svg" width="210" height="55" fill="none" viewBox="0 0 210 55"><path fill="#E40046" d="M18.803.33c-3.914-.098-5.87 2.809-5.884 2.825C11.757 1.605 9.692.347 7.341.325A7.09 7.09 0 0 0 .352 5.86c-1.144 3.8.575 8.387 4.057 11.262 5.55 4.578 11.554 4.673 15.579 4.543a.476.476 0 0 0 .238-.874l.003-.003c-.384-.273-1.375-1.137-1.337-2.347.047-1.516.886-2.26 1.207-2.586.785-.798 2.005-1.903 3.224-3.13C24.998 11.043 25.7 9.22 25.7 7.41c.003-3.85-3.117-6.983-6.897-7.078Z"/><path fill="#002D72" d="M92.273 11.008h-1.38c-.368 0-.631.083-.796.248-.166.165-.248.423-.248.772V17.4c-.864-.864-2.259-1.296-4.187-1.296-1.36 0-2.538.292-3.54.88a5.864 5.864 0 0 0-2.3 2.465c-.533 1.058-.797 2.271-.797 3.65 0 4.702 2.608 7.053 7.822 7.053 1.267 0 2.487-.172 3.663-.509 1.175-.34 2.112-.765 2.808-1.28V12.028c0-.35-.083-.607-.248-.772-.165-.165-.432-.248-.797-.248Zm-2.424 15.977c-.715.441-1.69.66-2.92.66-1.487 0-2.598-.35-3.332-1.045-.734-.699-1.103-1.836-1.103-3.415 0-1.414.33-2.526.992-3.332.66-.807 1.661-1.214 3.002-1.214.99 0 1.798.229 2.424.69.622.46.937 1.14.937 2.039v5.62-.003Zm39.189-12.752h1.185c.441 0 .784-.127 1.032-.385.248-.257.372-.568.372-.937v-.578c0-.369-.124-.68-.372-.937s-.591-.385-1.032-.385h-1.185c-.442 0-.782.13-1.02.385a1.33 1.33 0 0 0-.359.937v.578c0 .369.118.68.359.937.238.258.578.385 1.02.385Zm10.877.219h1.433c.349 0 .597-.041.743-.124.146-.082.286-.244.413-.483l1.817-3.555a.928.928 0 0 0 .111-.413c0-.31-.228-.467-.689-.467h-2.039c-.331 0-.556.048-.674.137-.121.092-.235.267-.343.524l-1.296 3.609a.751.751 0 0 0-.054.33c0 .293.194.442.578.442Zm16.691 26.698c-1.258.642-2.227 1.556-2.907 2.741-.68 1.185-1.02 2.548-1.02 4.092 0 1.982.534 3.52 1.598 4.613 1.065 1.093 2.497 1.639 4.295 1.639 1.195 0 2.208-.162 3.044-.483a4.97 4.97 0 0 0 2.106-1.528l.219 1.074c.035.184.105.318.207.4.101.083.251.124.454.124h1.515c.293 0 .499-.054.62-.165.121-.111.178-.302.178-.578v-11.24c-1.617-1.102-3.59-1.652-5.922-1.652-1.671 0-3.135.321-4.393.966m6.989 2.09v5.372c0 .937-.372 1.69-1.115 2.259-.744.569-1.602.854-2.577.854-1.267 0-2.208-.31-2.824-.937-.616-.622-.924-1.597-.924-2.92 0-1.616.441-2.88 1.321-3.802.88-.918 2.046-1.379 3.498-1.379.568 0 1.051.042 1.445.124.394.083.785.226 1.169.426m38.036-2.64h-1.433c-.368 0-.632.083-.797.248-.165.165-.248.422-.248.772v11.21c0 .331.083.58.248.744.165.165.432.248.797.248h1.433c.384 0 .658-.083.813-.248.156-.165.235-.413.235-.743V41.62c0-.35-.082-.607-.247-.772-.166-.165-.432-.248-.798-.248m7.793-5.26c-.165-.166-.432-.248-.801-.248h-1.461c-.368 0-.629.082-.785.247-.155.166-.235.423-.235.772v16.72c0 .33.077.578.235.743.156.165.417.248.785.248h1.461c.385 0 .658-.083.814-.248.155-.165.235-.413.235-.743V36.11c0-.35-.083-.606-.248-.772Zm-79.055-18.82h-1.432c-.369 0-.633.083-.798.248-.165.165-.248.422-.248.772v11.21c0 .331.083.579.248.744.165.165.432.248.798.248h1.432c.385 0 .658-.083.814-.248.155-.165.235-.413.235-.743V17.54c0-.35-.083-.607-.248-.772-.165-.165-.432-.248-.798-.248m-83.594 1.017v7.63c0 1.652.458 2.898 1.376 3.733.918.836 2.128 1.255 3.637 1.255 2.186 0 3.901-.699 5.15-2.094l.11 1.157c.02.184.074.317.166.4.092.083.238.124.442.124h1.544c.292 0 .486-.05.578-.153.092-.101.136-.298.136-.59v-11.46c0-.349-.082-.606-.247-.771-.166-.165-.432-.248-.8-.248h-1.434c-.368 0-.632.083-.797.248-.165.165-.248.422-.248.772v7.243c0 .845-.32 1.534-.962 2.065-.642.534-1.443.8-2.396.8-.899 0-1.579-.206-2.04-.62-.46-.412-.689-1.06-.689-1.94V17.54c0-.35-.082-.607-.247-.772-.166-.165-.432-.248-.8-.248h-1.462c-.369 0-.63.083-.785.248-.156.165-.235.422-.235.772m25.551 1.665c.413.378.62 1.016.62 1.915v7.63c0 .331.082.579.247.744.165.165.432.248.8.248h1.462c.369 0 .63-.083.785-.248.155-.165.235-.413.235-.743V20.9c0-1.598-.454-2.796-1.363-3.593-.909-.8-2.106-1.198-3.593-1.198-2.332 0-4.123.69-5.372 2.065l-.054-1.102c-.019-.369-.229-.55-.632-.55h-1.57c-.292 0-.486.054-.578.165-.092.112-.136.302-.136.579v11.487c0 .33.082.578.248.743.165.166.432.248.797.248h1.433c.384 0 .657-.082.813-.248.156-.165.235-.413.235-.743v-7.3c0-.826.362-1.503 1.087-2.024.724-.524 1.575-.785 2.547-.785.918 0 1.585.188 1.999.566M34.677 29.739h1.462c.384 0 .657-.083.813-.248.156-.165.235-.413.235-.743v-7.024h6.5c.365 0 .622-.08.772-.235.146-.156.219-.41.219-.756v-.744c0-.35-.073-.597-.22-.743-.145-.146-.403-.22-.771-.22h-6.5v-5.314h8.952c.369 0 .62-.076.76-.235.136-.156.206-.41.206-.756v-.744c0-.35-.07-.597-.207-.743-.136-.146-.39-.22-.759-.22H34.68c-.368 0-.629.083-.784.248-.156.166-.235.423-.235.772v16.72c0 .33.076.578.235.743.155.166.416.248.784.248m166.798 5.347h-1.185c-.441 0-.781.127-1.019.384a1.326 1.326 0 0 0-.359.937v.578c0 .369.12.68.359.938.238.257.578.384 1.019.384h1.185c.442 0 .785-.127 1.033-.385.248-.257.371-.568.371-.937v-.578c0-.368-.123-.68-.371-.937s-.591-.384-1.033-.384Zm-62.583 6.293c-.908-.8-2.106-1.198-3.596-1.198-2.332 0-4.123.69-5.372 2.065l-.054-1.102c-.019-.369-.229-.55-.632-.55h-1.569c-.293 0-.486.054-.578.165-.093.112-.137.302-.137.579V52.83c0 .33.083.578.248.743.165.165.432.248.797.248h1.433c.384 0 .657-.083.813-.248.156-.165.235-.413.235-.743v-7.3c0-.826.362-1.503 1.087-2.024.724-.524 1.575-.785 2.547-.785.919 0 1.582.188 1.999.566.413.378.619 1.016.619 1.915v7.631c0 .33.083.578.248.743.165.166.432.248.797.248h1.462c.365 0 .908-.082 1.064-.248.155-.165.235-.413.235-.743v-7.85c0-1.598-.734-2.795-1.642-3.596m39.621-1.2c-2.332 0-4.124.689-5.372 2.064l-.054-1.102c-.019-.369-.229-.55-.633-.55h-1.569c-.292 0-.486.054-.578.165-.092.112-.137.302-.137.579V52.83c0 .33.083.578.248.743.165.165.432.248.797.248h1.433c.385 0 .658-.083.813-.248.156-.165.236-.413.236-.743v-7.3c0-.826.362-1.503 1.086-2.024.724-.524 1.576-.785 2.548-.785.918 0 1.582.188 1.998.566.413.378.619 1.016.619 1.915v7.631c0 .33.083.578.248.743.165.166.432.248.798.248h1.461c.365 0 .629-.082.785-.248.155-.165.235-.413.235-.743v-7.85c0-1.598-.455-2.795-1.363-3.596-.909-.8-2.106-1.198-3.593-1.198m-53.917-13.479c-.111-.184-.219-.276-.33-.276-.092 0-.213.048-.359.137a6.75 6.75 0 0 1-1.652.797c-.569.184-1.239.276-2.011.276-1.525 0-2.681-.372-3.472-1.115-.788-.743-1.185-1.858-1.185-3.345s.394-2.529 1.185-3.345c.791-.817 1.874-1.226 3.25-1.226.772 0 1.436.085 1.998.26a7.539 7.539 0 0 1 1.693.785c.165.11.292.165.385.165.092 0 .193-.092.301-.276l.744-1.297a.752.752 0 0 0 .136-.384c0-.127-.082-.248-.248-.359a7.085 7.085 0 0 0-2.258-1.074c-.807-.219-1.792-.33-2.948-.33-1.56 0-2.926.299-4.092.896-1.166.597-2.062 1.43-2.684 2.494-.626 1.064-.938 2.296-.938 3.691 0 2.24.683 3.962 2.053 5.166 1.369 1.204 3.272 1.804 5.715 1.804 1.137 0 2.128-.114 2.973-.343a8.366 8.366 0 0 0 2.37-1.061c.184-.127.276-.258.276-.385a.473.473 0 0 0-.111-.301l-.797-1.35.006-.004Zm24.15-3.58c0-2.167-.651-3.879-1.957-5.137-1.305-1.258-3.148-1.887-5.537-1.887s-4.228.63-5.524 1.887c-1.296 1.258-1.941 2.97-1.941 5.137 0 2.167.648 3.879 1.941 5.137 1.293 1.258 3.135 1.887 5.524 1.887 2.389 0 4.232-.63 5.537-1.887 1.303-1.258 1.957-2.97 1.957-5.137Zm-4.517 3.304c-.68.753-1.671 1.128-2.974 1.128-1.302 0-2.271-.382-2.96-1.144-.69-.762-1.033-1.858-1.033-3.291 0-1.433.343-2.52 1.033-3.266.689-.743 1.674-1.115 2.96-1.115 1.287 0 2.294.372 2.974 1.115.68.743 1.02 1.833 1.02 3.266s-.34 2.55-1.02 3.304m4.295 11.274c.321-.384.877-.578 1.668-.578.403 0 .759.05 1.061.153.302.101.638.25 1.004.454.146.073.247.11.301.11.093 0 .194-.082.302-.247l.69-1.156a.48.48 0 0 0 .111-.302c0-.146-.083-.276-.248-.384-.956-.715-2.268-1.074-3.939-1.074-1.671 0-2.891.432-3.72 1.296-.826.864-1.239 2.065-1.239 3.609v1.02h-1.296c-.369 0-.62.073-.756.219-.137.146-.207.394-.207.743v.632c0 .35.07.6.207.76.136.155.39.235.756.235h1.296v9.641c0 .33.079.578.235.744.156.165.419.247.785.247h1.461c.384 0 .657-.082.813-.247.156-.166.235-.413.235-.744v-9.641h3.39c.368 0 .623-.08.772-.235.146-.156.219-.41.219-.76v-.632c0-.35-.073-.597-.219-.743-.146-.146-.404-.22-.772-.22h-3.39v-1.073c0-.826.162-1.433.483-1.817m-26.1 2.884h-1.433c-.369 0-.632.083-.801.248-.165.165-.248.422-.248.772v11.21c0 .331.083.58.248.744.165.165.432.248.801.248h1.433c.384 0 .657-.083.813-.248.155-.165.235-.413.235-.743V41.62c0-.35-.083-.607-.248-.772-.165-.165-.432-.248-.8-.248Zm29.788-10.861h1.433c.384 0 .658-.083.813-.248.156-.165.235-.413.235-.743v-7.3c0-.827.363-1.503 1.087-2.024.724-.524 1.572-.785 2.548-.785.918 0 1.585.187 1.998.566.413.378.619 1.016.619 1.915v7.63c0 .331.083.579.248.744.165.165.432.248.801.248h1.458c.368 0 .629-.083.785-.248.155-.165.235-.413.235-.743V20.9c0-1.598-.455-2.796-1.363-3.593-.909-.8-2.106-1.198-3.596-1.198-2.332 0-4.124.69-5.372 2.065l-.054-1.102c-.019-.369-.229-.55-.633-.55h-1.569c-.292 0-.486.054-.578.165-.092.112-.137.302-.137.579v11.487c0 .33.083.578.248.743.165.166.432.248.801.248m43.884 21.377c-.111-.165-.219-.248-.33-.248a.471.471 0 0 0-.302.111c-.35.238-.67.41-.963.508-.295.102-.651.153-1.073.153-.718 0-1.22-.188-1.516-.566-.295-.374-.441-.987-.441-1.832v-6.059h3.249c.369 0 .61-.063.731-.194.121-.127.178-.368.178-.714v-.744c0-.35-.06-.59-.178-.73-.121-.137-.362-.207-.731-.207h-3.249v-3.469c0-.311-.07-.546-.207-.702-.137-.156-.372-.235-.702-.235h-.909c-.257 0-.435.032-.536.095-.102.064-.207.207-.318.426-.292.515-.508.94-.648 1.28-.137.34-.207.702-.207 1.09V40.6h-1.569c-.369 0-.61.07-.731.207-.12.136-.181.38-.181.73v.744c0 .35.061.587.181.715.121.13.362.193.731.193h1.569v6.17c0 1.524.394 2.719 1.185 3.58.791.86 1.964 1.296 3.527 1.296 1.563 0 2.938-.368 4.075-1.102.185-.127.277-.258.277-.385a.473.473 0 0 0-.111-.301l-.798-1.322-.003-.003ZM122.3 35.092h-1.185c-.442 0-.782.127-1.02.384a1.33 1.33 0 0 0-.359.937v.578c0 .369.121.68.359.938.238.257.578.384 1.02.384h1.185c.441 0 .784-.127 1.032-.385.248-.257.372-.568.372-.937v-.578a1.3 1.3 0 0 0-.372-.937c-.248-.257-.591-.384-1.032-.384Zm-15.649-6.948.219 1.074c.035.184.105.317.207.4.101.083.25.124.454.124h1.515c.292 0 .499-.054.62-.165.12-.112.178-.302.178-.579V17.76c-1.617-1.102-3.59-1.652-5.922-1.652-1.671 0-3.136.32-4.394.963-1.258.641-2.227 1.556-2.906 2.741-.68 1.185-1.02 2.548-1.02 4.092 0 1.982.534 3.523 1.598 4.613 1.064 1.093 2.497 1.639 4.298 1.639 1.195 0 2.208-.162 3.043-.483a4.966 4.966 0 0 0 2.107-1.528m-6.65-1.433c-.616-.622-.92-1.598-.92-2.92 0-1.616.44-2.884 1.321-3.802.88-.918 2.046-1.375 3.498-1.375.568 0 1.051.04 1.445.123.394.083.785.226 1.169.426v5.372c0 .937-.372 1.69-1.115 2.259s-1.601.854-2.576.854c-1.268 0-2.208-.31-2.825-.937M49.287 50.76c-.11-.166-.222-.248-.33-.248-.054 0-.175.044-.359.136-1.236.718-2.808 1.077-4.724 1.077-2.062 0-3.7-.594-4.918-1.782-1.216-1.188-1.823-2.999-1.823-5.429s.59-4.19 1.77-5.388c1.178-1.197 2.808-1.795 4.889-1.795 1.804 0 3.288.35 4.447 1.049.184.092.315.136.388.136.092 0 .193-.082.305-.248l.771-1.324c.093-.146.14-.277.14-.388 0-.13-.082-.248-.248-.359-.736-.48-1.639-.848-2.706-1.105-1.068-.258-2.23-.388-3.482-.388-3.132 0-5.54.848-7.224 2.541-1.687 1.694-2.529 4.118-2.529 7.266 0 3.148.858 5.572 2.57 7.265 1.713 1.697 4.137 2.542 7.266 2.542 2.871 0 5.02-.5 6.436-1.493.203-.128.305-.248.305-.36a.675.675 0 0 0-.083-.276l-.858-1.436-.003.007Zm5.763-9.563c-1.261.645-2.233 1.56-2.916 2.748-.68 1.188-1.023 2.554-1.023 4.102 0 1.988.534 3.532 1.601 4.628s2.506 1.643 4.31 1.643c1.199 0 2.215-.162 3.054-.483a4.953 4.953 0 0 0 2.112-1.535l.223 1.077c.038.185.105.318.206.4.102.083.251.124.455.124h1.518c.295 0 .502-.054.623-.165.12-.11.18-.305.18-.581V41.884c-1.62-1.106-3.602-1.659-5.94-1.659-1.677 0-3.145.324-4.406.966m7.005 2.106v5.388c0 .94-.372 1.697-1.118 2.265-.747.572-1.608.858-2.583.858-1.27 0-2.215-.311-2.83-.94-.617-.626-.925-1.602-.925-2.93 0-1.62.441-2.89 1.325-3.812.883-.92 2.052-1.381 3.507-1.381.572 0 1.054.04 1.452.123.397.083.787.226 1.175.43m15.719-2.653c-.426-.277-1.042-.413-1.852-.413-1.77 0-3.196.654-4.283 1.96l-.082-.995c-.02-.203-.073-.346-.166-.428-.092-.083-.238-.124-.441-.124h-1.576c-.295 0-.489.057-.581.165-.092.111-.14.305-.14.581v11.523c0 .33.083.58.248.746.165.165.432.248.8.248h1.436c.388 0 .658-.083.817-.248.156-.165.235-.413.235-.746v-7.24c0-.903.305-1.617.912-2.142.606-.524 1.382-.787 2.319-.787.572 0 1.077.101 1.518.305l.223.053c.146 0 .247-.092.305-.276l.498-1.658a.457.457 0 0 0 .013-.29.501.501 0 0 0-.207-.234m14.287-5.525h-1.382c-.369 0-.636.083-.8.248-.166.165-.249.422-.249.775v5.388c-.867-.864-2.265-1.3-4.2-1.3-1.362 0-2.547.296-3.551.884a5.874 5.874 0 0 0-2.306 2.471c-.534 1.061-.8 2.281-.8 3.66 0 4.714 2.614 7.072 7.846 7.072 1.27 0 2.497-.172 3.675-.512 1.179-.34 2.12-.769 2.818-1.283V36.14c0-.35-.083-.607-.248-.775-.165-.165-.432-.248-.8-.248m-2.434 16.027c-.718.442-1.693.664-2.929.664-1.493 0-2.608-.35-3.342-1.048-.737-.7-1.105-1.843-1.105-3.425 0-1.417.33-2.532.994-3.342.664-.81 1.668-1.217 3.012-1.217.994 0 1.804.232 2.43.69.626.46.94 1.143.94 2.045v5.636-.003Zm9.312-16.024h-1.189c-.441 0-.784.13-1.022.388a1.323 1.323 0 0 0-.36.94v.581c0 .369.121.683.36.94.238.258.58.388 1.022.388h1.189c.441 0 .787-.13 1.035-.387.248-.258.372-.572.372-.94v-.582c0-.368-.124-.68-.372-.94-.248-.258-.594-.388-1.035-.388Zm.136 5.525h-1.436c-.368 0-.635.082-.8.247-.165.166-.248.426-.248.776v11.245c0 .33.082.582.248.747.165.165.432.248.8.248h1.436c.388 0 .658-.083.817-.248.155-.165.235-.413.235-.746V41.667c0-.35-.083-.607-.248-.776-.165-.165-.432-.247-.8-.247m10.908-.413c-2.395 0-4.241.632-5.54 1.893-1.299 1.261-1.947 2.98-1.947 5.153 0 2.173.648 3.891 1.947 5.153 1.299 1.26 3.145 1.893 5.54 1.893 2.396 0 4.245-.632 5.554-1.893 1.308-1.262 1.96-2.98 1.96-5.153 0-2.173-.655-3.892-1.96-5.153-1.309-1.261-3.161-1.893-5.554-1.893Zm2.987 10.362c-.683.756-1.678 1.134-2.983 1.134-1.306 0-2.278-.38-2.971-1.146-.689-.766-1.035-1.865-1.035-3.301 0-1.436.346-2.529 1.035-3.275.69-.747 1.681-1.118 2.971-1.118 1.289 0 2.303.371 2.983 1.118.683.746 1.023 1.836 1.023 3.275 0 1.44-.34 2.56-1.023 3.317"/></svg>