<svg width="24" height="25" viewBox="0 0 24 25" fill="none" xmlns="http://www.w3.org/2000/svg">
<path d="M14.8299 11.692L10.5899 7.45205C10.497 7.35832 10.3864 7.28393 10.2645 7.23316C10.1427 7.18239 10.012 7.15625 9.87994 7.15625C9.74793 7.15625 9.61723 7.18239 9.49537 7.23316C9.37351 7.28393 9.26291 7.35832 9.16994 7.45205C8.98369 7.63941 8.87915 7.89286 8.87915 8.15705C8.87915 8.42123 8.98369 8.67469 9.16994 8.86205L12.7099 12.402L9.16994 15.942C8.98369 16.1294 8.87915 16.3829 8.87915 16.647C8.87915 16.9112 8.98369 17.1647 9.16994 17.352C9.26338 17.4447 9.3742 17.5181 9.49604 17.5678C9.61787 17.6176 9.74834 17.6428 9.87994 17.642C10.0115 17.6428 10.142 17.6176 10.2638 17.5678C10.3857 17.5181 10.4965 17.4447 10.5899 17.352L14.8299 13.112C14.9237 13.0191 14.9981 12.9085 15.0488 12.7866C15.0996 12.6648 15.1257 12.5341 15.1257 12.402C15.1257 12.27 15.0996 12.1393 15.0488 12.0175C14.9981 11.8956 14.9237 11.785 14.8299 11.692Z" fill="#263956"/>
</svg>
