<svg xmlns="http://www.w3.org/2000/svg" width="147" height="55" fill="none" viewBox="0 0 147 55"><path fill="#002D72" d="M35.88 50.858c-2.335-2.31-3.5-5.608-3.5-9.901s1.146-7.591 3.444-9.901c2.297-2.31 5.576-3.463 9.844-3.463 1.707 0 3.29.177 4.744.529 1.455.35 2.686.851 3.69 1.504.227.15.339.314.339.491 0 .15-.062.327-.19.526l-1.054 1.806c-.152.227-.289.339-.413.339-.1 0-.277-.063-.529-.19-1.582-.954-3.602-1.43-6.061-1.43-2.835 0-5.058.814-6.662 2.446-1.607 1.632-2.41 4.079-2.41 7.34 0 3.26.828 5.779 2.485 7.398 1.657 1.62 3.889 2.428 6.702 2.428 2.611 0 4.756-.488 6.438-1.467.248-.125.413-.187.49-.187.15 0 .302.112.452.34l1.168 1.957a.904.904 0 0 1 .112.377c0 .149-.136.314-.413.488-1.934 1.355-4.856 2.033-8.773 2.033-4.265 0-7.566-1.154-9.9-3.463M58.352 52.08c-1.455-1.493-2.183-3.597-2.183-6.305 0-2.108.464-3.973 1.393-5.59.93-1.619 2.254-2.865 3.973-3.745 1.719-.877 3.72-1.318 6.006-1.318 3.186 0 5.884.752 8.094 2.26v15.36c0 .376-.08.64-.245.789-.165.15-.445.227-.849.227h-2.07c-.277 0-.485-.056-.622-.168-.137-.112-.233-.295-.283-.547l-.301-1.467a6.798 6.798 0 0 1-2.879 2.089c-1.144.438-2.527.659-4.16.659-2.458 0-4.416-.746-5.871-2.242m11.2-2.353c1.016-.777 1.526-1.806 1.526-3.087V39.3a6.228 6.228 0 0 0-1.6-.585c-.542-.112-1.2-.17-1.978-.17-1.983 0-3.575.627-4.78 1.88-1.207 1.256-1.807 2.988-1.807 5.195 0 1.806.42 3.136 1.262 3.991.84.855 2.127 1.28 3.858 1.28 1.33 0 2.502-.388 3.519-1.165M80.41 53.416c-.227-.227-.339-.566-.339-1.017V36.701c0-.376.063-.64.187-.79.124-.152.389-.227.79-.227h2.144c.277 0 .476.056.604.172.124.111.198.307.223.584l.112 1.355c1.48-1.781 3.426-2.673 5.835-2.673 1.104 0 1.943.19 2.521.566.15.1.246.208.283.32a.624.624 0 0 1-.019.395l-.677 2.26c-.075.251-.215.376-.414.376l-.301-.075c-.603-.277-1.293-.413-2.07-.413-1.281 0-2.335.357-3.162 1.072-.827.715-1.243 1.688-1.243 2.92v9.863c0 .45-.106.79-.32 1.016-.215.227-.585.339-1.11.339h-1.959c-.5 0-.867-.112-1.091-.339M93.849 44.684c0-1.884.363-3.544 1.09-4.986.728-1.443 1.776-2.568 3.144-3.37 1.367-.802 2.981-1.203 4.837-1.203 2.636 0 4.541.59 5.722 1.769v-7.34c0-.475.112-.826.339-1.053.227-.227.591-.34 1.091-.34h1.881c.501 0 .867.113 1.091.34.227.227.339.578.339 1.053v22.323c-.954.703-2.235 1.287-3.839 1.75a17.996 17.996 0 0 1-5.008.697c-7.128 0-10.69-3.211-10.69-9.637m14.793 5.307v-7.679c0-1.23-.429-2.157-1.28-2.785-.855-.628-1.959-.942-3.314-.942-1.831 0-3.199.553-4.103 1.657-.902 1.104-1.356 2.624-1.356 4.554 0 2.157.5 3.715 1.508 4.666 1.004.954 2.521 1.43 4.554 1.43 1.682 0 3.012-.302 3.991-.905M118.316 32.035a1.811 1.811 0 0 1-.488-1.28v-.79c0-.5.162-.93.488-1.281.327-.351.79-.529 1.393-.529h1.62c.603 0 1.072.178 1.411.529.339.351.51.777.51 1.28v.79c0 .504-.168.93-.51 1.281-.339.351-.808.529-1.411.529h-1.62c-.603 0-1.066-.175-1.393-.529Zm.153 21.381c-.227-.227-.339-.566-.339-1.016V37.077c0-.475.112-.83.339-1.054.227-.227.59-.339 1.091-.339h1.958c.501 0 .868.113 1.091.34.227.226.339.578.339 1.053V52.4c0 .45-.106.79-.32 1.016-.215.227-.584.339-1.11.339h-1.958c-.504 0-.868-.112-1.091-.339ZM128.839 51.74c-1.769-1.719-2.655-4.06-2.655-7.019 0-2.96.886-5.3 2.655-7.019 1.769-1.72 4.284-2.58 7.548-2.58 3.264 0 5.785.86 7.566 2.58 1.781 1.719 2.673 4.06 2.673 7.02 0 2.959-.892 5.302-2.673 7.018-1.781 1.72-4.305 2.58-7.566 2.58s-5.779-.857-7.548-2.58Zm11.614-2.502c.929-1.029 1.392-2.533 1.392-4.517 0-1.983-.463-3.444-1.392-4.46-.93-1.017-2.285-1.524-4.066-1.524-1.782 0-3.106.51-4.048 1.523-.942 1.017-1.411 2.503-1.411 4.461 0 1.959.469 3.457 1.411 4.498.942 1.042 2.288 1.564 4.048 1.564 1.759 0 3.136-.513 4.066-1.542"/><path fill="#E40046" d="M28.105.33C23.669.22 21.452 3.515 21.44 3.533 20.119 1.776 17.778.352 15.114.324a8.038 8.038 0 0 0-7.92 6.274c-1.297 4.305.649 9.503 4.597 12.76 6.289 5.189 13.093 5.294 17.654 5.148a.545.545 0 0 0 .516-.54.533.533 0 0 0-.246-.451l.003-.004c-.435-.31-1.557-1.29-1.514-2.66.056-1.716 1.004-2.559 1.368-2.929.89-.901 2.273-2.157 3.653-3.544 1.896-1.908 2.692-3.976 2.692-6.027.006-4.365-3.529-7.912-7.812-8.02Z"/><path fill="#002D72" d="M11.409 52.017c-1.455-1.492-2.183-3.597-2.183-6.307 0-2.108.463-3.97 1.393-5.59.93-1.619 2.254-2.866 3.973-3.745 1.719-.88 3.72-1.318 6.006-1.318 3.186 0 5.884.752 8.094 2.26v15.36c0 .375-.08.64-.245.789-.165.149-.445.227-.849.227h-2.07c-.277 0-.482-.056-.622-.168-.137-.112-.233-.295-.283-.547l-.301-1.468a6.798 6.798 0 0 1-2.879 2.09c-1.144.438-2.527.658-4.16.658-2.458 0-4.417-.746-5.871-2.24m11.2-2.354c1.017-.777 1.523-1.806 1.523-3.087v-7.342a6.228 6.228 0 0 0-1.6-.585c-.542-.112-1.2-.168-1.978-.168-1.983 0-3.575.628-4.78 1.881-1.207 1.256-1.807 2.987-1.807 5.194 0 1.807.42 3.137 1.262 3.992.84.852 2.126 1.28 3.858 1.28 1.33 0 2.502-.388 3.519-1.165M6.72 50.193a3.094 3.094 0 0 1-.577-.18c-.349-.153-.613-.349-.8-.591a2.014 2.014 0 0 1-.375-.886 6.47 6.47 0 0 1-.1-1.182l-.01-17.64c0-.032-.002-.057-.005-.088v-.078c0-.037-.007-.071-.013-.108-.037-.34-.143-.604-.323-.784-.227-.227-.594-.339-1.1-.339H1.441c-.506 0-.873.112-1.1.34-.183.183-.29.45-.326.795-.004.031-.016.056-.016.087V45.032c0 .075.01.14.016.209v3.102c.003.92.096 1.747.28 2.48a3.973 3.973 0 0 0 1.044 1.872c.51.513 1.206.914 2.086 1.197.712.23 1.943.373 3.003.429a.866.866 0 0 0 .904-.721l.062-2.422a.863.863 0 0 0-.677-.985"/></svg>