<svg xmlns="http://www.w3.org/2000/svg" width="170" height="53" fill="none" viewBox="0 0 170 53"><path fill="#fff" d="M151.556 52.857c-10.171 0-18.445-8.274-18.445-18.445V7.363a2.236 2.236 0 0 1 4.471 0v27.052c0 7.705 6.269 13.974 13.974 13.974s13.974-6.269 13.974-13.974V5.575c0-1.234 4.471-1.234 4.471 0v28.84c0 10.17-8.274 18.445-18.445 18.445v-.003Z"/><path fill="#fff" d="M167.765 6.19c1.204 0 2.18-.35 2.18-.783 0-.432-.976-.783-2.18-.783-1.204 0-2.18.35-2.18.783 0 .433.976.784 2.18.784ZM168.735.003c-.659-.015-.988.473-.992.473a1.194 1.194 0 0 0-2.12.454c-.193.637.096 1.408.684 1.89.936.768 1.95.784 2.627.762a.08.08 0 0 0 .078-.08.075.075 0 0 0-.037-.066c-.065-.047-.233-.19-.224-.395.009-.255.149-.38.202-.435.134-.134.339-.32.544-.526.283-.283.401-.587.401-.892 0-.647-.525-1.172-1.163-1.188M6.129 28.177a11.29 11.29 0 0 1-4.518-4.465C.538 21.797 0 19.605 0 17.136c0-2.469.538-4.661 1.61-6.576A11.27 11.27 0 0 1 6.13 6.094c1.937-1.06 4.154-1.592 6.648-1.592 2.307 0 4.378.426 6.215 1.282 1.835.855 3.337 2.083 4.5 3.687 1.166 1.605 1.934 3.492 2.3 5.66h-8.205a4.311 4.311 0 0 0-1.68-2.199c-.795-.541-1.713-.815-2.751-.815-1.409 0-2.544.464-3.411 1.384-.865.924-1.297 2.136-1.297 3.635 0 1.499.432 2.683 1.297 3.616.864.936 1.978 1.402 3.34 1.402 1.085 0 2.03-.276 2.838-.83.809-.553 1.384-1.315 1.732-2.285h8.24c-.277 2.145-1.01 4.027-2.198 5.643-1.188 1.617-2.718 2.867-4.587 3.757-1.868.889-3.958 1.334-6.265 1.334-2.54 0-4.78-.532-6.716-1.592v-.004ZM29.393 28.143c-1.247-1.038-1.869-2.447-1.869-4.222 0-1.776.566-3.075 1.698-4.102 1.132-1.026 2.652-1.539 4.571-1.539h5.886v-1.107c0-.46-.19-.848-.572-1.16-.383-.31-.861-.466-1.437-.466-.531 0-.982.14-1.35.417-.37.277-.577.646-.621 1.107h-7.27c.277-2.217 1.207-3.896 2.786-5.038 1.58-1.14 3.744-1.713 6.493-1.713 3.115 0 5.503.728 7.167 2.18 1.663 1.452 2.494 3.566 2.494 6.337v10.42h-5.644l-.796-2.01a7.63 7.63 0 0 1-2.82 1.835c-1.098.417-2.301.622-3.616.622-2.146 0-3.844-.519-5.09-1.558l-.01-.003Zm6.197-3.722c.345.265.818.398 1.418.398.83 0 1.499-.242 2.009-.727.507-.485.762-1.132.762-1.937v-.243h-2.77c-.601 0-1.074.134-1.419.398s-.52.619-.52 1.057c0 .439.175.79.52 1.057v-.003ZM50.96 10.796h5.61l.864 2.251c.6-.783 1.334-1.356 2.198-1.713.864-.358 1.897-.538 3.1-.538h2.354v7.027h-2.422c-1.34 0-2.307.324-2.907.97-.6.647-.9 1.639-.9 2.98v7.477h-7.894V10.8l-.003-.004ZM70.71 28.523a8.378 8.378 0 0 1-3.304-3.411c-.784-1.465-1.179-3.156-1.179-5.072 0-1.915.392-3.607 1.178-5.071a8.513 8.513 0 0 1 3.306-3.427c1.42-.818 3.04-1.228 4.863-1.228 1.822 0 3.392.392 4.78 1.178v-7.86h7.894V29.25h-5.644l-.693-1.8a8.44 8.44 0 0 1-2.82 1.698c-1.073.392-2.245.587-3.514.587-1.822 0-3.445-.404-4.863-1.212h-.003Zm4.12-6.076c.613.612 1.416.917 2.407.917.992 0 1.795-.305 2.407-.917.613-.613.917-1.415.917-2.407s-.304-1.8-.917-2.422c-.612-.622-1.415-.936-2.407-.936-.991 0-1.794.311-2.406.936-.613.622-.918 1.43-.918 2.422 0 .992.305 1.794.918 2.407ZM92.85 1.225C93.68.43 94.778.031 96.14.031s2.422.398 3.255 1.194c.83.796 1.247 1.84 1.247 3.134 0 1.294-.417 2.342-1.247 3.15-.83.809-1.915 1.213-3.255 1.213-1.34 0-2.46-.404-3.29-1.213-.83-.808-1.247-1.856-1.247-3.15 0-1.293.417-2.338 1.247-3.134Zm-.656 9.57h7.895v18.452h-7.895V10.796ZM108.151 28.557c-1.66-.809-2.954-1.944-3.877-3.411-.924-1.465-1.384-3.169-1.384-5.106 0-1.937.46-3.64 1.384-5.105.923-1.465 2.217-2.603 3.877-3.412 1.661-.808 3.576-1.212 5.746-1.212 2.171 0 4.12.404 5.781 1.213 1.66.808 2.948 1.943 3.859 3.41.911 1.468 1.368 3.169 1.368 5.106 0 1.937-.457 3.641-1.368 5.106-.911 1.464-2.199 2.602-3.859 3.41-1.661.81-3.588 1.213-5.781 1.213-2.192 0-4.085-.404-5.746-1.212Zm3.358-6.11c.622.612 1.421.917 2.388.917.967 0 1.767-.305 2.388-.917.622-.613.936-1.415.936-2.407s-.311-1.8-.936-2.422c-.621-.622-1.421-.936-2.388-.936-.967 0-1.766.311-2.388.936-.621.622-.936 1.43-.936 2.422 0 .992.311 1.794.936 2.407ZM2.733 41.691a3.922 3.922 0 0 1-1.508-1.54c-.36-.655-.544-1.402-.544-2.238 0-.836.18-1.58.544-2.239.361-.656.865-1.169 1.508-1.539.644-.37 1.372-.556 2.183-.556.955 0 1.797.258 2.525.777a3.899 3.899 0 0 1 1.499 2.09h-.765a3.079 3.079 0 0 0-1.228-1.565c-.582-.382-1.253-.572-2.018-.572-.675 0-1.281.153-1.813.454a3.183 3.183 0 0 0-1.247 1.278c-.299.55-.448 1.172-.448 1.875 0 .703.15 1.325.448 1.872.298.55.715.973 1.247 1.278.532.302 1.138.454 1.813.454.786 0 1.48-.199 2.077-.597a3.072 3.072 0 0 0 1.24-1.636h.765a3.944 3.944 0 0 1-.845 1.564c-.399.445-.874.79-1.434 1.033a4.507 4.507 0 0 1-1.813.364c-.811 0-1.539-.184-2.183-.554l-.003-.003ZM10.364 33.728a.613.613 0 0 1 .46-.18c.193 0 .345.058.46.18a.618.618 0 0 1 .175.441c0 .174-.06.333-.175.454a.602.602 0 0 1-.46.18.602.602 0 0 1-.46-.18.632.632 0 0 1-.174-.454c0-.183.056-.323.174-.441Zm.115 2.195h.694v6.17h-.694v-6.17ZM14.117 41.834a2.849 2.849 0 0 1-1.11-1.144c-.261-.488-.395-1.051-.395-1.689 0-.637.133-1.188.4-1.676.268-.488.638-.87 1.117-1.144.48-.273 1.026-.41 1.648-.41.622 0 1.197.146 1.682.441.486.296.855.71 1.11 1.24.255.532.374 1.145.358 1.839h-5.61c.063.7.318 1.259.76 1.676.44.416 1.004.625 1.688.625.5 0 .942-.112 1.324-.333.383-.224.675-.532.883-.93l.778.013a2.946 2.946 0 0 1-1.15 1.396c-.53.342-1.142.513-1.832.513-.622 0-1.17-.137-1.648-.41l-.003-.007Zm4.13-3.156c-.082-.7-.343-1.25-.788-1.654-.444-.404-1.007-.604-1.682-.604s-1.25.206-1.694.616c-.445.41-.7.958-.765 1.642h4.928ZM20.345 35.923h.585l.059 1.194c.24-.438.563-.771.973-1.001a2.74 2.74 0 0 1 1.365-.345c.802 0 1.437.26 1.903.786.466.526.7 1.235.7 2.124v3.414h-.694v-3.352c0-.709-.18-1.268-.538-1.682-.357-.413-.842-.622-1.455-.622-.429 0-.811.103-1.144.311a2.103 2.103 0 0 0-.78.864c-.187.37-.28.797-.28 1.282v3.2h-.694v-6.173ZM28.76 41.828a2.92 2.92 0 0 1-1.117-1.15c-.268-.489-.401-1.049-.401-1.677 0-.628.133-1.188.4-1.676.268-.488.638-.87 1.117-1.144.479-.273 1.023-.41 1.636-.41.73 0 1.377.202 1.934.603.556.401.923.936 1.097 1.604h-.702a2.42 2.42 0 0 0-.915-1.135c-.41-.27-.88-.404-1.414-.404-.48 0-.902.106-1.278.324a2.21 2.21 0 0 0-.871.907c-.208.39-.31.837-.31 1.337 0 .501.102.946.31 1.338.208.388.498.693.87.914.374.217.8.33 1.279.33.566 0 1.057-.147 1.474-.442.416-.296.715-.697.889-1.207h.727c-.208.725-.584 1.29-1.135 1.701-.55.41-1.2.616-1.955.616-.613 0-1.157-.14-1.636-.417v-.012ZM34.78 33.728a.613.613 0 0 1 .46-.18c.192 0 .344.058.46.18a.618.618 0 0 1 .174.441c0 .174-.06.333-.175.454a.602.602 0 0 1-.46.18.602.602 0 0 1-.46-.18.632.632 0 0 1-.174-.454c0-.183.056-.323.174-.441Zm.111 2.195h.693v6.17h-.693v-6.17ZM37.798 41.691c-.416-.33-.625-.777-.625-1.343s.19-.986.572-1.306c.383-.324.893-.482 1.527-.482h2.72v-.442c0-.516-.173-.93-.518-1.24-.345-.311-.806-.467-1.378-.467-.46 0-.864.109-1.206.33a1.653 1.653 0 0 0-.703.89h-.703c.153-.573.46-1.027.924-1.363.466-.336 1.023-.5 1.676-.5.51 0 .96.096 1.355.292.395.196.7.466.92.818.218.351.33.752.33 1.206v4.008h-.572l-.071-1.063c-.27.373-.625.659-1.064.858-.438.199-.93.298-1.48.298-.715 0-1.284-.164-1.7-.494h-.004Zm.513-.457c.299.224.703.333 1.213.333.47 0 .892-.09 1.272-.274.376-.184.675-.438.89-.765a1.96 1.96 0 0 0 .322-1.098v-.26H39.3c-.423 0-.765.108-1.032.323a1.033 1.033 0 0 0-.401.845c0 .373.149.672.448.896h-.004ZM46.598 43.82h.513c.301 0 .538-.024.709-.077a.887.887 0 0 0 .423-.274c.111-.13.224-.332.335-.603l.346-.87-2.936-6.073h.775l1.455 3.044 1.063 2.195.883-2.195 1.253-3.044h.728l-2.948 7.208c-.143.357-.301.634-.472.83-.172.196-.377.33-.616.404-.24.075-.55.115-.93.115h-.584v-.656l.003-.003ZM57.378 41.896a2.892 2.892 0 0 1-1.091-.973v3.557h-.694v-8.557h.585l.071 1.228c.27-.438.635-.777 1.092-1.02a3.248 3.248 0 0 1 1.545-.364c.613 0 1.16.14 1.642.417.482.28.855.663 1.122 1.15.268.489.401 1.045.401 1.664s-.133 1.179-.4 1.67c-.268.494-.641.88-1.123 1.157-.482.28-1.03.416-1.642.416-.556 0-1.06-.118-1.508-.351v.006Zm-.793-1.558c.215.389.516.694.902.914.386.218.83.33 1.33.33.501 0 .943-.109 1.325-.33.383-.217.681-.522.896-.914.214-.388.323-.836.323-1.337 0-.5-.109-.936-.323-1.324a2.343 2.343 0 0 0-.896-.914c-.382-.218-.824-.327-1.324-.327-.5 0-.945.109-1.331.327a2.298 2.298 0 0 0-.902.914c-.214.388-.323.83-.323 1.324 0 .495.109.946.323 1.337ZM63.494 35.923h.585l.071 1.384c.209-.47.495-.818.865-1.045.37-.227.836-.339 1.402-.339h.513v.644h-.538c-.693 0-1.234.22-1.623.662-.389.441-.584 1.116-.584 2.021v2.839h-.694v-6.17l.003.004ZM68.687 41.834a2.849 2.849 0 0 1-1.11-1.144c-.261-.488-.395-1.051-.395-1.689 0-.637.134-1.188.401-1.676.268-.488.638-.87 1.117-1.144.478-.273 1.026-.41 1.647-.41.622 0 1.198.146 1.683.441.485.296.855.71 1.11 1.24.255.532.373 1.145.357 1.839h-5.609c.062.7.317 1.259.759 1.676.441.416 1.004.625 1.688.625.5 0 .942-.112 1.325-.333.382-.224.674-.532.883-.93l.777.013a2.946 2.946 0 0 1-1.15 1.396c-.529.342-1.142.513-1.832.513-.622 0-1.169-.137-1.648-.41l-.003-.007Zm4.13-3.156c-.081-.7-.343-1.25-.787-1.654-.445-.404-1.008-.604-1.683-.604-.674 0-1.25.206-1.694.616-.445.41-.7.958-.765 1.642h4.928ZM76.7 41.896a2.893 2.893 0 0 1-1.092-.973v3.557h-.693v-8.557h.585l.071 1.228a2.8 2.8 0 0 1 1.091-1.02 3.249 3.249 0 0 1 1.546-.364c.612 0 1.16.14 1.642.417.482.28.855.663 1.122 1.15.268.489.401 1.045.401 1.664s-.133 1.179-.4 1.67c-.268.494-.641.88-1.123 1.157-.482.28-1.03.416-1.642.416a3.22 3.22 0 0 1-1.508-.351v.006Zm-.796-1.558c.214.389.516.694.902.914.385.218.83.33 1.33.33.501 0 .943-.109 1.325-.33.383-.217.681-.522.895-.914.215-.388.324-.836.324-1.337 0-.5-.109-.936-.324-1.324a2.343 2.343 0 0 0-.895-.914c-.382-.218-.824-.327-1.325-.327-.5 0-.945.109-1.33.327a2.298 2.298 0 0 0-.902.914c-.215.388-.323.83-.323 1.324 0 .495.108.946.323 1.337ZM82.962 41.691c-.416-.33-.625-.777-.625-1.343s.19-.986.572-1.306c.383-.324.893-.482 1.527-.482h2.721v-.442c0-.516-.174-.93-.52-1.24-.344-.311-.805-.467-1.377-.467-.46 0-.864.109-1.206.33a1.652 1.652 0 0 0-.703.89h-.703c.153-.573.46-1.027.924-1.363.466-.336 1.023-.5 1.676-.5.51 0 .96.096 1.355.292.395.196.7.466.92.818.219.351.33.752.33 1.206v4.008h-.572l-.071-1.063c-.27.373-.625.659-1.064.858-.438.199-.93.298-1.48.298-.715 0-1.284-.164-1.7-.494h-.004Zm.513-.457c.299.224.703.333 1.213.333.47 0 .892-.09 1.272-.274.376-.184.675-.438.89-.765a1.96 1.96 0 0 0 .323-1.098v-.26h-2.709c-.423 0-.765.108-1.032.323a1.033 1.033 0 0 0-.401.845c0 .373.15.672.448.896h-.004ZM89.7 35.923h.585l.072 1.384c.208-.47.494-.818.864-1.045.37-.227.836-.339 1.402-.339h.513v.644h-.538c-.693 0-1.234.22-1.623.662-.388.441-.584 1.116-.584 2.021v2.839h-.694v-6.17l.003.004ZM94.134 41.691c-.416-.33-.625-.777-.625-1.343s.19-.986.572-1.306c.383-.324.893-.482 1.527-.482h2.72v-.442c0-.516-.173-.93-.518-1.24-.346-.311-.806-.467-1.378-.467-.46 0-.864.109-1.206.33a1.652 1.652 0 0 0-.703.89h-.703c.153-.573.46-1.027.924-1.363.466-.336 1.023-.5 1.676-.5.51 0 .96.096 1.355.292.395.196.7.466.92.818.218.351.33.752.33 1.206v4.008h-.572l-.071-1.063c-.27.373-.625.659-1.064.858-.438.199-.93.298-1.48.298-.715 0-1.284-.164-1.7-.494h-.004Zm.513-.457c.299.224.703.333 1.213.333.47 0 .892-.09 1.272-.274.376-.184.674-.438.889-.765.215-.326.323-.693.323-1.098v-.26h-2.708c-.423 0-.765.108-1.032.323a1.033 1.033 0 0 0-.401.845c0 .373.149.672.447.896h-.003ZM101.849 41.828a2.917 2.917 0 0 1-1.116-1.15c-.268-.489-.401-1.049-.401-1.677 0-.628.133-1.188.401-1.676a2.88 2.88 0 0 1 1.116-1.144c.479-.273 1.023-.41 1.635-.41.731 0 1.378.202 1.935.603.556.401.923.936 1.097 1.604h-.703a2.418 2.418 0 0 0-.914-1.135c-.41-.27-.88-.404-1.415-.404-.478 0-.901.106-1.277.324a2.203 2.203 0 0 0-.871.907c-.208.39-.311.837-.311 1.337 0 .501.103.946.311 1.338.208.388.497.693.871.914.373.217.799.33 1.277.33.566 0 1.058-.147 1.474-.442a2.38 2.38 0 0 0 .89-1.207h.727c-.208.725-.584 1.29-1.135 1.701-.55.41-1.2.616-1.956.616-.612 0-1.156-.14-1.635-.417v-.012ZM107.868 33.728a.616.616 0 0 1 .461-.18.603.603 0 0 1 .634.621.648.648 0 0 1-.174.454.603.603 0 0 1-.46.18.605.605 0 0 1-.635-.634c0-.183.056-.323.174-.441Zm.112 2.195h.694v6.17h-.694v-6.17ZM111.681 41.834a2.904 2.904 0 0 1-1.151-1.15c-.274-.495-.41-1.055-.41-1.683 0-.628.136-1.188.41-1.676.274-.488.659-.87 1.151-1.144.491-.273 1.054-.41 1.682-.41.628 0 1.188.136 1.676.41.488.274.87.656 1.144 1.144.274.488.41 1.048.41 1.676 0 .628-.136 1.191-.41 1.683a2.912 2.912 0 0 1-1.144 1.15c-.488.274-1.048.41-1.676.41-.628 0-1.191-.136-1.682-.41Zm-.551-1.496c.215.389.516.694.902.914.385.218.83.33 1.331.33.5 0 .933-.109 1.318-.33.386-.217.687-.522.902-.914.214-.388.323-.836.323-1.337 0-.5-.109-.945-.323-1.337a2.283 2.283 0 0 0-.902-.908 2.67 2.67 0 0 0-1.318-.323c-.492 0-.946.106-1.331.323a2.264 2.264 0 0 0-.902.908 2.733 2.733 0 0 0-.323 1.337c0 .5.106.946.323 1.337Zm2.435-7.245h.74l-.753 1.8h-.643l.656-1.8ZM118.04 35.923h.584l.059 1.194c.24-.438.563-.771.973-1.001.411-.23.865-.345 1.365-.345.803 0 1.437.26 1.903.786.467.526.7 1.235.7 2.124v3.414h-.693v-3.352c0-.709-.181-1.268-.538-1.682-.358-.413-.843-.622-1.455-.622-.43 0-.812.103-1.145.311a2.098 2.098 0 0 0-.78.864c-.187.37-.28.797-.28 1.282v3.2h-.693v-6.173ZM53.258 52.35a2.92 2.92 0 0 1-1.116-1.15c-.268-.489-.401-1.048-.401-1.677 0-.628.133-1.187.4-1.675.268-.489.638-.871 1.117-1.145.479-.273 1.023-.41 1.636-.41.73 0 1.377.202 1.934.603.556.401.923.936 1.097 1.605h-.702a2.42 2.42 0 0 0-.915-1.135c-.41-.27-.88-.405-1.414-.405-.48 0-.902.106-1.278.324a2.208 2.208 0 0 0-.87.908c-.21.388-.312.836-.312 1.337 0 .5.103.945.311 1.337.208.389.498.693.87.914.374.218.8.33 1.279.33.566 0 1.057-.147 1.474-.442.416-.295.715-.697.889-1.206h.727c-.208.724-.584 1.29-1.135 1.7-.55.41-1.2.616-1.955.616-.613 0-1.157-.14-1.636-.417v-.012ZM60.416 52.356a2.905 2.905 0 0 1-1.15-1.15c-.274-.495-.411-1.054-.411-1.683 0-.628.137-1.187.41-1.675a2.93 2.93 0 0 1 1.15-1.145c.492-.273 1.055-.41 1.683-.41.628 0 1.188.137 1.676.41.488.274.87.656 1.144 1.145.274.488.41 1.047.41 1.675 0 .629-.136 1.191-.41 1.683a2.909 2.909 0 0 1-1.144 1.15c-.488.274-1.048.41-1.676.41-.628 0-1.19-.136-1.682-.41Zm-.547-1.498c.214.388.516.693.901.914.386.217.83.33 1.331.33.5 0 .933-.11 1.319-.33.385-.218.687-.523.901-.914.215-.39.324-.837.324-1.338 0-.5-.11-.945-.324-1.337a2.282 2.282 0 0 0-.901-.908 2.672 2.672 0 0 0-1.319-.323c-.491 0-.945.106-1.33.323a2.263 2.263 0 0 0-.902.908 2.728 2.728 0 0 0-.324 1.337c0 .501.106.946.324 1.337ZM66.778 46.442h.584l.06 1.194c.239-.438.562-.771.973-1.001a2.74 2.74 0 0 1 1.365-.345c.802 0 1.436.26 1.903.786.466.526.7 1.235.7 2.124v3.414h-.694v-3.352c0-.709-.18-1.268-.538-1.682-.358-.413-.843-.622-1.455-.622-.43 0-.812.103-1.145.311a2.103 2.103 0 0 0-.78.865c-.187.37-.28.796-.28 1.28v3.2h-.693v-6.172ZM77.636 52.35a2.92 2.92 0 0 1-1.116-1.15c-.268-.489-.401-1.048-.401-1.677 0-.628.133-1.187.4-1.675.268-.489.638-.871 1.117-1.145.479-.273 1.023-.41 1.636-.41.73 0 1.377.202 1.934.603.556.401.923.936 1.097 1.605H81.6a2.421 2.421 0 0 0-.914-1.135c-.41-.27-.88-.405-1.414-.405-.48 0-.902.106-1.278.324a2.208 2.208 0 0 0-.871.908c-.208.388-.311.836-.311 1.337 0 .5.103.945.311 1.337.208.389.498.693.87.914.374.218.8.33 1.279.33.566 0 1.057-.147 1.473-.442.417-.295.716-.697.89-1.206h.727c-.208.724-.584 1.29-1.135 1.7-.55.41-1.2.616-1.955.616-.613 0-1.157-.14-1.636-.417v-.012ZM84.794 52.356a2.904 2.904 0 0 1-1.15-1.15c-.274-.495-.411-1.054-.411-1.683 0-.628.137-1.187.41-1.675.274-.489.66-.871 1.15-1.145.495-.273 1.055-.41 1.683-.41.628 0 1.188.137 1.676.41.488.274.87.656 1.144 1.145.274.488.41 1.047.41 1.675 0 .629-.136 1.191-.41 1.683a2.91 2.91 0 0 1-1.144 1.15c-.488.274-1.048.41-1.676.41-.628 0-1.19-.136-1.682-.41Zm-.547-1.498c.214.388.516.693.901.914.386.217.83.33 1.331.33.5 0 .933-.11 1.319-.33.385-.218.687-.523.901-.914.215-.39.324-.837.324-1.338 0-.5-.11-.945-.324-1.337a2.283 2.283 0 0 0-.901-.908 2.672 2.672 0 0 0-1.319-.323c-.491 0-.945.106-1.33.323a2.263 2.263 0 0 0-.902.908 2.727 2.727 0 0 0-.324 1.337c0 .501.106.946.324 1.337ZM91.156 46.442h.584l.072 1.384c.208-.47.494-.818.864-1.045.37-.227.836-.339 1.402-.339h.513v.644h-.538c-.693 0-1.234.22-1.623.662-.388.442-.584 1.116-.584 2.021v2.84h-.694v-6.17l.004.003ZM95.59 52.213c-.417-.33-.625-.777-.625-1.343s.19-.986.572-1.306c.382-.323.892-.482 1.527-.482h2.72v-.441c0-.517-.174-.93-.519-1.241-.345-.311-.805-.467-1.377-.467-.46 0-.865.11-1.207.33a1.653 1.653 0 0 0-.703.89h-.702c.152-.573.46-1.027.923-1.363.467-.335 1.023-.5 1.676-.5.51 0 .961.096 1.356.292.395.196.7.466.92.818.218.351.33.752.33 1.206v4.008h-.572l-.072-1.063c-.27.373-.625.66-1.063.858-.439.2-.93.299-1.48.299-.715 0-1.284-.165-1.701-.495h-.003Zm.513-.46c.298.224.703.333 1.213.333.47 0 .892-.09 1.271-.274.376-.183.675-.438.89-.765.214-.326.323-.693.323-1.097v-.262h-2.708c-.423 0-.765.11-1.033.324a1.033 1.033 0 0 0-.4.846c0 .373.148.671.447.895h-.003ZM101.728 52.076l4.008-5h-3.865v-.63h4.797v.525l-3.986 5h4.07v.643h-5.024v-.538ZM108.96 52.356a2.904 2.904 0 0 1-1.151-1.15c-.273-.495-.41-1.054-.41-1.683 0-.628.137-1.187.41-1.675.274-.489.66-.871 1.151-1.145.491-.273 1.054-.41 1.682-.41.628 0 1.188.137 1.676.41a2.93 2.93 0 0 1 1.144 1.145c.274.488.411 1.047.411 1.675 0 .629-.137 1.191-.411 1.683a2.905 2.905 0 0 1-1.144 1.15c-.488.274-1.048.41-1.676.41-.628 0-1.191-.136-1.682-.41Zm-.551-1.498c.215.388.517.693.902.914.386.217.83.33 1.331.33s.933-.11 1.318-.33c.386-.218.688-.523.902-.914.215-.39.324-.837.324-1.338 0-.5-.109-.945-.324-1.337a2.277 2.277 0 0 0-.902-.908 2.67 2.67 0 0 0-1.318-.323c-.491 0-.945.106-1.331.323a2.27 2.27 0 0 0-.902.908 2.733 2.733 0 0 0-.323 1.337c0 .501.106.946.323 1.337Zm2.435-7.242h.74l-.752 1.8h-.644l.656-1.8ZM115.319 46.442h.584l.059 1.194c.24-.438.563-.771.974-1.001.41-.23.864-.345 1.365-.345.802 0 1.436.26 1.903.786.466.526.699 1.235.699 2.124v3.414h-.693v-3.352c0-.709-.18-1.268-.538-1.682-.358-.413-.843-.622-1.455-.622a2.11 2.11 0 0 0-1.144.311 2.107 2.107 0 0 0-.781.865c-.186.37-.28.796-.28 1.28v3.2h-.693v-6.172Z"/></svg>