<svg version="1.2" xmlns="http://www.w3.org/2000/svg" xmlns:xlink="http://www.w3.org/1999/xlink" overflow="visible" preserveAspectRatio="none" viewBox="0 0 18 20.000009999999996" width="18" height="20.000009999999996"><g transform="translate(0, 0)"><g transform="translate(-8.673617379884035e-18, 0) rotate(0)"><path style="stroke-width: 0; stroke-linecap: butt; stroke-linejoin: miter; fill: rgb(0, 45, 114);" d="M6,9.00001h-2v2.00001h2zM10,9.00001h-1.99999v2.00001h1.99999zM14.00004,9.00001h-2.00004v2.00001h2.00004zM15.99996,2h-0.99996v-2h-2.00004v2h-7.99996v-2h-2v2h-1c-1.11,0 -1.99,0.9 -1.99,2.00001l-0.01,13.99996c0,1.10004 0.89,2.00004 2,2.00004h13.99996c1.10004,0 2.00004,-0.9 2.00004,-2.00004v-13.99996c0,-1.1 -0.9,-2.00001 -2.00004,-2.00001zM15.99996,17.99996h-13.99996v-10.99995h13.99996z" vector-effect="non-scaling-stroke"/></g><defs><path id="path-167996072414810800" d="M6,9.00001h-2v2.00001h2zM10,9.00001h-1.99999v2.00001h1.99999zM14.00004,9.00001h-2.00004v2.00001h2.00004zM15.99996,2h-0.99996v-2h-2.00004v2h-7.99996v-2h-2v2h-1c-1.11,0 -1.99,0.9 -1.99,2.00001l-0.01,13.99996c0,1.10004 0.89,2.00004 2,2.00004h13.99996c1.10004,0 2.00004,-0.9 2.00004,-2.00004v-13.99996c0,-1.1 -0.9,-2.00001 -2.00004,-2.00001zM15.99996,17.99996h-13.99996v-10.99995h13.99996z" vector-effect="non-scaling-stroke"/></defs></g></svg>