<svg height="26" overflow="visible" viewBox="0 0 24.000003260273843 26" width="24.000003260273843" xmlns="http://www.w3.org/2000/svg"><g><defs><path id="path-167990315554880719" d="M21.07671,24h-18.15344c-1.61132,0 -2.92327,-1.31202 -2.92327,-2.92333v-18.15327c0,-1.61131 1.31194,-2.9234 2.92327,-2.9234h18.15344c1.61374,0 2.92329,1.31209 2.92329,2.9234v18.15327c0.00239,1.6137 -1.30955,2.92333 -2.92329,2.92333zM2.92327,1.19472c-0.95292,0 -1.72905,0.77577 -1.72905,1.72868v18.15327c0,0.95292 0.77613,1.72862 1.72905,1.72862h18.15344c0.95292,0 1.73082,-0.7757 1.73082,-1.72862v-18.15327c0,-0.95292 -0.77551,-1.72868 -1.73082,-1.72868z" vector-effect="non-scaling-stroke"/></defs><path d="M21.07671,24h-18.15344c-1.61132,0 -2.92327,-1.31202 -2.92327,-2.92333v-18.15327c0,-1.61131 1.31194,-2.9234 2.92327,-2.9234h18.15344c1.61374,0 2.92329,1.31209 2.92329,2.9234v18.15327c0.00239,1.6137 -1.30955,2.92333 -2.92329,2.92333zM2.92327,1.19472c-0.95292,0 -1.72905,0.77577 -1.72905,1.72868v18.15327c0,0.95292 0.77613,1.72862 1.72905,1.72862h18.15344c0.95292,0 1.73082,-0.7757 1.73082,-1.72862v-18.15327c0,-0.95292 -0.77551,-1.72868 -1.73082,-1.72868z" style="stroke-width: 0; stroke-linecap: butt; stroke-linejoin: miter; fill: rgb(5, 30, 66);" transform="translate(0, 2) rotate(0)" vector-effect="non-scaling-stroke"/></g><g><defs><path id="path-167990315554780717" d="M9.540637947630392 6.84865999999993 C9.210300510994259 6.84865999999993 8.9445339295162 6.582029999999932 8.9445339295162 6.2558599999999345 C8.9445339295162 6.2558599999999345 8.9445339295162 2.218105499999977 8.9445339295162 2.218105499999977 C8.9445339295162 1.8895629999999806 9.212685972748579 1.6253184999999832 9.540637947630392 1.6253184999999832 C9.868557244953926 1.6253184999999832 10.139062072382348 1.8919419999999805 10.139062072382348 2.218105499999977 C10.139062072382348 2.218105499999977 10.139062072382348 6.2558599999999345 10.139062072382348 6.2558599999999345 C10.136676610628026 6.582029999999932 9.868557244953926 6.84865999999993 9.540637947630392 6.84865999999993 Z" vector-effect="non-scaling-stroke"/></defs> <path d="M6.926433285360872 5.223659999999995 C6.596095848724872 5.223659999999995 6.330329267246725 4.957030000000032 6.330329267246725 4.630860000000098 C6.330329267246725 4.630860000000098 6.330329267246725 0.5931055000000924 6.330329267246725 0.5931055000000924 C6.330329267246725 0.2645630000000665 6.598481310479201 0.0003185000000485161 6.926433285360872 0.0003185000000485161 C7.2543525826845325 0.0003185000000485161 7.5248574101128725 0.2669420000000855 7.5248574101128725 0.5931055000000924 C7.5248574101128725 0.5931055000000924 7.5248574101128725 4.630860000000098 7.5248574101128725 4.630860000000098 C7.522471948358543 4.957030000000032 7.2543525826845325 5.223659999999995 6.926433285360872 5.223659999999995 Z" style="stroke-width: 0; stroke-linecap: butt; stroke-linejoin: miter; fill: rgb(5, 30, 66);" vector-effect="non-scaling-stroke"/></g><g><defs><path id="path-167990315554780715" d="M19.59960732467228 6.848335000000027 C19.26926988803615 6.848335000000027 19.001183199920327 6.581705000000025 19.001183199920327 6.255567500000025 C19.001183199920327 6.255567500000025 19.001183199920327 2.2177870000000084 19.001183199920327 2.2177870000000084 C19.001183199920327 1.8892445000000073 19.26926988803615 1.6250000000000064 19.59960732467228 1.6250000000000064 C19.929944761308413 1.6250000000000064 20.195711342786467 1.8916267500000072 20.195711342786467 2.2177870000000084 C20.195711342786467 2.2177870000000084 20.195711342786467 6.255567500000025 20.195711342786467 6.255567500000025 C20.198096804540786 6.581705000000025 19.929944761308413 6.848335000000027 19.59960732467228 6.848335000000027 Z" vector-effect="non-scaling-stroke"/></defs> <path d="M16.985402662403885 5.22333500000002 C16.655065225767885 5.22333500000002 16.386978537652112 4.956705000000056 16.386978537652112 4.630567499999984 C16.386978537652112 4.630567499999984 16.386978537652112 0.5927870000000439 16.386978537652112 0.5927870000000439 C16.386978537652112 0.264244500000018 16.655065225767885 0 16.985402662403885 0 C17.315740099040113 0 17.581506680518032 0.26662675000000036 17.581506680518032 0.5927870000000439 C17.581506680518032 0.5927870000000439 17.581506680518032 4.630567499999984 17.581506680518032 4.630567499999984 C17.58389214227236 4.956705000000056 17.315740099040113 5.22333500000002 16.985402662403885 5.22333500000002 Z" style="stroke-width: 0; stroke-linecap: butt; stroke-linejoin: miter; fill: rgb(5, 30, 66);" vector-effect="non-scaling-stroke"/></g><g><defs><path id="path-167990315554680713" d="M26.0157805375186 10.471369999999753 C26.0157805375186 10.471369999999753 3.2126418580459637 10.471369999999753 3.2126418580459637 10.471369999999753 C2.882304421409791 10.471369999999753 2.614204662270627 10.204739999999761 2.614204662270627 9.878569999999769 C2.614204662270627 9.552399999999775 2.882304421409791 9.285704999999783 3.2126418580459637 9.285704999999783 C3.2126418580459637 9.285704999999783 26.0157805375186 9.285704999999783 26.0157805375186 9.285704999999783 C26.346117974154772 9.285704999999783 26.614204662270627 9.552399999999775 26.614204662270627 9.878569999999769 C26.614204662270627 10.204739999999761 26.346117974154772 10.471369999999753 26.0157805375186 10.471369999999753 Z" vector-effect="non-scaling-stroke"/></defs> <path d="M23.401575875248 8.846369999999979 C23.401575875248 8.846369999999979 0.598437195775432 8.846369999999979 0.598437195775432 8.846369999999979 C0.26809975913920425 8.846369999999979 0 8.579740000000015 0 8.253569999999968 C0 7.927400000000034 0.26809975913920425 7.660705000000007 0.598437195775432 7.660705000000007 C0.598437195775432 7.660705000000007 23.401575875248 7.660705000000007 23.401575875248 7.660705000000007 C23.731913311884227 7.660705000000007 24 7.927400000000034 24 8.253569999999968 C24 8.579740000000015 23.731913311884227 8.846369999999979 23.401575875248 8.846369999999979 Z" style="stroke-width: 0; stroke-linecap: butt; stroke-linejoin: miter; fill: rgb(5, 30, 66);" vector-effect="non-scaling-stroke"/></g></svg>