<svg height="48.99999999999977" overflow="visible" viewBox="-2 -2 50 48.99999999999977" width="50" xmlns="http://www.w3.org/2000/svg"><g><defs><path id="path-1680039126291649783" d="M0.7395350627067235 34.11291975268356 C0.7395350627067235 34.11291975268356 5.176745438947071 31.94274467894552 5.176745438947071 31.94274467894552 C5.176745438947071 31.94274467894552 12.572096066014314 43.55563027608318 12.572096066014314 43.55563027608318 C12.572096066014314 43.55563027608318 8.874420752480692 45.7258053498212 8.874420752480692 45.7258053498212" vector-effect="non-scaling-stroke"/></defs> <path style="stroke: rgb(0, 179, 136); stroke-width: 2; stroke-linecap: butt; stroke-linejoin: miter; fill: none;" d="M0 33.38711440286255 C0 33.38711440286255 4.437210376240358 31.2169393291245 4.437210376240358 31.2169393291245 C4.437210376240358 31.2169393291245 11.832561003307603 42.82982492626212 11.832561003307603 42.82982492626212 C11.832561003307603 42.82982492626212 8.134885689773967 45.00000000000017 8.134885689773967 45.00000000000017" vector-effect="non-scaling-stroke"/></g><g><defs><path id="path-1680039126291649781" d="M19.967516296381774 33.38711440286236 C19.967516296381774 33.38711440286236 28.834559099060446 33.37987342713708 28.834559099060446 33.37987342713708 C30.468914186817358 33.37987342713708 31.79269934988739 32.08066477318438 31.79269934988739 30.47665202785267 C31.79269934988739 28.872639282520982 30.468914186817358 27.573430628568275 28.834559099060446 27.573430628568275 C28.834559099060446 27.573430628568275 17.527085391099558 27.587912580018813 17.527085391099558 27.587912580018813 C16.2180561276336 27.587912580018813 14.931299920173913 27.92905817220768 13.807206624859692 28.57500785577552 C13.807206624859692 28.57500785577552 6.663290958782672 32.66130905304126 6.663290958782672 32.66130905304126" vector-effect="non-scaling-stroke"/></defs> <path style="stroke: rgb(0, 179, 136); stroke-width: 2; stroke-linecap: butt; stroke-linejoin: miter; fill: none;" d="M19.22798123367491 32.66130905304186 C19.22798123367491 32.66130905304186 28.09502403635358 32.65406807731654 28.09502403635358 32.65406807731654 C29.729379124110494 32.65406807731654 31.053164287180522 31.35485942336385 31.053164287180522 29.750846678032133 C31.053164287180522 28.146833932700474 29.729379124110494 26.847625278747785 28.09502403635358 26.847625278747785 C28.09502403635358 26.847625278747785 16.787550328392683 26.86210723019832 16.787550328392683 26.86210723019832 C15.478521064926724 26.86210723019832 14.191764857467035 27.203252822387185 13.067671562152839 27.84920250595502 C13.067671562152839 27.84920250595502 5.923755896075818 31.935503703220718 5.923755896075818 31.935503703220718" vector-effect="non-scaling-stroke"/></g><g><defs><path id="path-1680039126291649779" d="M29.581402508269125 33.3871144028626 C29.581402508269125 33.3871144028626 42.508405801082745 27.82017029196178 42.508405801082745 27.82017029196178 C44.009679379202346 27.21049379811205 45.74760417738814 27.914507909665584 46.3761915798639 29.38790984757537 C46.997401032537525 30.861311785485167 46.280069422537004 32.56690312424594 44.778795844417374 33.183888904912685 C44.778795844417374 33.183888904912685 31.711263488864418 39.34595924712093 31.711263488864418 39.34595924712093 C30.786792458006055 39.723378029027906 29.803228225431123 39.919362551252554 28.81221643975406 39.919362551252554 C28.81221643975406 39.919362551252554 17.201550756908492 39.919362551252554 17.201550756908492 39.919362551252554 C16.395474939383124 39.919362551252554 15.611532971264005 40.13707000065301 14.923782763771754 40.53628002082754 C14.923782763771754 40.53628002082754 12.27628204093168 42.09677860071585 12.27628204093168 42.09677860071585" vector-effect="non-scaling-stroke"/></defs> <path style="stroke: rgb(0, 179, 136); stroke-width: 2; stroke-linecap: butt; stroke-linejoin: miter; fill: none;" d="M28.841867445562542 32.66130905304169 C28.841867445562542 32.66130905304169 41.768870738376165 27.094364942140885 41.768870738376165 27.094364942140885 C43.27014431649576 26.484688448291138 45.008069114681575 27.18870255984467 45.63665651715732 28.662104497754456 C46.25786596983096 30.13550643566424 45.54053435983042 31.84109777442501 44.039260781710794 32.458083555091775 C44.039260781710794 32.458083555091775 30.971728426157824 38.620153897299986 30.971728426157824 38.620153897299986 C30.047257395299482 38.997572679206996 29.063693162724547 39.193557201431645 28.072681377047473 39.193557201431645 C28.072681377047473 39.193557201431645 16.46201569420191 39.193557201431645 16.46201569420191 39.193557201431645 C15.655939876676541 39.193557201431645 14.871997908557432 39.411264650832095 14.184247701065175 39.8104746710066 C14.184247701065175 39.8104746710066 11.536746978225096 41.370973250894906 11.536746978225096 41.370973250894906" vector-effect="non-scaling-stroke"/></g><g><defs><path id="path-1680039126290649777" d="M32.81315333147255 31.93543539212846 C37.642299890122445 28.248344215037275 46.59070895052387 18.36290950601974 46.59070895052387 11.612885597137621 C46.59070895052387 5.603217300618903 41.6210333291347 0.7258053498211013 35.497683009922966 0.7258053498211013 C31.38586806127358 0.7258053498211013 27.7991404079709 2.932253613277249 25.883727194735478 6.198377687472206 C23.968313981500067 2.932253613277249 20.381586328197436 0.7258053498211013 16.269771379548022 0.7258053498211013 C10.146421060336305 0.7258053498211013 5.176745438947098 5.603217300618903 5.176745438947098 11.612885597137621 C5.176745438947098 16.468506309667852 9.813647682943303 22.957240292614372 14.213829103573307 27.580603293201857" vector-effect="non-scaling-stroke"/></defs> <path style="stroke: rgb(0, 179, 136); stroke-width: 2; stroke-linecap: butt; stroke-linejoin: miter; fill: none;" d="M32.222444380948616 31.209630042307367 C37.051590939598526 27.522538865216177 45.99999999999994 17.63710415619863 45.99999999999994 10.887080247316533 C45.99999999999994 4.877411950797807 41.03032437861077 0 34.90697405939903 0 C30.795159110749665 0 27.208431457446977 2.2064482634561386 25.293018244211567 5.4725723376511155 C23.377605030976156 2.2064482634561386 19.790877377673525 0 15.6790624290241 0 C9.55571210981239 0 4.58603648842319 4.877411950797807 4.58603648842319 10.887080247316533 C4.58603648842319 15.742700959846786 9.22293873241938 22.23143494279327 13.623120153049399 26.854797943380788" vector-effect="non-scaling-stroke"/></g><g><defs><path id="path-1680039126290649775" d="M14.051166191427876 19.59674444517016 C14.051166191427876 19.59674444517016 19.227911630375 19.59674444517016 19.227911630375 19.59674444517016 C19.227911630375 19.59674444517016 21.446516818495184 15.967717696064566 21.446516818495184 15.967717696064566 C21.446516818495184 15.967717696064566 25.14419213202883 23.225771194275747 25.14419213202883 23.225771194275747 C25.14419213202883 23.225771194275747 29.581402508269218 10.887080247316756 29.581402508269218 10.887080247316756 C29.581402508269218 10.887080247316756 33.279077821802865 19.59674444517016 33.279077821802865 19.59674444517016 C33.279077821802865 19.59674444517016 37.71628819804324 19.59674444517016 37.71628819804324 19.59674444517016" vector-effect="non-scaling-stroke"/></defs> <path style="stroke: rgb(0, 179, 136); stroke-width: 2; stroke-linecap: butt; stroke-linejoin: miter; fill: none;" d="M13.311631128721274 18.870939095348376 C13.311631128721274 18.870939095348376 18.488376567668382 18.870939095348376 18.488376567668382 18.870939095348376 C18.488376567668382 18.870939095348376 20.706981755788576 15.24191234624277 20.706981755788576 15.24191234624277 C20.706981755788576 15.24191234624277 24.404657069322212 22.499965844453982 24.404657069322212 22.499965844453982 C24.404657069322212 22.499965844453982 28.8418674455626 10.161274897494991 28.8418674455626 10.161274897494991 C28.8418674455626 10.161274897494991 32.539542759096264 18.870939095348376 32.539542759096264 18.870939095348376 C32.539542759096264 18.870939095348376 36.97675313533662 18.870939095348376 36.97675313533662 18.870939095348376" vector-effect="non-scaling-stroke"/></g></svg>