<svg height="48.999999999999886" overflow="visible" viewBox="-2 -2 50 48.999999999999886" width="50" xmlns="http://www.w3.org/2000/svg"><g><defs><path id="path-1680039126294649793" d="M0.7395350627067235 34.11291975268356 C0.7395350627067235 34.11291975268356 5.176745438947071 31.94274467894552 5.176745438947071 31.94274467894552 C5.176745438947071 31.94274467894552 12.572096066014314 43.55563027608318 12.572096066014314 43.55563027608318 C12.572096066014314 43.55563027608318 8.874420752480692 45.7258053498212 8.874420752480692 45.7258053498212" vector-effect="non-scaling-stroke"/></defs> <path style="stroke: rgb(228, 0, 70); stroke-width: 2; stroke-linecap: butt; stroke-linejoin: miter; fill: none;" d="M0 33.38711440286278 C0 33.38711440286278 4.43721037624033 31.216939329124727 4.43721037624033 31.216939329124727 C4.43721037624033 31.216939329124727 11.832561003307546 42.82982492626235 11.832561003307546 42.82982492626235 C11.832561003307546 42.82982492626235 8.134885689773967 45.0000000000004 8.134885689773967 45.0000000000004" vector-effect="non-scaling-stroke"/></g><g><defs><path id="path-1680039126293649791" d="M19.967516296381774 33.38711440286236 C19.967516296381774 33.38711440286236 28.834559099060446 33.37987342713708 28.834559099060446 33.37987342713708 C30.468914186817358 33.37987342713708 31.79269934988739 32.08066477318438 31.79269934988739 30.47665202785267 C31.79269934988739 28.872639282520982 30.468914186817358 27.573430628568275 28.834559099060446 27.573430628568275 C28.834559099060446 27.573430628568275 17.527085391099558 27.587912580018813 17.527085391099558 27.587912580018813 C16.2180561276336 27.587912580018813 14.931299920173913 27.92905817220768 13.807206624859692 28.57500785577552 C13.807206624859692 28.57500785577552 6.663290958782672 32.66130905304126 6.663290958782672 32.66130905304126" vector-effect="non-scaling-stroke"/></defs> <path style="stroke: rgb(228, 0, 70); stroke-width: 2; stroke-linecap: butt; stroke-linejoin: miter; fill: none;" d="M19.227981233674882 32.66130905304186 C19.227981233674882 32.66130905304186 28.095024036353607 32.65406807731654 28.095024036353607 32.65406807731654 C29.729379124110437 32.65406807731654 31.053164287180493 31.35485942336385 31.053164287180493 29.750846678032133 C31.053164287180493 28.146833932700474 29.729379124110437 26.847625278747785 28.095024036353607 26.847625278747785 C28.095024036353607 26.847625278747785 16.78755032839274 26.86210723019832 16.78755032839274 26.86210723019832 C15.478521064926781 26.86210723019832 14.191764857467092 27.203252822387185 13.067671562152782 27.84920250595502 C13.067671562152782 27.84920250595502 5.923755896075818 31.935503703220718 5.923755896075818 31.935503703220718" vector-effect="non-scaling-stroke"/></g><g><defs><path id="path-1680039126293649789" d="M29.581402508269125 33.3871144028626 C29.581402508269125 33.3871144028626 42.508405801082745 27.82017029196178 42.508405801082745 27.82017029196178 C44.009679379202346 27.21049379811205 45.74760417738814 27.914507909665584 46.3761915798639 29.38790984757537 C46.997401032537525 30.861311785485167 46.280069422537004 32.56690312424594 44.778795844417374 33.183888904912685 C44.778795844417374 33.183888904912685 31.711263488864418 39.34595924712093 31.711263488864418 39.34595924712093 C30.786792458006055 39.723378029027906 29.803228225431123 39.919362551252554 28.81221643975406 39.919362551252554 C28.81221643975406 39.919362551252554 17.201550756908492 39.919362551252554 17.201550756908492 39.919362551252554 C16.395474939383124 39.919362551252554 15.611532971264005 40.13707000065301 14.923782763771754 40.53628002082754 C14.923782763771754 40.53628002082754 12.27628204093168 42.09677860071585 12.27628204093168 42.09677860071585" vector-effect="non-scaling-stroke"/></defs> <path style="stroke: rgb(228, 0, 70); stroke-width: 2; stroke-linecap: butt; stroke-linejoin: miter; fill: none;" d="M28.84186744556257 32.661309053041464 C28.84186744556257 32.661309053041464 41.76887073837611 27.094364942140658 41.76887073837611 27.094364942140658 C43.270144316495816 26.48468844829091 45.008069114681575 27.188702559844444 45.63665651715735 28.66210449775423 C46.25786596983096 30.135506435664013 45.54053435983042 31.84109777442478 44.03926078171082 32.45808355509155 C44.03926078171082 32.45808355509155 30.971728426157824 38.62015389729976 30.971728426157824 38.62015389729976 C30.047257395299425 38.99757267920677 29.063693162724576 39.19355720143142 28.072681377047502 39.19355720143142 C28.072681377047502 39.19355720143142 16.46201569420191 39.19355720143142 16.46201569420191 39.19355720143142 C15.655939876676598 39.19355720143142 14.871997908557432 39.41126465083187 14.184247701065146 39.810474671006375 C14.184247701065146 39.810474671006375 11.536746978225096 41.37097325089468 11.536746978225096 41.37097325089468" vector-effect="non-scaling-stroke"/></g><g><defs><path id="path-1680039126292649787" d="M32.81315333147255 31.93543539212846 C37.642299890122445 28.248344215037275 46.59070895052387 18.36290950601974 46.59070895052387 11.612885597137621 C46.59070895052387 5.603217300618903 41.6210333291347 0.7258053498211013 35.497683009922966 0.7258053498211013 C31.38586806127358 0.7258053498211013 27.7991404079709 2.932253613277249 25.883727194735478 6.198377687472206 C23.968313981500067 2.932253613277249 20.381586328197436 0.7258053498211013 16.269771379548022 0.7258053498211013 C10.146421060336305 0.7258053498211013 5.176745438947098 5.603217300618903 5.176745438947098 11.612885597137621 C5.176745438947098 16.468506309667852 9.813647682943303 22.957240292614372 14.213829103573307 27.580603293201857" vector-effect="non-scaling-stroke"/></defs> <path style="stroke: rgb(228, 0, 70); stroke-width: 2; stroke-linecap: butt; stroke-linejoin: miter; fill: none;" d="M32.22244438094867 31.209630042307367 C37.051590939598555 27.522538865216177 46 17.63710415619863 46 10.887080247316533 C46 4.877411950797807 41.03032437861077 0 34.90697405939909 0 C30.795159110749637 0 27.208431457446977 2.2064482634561386 25.293018244211567 5.4725723376511155 C23.377605030976156 2.2064482634561386 19.790877377673496 0 15.679062429024157 0 C9.555712109812418 0 4.58603648842319 4.877411950797807 4.58603648842319 10.887080247316533 C4.58603648842319 15.742700959846786 9.222938732419436 22.23143494279327 13.623120153049399 26.854797943380788" vector-effect="non-scaling-stroke"/></g><g><defs><path id="path-1680039126292649785" d="M14.051166191427876 19.59674444517016 C14.051166191427876 19.59674444517016 19.227911630375 19.59674444517016 19.227911630375 19.59674444517016 C19.227911630375 19.59674444517016 21.446516818495184 15.967717696064566 21.446516818495184 15.967717696064566 C21.446516818495184 15.967717696064566 25.14419213202883 23.225771194275747 25.14419213202883 23.225771194275747 C25.14419213202883 23.225771194275747 29.581402508269218 10.887080247316756 29.581402508269218 10.887080247316756 C29.581402508269218 10.887080247316756 33.279077821802865 19.59674444517016 33.279077821802865 19.59674444517016 C33.279077821802865 19.59674444517016 37.71628819804324 19.59674444517016 37.71628819804324 19.59674444517016" vector-effect="non-scaling-stroke"/></defs> <path style="stroke: rgb(228, 0, 70); stroke-width: 2; stroke-linecap: butt; stroke-linejoin: miter; fill: none;" d="M13.311631128721274 18.870939095348092 C13.311631128721274 18.870939095348092 18.48837656766841 18.870939095348092 18.48837656766841 18.870939095348092 C18.48837656766841 18.870939095348092 20.706981755788547 15.241912346242486 20.706981755788547 15.241912346242486 C20.706981755788547 15.241912346242486 24.404657069322298 22.499965844453698 24.404657069322298 22.499965844453698 C24.404657069322298 22.499965844453698 28.841867445562684 10.161274897494707 28.841867445562684 10.161274897494707 C28.841867445562684 10.161274897494707 32.53954275909632 18.870939095348092 32.53954275909632 18.870939095348092 C32.53954275909632 18.870939095348092 36.97675313533671 18.870939095348092 36.97675313533671 18.870939095348092" vector-effect="non-scaling-stroke"/></g></svg>