<svg height="28.999990000000025" overflow="visible" viewBox="0 0 24 28.999990000000025" width="24" xmlns="http://www.w3.org/2000/svg"><g><defs><path id="path-167990315554680711" d="M11.99973,29c-0.6339,0 -1.23116,-0.27724 -1.63871,-0.76092l-7.61062,-9.02505c-1.77401,-2.10301 -2.7504,-4.7742 -2.7504,-7.52079c0,-6.44761 5.26617,-11.69323 11.73891,-11.69323h0.52236c6.47273,0 11.73873,5.24563 11.73873,11.69323c0,2.74659 -0.97718,5.41778 -2.7504,7.52079l-0.37691,-0.31534l0.37691,0.31534l-7.61044,9.02505c-0.40831,0.48368 -1.00557,0.76092 -1.63944,0.76092zM11.73891,0.98103c-5.92985,0 -10.75397,4.80541 -10.75397,10.7122c0,2.51655 0.89458,4.96306 2.51946,6.89011l7.61066,9.02509c0.2202,0.26049 0.54212,0.41053 0.88391,0.41053c0.34179,0 0.66451,-0.15004 0.88395,-0.41053l7.61121,-9.02509c1.62488,-1.92705 2.51946,-4.37356 2.51946,-6.89011c0,-5.90603 -4.82413,-10.7122 -10.75401,-10.7122z" vector-effect="non-scaling-stroke"/></defs><path d="M11.99973,29c-0.6339,0 -1.23116,-0.27724 -1.63871,-0.76092l-7.61062,-9.02505c-1.77401,-2.10301 -2.7504,-4.7742 -2.7504,-7.52079c0,-6.44761 5.26617,-11.69323 11.73891,-11.69323h0.52236c6.47273,0 11.73873,5.24563 11.73873,11.69323c0,2.74659 -0.97718,5.41778 -2.7504,7.52079l-0.37691,-0.31534l0.37691,0.31534l-7.61044,9.02505c-0.40831,0.48368 -1.00557,0.76092 -1.63944,0.76092zM11.73891,0.98103c-5.92985,0 -10.75397,4.80541 -10.75397,10.7122c0,2.51655 0.89458,4.96306 2.51946,6.89011l7.61066,9.02509c0.2202,0.26049 0.54212,0.41053 0.88391,0.41053c0.34179,0 0.66451,-0.15004 0.88395,-0.41053l7.61121,-9.02509c1.62488,-1.92705 2.51946,-4.37356 2.51946,-6.89011c0,-5.90603 -4.82413,-10.7122 -10.75401,-10.7122z" style="stroke-width: 0; stroke-linecap: butt; stroke-linejoin: miter; fill: rgb(5, 30, 66);" transform="translate(0, -0.000009999999974752427) rotate(0)" vector-effect="non-scaling-stroke"/></g><g><defs><path id="path-167990315554680709" d="M7,14c-3.85954,0 -7,-3.14042 -7,-6.99998c0,-3.86032 3.14046,-7.00002 7,-7.00002c3.85954,0 7,3.1397 7,7.00002c0,3.86032 -3.14046,6.99998 -7,6.99998zM7,0.97706c-3.32097,0 -6.02308,2.702 -6.02308,6.02296c0,3.321 2.70211,6.02296 6.02308,6.02296c3.32097,0 6.0229,-2.70196 6.0229,-6.02296c0,-3.32096 -2.70193,-6.02296 -6.0229,-6.02296z" vector-effect="non-scaling-stroke"/></defs><path d="M7,14c-3.85954,0 -7,-3.14042 -7,-6.99998c0,-3.86032 3.14046,-7.00002 7,-7.00002c3.85954,0 7,3.1397 7,7.00002c0,3.86032 -3.14046,6.99998 -7,6.99998zM7,0.97706c-3.32097,0 -6.02308,2.702 -6.02308,6.02296c0,3.321 2.70211,6.02296 6.02308,6.02296c3.32097,0 6.0229,-2.70196 6.0229,-6.02296c0,-3.32096 -2.70193,-6.02296 -6.0229,-6.02296z" style="stroke-width: 0; stroke-linecap: butt; stroke-linejoin: miter; fill: rgb(5, 30, 66);" transform="translate(5, 4.999990000000025) rotate(0)" vector-effect="non-scaling-stroke"/></g></svg>