<svg xmlns="http://www.w3.org/2000/svg" width="50" height="50" fill="none"><path stroke="#002D72" d="M1 25C1 11.745 11.745 1 25 1s24 10.745 24 24-10.745 24-24 24S1 38.255 1 25Z" clip-rule="evenodd"/><path fill="#002D72" d="M30.5 22c-.896 0-1.777.22-2.566.644a1 1 0 0 0-.935-.644h-4a.997.997 0 0 0-1 1v12a1.002 1.002 0 0 0 1 1h4a1 1 0 0 0 1-1v-5.5a1 1 0 0 1 2 0V35a1.002 1.002 0 0 0 1 1h4a1 1 0 0 0 1-1v-7.5a5.507 5.507 0 0 0-5.5-5.5ZM34 34h-2v-4.5a3 3 0 1 0-6 0V34h-2V24h2v.703a1.001 1.001 0 0 0 1.78.625A3.482 3.482 0 0 1 34 27.5V34ZM20 22h-4a.997.997 0 0 0-1 1v12a1.002 1.002 0 0 0 1 1h4a1 1 0 0 0 1-1V23a1 1 0 0 0-1-1Zm-1 12h-2V24h2v10Zm-.986-19.457A3.233 3.233 0 1 0 17.957 21h.029a3.233 3.233 0 1 0 .028-6.457ZM17.986 19h-.029a1.221 1.221 0 0 1-1.369-1.229c0-.746.56-1.228 1.426-1.228a1.233 1.233 0 0 1 1.396 1.228c0 .746-.56 1.229-1.424 1.229Z"/></svg>