<svg width="24" height="24" viewBox="0 0 24 24" fill="none" xmlns="http://www.w3.org/2000/svg">
<path d="M15.6276 5.39284C15.8661 5.64167 16 5.97828 16 6.32913C16 6.67999 15.8661 7.01659 15.6276 7.26542L11.0939 12.0332L15.6276 16.7346C15.8661 16.9834 16 17.32 16 17.6709C16 18.0217 15.8661 18.3583 15.6276 18.6072C15.5085 18.7316 15.3669 18.8304 15.2108 18.8979C15.0547 18.9653 14.8874 19 14.7183 19C14.5492 19 14.3818 18.9653 14.2258 18.8979C14.0697 18.8304 13.928 18.7316 13.809 18.6072L8.37883 12.9761C8.25879 12.8527 8.16351 12.7058 8.09849 12.5439C8.03348 12.3821 8 12.2085 8 12.0332C8 11.8579 8.03348 11.6843 8.09849 11.5225C8.16351 11.3606 8.25879 11.2137 8.37883 11.0903L13.809 5.39284C13.928 5.26836 14.0697 5.16956 14.2258 5.10214C14.3818 5.03472 14.5492 5 14.7183 5C14.8874 5 15.0547 5.03472 15.2108 5.10214C15.3669 5.16956 15.5085 5.26836 15.6276 5.39284Z" fill="white"/>
</svg>
