<svg width="50" height="50" viewBox="0 0 50 50" fill="none" xmlns="http://www.w3.org/2000/svg">
<path fill-rule="evenodd" clip-rule="evenodd" d="M1 25C1 11.7452 11.7452 1 25 1C38.2548 1 49 11.7452 49 25C49 38.2548 38.2548 49 25 49C11.7452 49 1 38.2548 1 25Z" stroke="#002D72"/>
<path d="M30.83 22.44C30.7383 22.3043 30.6146 22.1932 30.4699 22.1165C30.3252 22.0397 30.1638 21.9998 30 22H27V20H29.2C29.4652 20 29.7196 19.8946 29.9071 19.7071C30.0946 19.5196 30.2 19.2652 30.2 19V15C30.2 14.7348 30.0946 14.4804 29.9071 14.2929C29.7196 14.1054 29.4652 14 29.2 14H26C24.4617 14 22.9865 14.6111 21.8988 15.6988C20.8111 16.7865 20.2 18.2617 20.2 19.8V22H18C17.7348 22 17.4804 22.1054 17.2929 22.2929C17.1054 22.4804 17 22.7348 17 23V27C17 27.2652 17.1054 27.5196 17.2929 27.7071C17.4804 27.8946 17.7348 28 18 28H20.2V35C20.2 35.2652 20.3054 35.5196 20.4929 35.7071C20.6804 35.8946 20.9348 36 21.2 36H26C26.2652 36 26.5196 35.8946 26.7071 35.7071C26.8946 35.5196 27 35.2652 27 35V28H28.4C28.6003 28.0002 28.796 27.9402 28.9618 27.8279C29.1276 27.7156 29.2559 27.5561 29.33 27.37L30.93 23.37C30.9904 23.2186 31.0129 23.0547 30.9954 22.8926C30.978 22.7305 30.9212 22.5751 30.83 22.44ZM27.72 26H26C25.7348 26 25.4804 26.1054 25.2929 26.2929C25.1054 26.4804 25 26.7348 25 27V34H22.2V27C22.2 26.7348 22.0946 26.4804 21.9071 26.2929C21.7196 26.1054 21.4652 26 21.2 26H19V24H21.2C21.4652 24 21.7196 23.8946 21.9071 23.7071C22.0946 23.5196 22.2 23.2652 22.2 23V19.8C22.2026 18.793 22.6038 17.828 23.3159 17.1159C24.028 16.4038 24.993 16.0026 26 16H28.2V18H27.4C27.0614 17.9507 26.7163 17.9714 26.3861 18.0608C26.0558 18.1503 25.7474 18.3066 25.48 18.52C25.3177 18.6899 25.1915 18.8909 25.109 19.1109C25.0265 19.3309 24.9894 19.5653 25 19.8V23C25 23.2652 25.1054 23.5196 25.2929 23.7071C25.4804 23.8946 25.7348 24 26 24H28.52L27.72 26Z" fill="#002D72"/>
</svg>
