<svg xmlns="http://www.w3.org/2000/svg" fill="none" viewBox="0 0 53 49"><path fill="#002D72" d="M47.48.4H4.8A4.82 4.82 0 0 0 0 5.21v32.25a4.82 4.82 0 0 0 4.81 4.81h19.8v3.07h-9.87a1.53 1.53 0 1 0 0 3.06h22.8a1.53 1.53 0 1 0 0-3.06h-9.86v-3.07h19.8a4.82 4.82 0 0 0 4.8-4.8V5.2A4.82 4.82 0 0 0 47.49.4ZM4.8 3.46h42.67c.96 0 1.74.79 1.74 1.75v27.86H3.06V5.21c0-.96.79-1.75 1.75-1.75Zm42.67 35.75H4.8c-.96 0-1.75-.79-1.75-1.75v-1.33h46.16v1.33c0 .96-.78 1.75-1.74 1.75Z"/><path fill="#E40046" d="M15.1 18.44c0 6.07 4.92 11.01 10.98 11.04h.12a11.06 11.06 0 0 0 10.98-11.04c0-6.07-4.95-11.04-11.04-11.04a11.06 11.06 0 0 0-11.05 11.04Zm3.2 1.53h3.5c.1 2.12.4 4.08.87 5.65a8 8 0 0 1-4.36-5.65Zm9.1-3.06h-2.52c.16-3.23.81-5.2 1.26-6.03.44.82 1.1 2.8 1.26 6.03Zm0 3.06c-.16 3.29-.81 5.29-1.26 6.12-.45-.83-1.1-2.83-1.27-6.12h2.53Zm2.2 5.66v-.01c.47-1.57.77-3.53.87-5.65h3.5a8.01 8.01 0 0 1-4.37 5.66Zm4.37-8.72h-3.5c-.1-2.08-.4-4.02-.86-5.56l-.04-.1a8 8 0 0 1 4.4 5.66ZM22.7 11.24l-.03.11a23.99 23.99 0 0 0-.86 5.56h-3.5a8 8 0 0 1 4.39-5.67Z"/></svg>