<svg xmlns="http://www.w3.org/2000/svg" fill="none" viewBox="0 0 48 49"><path fill="#002D72" d="M36.19 21.96a1.87 1.87 0 1 0 0-3.75 1.87 1.87 0 0 0 0 3.75Z"/><path fill="#002D72" d="M40.5 4.15h-2.44V2.28a1.87 1.87 0 1 0-3.75 0v1.87h-8.53V2.28a1.87 1.87 0 1 0-3.75 0v1.87H13.6V2.28a1.87 1.87 0 1 0-3.75 0v1.87H7.5a7.5 7.5 0 0 0-7.5 7.5V40.9a7.5 7.5 0 0 0 7.5 7.5h14.34a1.87 1.87 0 1 0 0-3.75H7.5a3.75 3.75 0 0 1-3.75-3.75V11.65A3.75 3.75 0 0 1 7.5 7.9h2.34v1.88a1.87 1.87 0 1 0 3.75 0V7.9h8.44v1.88a1.87 1.87 0 1 0 3.75 0V7.9h8.53v1.88a1.87 1.87 0 1 0 3.75 0V7.9h2.44a3.75 3.75 0 0 1 3.75 3.75v10.69a1.87 1.87 0 1 0 3.75 0V11.65a7.5 7.5 0 0 0-7.5-7.5Z"/><path fill="#E40046" d="M36.66 25.71A11.36 11.36 0 0 0 25.3 37.06a11.36 11.36 0 0 0 22.69 0c0-6.26-5.09-11.35-11.34-11.35Zm0 18.94a7.6 7.6 0 0 1 0-15.19 7.6 7.6 0 0 1 0 15.19Z"/><path fill="#E40046" d="M39.38 35.18h-.85v-1.97a1.87 1.87 0 1 0-3.75 0v3.85c0 1.03.84 1.87 1.88 1.87h2.72a1.87 1.87 0 1 0 0-3.75Z"/><path fill="#002D72" d="M28.03 21.96a1.87 1.87 0 1 0 0-3.75 1.87 1.87 0 0 0 0 3.75ZM19.88 30.12a1.88 1.88 0 1 0 0-3.75 1.88 1.88 0 0 0 0 3.75ZM11.72 21.96a1.87 1.87 0 1 0 0-3.75 1.87 1.87 0 0 0 0 3.75ZM11.72 30.12a1.88 1.88 0 1 0 0-3.75 1.88 1.88 0 0 0 0 3.75ZM11.72 38.27a1.87 1.87 0 1 0 0-3.74 1.87 1.87 0 0 0 0 3.74ZM19.88 38.27a1.87 1.87 0 1 0 0-3.74 1.87 1.87 0 0 0 0 3.74ZM19.88 21.96a1.87 1.87 0 1 0 0-3.75 1.87 1.87 0 0 0 0 3.75Z"/></svg>