<svg width="164" height="61" viewBox="0 0 164 61" fill="none" xmlns="http://www.w3.org/2000/svg">
<path d="M40.1307 56.5213C37.5195 53.9379 36.2157 50.2489 36.2157 45.4473C36.2157 40.6456 37.4987 36.9566 40.0681 34.3732C42.6376 31.7899 46.3057 30.4999 51.0796 30.4999C52.9884 30.4999 54.7582 30.6981 56.3854 31.091C58.0126 31.4839 59.3894 32.0437 60.5125 32.7739C60.7663 32.9407 60.8915 33.125 60.8915 33.3232C60.8915 33.4901 60.8219 33.6883 60.6794 33.9108L59.5007 35.9309C59.3303 36.1847 59.1773 36.3099 59.0383 36.3099C58.927 36.3099 58.7288 36.2404 58.4472 36.0978C56.6774 35.0304 54.4174 34.4984 51.6672 34.4984C48.4962 34.4984 46.0102 35.4094 44.2161 37.2348C42.4185 39.0601 41.5215 41.7965 41.5215 45.4438C41.5215 49.0911 42.4464 51.9074 44.2996 53.7189C46.1528 55.5304 48.6492 56.4344 51.7958 56.4344C54.7164 56.4344 57.1155 55.8885 58.9966 54.7933C59.2747 54.6542 59.459 54.5847 59.5459 54.5847C59.7128 54.5847 59.8832 54.7098 60.0501 54.9636L61.3574 57.1541C61.4408 57.3245 61.4826 57.4635 61.4826 57.5748C61.4826 57.7417 61.3296 57.926 61.0201 58.1207C58.8575 59.6366 55.5892 60.3946 51.2082 60.3946C46.4379 60.3946 42.7454 59.1047 40.1342 56.5213" fill="white"/>
<path d="M65.2655 57.8878C63.6383 56.2189 62.8247 53.865 62.8247 50.8366C62.8247 48.4792 63.3428 46.3931 64.3824 44.5851C65.422 42.7736 66.9031 41.3793 68.8259 40.3954C70.7486 39.4149 72.9878 38.9211 75.5433 38.9211C79.1072 38.9211 82.1252 39.7626 84.5973 41.4489V58.6284C84.5973 59.0491 84.5069 59.3446 84.3226 59.5115C84.1383 59.6784 83.8254 59.7654 83.3734 59.7654H81.0577C80.7483 59.7654 80.5153 59.7028 80.3624 59.5776C80.2094 59.4524 80.1016 59.2473 80.046 58.9657L79.7087 57.3245C78.8395 58.392 77.7651 59.1708 76.489 59.661C75.2095 60.1513 73.6623 60.3982 71.8369 60.3982C69.0867 60.3982 66.8962 59.5637 65.269 57.8913M77.7964 55.2592C78.9333 54.39 79.5035 53.2392 79.5035 51.8067V43.5941C78.9125 43.2847 78.3179 43.0691 77.7129 42.9405C77.1079 42.8153 76.3708 42.7492 75.5016 42.7492C73.2833 42.7492 71.5031 43.4516 70.1541 44.8528C68.805 46.2575 68.134 48.1941 68.134 50.6627C68.134 52.6828 68.6034 54.171 69.5456 55.1271C70.4844 56.0833 71.9238 56.5596 73.8605 56.5596C75.3486 56.5596 76.6594 56.125 77.7964 55.2558" fill="white"/>
<path d="M89.938 59.3829C89.6842 59.1291 89.559 58.7501 89.559 58.2459V40.6874C89.559 40.2667 89.6285 39.9712 89.7676 39.8043C89.9067 39.6339 90.2022 39.5505 90.6508 39.5505H93.0498C93.3593 39.5505 93.5818 39.6131 93.7244 39.7417C93.8634 39.8669 93.9469 40.0859 93.9747 40.3954L94.0999 41.9113C95.7549 39.919 97.9315 38.9211 100.626 38.9211C101.86 38.9211 102.799 39.1332 103.446 39.5539C103.613 39.6652 103.721 39.7869 103.762 39.9121C103.804 40.0372 103.797 40.1867 103.741 40.3536L102.983 42.8814C102.9 43.163 102.744 43.3021 102.521 43.3021L102.184 43.2186C101.509 42.9092 100.737 42.7562 99.8681 42.7562C98.4356 42.7562 97.2569 43.156 96.3321 43.9557C95.4072 44.7554 94.9413 45.8437 94.9413 47.2206V58.2529C94.9413 58.757 94.8231 59.136 94.5832 59.3898C94.3433 59.6437 93.9295 59.7688 93.3419 59.7688H91.1514C90.5917 59.7688 90.1814 59.6437 89.931 59.3898" fill="white"/>
<path d="M104.969 49.6163C104.969 47.5093 105.375 45.6526 106.189 44.0393C107.003 42.426 108.174 41.1673 109.704 40.2703C111.234 39.3732 113.039 38.9247 115.114 38.9247C118.063 38.9247 120.194 39.5853 121.515 40.9031V32.694C121.515 32.1621 121.641 31.7692 121.894 31.5154C122.148 31.2616 122.555 31.1364 123.115 31.1364H125.218C125.778 31.1364 126.188 31.2616 126.439 31.5154C126.693 31.7692 126.818 32.1621 126.818 32.694V57.6619C125.75 58.4477 124.318 59.1014 122.524 59.6194C120.726 60.1375 118.859 60.3982 116.922 60.3982C108.95 60.3982 104.965 56.8066 104.965 49.6198M121.512 55.5549V46.9669C121.512 45.59 121.032 44.5539 120.079 43.8515C119.123 43.1492 117.889 42.798 116.373 42.798C114.325 42.798 112.795 43.4169 111.783 44.6512C110.775 45.8855 110.268 47.5858 110.268 49.7449C110.268 52.1579 110.827 53.8999 111.954 54.9638C113.077 56.0312 114.774 56.5632 117.048 56.5632C118.929 56.5632 120.417 56.2259 121.512 55.5514" fill="white"/>
<path d="M132.336 35.4687C131.97 35.0758 131.79 34.5995 131.79 34.0362V33.1531C131.79 32.5933 131.97 32.1135 132.336 31.7206C132.701 31.3277 133.219 31.1295 133.893 31.1295H135.705C136.379 31.1295 136.904 31.3277 137.283 31.7206C137.662 32.1135 137.853 32.5898 137.853 33.1531V34.0362C137.853 34.5995 137.666 35.0758 137.283 35.4687C136.904 35.8616 136.379 36.0598 135.705 36.0598H133.893C133.219 36.0598 132.701 35.8651 132.336 35.4687ZM132.506 59.383C132.252 59.1292 132.127 58.7502 132.127 58.2461V41.1083C132.127 40.5763 132.252 40.1799 132.506 39.9296C132.76 39.6758 133.166 39.5506 133.726 39.5506H135.917C136.477 39.5506 136.887 39.6758 137.137 39.9296C137.391 40.1834 137.516 40.5763 137.516 41.1083V58.2461C137.516 58.7502 137.398 59.1292 137.158 59.383C136.918 59.6369 136.504 59.762 135.917 59.762H133.726C133.163 59.762 132.756 59.6369 132.506 59.383Z" fill="white"/>
<path d="M144.105 57.5088C142.127 55.5861 141.136 52.968 141.136 49.6579C141.136 46.3479 142.127 43.7297 144.105 41.807C146.083 39.8843 148.896 38.9211 152.547 38.9211C156.198 38.9211 159.018 39.8843 161.01 41.807C163.002 43.7297 164 46.3479 164 49.6579C164 52.968 163.002 55.5896 161.01 57.5088C159.018 59.4316 156.194 60.3947 152.547 60.3947C148.9 60.3947 146.083 59.435 144.105 57.5088ZM157.095 54.7099C158.134 53.559 158.652 51.8762 158.652 49.6579C158.652 47.4396 158.134 45.8055 157.095 44.6685C156.055 43.5316 154.539 42.9648 152.547 42.9648C150.555 42.9648 149.074 43.535 148.02 44.6685C146.967 45.8055 146.441 47.4674 146.441 49.6579C146.441 51.8484 146.967 53.5243 148.02 54.689C149.074 55.8538 150.579 56.4379 152.547 56.4379C154.515 56.4379 156.055 55.8642 157.095 54.7134" fill="white"/>
<path d="M31.4349 0.00738761C26.4733 -0.117782 23.9943 3.56777 23.9804 3.58863C22.5027 1.62416 19.8846 0.0317261 16.9048 0.000433745C12.6212 -0.0412894 8.96003 2.93149 8.0456 7.01688C6.59571 11.8324 8.77227 17.6459 13.188 21.2897C20.2218 27.0927 27.8328 27.2109 32.9335 27.0475C33.2534 27.0301 33.5107 26.7659 33.5107 26.4425C33.5107 26.2304 33.4029 26.0461 33.236 25.9384C33.236 25.9384 33.236 25.9384 33.2395 25.9349C32.7527 25.5872 31.4975 24.4919 31.5462 22.9586C31.6088 21.0394 32.6692 20.0971 33.076 19.6833C34.0704 18.675 35.6177 17.2704 37.1614 15.7196C39.2824 13.5848 40.1725 11.2726 40.1725 8.97787C40.1794 4.09626 36.2261 0.12908 31.4349 0.00738761Z" fill="#E40046"/>
<path d="M12.7603 57.8183C11.1331 56.1494 10.3195 53.7955 10.3195 50.7637C10.3195 48.4063 10.8376 46.3236 11.8772 44.5121C12.9168 42.7006 14.398 41.3064 16.3207 40.3224C18.2434 39.3385 20.4826 38.8482 23.0381 38.8482C26.602 38.8482 29.62 39.6896 32.0921 41.3759V58.5555C32.0921 58.9762 32.0017 59.2717 31.8174 59.4386C31.6331 59.6055 31.3202 59.6924 30.8682 59.6924H28.5525C28.2431 59.6924 28.0136 59.6298 27.8572 59.5047C27.7042 59.3795 27.5964 59.1744 27.5408 58.8927L27.2035 57.2516C26.3343 58.319 25.2599 59.0979 23.9839 59.5881C22.7043 60.0784 21.1571 60.3252 19.3317 60.3252C16.5815 60.3252 14.391 59.4908 12.7638 57.8183M25.2912 55.1863C26.4281 54.3171 26.9949 53.1662 26.9949 51.7337V43.5212C26.4038 43.2118 25.8092 42.9962 25.2043 42.8675C24.5993 42.7424 23.8622 42.6798 22.9929 42.6798C20.7746 42.6798 18.9945 43.3821 17.6454 44.7833C16.2964 46.188 15.6253 48.1247 15.6253 50.5933C15.6253 52.6134 16.0947 54.1015 17.0369 55.0577C17.9757 56.0103 19.4152 56.4902 21.3518 56.4902C22.8399 56.4902 24.1507 56.0555 25.2877 55.1863" fill="white"/>
<path d="M7.51713 55.7775C7.27027 55.7253 7.05817 55.6558 6.87042 55.5758C6.481 55.4054 6.18546 55.1864 5.97685 54.9152C5.76823 54.6475 5.62915 54.3172 5.55614 53.9243C5.48312 53.5314 5.44488 53.0933 5.44488 52.603L5.43445 32.8714C5.43445 32.8367 5.43097 32.8089 5.42749 32.7741V32.6872C5.42749 32.6454 5.42054 32.6072 5.41358 32.5655C5.37186 32.1865 5.25365 31.8909 5.05198 31.6893C4.79817 31.4355 4.38789 31.3103 3.82115 31.3103H1.6133C1.04656 31.3103 0.636279 31.4355 0.382463 31.6893C0.177324 31.8944 0.0591079 32.1934 0.0173847 32.5794C0.0139077 32.6142 0 32.642 0 32.6767V32.8506C0 32.8506 0 32.861 0 32.868V50.0058C0 50.0892 0.0104308 50.1622 0.0173847 50.2387V53.7087C0.0208616 54.7379 0.12517 55.6627 0.330309 56.4833C0.538925 57.3038 0.924864 58.0027 1.49856 58.5764C2.06877 59.1501 2.84761 59.5986 3.83158 59.915C4.6278 60.1723 6.00466 60.3323 7.1903 60.3948C7.68402 60.4227 8.12211 60.075 8.20208 59.5882L8.27162 56.8797C8.35855 56.3686 8.02128 55.8853 7.51365 55.7775" fill="white"/>
</svg>
