<svg height="45.000009999987924" overflow="visible" viewBox="0 0 117  45.000009999987924" width="117" xmlns="http://www.w3.org/2000/svg"><g><defs><path id="path-1675937600866247574" d="M28.627620666644514 42.10335653429106 C26.764112811879237 40.179851921310714 25.832408884707377 37.42886042259036 25.832408884707377 33.85598059625508 C25.832408884707377 30.277502211794726 26.748112744438295 27.532109271199445 28.579520463900117 25.608704632471373 C30.410828182940374 23.685200019491024 33.0294392204978 22.723547687253117 36.43515357572935 22.723547687253117 C37.79535930905467 22.723547687253117 39.059164636048116 22.868910250001207 40.22116953394839 23.165233933622513 C41.383174431848715 23.455959059118694 42.36317856260801 23.875351047239928 43.166381948144604 24.417711365608856 C43.34848271570713 24.540679695856564 43.434083076516295 24.680543674731794 43.434083076516295 24.825906237479884 C43.434083076516295 24.948874567727596 43.38588287335038 25.09983568860079 43.284182444678756 25.26759248384929 C43.284182444678756 25.26759248384929 42.44347890107734 26.77170510870839 42.44347890107734 26.77170510870839 C42.32027838178192 26.96175616220502 42.21317793034895 27.051233117954368 42.111477501677285 27.051233117954368 C42.031077162786424 27.051233117954368 41.89187657604997 27.000946069080733 41.688375718285165 26.894673438956087 C40.42467039171322 26.10067792771441 38.81276359745723 25.7037801463458 36.85285533636009 25.7037801463458 C34.58774578882659 25.7037801463458 32.81523831763187 26.385904469337724 31.535432923197394 27.74455455719649 C30.255527528341457 29.103304619307504 29.613024820165087 31.144179004410425 29.613024820165087 33.86157915438021 C29.613024820165087 36.62376776935074 30.271627596203924 38.675739296451624 31.594333171464516 40.023292242312436 C32.917038746725 41.37084518817324 34.700146262599354 42.047370953040065 36.94395572035215 42.047370953040065 C39.02696450032315 42.047370953040065 40.74057172325083 41.63917608116903 42.07927736595231 40.82288631167918 C42.27747820137731 40.71661368155457 42.41127876535241 40.66632663268089 42.47027901404099 40.66632663268089 C42.58807951057507 40.66632663268089 42.71118002944907 40.76140214655536 42.82898052598319 40.9458546419269 C42.82898052598319 40.9458546419269 43.76078445357656 42.57853415515881 43.76078445357656 42.57853415515881 C43.81968470184362 42.70160245965876 43.851784837147065 42.80787508978335 43.851784837147065 42.891653513155404 C43.851784837147065 43.01472181765533 43.739384363374256 43.15448582227832 43.519783437746966 43.29984838502644 C41.97757693728067 44.429357486765056 39.64276709595742 44.99411203763439 36.52085393696002 44.99411203763439 C33.120439604068295 44.98851347950931 30.485828499069946 44.03235973114425 28.627620666644514 42.10335653429106 Z" vector-effect="non-scaling-stroke"/></defs> <path d="M28.622127483490516 42.10372265008027 C26.758619628725256 40.18021803709962 25.82691570155339 37.429226538379226 25.82691570155339 33.85634671204389 C25.82691570155339 30.277868327583747 26.7426195612843 27.532475386988153 28.574027280746122 25.60907074825991 C30.40533499978639 23.68556613528017 33.02394603734382 22.723913803041796 36.42966039257536 22.723913803041796 C37.78986612590069 22.723913803041796 39.05367145289412 22.86927636579003 40.21567635079441 23.165600049411296 C41.37768124869473 23.45632517490776 42.35768537945404 23.87571716302864 43.1608887649906 24.41807748139763 C43.34298953255313 24.541045811645745 43.4285898933623 24.680909790520673 43.4285898933623 24.826272353268905 C43.4285898933623 24.94924068351611 43.38038969019641 25.100201804390053 43.27868926152476 25.267958599638405 C43.27868926152476 25.267958599638405 42.43798571792337 26.772071224497267 42.43798571792337 26.772071224497267 C42.31478519862793 26.96212227799424 42.207684747194946 27.051599233743218 42.1059843185233 27.051599233743218 C42.025583979632444 27.051599233743218 41.88638339289599 27.001312184869676 41.68288253513117 26.89503955474538 C40.41917720855923 26.101044043502952 38.80727041430325 25.7041462621346 36.84736215320612 25.7041462621346 C34.58225260567261 25.7041462621346 32.80974513447788 26.386270585127022 31.529939740043403 27.744920672985245 C30.25003434518746 29.103670735096784 29.607531637011107 31.144545120198927 29.607531637011107 33.86194527016869 C29.607531637011107 36.6241338851396 30.26613441304994 38.67610541224076 31.588839988310525 40.023658358100874 C32.911545563570996 41.3712113039619 34.694653079445374 42.04773706882861 36.93846253719818 42.04773706882861 C39.02147131716916 42.04773706882861 40.73507854009685 41.639542196958246 42.073784182798306 40.823252427468105 C42.27198501822332 40.71697979734381 42.405785582198405 40.66669274846936 42.464785830886996 40.66669274846936 C42.5825863274211 40.66669274846936 42.705686846295066 40.76176826234405 42.823487342829196 40.94622075771622 C42.823487342829196 40.94622075771622 43.75529127042256 42.578900270948 43.75529127042256 42.578900270948 C43.814191518689626 42.70196857544761 43.84629165399309 42.8082412055719 43.84629165399309 42.89201962894458 C43.84629165399309 43.01508793344419 43.73389118022027 43.15485193806762 43.51429025459299 43.300214500814945 C41.972083754126686 44.42972360255408 39.63727391280344 44.99447815342319 36.51536075380602 44.99447815342319 C33.11494642091429 44.988879595298386 30.480335315915966 44.03272584693332 28.622127483490516 42.10372265008027 Z" style="stroke-width: 0; stroke-linecap: butt; stroke-linejoin: miter; fill: rgb(255, 255, 255);" vector-effect="non-scaling-stroke"/></g><g><defs><path id="path-1675937600865247572" d="M1.68108,14.12719c-1.12249,-1.24668 -1.68108,-2.99645 -1.68108,-5.255c0,-1.75547 0.35691,-3.30961 1.07072,-4.65695c0.71381,-1.34734 1.73788,-2.3871 3.06205,-3.11949c1.32417,-0.73229 2.86549,-1.09574 4.62935,-1.09574c2.4569,0 4.53613,0.62614 6.23788,1.88401v12.79664c0,0.31307 -0.06201,0.53108 -0.19135,0.65972c-0.12412,0.12295 -0.34135,0.19002 -0.6517,0.19002h-1.5983c-0.21212,0 -0.37246,-0.04468 -0.48103,-0.13974c-0.10867,-0.09506 -0.18111,-0.246 -0.21723,-0.45281l-0.23279,-1.22429c-0.60003,0.79377 -1.33963,1.37522 -2.219,1.73857c-0.87927,0.36345 -1.94999,0.54787 -3.20684,0.54787c-1.8931,-0.0112 -3.4035,-0.63174 -4.52068,-1.87282zM10.30864,12.16491c0.78616,-0.64843 1.17417,-1.50377 1.17417,-2.57162v-6.11594c-0.40868,-0.2292 -0.81726,-0.39134 -1.23106,-0.4864c-0.4138,-0.09506 -0.92593,-0.13974 -1.52074,-0.13974c-1.53098,0 -2.75682,0.52548 -3.68275,1.56534c-0.93105,1.04536 -1.3914,2.48776 -1.3914,4.32699c0,1.50387 0.3259,2.6164 0.97248,3.32641c0.64649,0.7099 1.63964,1.06775 2.97415,1.06775c1.01894,0 1.9241,-0.32426 2.70514,-0.97279z" vector-effect="non-scaling-stroke"/></defs><path d="M1.68108,14.12719c-1.12249,-1.24668 -1.68108,-2.99645 -1.68108,-5.255c0,-1.75547 0.35691,-3.30961 1.07072,-4.65695c0.71381,-1.34734 1.73788,-2.3871 3.06205,-3.11949c1.32417,-0.73229 2.86549,-1.09574 4.62935,-1.09574c2.4569,0 4.53613,0.62614 6.23788,1.88401v12.79664c0,0.31307 -0.06201,0.53108 -0.19135,0.65972c-0.12412,0.12295 -0.34135,0.19002 -0.6517,0.19002h-1.5983c-0.21212,0 -0.37246,-0.04468 -0.48103,-0.13974c-0.10867,-0.09506 -0.18111,-0.246 -0.21723,-0.45281l-0.23279,-1.22429c-0.60003,0.79377 -1.33963,1.37522 -2.219,1.73857c-0.87927,0.36345 -1.94999,0.54787 -3.20684,0.54787c-1.8931,-0.0112 -3.4035,-0.63174 -4.52068,-1.87282zM10.30864,12.16491c0.78616,-0.64843 1.17417,-1.50377 1.17417,-2.57162v-6.11594c-0.40868,-0.2292 -0.81726,-0.39134 -1.23106,-0.4864c-0.4138,-0.09506 -0.92593,-0.13974 -1.52074,-0.13974c-1.53098,0 -2.75682,0.52548 -3.68275,1.56534c-0.93105,1.04536 -1.3914,2.48776 -1.3914,4.32699c0,1.50387 0.3259,2.6164 0.97248,3.32641c0.64649,0.7099 1.63964,1.06775 2.97415,1.06775c1.01894,0 1.9241,-0.32426 2.70514,-0.97279z" style="stroke-width: 0; stroke-linecap: butt; stroke-linejoin: miter; fill: rgb(255, 255, 255);" transform="translate(45, 29) rotate(0)" vector-effect="non-scaling-stroke"/></g><g><defs><path id="path-1675937600865247570" d="M64.16307045008408 44.2392064590162 C63.980969682521604 44.04905543126735 63.89526932129087 43.76952742202134 63.89526932129087 43.39492389890092 C63.89526932129087 43.39492389890092 63.89526932129087 30.310993586293105 63.89526932129087 30.310993586293105 C63.89526932129087 29.99787422829651 63.94346952445679 29.779830384174364 64.04526995354995 29.65126349580156 C64.1469703822216 29.52819519130162 64.35577126232626 29.461112468052654 64.67707261662524 29.461112468052654 C64.67707261662524 29.461112468052654 66.39067983955286 29.461112468052654 66.39067983955286 29.461112468052654 C66.61028076518012 29.461112468052654 66.77088144211884 29.50580095880123 66.87268187121204 29.600876472675676 C66.97438229988366 29.695951986550096 67.03328254815075 29.858110223673513 67.05468263835301 30.08735118404585 C67.05468263835301 30.08735118404585 67.14578302234506 31.216860285784524 67.14578302234506 31.216860285784524 C68.32918801044764 29.729543335300722 69.88209455601509 28.991433431057782 71.80460265946893 28.991433431057782 C72.68280636113504 28.991433431057782 73.35750920503631 29.147993110056095 73.81801114607165 29.461112468052654 C73.93581164260587 29.54499086567692 74.01081195873537 29.63446782142626 74.04291209403884 29.729543335300722 C74.07501222934226 29.82451887492293 74.06971220700247 29.936390063172674 74.02691202659783 30.05935839342036 C74.02691202659783 30.05935839342036 73.48600974667164 31.94367309952499 73.48600974667164 31.94367309952499 C73.42710949840452 32.15061980164919 73.31460902421027 32.256792457521584 73.15400834727157 32.256792457521584 C73.15400834727157 32.256792457521584 72.91300733144195 32.195308292397726 72.91300733144195 32.195308292397726 C72.43110530020428 31.96606733202538 71.87950297517695 31.84859758565054 71.2584003572029 31.84859758565054 C70.23559604603896 31.84859758565054 69.39479250201613 32.145021243524084 68.73618972597727 32.74326716889176 C68.07748694951694 33.34151309425945 67.74548555011683 34.15230427987642 67.74548555011683 35.17554075149044 C67.74548555011683 35.17554075149044 67.74548555011683 43.39492389890092 67.74548555011683 43.39492389890092 C67.74548555011683 43.76952742202134 67.65978518888608 44.05465398939247 67.4884844668463 44.2392064590162 C67.31708374438489 44.4292575125129 67.02258250304955 44.518734468262245 66.59958072007899 44.518734468262245 C66.59958072007899 44.518734468262245 65.0358741289889 44.518734468262245 65.0358741289889 44.518734468262245 C64.63427243622051 44.518734468262245 64.3450712172251 44.42365895438778 64.16307045008408 44.2392064590162 Z" vector-effect="non-scaling-stroke"/></defs> <path d="M64.15757726692976 44.2395725748047 C63.97547649936729 44.04942154705623 63.88977613813654 43.769893537810276 63.88977613813654 43.395290014689635 C63.88977613813654 43.395290014689635 63.88977613813654 30.311359702081973 63.88977613813654 30.311359702081973 C63.88977613813654 29.99824034408539 63.93797634130246 29.780196499963495 64.03977677039563 29.65162961159058 C64.14147719906725 29.528561307090058 64.35027807917191 29.4614785838412 64.67157943347092 29.4614785838412 C64.67157943347092 29.4614785838412 66.38518665639853 29.4614785838412 66.38518665639853 29.4614785838412 C66.60478758202578 29.4614785838412 66.76538825896449 29.50616707458994 66.8671886880577 29.60124258846463 C66.96888911672931 29.69631810233932 67.02778936499641 29.85847633946196 67.0491894551987 30.087717299834367 C67.0491894551987 30.087717299834367 67.14028983919073 31.217226401573498 67.14028983919073 31.217226401573498 C68.32369482729331 29.729909451089952 69.87660137286076 28.991799546846778 71.79910947631458 28.991799546846778 C72.6773131779807 28.991799546846778 73.35201602188198 29.148359225844615 73.81251796291733 29.4614785838412 C73.93031845945154 29.545356981465375 74.00531877558103 29.634833937215262 74.03741891088453 29.729909451089952 C74.06951904618793 29.824884990712235 74.06421902384812 29.936756178961332 74.02141884344348 30.059724509209445 C74.02141884344348 30.059724509209445 73.48051656351731 31.94403921531375 73.48051656351731 31.94403921531375 C73.42161631525019 32.15098591743845 73.30911584105593 32.257158573310335 73.14851516411724 32.257158573310335 C73.14851516411724 32.257158573310335 72.90751414828762 32.19567440818628 72.90751414828762 32.19567440818628 C72.42561211704995 31.96643344781387 71.8740097920226 31.84896370143906 71.25290717404857 31.84896370143906 C70.23010286288462 31.84896370143906 69.38929931886179 32.145387359312735 68.73069654282295 32.74363328468098 C68.0719937663626 33.34187921004832 67.7399923669625 34.152670395665155 67.7399923669625 35.17590686727908 C67.7399923669625 35.17590686727908 67.7399923669625 43.395290014689635 67.7399923669625 43.395290014689635 C67.7399923669625 43.769893537810276 67.65429200573175 44.05502010518103 67.48299128369197 44.2395725748047 C67.31159056123056 44.42962362830167 67.0170893198952 44.51910058405156 66.59408753692466 44.51910058405156 C66.59408753692466 44.51910058405156 65.03038094583457 44.51910058405156 65.03038094583457 44.51910058405156 C64.62877925306617 44.51910058405156 64.33957803407077 44.42402507017687 64.15757726692976 44.2395725748047 Z" style="stroke-width: 0; stroke-linecap: butt; stroke-linejoin: miter; fill: rgb(255, 255, 255);" vector-effect="non-scaling-stroke"/></g><g><defs><path id="path-1675937600864247568" d="M0,13.89179c0,-1.5799 0.29674,-2.97931 0.89565,-4.19238c0.59337,-1.21317 1.45608,-2.15546 2.57141,-2.83251c1.12087,-0.67716 2.43956,-1.00998 3.96152,-1.00998c2.15935,0 3.71978,0.49647 4.68684,1.4896v-6.17855c0,-0.40062 0.09337,-0.694 0.27468,-0.88589c0.18685,-0.19179 0.48358,-0.28208 0.89565,-0.28208h1.53848c0.41207,0 0.7087,0.09594 0.89555,0.28208c0.18685,0.19189 0.28022,0.48527 0.28022,0.88589v18.77252c-0.78022,0.59241 -1.82967,1.08333 -3.14283,1.47265c-1.31315,0.38932 -2.6813,0.58686 -4.09891,0.58686c-5.84065,-0.00565 -8.75826,-2.70277 -8.75826,-8.10822zM12.11543,18.35495v-6.45498c0,-1.03258 -0.35163,-1.81688 -1.04946,-2.3416c-0.69782,-0.52482 -1.60445,-0.78995 -2.71434,-0.78995c-1.5,0 -2.62087,0.46267 -3.35707,1.39366c-0.74174,0.93099 -1.10989,2.20621 -1.10989,3.8312c0,1.81688 0.41207,3.12035 1.23076,3.92724c0.81869,0.80115 2.06587,1.20177 3.73076,1.20177c1.37913,-0.00565 2.46706,-0.25948 3.26924,-0.76735z" vector-effect="non-scaling-stroke"/></defs><path d="M0,13.89179c0,-1.5799 0.29674,-2.97931 0.89565,-4.19238c0.59337,-1.21317 1.45608,-2.15546 2.57141,-2.83251c1.12087,-0.67716 2.43956,-1.00998 3.96152,-1.00998c2.15935,0 3.71978,0.49647 4.68684,1.4896v-6.17855c0,-0.40062 0.09337,-0.694 0.27468,-0.88589c0.18685,-0.19179 0.48358,-0.28208 0.89565,-0.28208h1.53848c0.41207,0 0.7087,0.09594 0.89555,0.28208c0.18685,0.19189 0.28022,0.48527 0.28022,0.88589v18.77252c-0.78022,0.59241 -1.82967,1.08333 -3.14283,1.47265c-1.31315,0.38932 -2.6813,0.58686 -4.09891,0.58686c-5.84065,-0.00565 -8.75826,-2.70277 -8.75826,-8.10822zM12.11543,18.35495v-6.45498c0,-1.03258 -0.35163,-1.81688 -1.04946,-2.3416c-0.69782,-0.52482 -1.60445,-0.78995 -2.71434,-0.78995c-1.5,0 -2.62087,0.46267 -3.35707,1.39366c-0.74174,0.93099 -1.10989,2.20621 -1.10989,3.8312c0,1.81688 0.41207,3.12035 1.23076,3.92724c0.81869,0.80115 2.06587,1.20177 3.73076,1.20177c1.37913,-0.00565 2.46706,-0.25948 3.26924,-0.76735z" style="stroke-width: 0; stroke-linecap: butt; stroke-linejoin: miter; fill: rgb(255, 255, 255);" transform="translate(74, 22.999989999995705) rotate(0)" vector-effect="non-scaling-stroke"/></g><g><defs><path id="path-1675937600864247566" d="M0.36137,3.18707c-0.24258,-0.28621 -0.36137,-0.63846 -0.36137,-1.05133v-0.64948c0,-0.41288 0.11879,-0.75971 0.36137,-1.05143c0.24258,-0.28621 0.58417,-0.43482 1.02967,-0.43482h1.19312c0.4455,0 0.79199,0.1431 1.03956,0.43482c0.24748,0.28631 0.37626,0.63856 0.37626,1.05143v0.64948c0,0.41288 -0.12379,0.75961 -0.37626,1.05133c-0.24757,0.28631 -0.59906,0.43492 -1.03956,0.43492h-1.19312c-0.4455,0 -0.79208,-0.1431 -1.02967,-0.43492zM0.47028,20.73001c-0.16835,-0.1871 -0.24757,-0.46238 -0.24757,-0.83116v-12.57229c0,-0.39083 0.08422,-0.67714 0.24757,-0.86423c0.16835,-0.1872 0.43561,-0.27528 0.80688,-0.27528h1.44559c0.37127,0 0.63862,0.0936 0.80688,0.27528c0.16835,0.1871 0.24757,0.4734 0.24757,0.86423v12.56678c0,0.36878 -0.07923,0.64958 -0.23768,0.83116c-0.15836,0.1872 -0.43062,0.27528 -0.82176,0.27528h-1.4455c-0.36637,0.00551 -0.63363,-0.08809 -0.80198,-0.26977z" vector-effect="non-scaling-stroke"/></defs><path d="M0.36137,3.18707c-0.24258,-0.28621 -0.36137,-0.63846 -0.36137,-1.05133v-0.64948c0,-0.41288 0.11879,-0.75971 0.36137,-1.05143c0.24258,-0.28621 0.58417,-0.43482 1.02967,-0.43482h1.19312c0.4455,0 0.79199,0.1431 1.03956,0.43482c0.24748,0.28631 0.37626,0.63856 0.37626,1.05143v0.64948c0,0.41288 -0.12379,0.75961 -0.37626,1.05133c-0.24757,0.28631 -0.59906,0.43492 -1.03956,0.43492h-1.19312c-0.4455,0 -0.79208,-0.1431 -1.02967,-0.43492zM0.47028,20.73001c-0.16835,-0.1871 -0.24757,-0.46238 -0.24757,-0.83116v-12.57229c0,-0.39083 0.08422,-0.67714 0.24757,-0.86423c0.16835,-0.1872 0.43561,-0.27528 0.80688,-0.27528h1.44559c0.37127,0 0.63862,0.0936 0.80688,0.27528c0.16835,0.1871 0.24757,0.4734 0.24757,0.86423v12.56678c0,0.36878 -0.07923,0.64958 -0.23768,0.83116c-0.15836,0.1872 -0.43062,0.27528 -0.82176,0.27528h-1.4455c-0.36637,0.00551 -0.63363,-0.08809 -0.80198,-0.26977z" style="stroke-width: 0; stroke-linecap: butt; stroke-linejoin: miter; fill: rgb(255, 255, 255);" transform="translate(94, 22.999989999994796) rotate(0)" vector-effect="non-scaling-stroke"/></g><g><defs><path id="path-1675937600864247564" d="M2.07992,13.85181c-1.38661,-1.4322 -2.07992,-3.38465 -2.07992,-5.85175c0,-2.4672 0.69331,-4.41965 2.07992,-5.85175c1.38563,-1.4322 3.34984,-2.14831 5.90733,-2.14831c2.55161,0 4.5266,0.7161 5.92302,2.14831c1.39152,1.4321 2.08973,3.38455 2.08973,5.85175c0,2.4671 -0.69821,4.41955 -2.08973,5.85175c-1.39642,1.4322 -3.36553,2.14821 -5.92302,2.14821c-2.55749,0 -4.5266,-0.716 -5.90733,-2.14821zM11.1645,11.76512c0.72469,-0.85594 1.09144,-2.1147 1.09144,-3.76506c0,-1.63356 -0.36185,-2.86991 -1.09144,-3.72035c-0.72469,-0.84474 -1.78573,-1.26986 -3.18313,-1.26986c-1.37583,0 -2.43099,0.42512 -3.16646,1.26986c-0.73449,0.84484 -1.10223,2.08679 -1.10223,3.72035c0,1.63356 0.36774,2.88111 1.10223,3.74826c0.73547,0.86714 1.79063,1.30347 3.16646,1.30347c1.3974,0 2.45845,-0.42512 3.18313,-1.28666z" vector-effect="non-scaling-stroke"/></defs><path d="M2.07992,13.85181c-1.38661,-1.4322 -2.07992,-3.38465 -2.07992,-5.85175c0,-2.4672 0.69331,-4.41965 2.07992,-5.85175c1.38563,-1.4322 3.34984,-2.14831 5.90733,-2.14831c2.55161,0 4.5266,0.7161 5.92302,2.14831c1.39152,1.4321 2.08973,3.38455 2.08973,5.85175c0,2.4671 -0.69821,4.41955 -2.08973,5.85175c-1.39642,1.4322 -3.36553,2.14821 -5.92302,2.14821c-2.55749,0 -4.5266,-0.716 -5.90733,-2.14821zM11.1645,11.76512c0.72469,-0.85594 1.09144,-2.1147 1.09144,-3.76506c0,-1.63356 -0.36185,-2.86991 -1.09144,-3.72035c-0.72469,-0.84474 -1.78573,-1.26986 -3.18313,-1.26986c-1.37583,0 -2.43099,0.42512 -3.16646,1.26986c-0.73449,0.84484 -1.10223,2.08679 -1.10223,3.72035c0,1.63356 0.36774,2.88111 1.10223,3.74826c0.73547,0.86714 1.79063,1.30347 3.16646,1.30347c1.3974,0 2.45845,-0.42512 3.18313,-1.28666z" style="stroke-width: 0; stroke-linecap: butt; stroke-linejoin: miter; fill: rgb(255, 255, 255);" transform="translate(101, 28.99998999998752) rotate(0)" vector-effect="non-scaling-stroke"/></g><g><defs><path id="path-1675937600864247562" d="M22.42119450629287 0.005601417388712533 C18.881579586664756 -0.08945236208329486 17.114472138231342 2.655925982271125 17.103672092708702 2.6727016617959745 C16.048767646241362 1.2077489515369046 14.179859768714806 0.022375637289479063 12.053950807917706 0.000010015120666035837 C8.996307919822291 -0.03353836239690788 6.38308690498405 2.180658384576368 5.735134173835601 5.227973566918007 C4.701629817570579 8.812060506928699 6.254566363264471 13.145414477731606 9.403279635225463 15.862814627701358 C14.420860784544406 20.18500147452976 19.850783671901365 20.27447843027909 23.49219902062268 20.151410125779172 C23.7223999909296 20.14021300952896 23.90450075849213 19.944563397907213 23.90450075849213 19.70412532128468 C23.90450075849213 19.547565642286376 23.82420042002276 19.407801637663376 23.71169994582845 19.329521798164237 C23.71169994582845 19.329521798164237 23.71169994582845 19.329521798164237 23.717099968589785 19.32392324003914 C23.36899850132723 19.066689489041288 22.474694731798625 18.250299745299237 22.506894867523563 17.10409494343752 C22.54969504792815 15.67266359995248 23.304798230720344 14.973743602585255 23.599299472055645 14.660624244588668 C24.30610245126041 13.911417198347788 25.414607123654967 12.860187936108284 26.512411750948367 11.708384576121471 C28.027818138451092 10.120493527890368 28.6597208019478 8.398297069208239 28.6597208019478 6.687327719051977 C28.6597208019478 3.052913740466736 25.843008929386894 0.09506381688693166 22.42119450629287 0.005601417388712533 Z" vector-effect="non-scaling-stroke"/></defs> <path d="M22.415701323138876 0.006081436115891847 C18.876086403510755 -0.08897234335609028 17.108978955077333 2.6564060009982313 17.09817890955469 2.6731816805231574 C16.043274463087357 1.2082289702639173 14.17436658556079 0.022855656016417925 12.0484576247637 0.0004900338476545585 C8.990814736668284 -0.03305834366983618 6.377593721830053 2.181138403303521 5.729640990681602 5.228453585645184 C4.696136634416575 8.812540525656004 6.2490731801104715 13.145894496458823 9.397786452071458 15.863294646428585 C14.415367601390415 20.185481493256702 19.845290488747366 20.27495844900659 23.48670583746869 20.15189014450607 C23.716906807775587 20.140693028256464 23.899007575338118 19.94504341663469 23.899007575338118 19.704605340011767 C23.899007575338118 19.54804566101393 23.81870723686876 19.4082816563905 23.70620676267444 19.330001816891127 C23.70620676267444 19.330001816891127 23.70620676267444 19.330001816891127 23.711606785435777 19.324403258766324 C23.363505318173225 19.067169507768085 22.469201548644634 18.250779764026447 22.50140168436957 17.104574962164406 C22.544201864774152 15.673143618679205 23.29930504756635 14.974223621312376 23.593806288901646 14.661104263315792 C24.3006092681064 13.911897217074511 25.40911394050096 12.860667954835662 26.506918567794372 11.70886459484882 C28.02232495529708 10.120973546617279 28.65422761879381 8.398777087935287 28.65422761879381 6.687807737779167 C28.65422761879381 3.053393759194023 25.837515746232896 0.09554383561408031 22.415701323138876 0.006081436115891847 Z" style="stroke-width: 0; stroke-linecap: butt; stroke-linejoin: miter; fill: rgb(228, 0, 70);" vector-effect="non-scaling-stroke"/></g><g><defs><path id="path-1675937600863247560" d="M1.7931,14.12719c-1.19724,-1.24668 -1.7931,-2.99645 -1.7931,-5.2551c0,-1.75537 0.38069,-3.30951 1.14207,-4.65685c0.76138,-1.34734 1.85379,-2.3871 3.26624,-3.11949c1.41235,-0.73239 3.05651,-1.09574 4.93785,-1.09574c2.62069,0 4.83863,0.62614 6.65383,1.88401v12.79664c0,0.31307 -0.06625,0.53108 -0.20421,0.65972c-0.13239,0.12295 -0.36411,0.19002 -0.69515,0.19002h-1.70475c-0.22626,0 -0.39729,-0.04468 -0.5132,-0.13974c-0.11581,-0.09506 -0.19308,-0.246 -0.23172,-0.45281l-0.2482,-1.22429c-0.64003,0.79377 -1.42904,1.37522 -2.36693,1.73857c-0.93789,0.36345 -2.07999,0.54787 -3.42073,0.54787c-2.01374,-0.0056 -3.62483,-0.62614 -4.82203,-1.87282zM11.00135,12.17051c0.83867,-0.64843 1.25244,-1.50377 1.25244,-2.57162v-6.11594c-0.43592,-0.2293 -0.87174,-0.39134 -1.31313,-0.4864c-0.44138,-0.09506 -0.98755,-0.13974 -1.62758,-0.13974c-1.62758,0 -2.9407,0.52548 -3.92825,1.56524c-0.99311,1.04546 -1.48416,2.48786 -1.48416,4.32709c0,1.50387 0.34763,2.6164 1.03721,3.32631c0.68969,0.71 1.74895,1.06785 3.17242,1.06785c1.09244,-0.0056 2.05794,-0.32426 2.89104,-0.97279z" vector-effect="non-scaling-stroke"/></defs><path d="M1.7931,14.12719c-1.19724,-1.24668 -1.7931,-2.99645 -1.7931,-5.2551c0,-1.75537 0.38069,-3.30951 1.14207,-4.65685c0.76138,-1.34734 1.85379,-2.3871 3.26624,-3.11949c1.41235,-0.73239 3.05651,-1.09574 4.93785,-1.09574c2.62069,0 4.83863,0.62614 6.65383,1.88401v12.79664c0,0.31307 -0.06625,0.53108 -0.20421,0.65972c-0.13239,0.12295 -0.36411,0.19002 -0.69515,0.19002h-1.70475c-0.22626,0 -0.39729,-0.04468 -0.5132,-0.13974c-0.11581,-0.09506 -0.19308,-0.246 -0.23172,-0.45281l-0.2482,-1.22429c-0.64003,0.79377 -1.42904,1.37522 -2.36693,1.73857c-0.93789,0.36345 -2.07999,0.54787 -3.42073,0.54787c-2.01374,-0.0056 -3.62483,-0.62614 -4.82203,-1.87282zM11.00135,12.17051c0.83867,-0.64843 1.25244,-1.50377 1.25244,-2.57162v-6.11594c-0.43592,-0.2293 -0.87174,-0.39134 -1.31313,-0.4864c-0.44138,-0.09506 -0.98755,-0.13974 -1.62758,-0.13974c-1.62758,0 -2.9407,0.52548 -3.92825,1.56524c-0.99311,1.04546 -1.48416,2.48786 -1.48416,4.32709c0,1.50387 0.34763,2.6164 1.03721,3.32631c0.68969,0.71 1.74895,1.06785 3.17242,1.06785c1.09244,-0.0056 2.05794,-0.32426 2.89104,-0.97279z" style="stroke-width: 0; stroke-linecap: butt; stroke-linejoin: miter; fill: rgb(255, 255, 255);" transform="translate(7, 29) rotate(0)" vector-effect="non-scaling-stroke"/></g><g><defs><path id="path-1675937600863247558" d="M5.3604525945368104 41.54969912541944 C5.183741849693468 41.51060919279599 5.033801217687296 41.460322143922305 4.899920653374993 41.39873800454625 C4.621469479691395 41.27017111617344 4.412628599418156 41.10801287905004 4.262687967411983 40.90676470930319 C4.112747335405816 40.70541656530413 4.016356929116129 40.45937993055647 3.9628067033996395 40.168654805060285 C3.9092564776831473 39.87792967956408 3.882486364845983 39.54801464719221 3.882486364845983 39.184608240321964 C3.882486364845983 39.184608240321964 3.8771263422532534 24.48479408885766 3.8771263422532534 24.48479408885766 C3.8771263422532534 24.456801298232165 3.8717763197026875 24.440005623856862 3.8717763197026875 24.412112807483606 C3.8717763197026875 24.412112807483606 3.8717763197026875 24.35062864235975 3.8717763197026875 24.35062864235975 C3.8717763197026875 24.31703729360917 3.8664162971099567 24.289044502983675 3.8610662745593864 24.261151686610408 C3.8342861616800636 23.981523703112185 3.748605800533679 23.75788130086494 3.6040251911202286 23.60692017999174 C3.421954423684166 23.4168691264951 3.127433182264542 23.32739217074576 2.7258114894119405 23.32739217074576 C2.7258114894119405 23.32739217074576 1.1514548534314248 23.32739217074576 1.1514548534314248 23.32739217074576 C0.7498321605746079 23.32739217074576 0.4553099191507706 23.422467684620205 0.273241151723134 23.60692017999174 C0.12865754229704007 23.75788130086494 0.04297788115360609 23.981523703112185 0.016203068296625444 24.27234880286062 C0.016203068296625444 24.294643061108772 0.0054931831540017935 24.31703729360917 0.0054931831540017935 24.345030084234658 C0.0054931831540017935 24.345030084234658 0.0054931831540017935 24.473596972607467 0.0054931831540017935 24.473596972607467 C0.0054931831540017935 24.479195530732557 0.0054931831540017935 24.479195530732557 0.0054931831540017935 24.48479408885766 C0.0054931831540017935 24.48479408885766 0.0054931831540017935 37.25000648534369 0.0054931831540017935 37.25000648534369 C0.0054931831540017935 37.31149065046753 0.010848145725397924 37.367376257466276 0.016203068296625444 37.42326186446504 C0.016203068296625444 37.42326186446504 0.016203068296625444 40.006496567936885 0.016203068296625444 40.006496567936885 C0.016203068296625444 40.77249928855308 0.09117248429591839 41.460322143922305 0.2411110162932398 42.07536374366531 C0.3910506482951976 42.684806785283165 0.6641527994324382 43.20477287115171 1.0711345148777645 43.635361975523104 C1.4781062302809405 44.06585110564231 2.035018577690289 44.395766138014196 2.736521534555237 44.63060565651164 C3.3041439271078823 44.82075668426053 4.284108057698583 44.94372501450826 5.1301916239769785 44.98841350525679 C5.483613113663667 45.010807737757176 5.794204422819305 44.75357398675935 5.8531046710863714 44.39016757988911 C5.8531046710863714 44.39016757988911 5.901304874252292 42.371687427286595 5.901304874252292 42.371687427286595 C5.960205122519357 41.99148534604103 5.719234106816223 41.63357752304369 5.3604525945368104 41.54969912541944 Z" vector-effect="non-scaling-stroke"/></defs> <path d="M5.3532692011815755 41.55006524120836 C5.176558456338228 41.51097530858533 5.026617824332064 41.46068825971088 4.892737260019757 41.39910412033532 C4.614286086336165 41.27053723196241 4.405445206062922 41.10837899483886 4.255504574056744 40.90713082509228 C4.10556394205058 40.7057826810933 4.009173535760894 40.45974604634557 3.955623310044402 40.16902092084911 C3.9020730843279097 39.87829579535264 3.875302971490754 39.54838076298074 3.875302971490754 39.184974356110615 C3.875302971490754 39.184974356110615 3.8699429488980144 24.48516020464649 3.8699429488980144 24.48516020464649 C3.8699429488980144 24.45716741402066 3.8645929263474557 24.440371739645343 3.8645929263474557 24.41247892327283 C3.8645929263474557 24.41247892327283 3.8645929263474557 24.350994758148772 3.8645929263474557 24.350994758148772 C3.8645929263474557 24.31740340939814 3.859232903754716 24.28941061877231 3.8538828812041572 24.261517802398885 C3.827102768324835 23.981889818901436 3.7414224071784474 23.75824741665383 3.596841797764995 23.607286295780796 C3.414771030328936 23.417235242283823 3.1202497889093053 23.327758286534845 2.7186280960567046 23.327758286534845 C2.7186280960567046 23.327758286534845 1.1442714600761974 23.327758286534845 1.1442714600761974 23.327758286534845 C0.7426487672193787 23.327758286534845 0.44812652579553003 23.422833800409535 0.2660577583678929 23.607286295780796 C0.12147414894180031 23.75824741665383 0.0357944877983698 23.981889818901436 0.009019674941384892 24.2727149186494 C0.009019674941384892 24.29500917689802 -0.0016902102012323894 24.31740340939814 -0.0016902102012323894 24.34539620002397 C-0.0016902102012323894 24.34539620002397 -0.0016902102012323894 24.473963088395976 -0.0016902102012323894 24.473963088395976 C-0.0016902102012323894 24.479561646521688 -0.0016902102012323894 24.479561646521688 -0.0016902102012323894 24.48516020464649 C-0.0016902102012323894 24.48516020464649 -0.0016902102012323894 37.25037260113277 -0.0016902102012323894 37.25037260113277 C-0.0016902102012323894 37.311856766256824 0.0036647523701702767 37.36774237325517 0.009019674941384892 37.423627980253514 C0.009019674941384892 37.423627980253514 0.009019674941384892 40.00686268372556 0.009019674941384892 40.00686268372556 C0.009019674941384892 40.772865404342156 0.0839890909406904 41.46068825971088 0.23392762293801184 42.07572985945444 C0.38386725493995755 42.68517290107229 0.6569694060772093 43.205138986940256 1.0639511215225355 43.63572809131165 C1.470922836925709 44.06621722143154 2.0278351843350606 44.396132253803444 2.729338141200003 44.630971772300654 C3.296960533752653 44.821122800049125 4.276924664343355 44.94409113029724 5.12300823062175 44.98877962104598 C5.476429720308431 45.0111738535461 5.787021029464071 44.75394010254786 5.8459212777311365 44.39053369567773 C5.8459212777311365 44.39053369567773 5.894121480897056 42.37205354307571 5.894121480897056 42.37205354307571 C5.953021729164121 41.991851461830265 5.712050713460982 41.633943638832534 5.3532692011815755 41.55006524120836 Z" style="stroke-width: 0; stroke-linecap: butt; stroke-linejoin: miter; fill: rgb(255, 255, 255);" vector-effect="non-scaling-stroke"/></g></svg>