<svg width="158" height="158" viewBox="0 0 158 158" fill="none" xmlns="http://www.w3.org/2000/svg">
<circle cx="79" cy="79" r="79" fill="#1A9DD1"/>
<path d="M99.2334 27.6439C98.8916 22.6283 89.3839 20 80.0045 20C70.625 20 61.1174 22.6283 60.7755 27.6439C60.7702 27.7356 60.7702 27.8276 60.7755 27.9193C60.8343 28.7815 61.0953 29.6137 61.5343 30.3382C61.9733 31.0627 62.5759 31.656 63.286 32.0626C64.2657 32.7369 65.3164 33.284 66.416 33.6924C66.6101 33.7662 66.8179 33.7886 67.0217 33.7578C67.2256 33.727 67.4196 33.644 67.5872 33.5156C67.7549 33.3873 67.8913 33.2174 67.985 33.0205C68.0786 32.8235 68.1267 32.6052 68.1253 32.384C68.1259 32.1038 68.0463 31.8301 67.8972 31.6002C67.7482 31.3702 67.5369 31.1951 67.292 31.0986C64.7175 30.1 63.286 28.9064 63.286 27.9193C63.286 25.819 69.8025 22.766 80.0045 22.766C90.2065 22.766 96.723 25.819 96.723 27.9193C96.723 30.0197 90.2065 33.0841 80.0045 33.0841C77.5914 33.0937 75.1811 32.9096 72.7936 32.5332C72.6122 32.5034 72.4269 32.5161 72.2505 32.5705C72.0741 32.6249 71.9108 32.7198 71.7717 32.8484C71.6326 32.9771 71.5212 33.1366 71.4449 33.316C71.3687 33.4954 71.3295 33.6904 71.3301 33.8875C71.3284 34.2144 71.4349 34.5312 71.6306 34.7814C71.8263 35.0316 72.0984 35.1989 72.3984 35.2533C74.9133 35.6493 77.452 35.8449 79.9938 35.8387C86.5744 35.8387 93.219 34.5532 96.7123 32.0512C97.4229 31.647 98.0267 31.0561 98.4675 30.3337C98.9083 29.6112 99.1718 28.7807 99.2334 27.9193C99.2387 27.8276 99.2387 27.7356 99.2334 27.6439Z" fill="white"/>
<path d="M80.0047 46.1562C82.3929 46.1656 84.7784 45.9814 87.1408 45.6053C87.3228 45.5773 87.5083 45.5917 87.6847 45.6476C87.8611 45.7034 88.0242 45.7994 88.163 45.9289C88.3019 46.0585 88.4131 46.2186 88.4893 46.3984C88.5654 46.5782 88.6046 46.7736 88.6043 46.9711C88.606 47.2979 88.4995 47.6147 88.3038 47.865C88.1081 48.1152 87.836 48.2824 87.536 48.3369C85.0603 48.7303 82.5608 48.9259 80.0581 48.9223C73.4669 48.9223 66.8329 47.6368 63.3396 45.1347C62.6204 44.7372 62.0075 44.1492 61.5588 43.4261C61.1102 42.7031 60.8407 41.8691 60.7758 41.0029C60.7596 40.8154 60.7801 40.6263 60.8359 40.4477C60.8916 40.2691 60.9814 40.105 61.0995 39.9658C61.2177 39.8266 61.3615 39.7155 61.5219 39.6394C61.6823 39.5633 61.8557 39.524 62.031 39.524C62.2063 39.524 62.3797 39.5633 62.5401 39.6394C62.7004 39.7155 62.8443 39.8266 62.9624 39.9658C63.0805 40.105 63.1704 40.2691 63.2261 40.4477C63.2819 40.6263 63.3023 40.8154 63.2862 41.0029C63.2862 43.1033 69.8027 46.1562 80.0047 46.1562Z" fill="white"/>
<path d="M99.2334 41.0029C99.1738 41.8634 98.9124 42.6936 98.4734 43.4161C98.0344 44.1387 97.4322 44.7299 96.7229 45.1347C95.7187 45.8218 94.6431 46.3803 93.5181 46.799C93.3246 46.8677 93.1188 46.8864 92.9173 46.8534C92.7159 46.8204 92.5245 46.7367 92.3589 46.6091C92.1933 46.4815 92.0581 46.3137 91.9644 46.1193C91.8707 45.9249 91.821 45.7095 91.8195 45.4905C91.8175 45.207 91.8977 44.9298 92.0489 44.6974C92.2001 44.465 92.4149 44.2889 92.6635 44.1936C95.2808 43.2066 96.7336 41.99 96.7336 41.0029C96.7175 40.8154 96.738 40.6263 96.7937 40.4477C96.8495 40.2691 96.9393 40.105 97.0574 39.9658C97.1755 39.8266 97.3194 39.7155 97.4798 39.6394C97.6401 39.5633 97.8135 39.524 97.9888 39.524C98.1641 39.524 98.3375 39.5633 98.4979 39.6394C98.6583 39.7155 98.8021 39.8266 98.9203 39.9658C99.0384 40.105 99.1282 40.2691 99.184 40.4477C99.2397 40.6263 99.2602 40.8154 99.2441 41.0029H99.2334Z" fill="white"/>
<path d="M72.7618 59.8375C72.7618 60.0412 72.7201 60.2425 72.6396 60.427C72.5591 60.6116 72.4418 60.7748 72.296 60.9051C72.1502 61.0355 71.9795 61.1298 71.796 61.1813C71.6125 61.2328 71.4207 61.2403 71.2342 61.2033C68.431 60.7663 65.7325 59.7531 63.2862 58.2192C62.577 57.8144 61.9748 57.2231 61.5358 56.5006C61.0968 55.778 60.8353 54.9478 60.7758 54.0873C60.7596 53.8998 60.7801 53.7107 60.8359 53.5321C60.8916 53.3535 60.9814 53.1894 61.0995 53.0502C61.2177 52.9111 61.3615 52.7999 61.5219 52.7238C61.6823 52.6478 61.8557 52.6085 62.031 52.6085C62.2063 52.6085 62.3797 52.6478 62.5401 52.7238C62.7004 52.7999 62.8443 52.9111 62.9624 53.0502C63.0805 53.1894 63.1704 53.3535 63.2261 53.5321C63.2819 53.7107 63.3023 53.8998 63.2862 54.0873C63.2862 55.5449 66.3949 57.4502 71.6828 58.4717C71.9829 58.528 72.2551 58.6954 72.4522 58.9449C72.6493 59.1944 72.7589 59.5102 72.7618 59.8375Z" fill="white"/>
<path d="M99.2337 54.0873C99.1741 54.9478 98.9127 55.778 98.4737 56.5006C98.0347 57.2231 97.4325 57.8143 96.7232 58.2192C93.23 60.7212 86.5853 62.0067 80.0047 62.0067C79.054 62.0067 78.1032 62.0067 77.1738 61.9263C76.8469 61.9058 76.5398 61.7517 76.3153 61.4956C76.0908 61.2395 75.9661 60.9008 75.9667 60.5491C75.965 60.3628 75.9988 60.1781 76.066 60.0064C76.1332 59.8347 76.2324 59.6796 76.3575 59.5506C76.4825 59.4216 76.6309 59.3214 76.7933 59.2563C76.9557 59.1911 77.1288 59.1624 77.302 59.1718C78.1673 59.1718 79.0753 59.2406 80.0047 59.2406C90.2068 59.2406 96.7232 56.1877 96.7232 54.0873C96.7071 53.8998 96.7276 53.7107 96.7833 53.5321C96.8391 53.3535 96.9289 53.1894 97.047 53.0502C97.1651 52.9111 97.309 52.7999 97.4694 52.7238C97.6298 52.6478 97.8031 52.6085 97.9784 52.6085C98.1538 52.6085 98.3271 52.6478 98.4875 52.7238C98.6479 52.7999 98.7918 52.9111 98.9099 53.0502C99.028 53.1894 99.1178 53.3535 99.1736 53.5321C99.2293 53.7107 99.2498 53.8998 99.2337 54.0873Z" fill="white"/>
<path d="M99.2334 27.9193V67.1712C99.2334 72.3704 89.5548 75.0905 80.0045 75.0905C70.4541 75.0905 60.7755 72.3704 60.7755 67.1712V27.9193C60.7702 27.8276 60.7702 27.7356 60.7755 27.6439C60.8442 27.3217 61.0202 27.0371 61.2703 26.8446C61.5204 26.6522 61.8274 26.5646 62.1335 26.5985C62.4395 26.6323 62.7234 26.7853 62.9318 27.0285C63.1401 27.2717 63.2585 27.5884 63.2646 27.9188V67.1712C63.2646 69.2716 69.7811 72.3245 79.9831 72.3245C90.1851 72.3245 96.7016 69.2716 96.7016 67.1712V27.9188C96.6676 27.5581 96.7684 27.1977 96.9817 26.9168C97.1951 26.6359 97.5036 26.4576 97.8393 26.4211C98.175 26.3845 98.5105 26.4928 98.772 26.722C99.0334 26.9512 99.1994 27.2832 99.2334 27.6439C99.2387 27.7356 99.2387 27.8276 99.2334 27.9193Z" fill="white"/>
<path d="M49.8687 106.08L53.832 107.457C54.1944 107.586 54.4951 107.863 54.6691 108.228C54.843 108.593 54.8761 109.017 54.7614 109.408C54.7033 109.602 54.6101 109.781 54.4872 109.936C54.3642 110.09 54.214 110.217 54.0451 110.309C53.8762 110.401 53.692 110.456 53.5032 110.471C53.3145 110.485 53.1248 110.46 52.9453 110.395L48.95 109.007C47.8117 108.608 46.5737 108.703 45.4995 109.271L35.1372 114.768C34.9672 114.868 34.7805 114.93 34.5878 114.951C34.3952 114.972 34.2006 114.951 34.0155 114.89C33.8304 114.83 33.6585 114.729 33.5099 114.596C33.3613 114.463 33.239 114.299 33.1502 114.114C33.0668 113.933 33.0177 113.735 33.0059 113.533C32.994 113.332 33.0197 113.129 33.0813 112.938C33.1429 112.747 33.2393 112.571 33.3649 112.42C33.4904 112.269 33.6426 112.147 33.8125 112.06L44.1962 106.596C45.9538 105.643 47.9868 105.458 49.8687 106.08Z" fill="white"/>
<path d="M124.723 92.2379L91.3819 118.418C90.3046 119.264 89.0915 119.891 87.8032 120.265L86.2221 120.725C85.61 120.908 84.9774 121 84.342 121C83.5944 121 82.8516 120.872 82.1413 120.621L61.78 113.528C61.4176 113.399 61.1169 113.123 60.9429 112.757C60.769 112.392 60.7359 111.968 60.8506 111.577C60.9087 111.384 61.0019 111.204 61.1248 111.05C61.2478 110.895 61.398 110.768 61.5669 110.676C61.7358 110.585 61.92 110.53 62.1088 110.515C62.2975 110.5 62.4872 110.526 62.6667 110.59L83.06 117.706C83.8324 117.971 84.6596 117.991 85.4423 117.763L87.0233 117.293C87.958 117.02 88.8379 116.565 89.6192 115.95L122.981 89.7703C123.424 89.4378 123.762 88.9696 123.953 88.4269C124.144 87.8842 124.177 87.2924 124.05 86.7288L123.697 85.4204C123.592 84.9837 123.354 84.5974 123.021 84.3228C122.688 84.0482 122.279 83.9013 121.86 83.9054C121.704 83.9047 121.552 83.9525 121.422 84.0431L116.326 87.3485L89.8649 104.645C89.6418 104.781 89.3897 104.852 89.1332 104.852C88.8767 104.852 88.6246 104.781 88.4014 104.645L77.3234 98.2405L77.0136 98.0454C76.8468 97.9504 76.6993 97.8205 76.5797 97.6635C76.4601 97.5065 76.3709 97.3255 76.3172 97.131C76.2635 96.9365 76.2464 96.7325 76.2669 96.5308C76.2874 96.3292 76.3452 96.1339 76.4367 95.9565C76.5666 95.7149 76.7535 95.5145 76.9786 95.3754C77.2037 95.2363 77.459 95.1636 77.7187 95.1646C77.9455 95.1755 78.1677 95.2381 78.3703 95.3482L83.2096 98.1487L89.0424 101.592L94.544 97.988L101.509 93.3971L119.873 81.3918C120.474 81.0109 121.162 80.8163 121.86 80.8294C122.923 80.8185 123.959 81.1899 124.803 81.8845C125.647 82.5792 126.25 83.5572 126.517 84.6629L126.838 86.0172C127.102 87.1625 127.042 88.3665 126.665 89.4749C126.288 90.5832 125.612 91.5454 124.723 92.2379Z" fill="white"/>
<path d="M77.7397 98.2521L70.0054 97.9652C69.6258 97.9652 69.2617 97.8031 68.9932 97.5147C68.7248 97.2263 68.5739 96.8351 68.5739 96.4272C68.5739 96.0193 68.7248 95.6281 68.9932 95.3397C69.2617 95.0513 69.6258 94.8892 70.0054 94.8892H70.0588L77.7077 95.1762L96.6161 94.8318C97.1115 94.8258 97.5874 94.6232 97.9522 94.2631C98.317 93.9029 98.545 93.4106 98.5925 92.8807L98.7634 90.7918C98.8023 90.3451 98.6763 89.8999 98.4125 89.5521C98.1488 89.2043 97.7683 88.9817 97.3532 88.9325L60.9465 84.0547C60.2281 83.9518 59.4974 84.0264 58.8099 84.2727L34.9233 92.8348C34.5606 92.9708 34.1626 92.9469 33.8162 92.7684C33.4699 92.5898 33.2034 92.2712 33.0752 91.8822C33.0148 91.6893 32.9904 91.4855 33.0034 91.2824C33.0163 91.0793 33.0664 90.881 33.1507 90.6988C33.2351 90.5165 33.352 90.3539 33.4948 90.2202C33.6377 90.0865 33.8036 89.9843 33.9832 89.9196L57.8912 81.3575C58.9917 80.9666 60.1589 80.8412 61.3097 80.9902L97.7699 85.8796C98.9267 86.0186 99.9873 86.6375 100.726 87.6044C101.464 88.5713 101.822 89.8097 101.722 91.0558L101.552 93.1447C101.438 94.4398 100.881 95.6437 99.9895 96.5234C99.0976 97.4032 97.9337 97.8965 96.723 97.9078L77.7397 98.2521Z" fill="white"/>
<path d="M96.0286 88.7374C95.7406 88.7382 95.4588 88.647 95.2192 88.4753C94.9795 88.3036 94.7927 88.0593 94.6826 87.7734C94.6118 87.5844 94.5767 87.3821 94.5793 87.1784C94.5819 86.9747 94.6221 86.7736 94.6976 86.5867C94.7732 86.3998 94.8825 86.2309 95.0193 86.0899C95.1561 85.9488 95.3176 85.8383 95.4945 85.7648L109.703 79.8311C110.796 79.4235 111.985 79.4235 113.078 79.8311C114.198 80.2393 115.172 81.0104 115.866 82.0382C116.561 83.0659 116.942 84.2998 116.956 85.5697V86.0632C116.925 86.4556 116.758 86.8211 116.488 87.0873C116.218 87.3537 115.864 87.5014 115.498 87.5014C115.131 87.5014 114.778 87.3537 114.508 87.0873C114.238 86.8211 114.071 86.4556 114.04 86.0632V85.5697C114.035 84.9348 113.846 84.3172 113.5 83.8029C113.153 83.2887 112.666 82.9033 112.106 82.7004C111.655 82.5393 111.168 82.5393 110.717 82.7004L96.6162 88.6342C96.4279 88.7072 96.2287 88.7422 96.0286 88.7374Z" fill="white"/>
<path d="M99.2334 27.6439C98.8916 22.6283 89.3839 20 80.0045 20C70.625 20 61.1174 22.6283 60.7755 27.6439M99.2334 27.6439C99.2387 27.7356 99.2387 27.8276 99.2334 27.9193M99.2334 27.6439C99.1994 27.2832 99.0334 26.9512 98.772 26.722C98.5105 26.4928 98.1751 26.3845 97.8393 26.4211C97.5036 26.4576 97.1951 26.6359 96.9817 26.9168C96.7684 27.1977 96.6676 27.5581 96.7016 27.9188V67.1712C96.7016 69.2716 90.1851 72.3245 79.9831 72.3245C69.7811 72.3245 63.2646 69.2716 63.2646 67.1712V27.9188C63.2585 27.5884 63.1401 27.2717 62.9318 27.0285C62.7234 26.7853 62.4395 26.6323 62.1335 26.5985C61.8274 26.5646 61.5204 26.6522 61.2703 26.8446C61.0202 27.0371 60.8442 27.3217 60.7755 27.6439M60.7755 27.6439C60.7702 27.7356 60.7702 27.8276 60.7755 27.9193M60.7755 27.9193C60.8343 28.7815 61.0953 29.6137 61.5343 30.3382C61.9733 31.0627 62.5759 31.656 63.286 32.0626C64.2657 32.7369 65.3164 33.284 66.416 33.6924C66.6101 33.7662 66.8179 33.7886 67.0217 33.7578C67.2256 33.727 67.4196 33.644 67.5872 33.5156C67.7549 33.3873 67.8913 33.2174 67.985 33.0205C68.0786 32.8235 68.1267 32.6052 68.1253 32.384C68.1259 32.1038 68.0463 31.8301 67.8972 31.6002C67.7482 31.3702 67.5369 31.1951 67.292 31.0986C64.7175 30.1 63.286 28.9064 63.286 27.9193C63.286 25.819 69.8025 22.766 80.0045 22.766C90.2065 22.766 96.723 25.819 96.723 27.9193C96.723 30.0197 90.2065 33.0841 80.0045 33.0841C77.5914 33.0937 75.1811 32.9096 72.7936 32.5332C72.6122 32.5034 72.4269 32.5161 72.2505 32.5705C72.0741 32.6249 71.9108 32.7198 71.7717 32.8484C71.6326 32.9771 71.5212 33.1366 71.4449 33.316C71.3687 33.4954 71.3295 33.6904 71.3301 33.8875C71.3284 34.2144 71.4349 34.5312 71.6306 34.7814C71.8263 35.0316 72.0984 35.1989 72.3984 35.2533C74.9133 35.6493 77.452 35.8449 79.9938 35.8387C86.5744 35.8387 93.219 34.5532 96.7123 32.0512C97.4229 31.647 98.0267 31.0561 98.4675 30.3337C98.9083 29.6112 99.1718 28.7807 99.2334 27.9193M60.7755 27.9193V67.1712C60.7755 72.3704 70.4541 75.0905 80.0045 75.0905C89.5548 75.0905 99.2334 72.3704 99.2334 67.1712V27.9193M80.0047 46.1562C82.3929 46.1656 84.7784 45.9814 87.1408 45.6053C87.3228 45.5773 87.5083 45.5917 87.6847 45.6476C87.8611 45.7034 88.0242 45.7994 88.163 45.9289C88.3019 46.0585 88.4131 46.2186 88.4892 46.3984C88.5654 46.5782 88.6046 46.7736 88.6043 46.9711C88.606 47.2979 88.4995 47.6147 88.3038 47.865C88.1081 48.1152 87.836 48.2824 87.536 48.3369C85.0603 48.7303 82.5608 48.9259 80.0581 48.9223C73.4669 48.9223 66.8329 47.6368 63.3396 45.1347C62.6204 44.7372 62.0075 44.1492 61.5588 43.4261C61.1102 42.7031 60.8407 41.8691 60.7758 41.0029C60.7596 40.8154 60.7801 40.6263 60.8359 40.4477C60.8916 40.2691 60.9814 40.105 61.0995 39.9658C61.2177 39.8266 61.3615 39.7155 61.5219 39.6394C61.6823 39.5633 61.8557 39.524 62.031 39.524C62.2063 39.524 62.3797 39.5633 62.5401 39.6394C62.7004 39.7155 62.8443 39.8266 62.9624 39.9658C63.0805 40.105 63.1704 40.2691 63.2261 40.4477C63.2819 40.6263 63.3023 40.8154 63.2862 41.0029C63.2862 43.1033 69.8027 46.1562 80.0047 46.1562ZM99.2334 41.0029C99.1738 41.8634 98.9124 42.6936 98.4734 43.4161C98.0344 44.1387 97.4322 44.7299 96.7229 45.1347C95.7187 45.8218 94.6431 46.3803 93.5181 46.799C93.3246 46.8677 93.1188 46.8864 92.9173 46.8534C92.7159 46.8204 92.5245 46.7367 92.3589 46.6091C92.1933 46.4815 92.0581 46.3137 91.9644 46.1193C91.8707 45.9249 91.821 45.7095 91.8196 45.4905C91.8175 45.207 91.8977 44.9298 92.0489 44.6974C92.2001 44.465 92.4149 44.2889 92.6635 44.1936C95.2808 43.2066 96.7336 41.99 96.7336 41.0029C96.7175 40.8154 96.738 40.6263 96.7937 40.4477C96.8495 40.2691 96.9393 40.105 97.0574 39.9658C97.1755 39.8266 97.3194 39.7155 97.4798 39.6394C97.6401 39.5633 97.8135 39.524 97.9888 39.524C98.1641 39.524 98.3375 39.5633 98.4979 39.6394C98.6583 39.7155 98.8021 39.8266 98.9203 39.9658C99.0384 40.105 99.1282 40.2691 99.184 40.4477C99.2397 40.6263 99.2602 40.8154 99.2441 41.0029H99.2334ZM72.7618 59.8375C72.7618 60.0412 72.7201 60.2425 72.6396 60.427C72.5591 60.6116 72.4418 60.7748 72.296 60.9051C72.1502 61.0355 71.9795 61.1298 71.796 61.1813C71.6125 61.2328 71.4207 61.2403 71.2342 61.2033C68.431 60.7663 65.7325 59.7531 63.2862 58.2192C62.577 57.8143 61.9747 57.2231 61.5358 56.5006C61.0968 55.778 60.8353 54.9478 60.7758 54.0873C60.7596 53.8998 60.7801 53.7107 60.8359 53.5321C60.8916 53.3535 60.9814 53.1894 61.0995 53.0502C61.2177 52.9111 61.3615 52.7999 61.5219 52.7238C61.6823 52.6478 61.8557 52.6085 62.031 52.6085C62.2063 52.6085 62.3797 52.6478 62.5401 52.7238C62.7004 52.7999 62.8443 52.9111 62.9624 53.0502C63.0805 53.1894 63.1704 53.3535 63.2261 53.5321C63.2819 53.7107 63.3023 53.8998 63.2862 54.0873C63.2862 55.5449 66.3949 57.4502 71.6828 58.4717C71.9829 58.528 72.2551 58.6954 72.4522 58.9449C72.6493 59.1944 72.7589 59.5102 72.7618 59.8375ZM99.2337 54.0873C99.1741 54.9478 98.9127 55.778 98.4737 56.5006C98.0347 57.2231 97.4325 57.8143 96.7232 58.2192C93.23 60.7212 86.5853 62.0067 80.0047 62.0067C79.054 62.0067 78.1032 62.0067 77.1738 61.9263C76.8469 61.9058 76.5398 61.7517 76.3153 61.4956C76.0908 61.2395 75.9661 60.9008 75.9667 60.5491C75.965 60.3628 75.9988 60.1781 76.066 60.0064C76.1332 59.8347 76.2324 59.6796 76.3575 59.5506C76.4825 59.4216 76.6309 59.3214 76.7933 59.2563C76.9557 59.1911 77.1288 59.1624 77.302 59.1718C78.1673 59.1718 79.0753 59.2406 80.0047 59.2406C90.2068 59.2406 96.7232 56.1877 96.7232 54.0873C96.7071 53.8998 96.7276 53.7107 96.7833 53.5321C96.8391 53.3535 96.9289 53.1894 97.047 53.0502C97.1651 52.9111 97.309 52.7999 97.4694 52.7238C97.6298 52.6478 97.8031 52.6085 97.9784 52.6085C98.1538 52.6085 98.3271 52.6478 98.4875 52.7238C98.6479 52.7999 98.7918 52.9111 98.9099 53.0502C99.028 53.1894 99.1178 53.3535 99.1736 53.5321C99.2293 53.7107 99.2498 53.8998 99.2337 54.0873ZM49.8687 106.08L53.832 107.457C54.1944 107.586 54.4951 107.863 54.6691 108.228C54.843 108.593 54.8761 109.017 54.7614 109.408C54.7033 109.602 54.6101 109.781 54.4872 109.936C54.3642 110.09 54.214 110.217 54.0451 110.309C53.8762 110.401 53.692 110.456 53.5032 110.471C53.3145 110.485 53.1248 110.46 52.9453 110.395L48.95 109.007C47.8117 108.608 46.5737 108.703 45.4995 109.271L35.1372 114.768C34.9672 114.868 34.7805 114.93 34.5878 114.951C34.3952 114.972 34.2006 114.951 34.0155 114.89C33.8304 114.83 33.6585 114.729 33.5099 114.596C33.3613 114.463 33.239 114.299 33.1502 114.114C33.0668 113.933 33.0177 113.735 33.0059 113.533C32.994 113.332 33.0197 113.129 33.0813 112.938C33.1429 112.747 33.2393 112.571 33.3649 112.42C33.4904 112.269 33.6426 112.147 33.8125 112.06L44.1962 106.596C45.9538 105.643 47.9868 105.458 49.8687 106.08ZM124.723 92.2379L91.3819 118.418C90.3046 119.264 89.0915 119.891 87.8032 120.265L86.2221 120.725C85.61 120.908 84.9774 121 84.342 121C83.5944 121 82.8516 120.872 82.1413 120.621L61.78 113.528C61.4176 113.399 61.1169 113.123 60.9429 112.757C60.769 112.392 60.7359 111.968 60.8506 111.577C60.9087 111.384 61.0019 111.204 61.1248 111.05C61.2478 110.895 61.398 110.768 61.5669 110.676C61.7358 110.585 61.92 110.53 62.1088 110.515C62.2975 110.5 62.4872 110.526 62.6667 110.59L83.06 117.706C83.8324 117.971 84.6596 117.991 85.4423 117.763L87.0233 117.293C87.958 117.02 88.8379 116.565 89.6192 115.95L122.981 89.7703C123.424 89.4378 123.762 88.9696 123.953 88.4269C124.144 87.8842 124.177 87.2924 124.05 86.7288L123.697 85.4204C123.592 84.9837 123.354 84.5974 123.021 84.3228C122.688 84.0482 122.279 83.9013 121.86 83.9054C121.704 83.9047 121.552 83.9525 121.422 84.0431L116.326 87.3486L89.8649 104.645C89.6418 104.781 89.3897 104.852 89.1332 104.852C88.8767 104.852 88.6246 104.781 88.4014 104.645L77.3234 98.2405L77.0136 98.0454C76.8468 97.9504 76.6993 97.8205 76.5797 97.6635C76.4601 97.5065 76.3709 97.3255 76.3172 97.131C76.2635 96.9365 76.2464 96.7325 76.2669 96.5308C76.2874 96.3292 76.3452 96.1339 76.4367 95.9565C76.5666 95.7149 76.7535 95.5145 76.9786 95.3754C77.2037 95.2363 77.459 95.1636 77.7187 95.1646C77.9455 95.1755 78.1677 95.2381 78.3703 95.3482L83.2096 98.1487L89.0424 101.592L94.544 97.988L101.509 93.3971L119.873 81.3918C120.474 81.0109 121.162 80.8163 121.86 80.8294C122.923 80.8185 123.959 81.1899 124.803 81.8845C125.647 82.5792 126.25 83.5572 126.517 84.6629L126.838 86.0172C127.102 87.1625 127.042 88.3665 126.665 89.4749C126.288 90.5832 125.612 91.5454 124.723 92.2379ZM77.7397 98.2521L70.0054 97.9652C69.6258 97.9652 69.2617 97.8031 68.9932 97.5147C68.7248 97.2263 68.5739 96.8351 68.5739 96.4272C68.5739 96.0193 68.7248 95.6281 68.9932 95.3397C69.2617 95.0513 69.6258 94.8892 70.0054 94.8892H70.0588L77.7077 95.1762L96.6161 94.8318C97.1116 94.8258 97.5874 94.6232 97.9522 94.2631C98.317 93.9029 98.545 93.4106 98.5924 92.8807L98.7634 90.7918C98.8023 90.3451 98.6763 89.8999 98.4125 89.5521C98.1488 89.2043 97.7683 88.9817 97.3532 88.9325L60.9465 84.0547C60.2281 83.9518 59.4974 84.0264 58.8099 84.2727L34.9233 92.8348C34.5606 92.9708 34.1626 92.9469 33.8162 92.7684C33.4699 92.5898 33.2034 92.2712 33.0752 91.8822C33.0148 91.6893 32.9904 91.4855 33.0034 91.2824C33.0163 91.0793 33.0664 90.881 33.1507 90.6988C33.2351 90.5165 33.352 90.3539 33.4948 90.2202C33.6377 90.0865 33.8036 89.9843 33.9832 89.9196L57.8912 81.3575C58.9917 80.9666 60.1589 80.8412 61.3097 80.9902L97.7699 85.8796C98.9267 86.0186 99.9873 86.6375 100.726 87.6044C101.464 88.5713 101.822 89.8097 101.722 91.0558L101.552 93.1447C101.438 94.4398 100.881 95.6437 99.9895 96.5234C99.0976 97.4032 97.9337 97.8965 96.723 97.9078L77.7397 98.2521ZM96.0286 88.7375C95.7406 88.7382 95.4588 88.647 95.2192 88.4753C94.9795 88.3036 94.7927 88.0593 94.6826 87.7734C94.6118 87.5844 94.5767 87.3821 94.5793 87.1784C94.5819 86.9747 94.6221 86.7736 94.6976 86.5867C94.7732 86.3998 94.8825 86.231 95.0193 86.0899C95.1561 85.9488 95.3176 85.8383 95.4945 85.7648L109.703 79.8311C110.796 79.4235 111.985 79.4235 113.078 79.8311C114.198 80.2393 115.172 81.0104 115.866 82.0382C116.561 83.0659 116.942 84.2998 116.956 85.5697V86.0632C116.925 86.4556 116.758 86.8211 116.488 87.0874C116.218 87.3537 115.864 87.5014 115.498 87.5014C115.131 87.5014 114.778 87.3537 114.508 87.0874C114.238 86.8211 114.071 86.4556 114.04 86.0632V85.5697C114.035 84.9348 113.846 84.3172 113.5 83.8029C113.153 83.2887 112.666 82.9033 112.106 82.7004C111.655 82.5393 111.168 82.5393 110.717 82.7004L96.6162 88.6342C96.4279 88.7072 96.2287 88.7422 96.0286 88.7375Z" stroke="white"/>
</svg>
