<svg width="158" height="158" viewBox="0 0 158 158" fill="none" xmlns="http://www.w3.org/2000/svg">
<circle cx="79" cy="79" r="79" fill="#1A9DD1"/>
<path d="M88.8931 35.2556H72.3927C72.0228 35.2556 71.668 35.0994 71.4064 34.8214C71.1449 34.5433 70.998 34.1662 70.998 33.773V26.3254C70.998 25.9322 71.1449 25.5551 71.4064 25.277C71.668 24.999 72.0228 24.8428 72.3927 24.8428H88.8931C89.2611 24.8458 89.6131 25.0033 89.8723 25.281C90.1316 25.5588 90.2771 25.9342 90.277 26.3254V33.773C90.2771 34.1642 90.1316 34.5396 89.8723 34.8173C89.6131 35.0951 89.2611 35.2526 88.8931 35.2556ZM73.7766 32.3017H87.5091V27.7967H73.7766V32.3017Z" fill="white"/>
<path d="M107.893 75.5844H53.478C53.1081 75.5844 52.7534 75.4281 52.4918 75.1501C52.2302 74.872 52.0833 74.4949 52.0833 74.1017V33.7733C52.0861 33.3821 52.2343 33.0079 52.4956 32.7323C52.7568 32.4567 53.11 32.3021 53.478 32.3021H107.893C108.26 32.3021 108.612 32.4571 108.872 32.733C109.131 33.0089 109.277 33.3831 109.277 33.7733V74.1017C109.277 74.493 109.131 74.8684 108.872 75.1461C108.613 75.4238 108.261 75.5814 107.893 75.5844ZM54.8727 72.6304H106.52V35.256H54.8727V72.6304Z" fill="white"/>
<path d="M59.6791 51.2461H53.478C53.1081 51.2461 52.7534 51.0899 52.4918 50.8119C52.2302 50.5338 52.0833 50.1567 52.0833 49.7635C52.0833 49.3702 52.2302 48.9931 52.4918 48.7151C52.7534 48.437 53.1081 48.2808 53.478 48.2808H59.6791C60.049 48.2808 60.4037 48.437 60.6653 48.7151C60.9268 48.9931 61.0738 49.3702 61.0738 49.7635C61.0738 50.1567 60.9268 50.5338 60.6653 50.8119C60.4037 51.0899 60.049 51.2461 59.6791 51.2461Z" fill="white"/>
<path d="M107.893 51.2461H65.2472C64.8773 51.2461 64.5225 51.0899 64.261 50.8119C63.9994 50.5338 63.8525 50.1567 63.8525 49.7635C63.8525 49.3702 63.9994 48.9931 64.261 48.7151C64.5225 48.437 64.8773 48.2808 65.2472 48.2808H107.893C108.263 48.2808 108.618 48.437 108.879 48.7151C109.141 48.9931 109.288 49.3702 109.288 49.7635C109.288 50.1567 109.141 50.5338 108.879 50.8119C108.618 51.0899 108.263 51.2461 107.893 51.2461Z" fill="white"/>
<path d="M49.7339 110.381L53.7142 111.75C54.0782 111.878 54.3802 112.153 54.5548 112.515C54.7295 112.878 54.7628 113.3 54.6476 113.688C54.5893 113.881 54.4957 114.059 54.3722 114.212C54.2487 114.366 54.0978 114.492 53.9282 114.583C53.7585 114.675 53.5736 114.729 53.384 114.744C53.1944 114.759 53.004 114.733 52.8237 114.669L48.8113 113.289C47.6681 112.893 46.4248 112.987 45.3459 113.552L34.9393 119.015C34.7686 119.114 34.5811 119.175 34.3876 119.196C34.1942 119.217 33.9987 119.197 33.8128 119.136C33.6269 119.075 33.4543 118.976 33.3051 118.844C33.1558 118.711 33.033 118.548 32.9438 118.364C32.86 118.184 32.8107 117.988 32.7989 117.787C32.787 117.587 32.8127 117.386 32.8746 117.196C32.9365 117.006 33.0333 116.831 33.1594 116.681C33.2854 116.531 33.4383 116.409 33.609 116.323L44.0371 110.894C45.8022 109.947 47.8439 109.763 49.7339 110.381Z" fill="white"/>
<path d="M124.908 96.6264L91.4249 122.641C90.343 123.483 89.1247 124.105 87.8308 124.478L86.243 124.934C85.6282 125.116 84.993 125.208 84.3548 125.208C83.604 125.207 82.8581 125.08 82.1447 124.831L61.6962 117.783C61.3322 117.655 61.0302 117.38 60.8556 117.017C60.6809 116.654 60.6476 116.233 60.7628 115.844C60.8211 115.652 60.9147 115.474 61.0382 115.32C61.1617 115.166 61.3126 115.04 61.4822 114.949C61.6518 114.858 61.8368 114.803 62.0264 114.788C62.2159 114.774 62.4064 114.799 62.5867 114.863L83.0674 121.934C83.843 122.198 84.6738 122.218 85.4598 121.991L87.0476 121.524C87.9863 121.253 88.87 120.8 89.6547 120.189L123.16 94.1743C123.604 93.8439 123.944 93.3786 124.135 92.8394C124.327 92.3001 124.361 91.712 124.233 91.152L123.879 89.8518C123.773 89.4179 123.534 89.034 123.2 88.7611C122.865 88.4883 122.455 88.3423 122.033 88.3463C121.877 88.3456 121.724 88.3932 121.593 88.4832L116.476 91.7679L89.9014 108.955C89.6773 109.09 89.4241 109.161 89.1665 109.161C88.9089 109.161 88.6557 109.09 88.4316 108.955L77.3062 102.591L76.995 102.397C76.8275 102.303 76.6794 102.174 76.5593 102.018C76.4392 101.862 76.3496 101.682 76.2956 101.489C76.2417 101.296 76.2245 101.093 76.2451 100.892C76.2658 100.692 76.3237 100.498 76.4157 100.322C76.5461 100.082 76.7338 99.8824 76.9599 99.7442C77.186 99.606 77.4424 99.5337 77.7031 99.5347C77.931 99.5455 78.1541 99.6077 78.3576 99.7172L83.2176 102.5L89.0753 105.922L94.6005 102.34L101.595 97.7783L120.038 85.8486C120.642 85.4701 121.332 85.2767 122.033 85.2898C123.101 85.2789 124.141 85.6479 124.989 86.3382C125.837 87.0285 126.443 88.0003 126.711 89.0991L127.033 90.4449C127.298 91.583 127.238 92.7794 126.859 93.8808C126.481 94.9822 125.802 95.9383 124.908 96.6264Z" fill="white"/>
<path d="M77.7243 102.603L69.9569 102.318C69.5756 102.318 69.2099 102.157 68.9403 101.87C68.6707 101.583 68.5192 101.195 68.5192 100.789C68.5192 100.384 68.6707 99.9953 68.9403 99.7087C69.2099 99.4221 69.5756 99.2611 69.9569 99.2611H70.0105L77.6921 99.5462L96.6815 99.204C97.1791 99.198 97.6569 98.9967 98.0233 98.6388C98.3897 98.2809 98.6187 97.7917 98.6663 97.2652L98.838 95.1895C98.8771 94.7456 98.7505 94.3031 98.4856 93.9575C98.2207 93.6119 97.8386 93.3908 97.4218 93.3418L60.8591 88.4947C60.1377 88.3925 59.4038 88.4666 58.7134 88.7114L34.7245 97.2196C34.3603 97.3547 33.9605 97.3309 33.6127 97.1535C33.2649 96.9761 32.9973 96.6595 32.8685 96.2729C32.8078 96.0812 32.7833 95.8787 32.7964 95.6769C32.8094 95.4752 32.8597 95.2781 32.9444 95.097C33.029 94.9159 33.1465 94.7543 33.2899 94.6214C33.4334 94.4885 33.6 94.387 33.7804 94.3227L57.7908 85.8145C58.896 85.426 60.0682 85.3014 61.2239 85.4495L97.8402 90.3081C99.002 90.4463 100.067 91.0613 100.809 92.0221C101.55 92.9829 101.909 94.2135 101.81 95.4518L101.638 97.5275C101.524 98.8145 100.965 100.011 100.069 100.885C99.1736 101.759 98.0048 102.249 96.7888 102.261L77.7243 102.603Z" fill="white"/>
<path d="M96.0915 93.1482C95.8022 93.1489 95.5192 93.0582 95.2786 92.8877C95.0379 92.7171 94.8503 92.4743 94.7397 92.1901C94.6686 92.0023 94.6333 91.8014 94.6359 91.5989C94.6385 91.3965 94.6789 91.1966 94.7548 91.0109C94.8306 90.8252 94.9405 90.6574 95.0778 90.5172C95.2152 90.377 95.3774 90.2672 95.5551 90.1942L109.824 84.2978C110.922 83.8928 112.116 83.8928 113.214 84.2978C114.338 84.7035 115.317 85.4697 116.014 86.491C116.712 87.5123 117.094 88.7384 117.109 90.0004V90.4908C117.077 90.8807 116.909 91.2438 116.638 91.5084C116.367 91.7731 116.012 91.9199 115.644 91.9199C115.276 91.9199 114.921 91.7731 114.65 91.5084C114.379 91.2438 114.211 90.8807 114.18 90.4908V90.0004C114.175 89.3694 113.986 88.7558 113.638 88.2447C113.29 87.7337 112.8 87.3507 112.238 87.1491C111.785 86.9891 111.296 86.9891 110.843 87.1491L96.6815 93.0455C96.4925 93.1181 96.2924 93.1529 96.0915 93.1482Z" fill="white"/>
<path d="M88.8931 35.2556H72.3927C72.0228 35.2556 71.668 35.0994 71.4064 34.8214C71.1449 34.5433 70.998 34.1662 70.998 33.773V26.3254C70.998 25.9322 71.1449 25.5551 71.4064 25.277C71.668 24.999 72.0228 24.8428 72.3927 24.8428H88.8931C89.2611 24.8458 89.6131 25.0033 89.8723 25.281C90.1316 25.5588 90.2771 25.9342 90.277 26.3254V33.773C90.2771 34.1642 90.1316 34.5396 89.8723 34.8173C89.6131 35.0951 89.2611 35.2526 88.8931 35.2556ZM73.7766 32.3017H87.5091V27.7967H73.7766V32.3017Z" stroke="white"/>
<path d="M107.893 75.5844H53.478C53.1081 75.5844 52.7534 75.4281 52.4918 75.1501C52.2302 74.872 52.0833 74.4949 52.0833 74.1017V33.7733C52.0861 33.3821 52.2343 33.0079 52.4956 32.7323C52.7568 32.4567 53.11 32.3021 53.478 32.3021H107.893C108.26 32.3021 108.612 32.4571 108.872 32.733C109.131 33.0089 109.277 33.3831 109.277 33.7733V74.1017C109.277 74.493 109.131 74.8684 108.872 75.1461C108.613 75.4238 108.261 75.5814 107.893 75.5844ZM54.8727 72.6304H106.52V35.256H54.8727V72.6304Z" stroke="white"/>
<path d="M59.6791 51.2461H53.478C53.1081 51.2461 52.7534 51.0899 52.4918 50.8119C52.2302 50.5338 52.0833 50.1567 52.0833 49.7635C52.0833 49.3702 52.2302 48.9931 52.4918 48.7151C52.7534 48.437 53.1081 48.2808 53.478 48.2808H59.6791C60.049 48.2808 60.4037 48.437 60.6653 48.7151C60.9268 48.9931 61.0738 49.3702 61.0738 49.7635C61.0738 50.1567 60.9268 50.5338 60.6653 50.8119C60.4037 51.0899 60.049 51.2461 59.6791 51.2461Z" stroke="white"/>
<path d="M107.893 51.2461H65.2472C64.8773 51.2461 64.5225 51.0899 64.261 50.8119C63.9994 50.5338 63.8525 50.1567 63.8525 49.7635C63.8525 49.3702 63.9994 48.9931 64.261 48.7151C64.5225 48.437 64.8773 48.2808 65.2472 48.2808H107.893C108.263 48.2808 108.618 48.437 108.879 48.7151C109.141 48.9931 109.288 49.3702 109.288 49.7635C109.288 50.1567 109.141 50.5338 108.879 50.8119C108.618 51.0899 108.263 51.2461 107.893 51.2461Z" stroke="white"/>
<path d="M49.7339 110.381L53.7142 111.75C54.0782 111.878 54.3802 112.153 54.5548 112.515C54.7295 112.878 54.7628 113.3 54.6476 113.688C54.5893 113.881 54.4957 114.059 54.3722 114.212C54.2487 114.366 54.0978 114.492 53.9282 114.583C53.7585 114.675 53.5736 114.729 53.384 114.744C53.1944 114.759 53.004 114.733 52.8237 114.669L48.8113 113.289C47.6681 112.893 46.4248 112.987 45.3459 113.552L34.9393 119.015C34.7686 119.114 34.5811 119.175 34.3876 119.196C34.1942 119.217 33.9987 119.197 33.8128 119.136C33.6269 119.075 33.4543 118.976 33.3051 118.844C33.1558 118.711 33.033 118.548 32.9438 118.364C32.86 118.184 32.8107 117.988 32.7989 117.787C32.787 117.587 32.8127 117.386 32.8746 117.196C32.9365 117.006 33.0333 116.831 33.1594 116.681C33.2854 116.531 33.4383 116.409 33.609 116.323L44.0371 110.894C45.8022 109.947 47.8439 109.763 49.7339 110.381Z" stroke="white"/>
<path d="M124.908 96.6264L91.4249 122.641C90.343 123.483 89.1247 124.105 87.8308 124.478L86.243 124.934C85.6282 125.116 84.993 125.208 84.3548 125.208C83.604 125.207 82.8581 125.08 82.1447 124.831L61.6962 117.783C61.3322 117.655 61.0302 117.38 60.8556 117.017C60.6809 116.654 60.6476 116.233 60.7628 115.844C60.8211 115.652 60.9147 115.474 61.0382 115.32C61.1617 115.166 61.3126 115.04 61.4822 114.949C61.6518 114.858 61.8368 114.803 62.0264 114.788C62.2159 114.774 62.4064 114.799 62.5867 114.863L83.0674 121.934C83.843 122.198 84.6738 122.218 85.4598 121.991L87.0476 121.524C87.9863 121.253 88.87 120.8 89.6547 120.189L123.16 94.1743C123.604 93.8439 123.944 93.3786 124.135 92.8394C124.327 92.3001 124.361 91.712 124.233 91.152L123.879 89.8518C123.773 89.4179 123.534 89.034 123.2 88.7611C122.865 88.4883 122.455 88.3423 122.033 88.3463C121.877 88.3456 121.724 88.3932 121.593 88.4832L116.476 91.7679L89.9014 108.955C89.6773 109.09 89.4241 109.161 89.1665 109.161C88.9089 109.161 88.6557 109.09 88.4316 108.955L77.3062 102.591L76.995 102.397C76.8275 102.303 76.6794 102.174 76.5593 102.018C76.4392 101.862 76.3496 101.682 76.2956 101.489C76.2417 101.296 76.2245 101.093 76.2451 100.892C76.2658 100.692 76.3237 100.498 76.4157 100.322C76.5461 100.082 76.7338 99.8824 76.9599 99.7442C77.186 99.606 77.4424 99.5337 77.7031 99.5347C77.931 99.5455 78.1541 99.6077 78.3576 99.7172L83.2176 102.5L89.0753 105.922L94.6005 102.34L101.595 97.7783L120.038 85.8486C120.642 85.4701 121.332 85.2767 122.033 85.2898C123.101 85.2789 124.141 85.6479 124.989 86.3382C125.837 87.0285 126.443 88.0003 126.711 89.0991L127.033 90.4449C127.298 91.583 127.238 92.7794 126.859 93.8808C126.481 94.9822 125.802 95.9383 124.908 96.6264Z" stroke="white"/>
<path d="M77.7243 102.603L69.9569 102.318C69.5756 102.318 69.2099 102.157 68.9403 101.87C68.6707 101.583 68.5192 101.195 68.5192 100.789C68.5192 100.384 68.6707 99.9953 68.9403 99.7087C69.2099 99.4221 69.5756 99.2611 69.9569 99.2611H70.0105L77.6921 99.5462L96.6815 99.204C97.1791 99.198 97.6569 98.9967 98.0233 98.6388C98.3897 98.2809 98.6187 97.7917 98.6663 97.2652L98.838 95.1895C98.8771 94.7456 98.7505 94.3031 98.4856 93.9575C98.2207 93.6119 97.8386 93.3908 97.4218 93.3418L60.8591 88.4947C60.1377 88.3925 59.4038 88.4666 58.7134 88.7114L34.7245 97.2196C34.3603 97.3547 33.9605 97.3309 33.6127 97.1535C33.2649 96.9761 32.9973 96.6595 32.8685 96.2729C32.8078 96.0812 32.7833 95.8787 32.7964 95.6769C32.8094 95.4752 32.8597 95.2781 32.9444 95.097C33.029 94.9159 33.1465 94.7543 33.2899 94.6214C33.4334 94.4885 33.6 94.387 33.7804 94.3227L57.7908 85.8145C58.896 85.426 60.0682 85.3014 61.2239 85.4495L97.8402 90.3081C99.002 90.4463 100.067 91.0613 100.809 92.0221C101.55 92.9829 101.909 94.2135 101.81 95.4518L101.638 97.5275C101.524 98.8145 100.965 100.011 100.069 100.885C99.1736 101.759 98.0048 102.249 96.7888 102.261L77.7243 102.603Z" stroke="white"/>
<path d="M96.0915 93.1482C95.8022 93.1489 95.5192 93.0582 95.2786 92.8877C95.0379 92.7171 94.8503 92.4743 94.7397 92.1901C94.6686 92.0023 94.6333 91.8014 94.6359 91.5989C94.6385 91.3965 94.6789 91.1966 94.7548 91.0109C94.8306 90.8252 94.9405 90.6574 95.0778 90.5172C95.2152 90.377 95.3774 90.2672 95.5551 90.1942L109.824 84.2978C110.922 83.8928 112.116 83.8928 113.214 84.2978C114.338 84.7035 115.317 85.4697 116.014 86.491C116.712 87.5123 117.094 88.7384 117.109 90.0004V90.4908C117.077 90.8807 116.909 91.2438 116.638 91.5084C116.367 91.7731 116.012 91.9199 115.644 91.9199C115.276 91.9199 114.921 91.7731 114.65 91.5084C114.379 91.2438 114.211 90.8807 114.18 90.4908V90.0004C114.175 89.3694 113.986 88.7558 113.638 88.2447C113.29 87.7337 112.8 87.3507 112.238 87.1491C111.785 86.9891 111.296 86.9891 110.843 87.1491L96.6815 93.0455C96.4925 93.1181 96.2924 93.1529 96.0915 93.1482Z" stroke="white"/>
</svg>
