<svg width="84" height="84" viewBox="0 0 84 84" fill="none" xmlns="http://www.w3.org/2000/svg">
<path d="M28.8522 41.3118C28.5651 40.6465 27.7929 40.3415 27.1282 40.6247C26.4623 40.9118 26.1547 41.6834 26.4411 42.35C26.8513 43.3035 27.3486 44.2482 27.9197 45.1569C28.169 45.553 28.5958 45.7709 29.0322 45.7709C29.2706 45.7709 29.5122 45.7056 29.7294 45.5696C30.3427 45.1837 30.5279 44.3737 30.1422 43.7598C29.6438 42.9665 29.2099 42.1423 28.8522 41.3118Z" fill="white"/>
<path d="M31.5536 27.5613C30.5729 27.5613 29.7456 27.7472 29.0267 28.1278C27.2136 29.0813 25.9915 30.6939 25.3935 32.9202C24.9564 34.5494 24.8993 36.3527 25.223 38.2792C25.3307 38.92 25.887 39.3738 26.5163 39.3738C26.5882 39.3738 26.6619 39.3674 26.7349 39.3559C27.45 39.2355 27.932 38.5587 27.8121 37.8434C27.5545 36.313 27.5949 34.8455 27.9288 33.6009C28.3345 32.0884 29.0933 31.0579 30.2512 30.4491C30.5857 30.2722 31.0113 30.1863 31.5536 30.1863C32.2784 30.1863 32.8661 29.5993 32.8661 28.8738C32.8661 28.1483 32.2784 27.5613 31.5536 27.5613Z" fill="white"/>
<path d="M58.3544 26.761C53.5969 23.4902 46.2128 26.8849 43.1155 28.9911C36.0535 24.1593 29.3633 24.9026 26.3898 26.761C17.4695 36.4248 26.3898 48.3185 31.2217 52.0353C38.2836 59.0973 47.204 56.1238 52.4075 53.8937C68.0181 39.7698 59.8411 28.9911 58.3544 26.761Z" fill="#FF0046" stroke="white"/>
<path d="M74.7005 30.2954C74.687 30.2288 74.6685 30.1633 74.6447 30.0993C74.1595 28.7855 72.8843 27.9023 71.471 27.9023C70.5713 27.9023 69.7241 28.2536 69.0851 28.8905C68.9619 29.0139 68.8705 29.1582 68.7576 29.2888L66.2161 12.3433C65.8406 9.83873 64.4159 7.59698 62.31 6.19228C61.2595 5.49239 59.9133 5.4038 58.7713 5.94258L58.3205 3.88392C57.8995 2.18046 56.649 0.823172 54.9814 0.254039C53.396 -0.293273 51.4625 0.12968 50.2249 1.36786C49.3636 2.2305 48.8695 3.42504 48.8695 4.64534C48.8695 4.8747 48.8752 5.10422 48.9079 5.29781L49.0969 6.6638C47.0495 6.22099 44.912 7.17026 43.9757 9.04303C43.5803 9.85186 43.429 10.7388 43.5379 11.6065L43.7578 13.3608C43.2315 13.3293 42.6715 13.4 42.0855 13.6419C41.4967 13.3984 40.9351 13.3279 40.4099 13.3605L40.6298 11.6065C40.7387 10.7388 40.5874 9.85186 40.1863 9.0327C39.2564 7.17403 37.1241 6.2223 35.0703 6.66396L35.2543 5.33358C35.2926 5.10422 35.2985 4.8747 35.2985 4.64534C35.2985 3.42504 34.8044 2.2305 33.9431 1.36786C33.0689 0.493734 31.9051 0.0117188 30.6651 0.0117188C30.1491 0.0117188 29.6518 0.09375 29.1918 0.252727C27.5192 0.823172 26.2689 2.18046 25.8394 3.91854L25.3964 5.94274C24.2548 5.40117 22.9084 5.49108 21.8589 6.19228C19.7517 7.59698 18.3278 9.8389 17.9522 12.3433L15.4104 29.2892C15.2972 29.1581 15.2055 29.013 15.0818 28.8892C14.4441 28.2534 13.5969 27.9022 12.6971 27.9022C11.2841 27.9022 10.0086 28.7853 9.52351 30.0991C9.49972 30.1633 9.48118 30.2286 9.46773 30.2952L8.27188 36.2502C8.04186 37.4434 8.04186 38.6522 8.27384 39.8545L10.2567 49.784C10.522 51.0786 11.0431 52.2681 11.7999 53.314L16.1577 59.4176C16.787 60.2994 17.1337 61.38 17.1337 62.4605V63.3172C16.1984 63.2051 15.372 63.1006 14.6953 63.0104C14.3153 62.9592 13.9409 63.0732 13.6571 63.3244C13.3726 63.5731 13.2092 63.9333 13.2092 64.3114V82.6864C13.2092 83.4119 13.7968 83.9989 14.5217 83.9989H39.4592C40.184 83.9989 40.7717 83.4119 40.7717 82.6864V65.6239C40.7717 65.2202 40.5851 64.8382 40.2667 64.5895C39.9482 64.3396 39.5317 64.2486 39.1407 64.3511C38.8576 64.4217 38.5132 64.477 38.1339 64.5232V62.8682C38.1339 61.0436 38.4946 59.2327 39.1857 57.4826C40.1509 57.6516 41.1198 57.7489 42.0842 57.7489C43.0484 57.7489 44.0175 57.6516 44.9827 57.4826C45.6742 59.2358 46.0346 61.0453 46.0346 62.8682V64.5254C45.612 64.474 45.2821 64.414 45.0278 64.3511C44.6375 64.2512 44.2203 64.341 43.9018 64.5895C43.5834 64.8381 43.3968 65.2202 43.3968 65.6239V82.6864C43.3968 83.4119 43.9845 83.9989 44.7093 83.9989H69.6468C70.3717 83.9989 70.9593 83.4119 70.9593 82.6864V64.3114C70.9593 63.9333 70.7959 63.5731 70.5114 63.3244C70.2263 63.0746 69.8481 62.963 69.4733 63.0104C69.4573 63.0127 68.5156 63.1374 67.0348 63.3146V62.4605C67.0348 61.38 67.3815 60.2994 68.0115 59.4176L72.3635 53.3217C73.1256 52.2681 73.6465 51.0786 73.9131 49.7776L75.8966 39.8454C76.1266 38.6522 76.1266 37.4434 75.8947 36.2398L74.7005 30.2954ZM59.8746 8.31492C60.1867 8.16234 60.5629 8.18285 60.8532 8.37645C62.3452 9.37099 63.3539 10.9591 63.6205 12.7331L67.0345 35.4934V38.5602C67.0345 38.8332 66.9626 39.078 66.8217 39.2907L65.3458 41.5107C65.1299 41.8273 64.7985 42.0388 64.4511 42.0875C63.6969 42.1855 62.7826 42.3681 61.8153 42.6801C63.1669 38.9839 63.4691 35.2235 62.5767 31.8989C62.3589 31.0871 62.0755 30.3234 61.7315 29.6102L59.3421 9.30176C59.294 8.89554 59.5088 8.49818 59.8746 8.31492ZM52.0823 3.22373C52.6175 2.68791 53.4667 2.50973 54.1293 2.73663C54.9522 3.01734 55.5668 3.6813 55.7642 4.4798L56.731 8.89882C56.7117 9.13327 56.7069 9.37001 56.7351 9.60938L58.6318 25.7313C58.1183 25.3271 57.573 24.9577 56.9807 24.6454C56.0707 24.1645 55.1175 23.8735 54.1455 23.7278L51.994 8.34806C51.9857 8.28654 51.9729 8.22633 51.9556 8.16858L51.5032 4.90275C51.4891 4.81695 51.4948 4.73098 51.4948 4.64517C51.4946 4.11591 51.7087 3.59681 52.0823 3.22373ZM46.3286 10.2067C46.7472 9.37099 47.8096 8.95444 48.7408 9.26337L49.5073 9.52095L51.4876 23.6746C50.2381 23.7901 48.9937 24.0836 47.798 24.4885L46.1427 11.2808C46.098 10.9194 46.1639 10.545 46.3286 10.2067ZM44.4649 18.9995L45.2806 25.509C44.8196 25.7272 44.3792 25.9551 43.952 26.1853L44.4649 18.9995ZM41.1631 16.0925C41.6771 16.354 41.9834 16.8872 41.9431 17.4537L41.2775 26.7806C40.5474 26.35 39.745 25.9133 38.8879 25.5074L40.0713 16.0643C40.5574 15.9446 40.8526 15.9391 41.1631 16.0925ZM30.0441 2.73548C30.6895 2.51121 31.5515 2.68807 32.0859 3.2239C32.4594 3.59681 32.6735 4.11607 32.6735 4.64534C32.6735 4.73114 32.6793 4.81711 32.6594 4.93884L32.2127 8.16628C32.196 8.22518 32.1825 8.2867 32.1743 8.34823L31.2534 14.9337C31.1529 15.6515 31.6534 16.3154 32.371 16.4153C32.4332 16.4244 32.4941 16.4281 32.5549 16.4281C33.199 16.4281 33.7611 15.9538 33.8527 15.2976L34.6605 9.52045L35.4177 9.26566C36.3559 8.95673 37.421 9.37198 37.8338 10.1962C38.0043 10.5449 38.0702 10.9191 38.0254 11.2818L36.3704 24.4857C35.1747 24.0805 33.9306 23.787 32.6811 23.6717L33.1759 20.1361C33.2765 19.4183 32.7759 18.7544 32.0583 18.6545C31.3419 18.5506 30.6766 19.0531 30.5767 19.7721L30.0233 23.7253C29.0517 23.8713 28.0988 24.1627 27.1889 24.6439C26.5962 24.9566 26.0503 25.3262 25.5365 25.7308L27.4332 9.60905C27.4614 9.36952 27.4567 9.13245 27.4372 8.89784L28.3958 4.51425C28.6015 3.6813 29.2161 3.01751 30.0441 2.73548ZM20.5477 12.733C20.8143 10.9591 21.8229 9.37099 23.3162 8.37628C23.606 8.18138 23.9809 8.15709 24.2923 8.31476C24.6594 8.49802 24.8742 8.89538 24.8261 9.30176L22.4369 29.6104C22.0928 30.3236 21.8095 31.0871 21.5916 31.8987C20.6994 35.2231 21.0013 38.9834 22.3529 42.6795C21.3885 42.3682 20.4786 42.1866 19.7318 42.0898C19.3697 42.0386 19.0383 41.827 18.8301 41.522L17.3465 39.2904C17.2056 39.0776 17.1337 38.8328 17.1337 38.5598V35.493L20.5477 12.733ZM38.1467 81.3739H15.8342V65.8021C19.8063 66.2943 30.6402 67.5366 36.7873 67.2526C36.7992 67.2529 36.8092 67.2595 36.8214 67.2595C36.8384 67.2595 36.8525 67.2504 36.8694 67.2498C37.3208 67.2278 37.7518 67.1992 38.1467 67.1595V81.3739ZM35.5089 62.8682V64.6701C31.1804 64.7249 24.7104 64.1583 19.7589 63.6168V62.4606C19.7589 60.8367 19.2385 59.2153 18.2938 57.8925L13.9314 51.7811C13.3969 51.0442 13.0156 50.1701 12.829 49.2625L10.8495 39.3482C10.6828 38.4855 10.6828 37.6101 10.8475 36.7578L12.0164 30.9386C12.1562 30.6553 12.4509 30.5272 12.697 30.5272C12.8379 30.5272 13.0449 30.5656 13.2257 30.7464C14.0531 31.5744 14.5087 32.6715 14.5087 33.8353V38.5598C14.5087 39.3482 14.7343 40.103 15.1612 40.7438L16.6525 42.9869C17.2838 43.9148 18.2726 44.5353 19.3801 44.6917C20.4419 44.8292 22.4374 45.2462 24.1311 46.4565C24.2855 46.7231 24.4219 46.9938 24.5877 47.2576C27.4921 51.8773 31.9021 55.3019 36.6298 56.8421C35.8984 58.8045 35.5089 60.8262 35.5089 62.8682ZM26.8103 45.8608C24.0686 41.5003 23.0651 36.5348 24.127 32.5794C24.2808 32.0064 24.4804 31.4692 24.7126 30.9601C24.8161 30.8274 24.8893 30.6781 24.9355 30.5096C25.7406 28.9678 26.9138 27.7565 28.4145 26.9654C29.3867 26.4514 30.4595 26.2412 31.5663 26.2412C35.3141 26.2412 39.4503 28.6598 41.3582 29.9262C41.7979 30.2184 42.3708 30.2184 42.8105 29.9262C44.7809 28.6177 49.1277 26.0886 52.9714 26.2584C52.9776 26.2584 52.9832 26.2617 52.9894 26.2617C53.0009 26.2617 53.0127 26.2596 53.0242 26.2593C53.9812 26.3077 54.9075 26.5183 55.7553 26.9667C57.2544 27.7565 58.4269 28.9668 59.2318 30.5077C59.2784 30.6786 59.3526 30.8297 59.4574 30.9636C59.6889 31.4715 59.8881 32.0075 60.0415 32.5794C61.1034 36.5348 60.0997 41.5003 57.3582 45.8608C53.8207 51.4876 47.8254 55.1239 42.0843 55.1239C36.3433 55.1239 30.348 51.4876 26.8103 45.8608ZM73.3207 39.3393L71.3405 49.2561C71.1526 50.1699 70.7713 51.044 70.2317 51.7889L65.875 57.8925C64.9297 59.2151 64.4093 60.8366 64.4093 62.4606V63.6166C63.9731 63.6645 63.5196 63.7136 63.0494 63.763C62.3283 63.8386 61.8055 64.4834 61.8811 65.2049C61.9574 65.9265 62.6022 66.4482 63.3237 66.3725C65.3847 66.1573 67.1619 65.9456 68.334 65.8009V81.3741H46.0215V67.1622C48.5537 67.4224 52.6116 67.3198 58.1313 66.8649C58.8535 66.8047 59.3906 66.1702 59.3309 65.4485C59.2712 64.7268 58.6528 64.1963 57.9146 64.2476C53.6343 64.6023 50.6922 64.7039 48.6591 64.675V62.8683C48.6591 60.8277 48.27 58.8071 47.5381 56.8426C52.2659 55.3024 56.6757 51.8776 59.5801 47.2581C59.746 46.9943 59.8823 46.7236 60.0367 46.457C61.7305 45.2467 63.7265 44.8297 64.8026 44.6895C65.8952 44.5357 66.8842 43.9153 67.523 42.9759L69.0067 40.7443C69.4336 40.1035 69.6591 39.3485 69.6591 38.5603V33.8358C69.6591 32.672 70.1147 31.5749 70.9408 30.7482C71.1227 30.5662 71.3298 30.5277 71.4707 30.5277C71.7168 30.5277 72.0116 30.6558 72.1513 30.9391L73.3182 36.7479C73.4854 37.6102 73.4854 38.4857 73.3207 39.3393Z" fill="#002975"/>
</svg>
