<svg width="158" height="158" viewBox="0 0 158 158" fill="none" xmlns="http://www.w3.org/2000/svg">
<circle cx="79" cy="79" r="79" fill="#1A9DD1"/>
<path d="M96.8621 30.1722V33.4449C96.8649 33.6214 96.8347 33.7968 96.7732 33.9607C96.7116 34.1246 96.62 34.2739 96.5037 34.3998C96.3873 34.5257 96.2486 34.6256 96.0955 34.6939C95.9425 34.7621 95.7782 34.7972 95.6122 34.7972C95.2807 34.7972 94.9628 34.6571 94.7284 34.4078C94.494 34.1584 94.3623 33.8203 94.3623 33.4676V30.6381H73.7659V27.979H94.8003C95.3463 27.982 95.8691 28.214 96.2551 28.6247C96.6412 29.0353 96.8593 29.5914 96.8621 30.1722Z" fill="white"/>
<path d="M95.6123 37.4335C95.9438 37.4335 96.2617 37.5735 96.4961 37.8229C96.7305 38.0722 96.8622 38.4104 96.8622 38.763V77.138C96.8594 77.7188 96.6412 78.2749 96.2552 78.6856C95.8691 79.0962 95.3463 79.3282 94.8004 79.3312H65.2091C64.6631 79.3282 64.1403 79.0962 63.7543 78.6856C63.3682 78.2749 63.1501 77.7188 63.1473 77.138V38.5017H65.6471V76.6721H94.3624V38.763C94.3624 38.4104 94.4941 38.0722 94.7285 37.8229C94.9629 37.5735 95.2808 37.4335 95.6123 37.4335Z" fill="white"/>
<path d="M73.7659 39.8652H64.3971C64.1527 39.8576 63.9157 39.774 63.7156 39.6246C63.5154 39.4752 63.3609 39.2666 63.271 39.0247C63.1812 38.7828 63.16 38.5182 63.2102 38.2636C63.2603 38.009 63.3796 37.7757 63.5531 37.5925L72.9113 28.3652C73.0921 28.1912 73.3161 28.0762 73.5567 28.0339C73.7972 27.9916 74.0441 28.0238 74.268 28.1266C74.4909 28.229 74.6806 28.3989 74.8136 28.615C74.9465 28.8312 75.0168 29.0842 75.0158 29.3425V38.5698C75.0047 38.9155 74.8685 39.2433 74.6356 39.4848C74.4027 39.7262 74.0911 39.8625 73.7659 39.8652ZM67.5805 37.2061H72.5267V32.3425L67.5805 37.2061Z" fill="white"/>
<path d="M90.1318 45.4339H69.8345C69.6614 45.451 69.4868 45.4295 69.322 45.3707C69.1571 45.312 69.0056 45.2173 68.8771 45.0927C68.7486 44.9681 68.646 44.8163 68.5757 44.6471C68.5055 44.4779 68.4692 44.295 68.4692 44.1101C68.4692 43.9251 68.5055 43.7422 68.5757 43.573C68.646 43.4038 68.7486 43.2521 68.8771 43.1275C69.0056 43.0029 69.1571 42.9082 69.322 42.8494C69.4868 42.7907 69.6614 42.7691 69.8345 42.7862H90.1318C90.305 42.7691 90.4795 42.7907 90.6444 42.8494C90.8093 42.9082 90.9608 43.0029 91.0893 43.1275C91.2178 43.2521 91.3204 43.4038 91.3906 43.573C91.4609 43.7422 91.4972 43.9251 91.4972 44.1101C91.4972 44.295 91.4609 44.4779 91.3906 44.6471C91.3204 44.8163 91.2178 44.9681 91.0893 45.0927C90.9608 45.2173 90.8093 45.312 90.6444 45.3707C90.4795 45.4295 90.305 45.451 90.1318 45.4339Z" fill="white"/>
<path d="M90.1323 50.8766H69.835C69.5035 50.8766 69.1856 50.7366 68.9512 50.4872C68.7168 50.2379 68.5851 49.8997 68.5851 49.5471C68.5851 49.1945 68.7168 48.8563 68.9512 48.607C69.1856 48.3576 69.5035 48.2175 69.835 48.2175H90.1323C90.4638 48.2175 90.7817 48.3576 91.0161 48.607C91.2505 48.8563 91.3822 49.1945 91.3822 49.5471C91.3822 49.8997 91.2505 50.2379 91.0161 50.4872C90.7817 50.7366 90.4638 50.8766 90.1323 50.8766Z" fill="white"/>
<path d="M90.1318 56.3088H69.8345C69.6614 56.3259 69.4868 56.3043 69.322 56.2456C69.1571 56.1868 69.0056 56.0921 68.8771 55.9675C68.7486 55.8429 68.646 55.6912 68.5757 55.522C68.5055 55.3528 68.4692 55.1699 68.4692 54.9849C68.4692 54.8 68.5055 54.6171 68.5757 54.4479C68.646 54.2787 68.7486 54.1269 68.8771 54.0023C69.0056 53.8777 69.1571 53.783 69.322 53.7243C69.4868 53.6655 69.6614 53.644 69.8345 53.6611H90.1318C90.305 53.644 90.4795 53.6655 90.6444 53.7243C90.8093 53.783 90.9608 53.8777 91.0893 54.0023C91.2178 54.1269 91.3204 54.2787 91.3906 54.4479C91.4609 54.6171 91.4972 54.8 91.4972 54.9849C91.4972 55.1699 91.4609 55.3528 91.3906 55.522C91.3204 55.6912 91.2178 55.8429 91.0893 55.9675C90.9608 56.0921 90.8093 56.1868 90.6444 56.2456C90.4795 56.3043 90.305 56.3259 90.1318 56.3088Z" fill="white"/>
<path d="M90.1323 61.7523H69.835C69.5035 61.7523 69.1856 61.6122 68.9512 61.3629C68.7168 61.1135 68.5851 60.7754 68.5851 60.4227C68.5851 60.0701 68.7168 59.732 68.9512 59.4826C69.1856 59.2333 69.5035 59.0932 69.835 59.0932H90.1323C90.4638 59.0932 90.7817 59.2333 91.0161 59.4826C91.2505 59.732 91.3822 60.0701 91.3822 60.4227C91.3822 60.7754 91.2505 61.1135 91.0161 61.3629C90.7817 61.6122 90.4638 61.7523 90.1323 61.7523Z" fill="white"/>
<path d="M90.1323 67.1836H69.835C69.5035 67.1836 69.1856 67.0435 68.9512 66.7942C68.7168 66.5448 68.5851 66.2067 68.5851 65.854C68.5851 65.5014 68.7168 65.1632 68.9512 64.9139C69.1856 64.6646 69.5035 64.5245 69.835 64.5245H90.1323C90.4638 64.5245 90.7817 64.6646 91.0161 64.9139C91.2505 65.1632 91.3822 65.5014 91.3822 65.854C91.3822 66.2067 91.2505 66.5448 91.0161 66.7942C90.7817 67.0435 90.4638 67.1836 90.1323 67.1836Z" fill="white"/>
<path d="M90.1318 72.6149H69.8345C69.6614 72.632 69.4868 72.6105 69.322 72.5517C69.1571 72.4929 69.0056 72.3982 68.8771 72.2736C68.7486 72.149 68.646 71.9973 68.5757 71.8281C68.5055 71.6589 68.4692 71.476 68.4692 71.2911C68.4692 71.1061 68.5055 70.9232 68.5757 70.754C68.646 70.5848 68.7486 70.4331 68.8771 70.3085C69.0056 70.1839 69.1571 70.0892 69.322 70.0304C69.4868 69.9716 69.6614 69.9501 69.8345 69.9672H90.1318C90.305 69.9501 90.4795 69.9716 90.6444 70.0304C90.8093 70.0892 90.9608 70.1839 91.0893 70.3085C91.2178 70.4331 91.3204 70.5848 91.3906 70.754C91.4609 70.9232 91.4972 71.1061 91.4972 71.2911C91.4972 71.476 91.4609 71.6589 91.3906 71.8281C91.3204 71.9973 91.2178 72.149 91.0893 72.2736C90.9608 72.3982 90.8093 72.4929 90.6444 72.5517C90.4795 72.6105 90.305 72.632 90.1318 72.6149Z" fill="white"/>
<path d="M49.8684 113.207L53.8317 114.57C54.1941 114.698 54.4948 114.972 54.6688 115.333C54.8427 115.695 54.8759 116.115 54.7611 116.502C54.7031 116.694 54.6099 116.871 54.4869 117.024C54.3639 117.177 54.2137 117.303 54.0448 117.394C53.8759 117.485 53.6917 117.539 53.503 117.554C53.3142 117.568 53.1246 117.543 52.945 117.479L48.9497 116.104C47.8114 115.71 46.5733 115.804 45.4991 116.366L35.1368 121.809C34.9669 121.908 34.7801 121.969 34.5875 121.99C34.3948 122.011 34.2003 121.99 34.0151 121.93C33.83 121.87 33.6581 121.77 33.5095 121.638C33.3609 121.506 33.2386 121.344 33.1498 121.161C33.0664 120.982 33.0173 120.786 33.0055 120.586C32.9937 120.386 33.0193 120.186 33.0809 119.997C33.1426 119.807 33.2389 119.633 33.3645 119.484C33.49 119.335 33.6422 119.213 33.8122 119.127L44.1958 113.718C45.9535 112.774 47.9865 112.591 49.8684 113.207Z" fill="white"/>
<path d="M124.723 99.5017L91.3817 125.422C90.3045 126.26 89.0914 126.881 87.803 127.252L86.222 127.706C85.6098 127.888 84.9772 127.979 84.3418 127.979C83.5942 127.979 82.8514 127.852 82.1411 127.604L61.7797 120.581C61.4173 120.454 61.1166 120.18 60.9427 119.818C60.7687 119.457 60.7356 119.037 60.8503 118.649C60.9084 118.458 61.0016 118.28 61.1245 118.127C61.2475 117.974 61.3978 117.849 61.5667 117.758C61.7355 117.667 61.9197 117.612 62.1085 117.598C62.2972 117.583 62.4869 117.608 62.6664 117.672L83.0598 124.718C83.8322 124.98 84.6595 125 85.4421 124.774L87.0232 124.309C87.9578 124.038 88.8378 123.588 89.6191 122.979L122.981 97.0585C123.424 96.7293 123.762 96.2657 123.953 95.7284C124.144 95.1912 124.177 94.6052 124.05 94.0472L123.697 92.7517C123.592 92.3194 123.354 91.9368 123.021 91.665C122.688 91.3932 122.279 91.2477 121.86 91.2517C121.704 91.251 121.552 91.2984 121.422 91.3881L116.326 94.6608L89.8648 111.786C89.6416 111.92 89.3895 111.991 89.133 111.991C88.8765 111.991 88.6244 111.92 88.4012 111.786L77.3232 105.445L77.0134 105.252C76.8466 105.158 76.6991 105.029 76.5795 104.874C76.4599 104.718 76.3707 104.539 76.3169 104.346C76.2632 104.154 76.2461 103.952 76.2667 103.752C76.2872 103.552 76.3449 103.359 76.4365 103.184C76.5663 102.944 76.7533 102.746 76.9784 102.608C77.2035 102.47 77.4588 102.398 77.7185 102.399C77.9453 102.41 78.1674 102.472 78.3701 102.581L83.2094 105.354L89.0422 108.763L94.5438 105.195L101.509 100.649L119.873 88.7631C120.474 88.3859 121.162 88.1932 121.86 88.2062C122.923 88.1954 123.959 88.5631 124.803 89.2509C125.647 89.9386 126.25 90.907 126.517 92.0017L126.838 93.3426C127.102 94.4766 127.042 95.6687 126.665 96.7661C126.288 97.8635 125.612 98.8161 124.723 99.5017Z" fill="white"/>
<path d="M77.7399 105.456L70.0056 105.172C69.6259 105.172 69.2618 105.011 68.9934 104.726C68.7249 104.44 68.5741 104.053 68.5741 103.649C68.5741 103.245 68.7249 102.858 68.9934 102.572C69.2618 102.287 69.6259 102.126 70.0056 102.126H70.059L77.7079 102.41L96.6164 102.069C97.1118 102.063 97.5877 101.863 97.9525 101.506C98.3173 101.15 98.5453 100.662 98.5927 100.138L98.7636 98.0694C98.8026 97.6271 98.6766 97.1863 98.4128 96.8419C98.149 96.4976 97.7686 96.2772 97.3535 96.2285L60.9466 91.399C60.2282 91.2971 59.4975 91.371 58.81 91.6149L34.9233 100.092C34.5606 100.227 34.1626 100.203 33.8162 100.026C33.4699 99.8496 33.2034 99.5341 33.0752 99.149C33.0148 98.9579 32.9904 98.7561 33.0034 98.5551C33.0163 98.3541 33.0664 98.1577 33.1507 97.9773C33.2351 97.7968 33.352 97.6358 33.4948 97.5034C33.6377 97.3711 33.8036 97.2699 33.9832 97.2058L57.8913 88.7285C58.9918 88.3414 60.159 88.2173 61.3098 88.3649L97.7701 93.2058C98.927 93.3435 99.9875 93.9562 100.726 94.9136C101.464 95.8709 101.822 97.097 101.723 98.3308L101.552 100.399C101.438 101.681 100.882 102.873 99.9898 103.744C99.0979 104.615 97.934 105.104 96.7232 105.115L77.7399 105.456Z" fill="white"/>
<path d="M96.0288 96.0361C95.7408 96.0368 95.459 95.9465 95.2194 95.7765C94.9797 95.6066 94.7929 95.3647 94.6828 95.0816C94.612 94.8944 94.5769 94.6942 94.5795 94.4925C94.5821 94.2908 94.6223 94.0917 94.6978 93.9066C94.7734 93.7216 94.8827 93.5544 95.0195 93.4147C95.1563 93.275 95.3178 93.1656 95.4947 93.0929L109.703 87.2179C110.796 86.8144 111.985 86.8144 113.079 87.2179C114.198 87.6221 115.172 88.3856 115.867 89.4031C116.561 90.4207 116.942 91.6423 116.956 92.8997V93.3884C116.925 93.7768 116.758 94.1387 116.488 94.4023C116.218 94.666 115.865 94.8123 115.498 94.8123C115.132 94.8123 114.779 94.666 114.508 94.4023C114.238 94.1387 114.071 93.7768 114.04 93.3884V92.8997C114.035 92.2711 113.847 91.6596 113.5 91.1505C113.154 90.6413 112.666 90.2597 112.106 90.0588C111.656 89.8994 111.168 89.8994 110.718 90.0588L96.6164 95.9338C96.4281 96.0061 96.2289 96.0408 96.0288 96.0361Z" fill="white"/>
<path d="M96.8621 30.1722V33.4449C96.8649 33.6214 96.8347 33.7968 96.7732 33.9607C96.7116 34.1246 96.62 34.2739 96.5037 34.3998C96.3873 34.5257 96.2486 34.6256 96.0955 34.6939C95.9425 34.7621 95.7782 34.7972 95.6122 34.7972C95.2807 34.7972 94.9628 34.6571 94.7284 34.4078C94.494 34.1584 94.3623 33.8203 94.3623 33.4676V30.6381H73.7659V27.979H94.8003C95.3463 27.982 95.8691 28.214 96.2551 28.6247C96.6412 29.0353 96.8593 29.5914 96.8621 30.1722Z" stroke="white"/>
<path d="M95.6123 37.4335C95.9438 37.4335 96.2617 37.5735 96.4961 37.8229C96.7305 38.0722 96.8622 38.4104 96.8622 38.763V77.138C96.8594 77.7188 96.6412 78.2749 96.2552 78.6856C95.8691 79.0962 95.3463 79.3282 94.8004 79.3312H65.2091C64.6631 79.3282 64.1403 79.0962 63.7543 78.6856C63.3682 78.2749 63.1501 77.7188 63.1473 77.138V38.5017H65.6471V76.6721H94.3624V38.763C94.3624 38.4104 94.4941 38.0722 94.7285 37.8229C94.9629 37.5735 95.2808 37.4335 95.6123 37.4335Z" stroke="white"/>
<path d="M73.7659 39.8652H64.3971C64.1527 39.8576 63.9157 39.774 63.7156 39.6246C63.5154 39.4752 63.3609 39.2666 63.271 39.0247C63.1812 38.7828 63.16 38.5182 63.2102 38.2636C63.2603 38.009 63.3796 37.7757 63.5531 37.5925L72.9113 28.3652C73.0921 28.1912 73.3161 28.0762 73.5567 28.0339C73.7972 27.9916 74.0441 28.0238 74.268 28.1266C74.4909 28.229 74.6806 28.3989 74.8136 28.615C74.9465 28.8312 75.0168 29.0842 75.0158 29.3425V38.5698C75.0047 38.9155 74.8685 39.2433 74.6356 39.4848C74.4027 39.7262 74.0911 39.8625 73.7659 39.8652ZM67.5805 37.2061H72.5267V32.3425L67.5805 37.2061Z" stroke="white"/>
<path d="M90.1318 45.4339H69.8345C69.6614 45.451 69.4868 45.4295 69.322 45.3707C69.1571 45.312 69.0056 45.2173 68.8771 45.0927C68.7486 44.9681 68.646 44.8163 68.5757 44.6471C68.5055 44.4779 68.4692 44.295 68.4692 44.1101C68.4692 43.9251 68.5055 43.7422 68.5757 43.573C68.646 43.4038 68.7486 43.2521 68.8771 43.1275C69.0056 43.0029 69.1571 42.9082 69.322 42.8494C69.4868 42.7907 69.6614 42.7691 69.8345 42.7862H90.1318C90.305 42.7691 90.4795 42.7907 90.6444 42.8494C90.8093 42.9082 90.9608 43.0029 91.0893 43.1275C91.2178 43.2521 91.3204 43.4038 91.3906 43.573C91.4609 43.7422 91.4972 43.9251 91.4972 44.1101C91.4972 44.295 91.4609 44.4779 91.3906 44.6471C91.3204 44.8163 91.2178 44.9681 91.0893 45.0927C90.9608 45.2173 90.8093 45.312 90.6444 45.3707C90.4795 45.4295 90.305 45.451 90.1318 45.4339Z" stroke="white"/>
<path d="M90.1323 50.8766H69.835C69.5035 50.8766 69.1856 50.7366 68.9512 50.4872C68.7168 50.2379 68.5851 49.8997 68.5851 49.5471C68.5851 49.1945 68.7168 48.8563 68.9512 48.607C69.1856 48.3576 69.5035 48.2175 69.835 48.2175H90.1323C90.4638 48.2175 90.7817 48.3576 91.0161 48.607C91.2505 48.8563 91.3822 49.1945 91.3822 49.5471C91.3822 49.8997 91.2505 50.2379 91.0161 50.4872C90.7817 50.7366 90.4638 50.8766 90.1323 50.8766Z" stroke="white"/>
<path d="M90.1318 56.3088H69.8345C69.6614 56.3259 69.4868 56.3043 69.322 56.2456C69.1571 56.1868 69.0056 56.0921 68.8771 55.9675C68.7486 55.8429 68.646 55.6912 68.5757 55.522C68.5055 55.3528 68.4692 55.1699 68.4692 54.9849C68.4692 54.8 68.5055 54.6171 68.5757 54.4479C68.646 54.2787 68.7486 54.1269 68.8771 54.0023C69.0056 53.8777 69.1571 53.783 69.322 53.7243C69.4868 53.6655 69.6614 53.644 69.8345 53.6611H90.1318C90.305 53.644 90.4795 53.6655 90.6444 53.7243C90.8093 53.783 90.9608 53.8777 91.0893 54.0023C91.2178 54.1269 91.3204 54.2787 91.3906 54.4479C91.4609 54.6171 91.4972 54.8 91.4972 54.9849C91.4972 55.1699 91.4609 55.3528 91.3906 55.522C91.3204 55.6912 91.2178 55.8429 91.0893 55.9675C90.9608 56.0921 90.8093 56.1868 90.6444 56.2456C90.4795 56.3043 90.305 56.3259 90.1318 56.3088Z" stroke="white"/>
<path d="M90.1323 61.7523H69.835C69.5035 61.7523 69.1856 61.6122 68.9512 61.3629C68.7168 61.1135 68.5851 60.7754 68.5851 60.4227C68.5851 60.0701 68.7168 59.732 68.9512 59.4826C69.1856 59.2333 69.5035 59.0932 69.835 59.0932H90.1323C90.4638 59.0932 90.7817 59.2333 91.0161 59.4826C91.2505 59.732 91.3822 60.0701 91.3822 60.4227C91.3822 60.7754 91.2505 61.1135 91.0161 61.3629C90.7817 61.6122 90.4638 61.7523 90.1323 61.7523Z" stroke="white"/>
<path d="M90.1323 67.1836H69.835C69.5035 67.1836 69.1856 67.0435 68.9512 66.7942C68.7168 66.5448 68.5851 66.2067 68.5851 65.854C68.5851 65.5014 68.7168 65.1632 68.9512 64.9139C69.1856 64.6646 69.5035 64.5245 69.835 64.5245H90.1323C90.4638 64.5245 90.7817 64.6646 91.0161 64.9139C91.2505 65.1632 91.3822 65.5014 91.3822 65.854C91.3822 66.2067 91.2505 66.5448 91.0161 66.7942C90.7817 67.0435 90.4638 67.1836 90.1323 67.1836Z" stroke="white"/>
<path d="M90.1318 72.6149H69.8345C69.6614 72.632 69.4868 72.6105 69.322 72.5517C69.1571 72.4929 69.0056 72.3982 68.8771 72.2736C68.7486 72.149 68.646 71.9973 68.5757 71.8281C68.5055 71.6589 68.4692 71.476 68.4692 71.2911C68.4692 71.1061 68.5055 70.9232 68.5757 70.754C68.646 70.5848 68.7486 70.4331 68.8771 70.3085C69.0056 70.1839 69.1571 70.0892 69.322 70.0304C69.4868 69.9716 69.6614 69.9501 69.8345 69.9672H90.1318C90.305 69.9501 90.4795 69.9716 90.6444 70.0304C90.8093 70.0892 90.9608 70.1839 91.0893 70.3085C91.2178 70.4331 91.3204 70.5848 91.3906 70.754C91.4609 70.9232 91.4972 71.1061 91.4972 71.2911C91.4972 71.476 91.4609 71.6589 91.3906 71.8281C91.3204 71.9973 91.2178 72.149 91.0893 72.2736C90.9608 72.3982 90.8093 72.4929 90.6444 72.5517C90.4795 72.6105 90.305 72.632 90.1318 72.6149Z" stroke="white"/>
<path d="M49.8684 113.207L53.8317 114.57C54.1941 114.698 54.4948 114.972 54.6688 115.333C54.8427 115.695 54.8759 116.115 54.7611 116.502C54.7031 116.694 54.6099 116.871 54.4869 117.024C54.3639 117.177 54.2137 117.303 54.0448 117.394C53.8759 117.485 53.6917 117.539 53.503 117.554C53.3142 117.568 53.1246 117.543 52.945 117.479L48.9497 116.104C47.8114 115.71 46.5733 115.804 45.4991 116.366L35.1368 121.809C34.9669 121.908 34.7801 121.969 34.5875 121.99C34.3948 122.011 34.2003 121.99 34.0151 121.93C33.83 121.87 33.6581 121.77 33.5095 121.638C33.3609 121.506 33.2386 121.344 33.1498 121.161C33.0664 120.982 33.0173 120.786 33.0055 120.586C32.9937 120.386 33.0193 120.186 33.0809 119.997C33.1426 119.807 33.2389 119.633 33.3645 119.484C33.49 119.335 33.6422 119.213 33.8122 119.127L44.1958 113.718C45.9535 112.774 47.9865 112.591 49.8684 113.207Z" stroke="white"/>
<path d="M124.723 99.5017L91.3817 125.422C90.3045 126.26 89.0914 126.881 87.803 127.252L86.222 127.706C85.6098 127.888 84.9772 127.979 84.3418 127.979C83.5942 127.979 82.8514 127.852 82.1411 127.604L61.7797 120.581C61.4173 120.454 61.1166 120.18 60.9427 119.818C60.7687 119.457 60.7356 119.037 60.8503 118.649C60.9084 118.458 61.0016 118.28 61.1245 118.127C61.2475 117.974 61.3978 117.849 61.5667 117.758C61.7355 117.667 61.9197 117.612 62.1085 117.598C62.2972 117.583 62.4869 117.608 62.6664 117.672L83.0598 124.718C83.8322 124.98 84.6595 125 85.4421 124.774L87.0232 124.309C87.9578 124.038 88.8378 123.588 89.6191 122.979L122.981 97.0585C123.424 96.7293 123.762 96.2657 123.953 95.7284C124.144 95.1912 124.177 94.6052 124.05 94.0472L123.697 92.7517C123.592 92.3194 123.354 91.9368 123.021 91.665C122.688 91.3932 122.279 91.2477 121.86 91.2517C121.704 91.251 121.552 91.2984 121.422 91.3881L116.326 94.6608L89.8648 111.786C89.6416 111.92 89.3895 111.991 89.133 111.991C88.8765 111.991 88.6244 111.92 88.4012 111.786L77.3232 105.445L77.0134 105.252C76.8466 105.158 76.6991 105.029 76.5795 104.874C76.4599 104.718 76.3707 104.539 76.3169 104.346C76.2632 104.154 76.2461 103.952 76.2667 103.752C76.2872 103.552 76.3449 103.359 76.4365 103.184C76.5663 102.944 76.7533 102.746 76.9784 102.608C77.2035 102.47 77.4588 102.398 77.7185 102.399C77.9453 102.41 78.1674 102.472 78.3701 102.581L83.2094 105.354L89.0422 108.763L94.5438 105.195L101.509 100.649L119.873 88.7631C120.474 88.3859 121.162 88.1932 121.86 88.2062C122.923 88.1954 123.959 88.5631 124.803 89.2509C125.647 89.9386 126.25 90.907 126.517 92.0017L126.838 93.3426C127.102 94.4766 127.042 95.6687 126.665 96.7661C126.288 97.8635 125.612 98.8161 124.723 99.5017Z" stroke="white"/>
<path d="M77.7399 105.456L70.0056 105.172C69.6259 105.172 69.2618 105.011 68.9934 104.726C68.7249 104.44 68.5741 104.053 68.5741 103.649C68.5741 103.245 68.7249 102.858 68.9934 102.572C69.2618 102.287 69.6259 102.126 70.0056 102.126H70.059L77.7079 102.41L96.6164 102.069C97.1118 102.063 97.5877 101.863 97.9525 101.506C98.3173 101.15 98.5453 100.662 98.5927 100.138L98.7636 98.0694C98.8026 97.6271 98.6766 97.1863 98.4128 96.8419C98.149 96.4976 97.7686 96.2772 97.3535 96.2285L60.9466 91.399C60.2282 91.2971 59.4975 91.371 58.81 91.6149L34.9233 100.092C34.5606 100.227 34.1626 100.203 33.8162 100.026C33.4699 99.8496 33.2034 99.5341 33.0752 99.149C33.0148 98.9579 32.9904 98.7561 33.0034 98.5551C33.0163 98.3541 33.0664 98.1577 33.1507 97.9773C33.2351 97.7968 33.352 97.6358 33.4948 97.5034C33.6377 97.3711 33.8036 97.2699 33.9832 97.2058L57.8913 88.7285C58.9918 88.3414 60.159 88.2173 61.3098 88.3649L97.7701 93.2058C98.927 93.3435 99.9875 93.9562 100.726 94.9136C101.464 95.8709 101.822 97.097 101.723 98.3308L101.552 100.399C101.438 101.681 100.882 102.873 99.9898 103.744C99.0979 104.615 97.934 105.104 96.7232 105.115L77.7399 105.456Z" stroke="white"/>
<path d="M96.0288 96.0361C95.7408 96.0368 95.459 95.9465 95.2194 95.7765C94.9797 95.6066 94.7929 95.3647 94.6828 95.0816C94.612 94.8944 94.5769 94.6942 94.5795 94.4925C94.5821 94.2908 94.6223 94.0917 94.6978 93.9066C94.7734 93.7216 94.8827 93.5544 95.0195 93.4147C95.1563 93.275 95.3178 93.1656 95.4947 93.0929L109.703 87.2179C110.796 86.8144 111.985 86.8144 113.079 87.2179C114.198 87.6221 115.172 88.3856 115.867 89.4031C116.561 90.4207 116.942 91.6423 116.956 92.8997V93.3884C116.925 93.7768 116.758 94.1387 116.488 94.4023C116.218 94.666 115.865 94.8123 115.498 94.8123C115.132 94.8123 114.779 94.666 114.508 94.4023C114.238 94.1387 114.071 93.7768 114.04 93.3884V92.8997C114.035 92.2711 113.847 91.6596 113.5 91.1505C113.154 90.6413 112.666 90.2597 112.106 90.0588C111.656 89.8994 111.168 89.8994 110.718 90.0588L96.6164 95.9338C96.4281 96.0061 96.2289 96.0408 96.0288 96.0361Z" stroke="white"/>
</svg>
