<svg width="24" height="24" viewBox="0 0 24 24" fill="none" xmlns="http://www.w3.org/2000/svg">
<path fill-rule="evenodd" clip-rule="evenodd" d="M0 12C0 5.37258 5.37258 0 12 0C18.6274 0 24 5.37258 24 12C24 18.6274 18.6274 24 12 24C5.37258 24 0 18.6274 0 12Z" fill="#002D72"/>
<path fill-rule="evenodd" clip-rule="evenodd" d="M18.1322 9.03622C17.985 8.47072 17.5513 8.02541 17.0005 7.87427C16.0024 7.59961 11.9997 7.59961 11.9997 7.59961C11.9997 7.59961 7.99704 7.59961 6.99886 7.87427C6.4481 8.02541 6.01435 8.47072 5.86715 9.03622C5.59973 10.0611 5.59973 12.1996 5.59973 12.1996C5.59973 12.1996 5.59973 14.338 5.86715 15.363C6.01435 15.9285 6.4481 16.3738 6.99886 16.525C7.99704 16.7996 11.9997 16.7996 11.9997 16.7996C11.9997 16.7996 16.0024 16.7996 17.0005 16.525C17.5513 16.3738 17.985 15.9285 18.1322 15.363C18.3997 14.338 18.3997 12.1996 18.3997 12.1996C18.3997 12.1996 18.3997 10.0611 18.1322 9.03622" fill="white"/>
<path fill-rule="evenodd" clip-rule="evenodd" d="M10.8009 14.4004V10.4004L14.0009 12.4005L10.8009 14.4004Z" fill="#002D72"/>
</svg>
