<svg width="164" height="165" viewBox="0 0 164 165" fill="none" xmlns="http://www.w3.org/2000/svg">
<ellipse cx="82" cy="82.5" rx="82" ry="82.5" fill="#002D72"/>
<path d="M157.5 82.5C157.5 124.477 123.694 158.5 82 158.5C40.3056 158.5 6.5 124.477 6.5 82.5C6.5 40.5233 40.3056 6.5 82 6.5C123.694 6.5 157.5 40.5233 157.5 82.5Z" stroke="white"/>
<path d="M83.7968 80.0059C82.6972 80.0059 81.8047 80.8983 81.8047 81.998C81.8047 83.0976 82.6972 83.9901 83.7968 83.9901C84.8964 83.9901 85.7889 83.0976 85.7889 81.998C85.7889 80.8983 84.8964 80.0059 83.7968 80.0059Z" fill="white"/>
<path d="M119.655 91.9585C117.057 91.9585 114.844 93.6239 114.021 95.9427H100.204L92.6557 92.1696C92.6418 92.1617 92.6278 92.1577 92.6139 92.1517C92.5761 92.1338 92.5382 92.1158 92.4984 92.0999C92.4725 92.0899 92.4486 92.082 92.4227 92.072C92.3868 92.0601 92.3529 92.0481 92.3171 92.0382C92.2852 92.0282 92.2533 92.0222 92.2234 92.0143C92.1936 92.0063 92.1637 92.0003 92.1318 91.9943C92.094 91.9864 92.0561 91.9824 92.0163 91.9764C91.9904 91.9724 91.9665 91.9704 91.9406 91.9684C91.8967 91.9644 91.8549 91.9625 91.8111 91.9625C91.7951 91.9625 91.7812 91.9605 91.7673 91.9605H83.7988C78.3066 91.9605 73.8383 87.4922 73.8383 81.9999C73.8383 79.3405 74.8742 76.8384 76.7547 74.9578C78.6373 73.0753 81.1393 72.0394 83.7988 72.0394H91.7613C91.7613 72.0394 91.7653 72.0394 91.7692 72.0394C91.7971 72.0394 91.827 72.0354 91.8569 72.0354C91.8987 72.0354 91.9386 72.0334 91.9804 72.0274C92.0083 72.0254 92.0382 72.0194 92.0661 72.0135C92.1099 72.0075 92.1537 71.9995 92.1976 71.9916C92.2234 71.9856 92.2473 71.9796 92.2732 71.9716C92.3211 71.9597 92.3669 71.9457 92.4127 71.9298C92.4346 71.9218 92.4565 71.9139 92.4784 71.9059C92.5282 71.886 92.578 71.8661 92.6259 71.8421C92.6378 71.8362 92.6498 71.8322 92.6617 71.8282L100.21 68.0532H114.027C114.85 70.372 117.063 72.0374 119.661 72.0374C122.956 72.0374 125.637 69.356 125.637 66.061C125.637 62.7661 122.956 60.0847 119.661 60.0847C117.063 60.0847 114.85 61.7501 114.027 64.0689H99.7397C99.4309 64.0689 99.1261 64.1407 98.8492 64.2801L91.3011 68.0532H83.8028C80.0795 68.0532 76.5774 69.5034 73.9399 72.137C71.3063 74.7725 69.858 78.2747 69.858 81.9979C69.858 89.6875 76.1133 95.9427 83.8028 95.9427H91.3011L98.8492 99.7157C99.1261 99.8532 99.4309 99.9269 99.7397 99.9269H114.027C114.85 102.246 117.063 103.911 119.661 103.911C122.956 103.911 125.637 101.23 125.637 97.9348C125.637 94.6399 122.956 91.9585 119.661 91.9585H119.655ZM119.655 64.0689C120.752 64.0689 121.647 64.9634 121.647 66.061C121.647 67.1587 120.752 68.0532 119.655 68.0532C118.557 68.0532 117.663 67.1587 117.663 66.061C117.663 64.9634 118.557 64.0689 119.655 64.0689ZM119.655 99.9269C118.557 99.9269 117.663 99.0325 117.663 97.9348C117.663 96.8371 118.557 95.9427 119.655 95.9427C120.752 95.9427 121.647 96.8371 121.647 97.9348C121.647 99.0325 120.754 99.9269 119.655 99.9269Z" fill="white"/>
<path d="M83.7968 56.1006H87.781C88.8807 56.1006 89.7731 55.2081 89.7731 54.1085V32.9921C89.7731 31.8925 88.8807 31 87.781 31H79.8126C79.0038 31 78.2767 31.4881 77.9699 32.2351L74.418 40.8928C70.0134 41.9028 65.8439 43.612 61.9912 45.9866L55.4411 42.0562C54.6562 41.5861 53.6542 41.7096 53.0068 42.355L44.5542 50.8075C43.9088 51.455 43.7833 52.457 44.2554 53.2419L48.1859 59.792C45.8531 63.579 44.1618 67.6727 43.1458 71.9916L34.5638 73.8762C33.6494 74.0774 33 74.8862 33 75.8225V87.7751C33 88.7114 33.6514 89.5202 34.5638 89.7214L43.2315 91.6279C44.2714 95.9129 45.9627 99.9529 48.2695 103.668L44.2554 110.358C43.7853 111.141 43.9088 112.145 44.5542 112.792L53.0068 121.245C53.6522 121.89 54.6562 122.014 55.4411 121.543L62.2362 117.468C66.0013 119.752 70.0552 121.406 74.3183 122.396L77.9559 131.731C78.2548 132.496 78.9918 133 79.8126 133H87.781C88.8807 133 89.7731 132.108 89.7731 131.008V109.892C89.7731 108.792 88.8807 107.899 87.781 107.899H83.7968C69.5174 107.899 57.8994 96.2814 57.8994 82.002C57.8994 67.7225 69.5174 56.1046 83.7968 56.1046V56.1006ZM53.9152 81.998C53.9152 98.4747 67.3201 111.88 83.7968 111.88H85.7889V129.012H81.1732L77.6412 119.952C77.3962 119.322 76.8463 118.86 76.185 118.723C71.6131 117.786 67.2902 116.015 63.3398 113.453C62.7024 113.039 61.8836 113.027 61.2322 113.418L54.722 117.322L48.4687 111.069L52.3175 104.652C52.7139 103.993 52.694 103.166 52.2677 102.525C49.652 98.5863 47.8253 94.2176 46.8392 89.5381C46.6778 88.7712 46.0822 88.1716 45.3172 88.0042L36.9782 86.1715V77.4221L45.2395 75.6093C46.0105 75.44 46.6081 74.8324 46.7655 74.0594C47.7177 69.3581 49.5425 64.9356 52.186 60.9175C52.6063 60.278 52.6243 59.4533 52.2298 58.7979L48.4667 52.5267L54.72 46.2735L60.9931 50.0366C61.6505 50.431 62.4733 50.4131 63.1127 49.9928C67.1308 47.3473 71.5533 45.5245 76.2547 44.5722C76.9061 44.4408 77.4499 43.9905 77.7029 43.375L81.1453 34.9822H85.7849V52.1144H83.7928C67.3161 52.1144 53.9112 65.5193 53.9112 81.996L53.9152 81.998Z" fill="white"/>
<path d="M128.818 76.0215C126.221 76.0215 124.008 77.6869 123.185 80.0057H91.7652C90.6656 80.0057 89.7731 80.8982 89.7731 81.9978C89.7731 83.0975 90.6656 83.9899 91.7652 83.9899H123.185C124.008 86.3087 126.221 87.9741 128.818 87.9741C132.113 87.9741 134.795 85.2928 134.795 81.9978C134.795 78.7029 132.113 76.0215 128.818 76.0215ZM128.818 83.9899C127.721 83.9899 126.826 83.0955 126.826 81.9978C126.826 80.9002 127.721 80.0057 128.818 80.0057C129.916 80.0057 130.811 80.9002 130.811 81.9978C130.811 83.0955 129.918 83.9899 128.818 83.9899Z" fill="white"/>
<path d="M107.702 107.895C106.302 107.895 104.957 108.397 103.901 109.268L88.807 100.212C88.4982 100.027 88.1436 99.929 87.783 99.929H83.7988C73.9119 99.929 65.8698 91.8868 65.8698 82C65.8698 72.1131 73.9119 64.071 83.7988 64.071H87.783C88.1436 64.071 88.4982 63.9734 88.807 63.7861L103.901 54.73C104.959 55.6005 106.302 56.1026 107.702 56.1026C110.997 56.1026 113.678 53.4212 113.678 50.1262C113.678 46.8313 110.997 44.1499 107.702 44.1499C104.407 44.1499 101.726 46.8313 101.726 50.1262C101.726 50.5286 101.766 50.9271 101.845 51.3175L87.2292 60.0868H83.7968C71.7147 60.0868 61.8836 69.9178 61.8836 82C61.8836 94.0821 71.7147 103.913 83.7968 103.913H87.2292L101.845 112.682C101.766 113.073 101.726 113.471 101.726 113.874C101.726 117.169 104.407 119.85 107.702 119.85C110.997 119.85 113.678 117.169 113.678 113.874C113.678 110.579 110.997 107.897 107.702 107.897V107.895ZM107.702 48.1321C108.8 48.1321 109.694 49.0266 109.694 50.1242C109.694 51.2219 108.8 52.1163 107.702 52.1163C106.997 52.1163 106.357 51.7558 105.993 51.1502C105.993 51.1502 105.993 51.1502 105.993 51.1482C105.808 50.8414 105.71 50.4868 105.71 50.1242C105.71 49.0266 106.604 48.1321 107.702 48.1321ZM107.702 115.864C106.604 115.864 105.71 114.969 105.71 113.872C105.71 113.509 105.808 113.157 105.993 112.848C106.355 112.242 106.995 111.882 107.7 111.882C108.798 111.882 109.692 112.776 109.692 113.874C109.692 114.971 108.8 115.866 107.7 115.866L107.702 115.864Z" fill="white"/>
</svg>
