<svg width="89" height="73" viewBox="0 0 89 73" fill="none" xmlns="http://www.w3.org/2000/svg">
<path d="M65.1265 0.0199112C51.57 -0.317447 44.7965 9.61588 44.7585 9.67211C40.721 4.37746 33.5675 0.0855086 25.426 0.00116903C13.722 -0.111284 3.71854 7.90098 1.22004 18.912C-2.74145 31.8909 3.20554 47.5593 15.2705 57.3802C34.489 73.0205 55.2845 73.3391 69.221 72.8987C70.095 72.8519 70.798 72.1397 70.798 71.2681C70.798 70.6965 70.5035 70.1998 70.0475 69.9093C70.0475 69.9093 70.0475 69.9093 70.057 69.9C68.727 68.9629 65.2975 66.011 65.4305 61.8783C65.6015 56.7055 68.499 54.1659 69.6105 53.0508C72.3275 50.3332 76.555 46.5473 80.773 42.3678C86.568 36.6139 89 30.3822 89 24.1973C89.019 11.0403 78.2175 0.347899 65.1265 0.0199112Z" fill="#E40046"/>
</svg>
