<svg width="61" height="60" viewBox="0 0 61 60" fill="none" xmlns="http://www.w3.org/2000/svg">
<path fill-rule="evenodd" clip-rule="evenodd" d="M60 30.0001C60 37.0524 57.2531 43.6829 52.2668 48.6692C51.9012 49.0349 51.4207 49.2188 50.9414 49.2188C50.4621 49.2188 49.9817 49.036 49.616 48.6692C48.8836 47.9368 48.8836 46.7497 49.616 46.0173C53.8945 41.7388 56.2512 36.0505 56.2512 29.9989C56.2512 23.9474 53.8945 18.2591 49.616 13.9806C48.8836 13.2481 48.8836 12.061 49.616 11.3286C50.3484 10.5962 51.5356 10.5962 52.268 11.3286C57.2543 16.3161 60.0012 22.9454 60.0012 29.9978L60 30.0001Z" fill="#E40046"/>
<path fill-rule="evenodd" clip-rule="evenodd" d="M46.95 16.6475C46.2176 15.915 45.0305 15.915 44.298 16.6475C43.5656 17.3799 43.5656 18.567 44.298 19.2994C47.1562 22.1576 48.7312 25.958 48.7312 30.001C48.7312 34.0439 47.1574 37.8432 44.2992 40.7025C43.5668 41.435 43.5668 42.6221 44.2992 43.3545C44.6648 43.7201 45.1453 43.9041 45.6246 43.9041C46.1039 43.9041 46.5844 43.7213 46.95 43.3545C50.5172 39.7873 52.4812 35.0459 52.4812 30.0021C52.4812 24.9584 50.5172 20.2158 46.95 16.6498V16.6475Z" fill="#E40046"/>
<path fill-rule="evenodd" clip-rule="evenodd" d="M41.6332 21.9644C40.9008 21.2319 39.7137 21.2319 38.9813 21.9644C38.2488 22.6968 38.2488 23.8839 38.9813 24.6163C40.4192 26.0542 41.2113 27.9667 41.2113 30.0011C41.2113 32.0355 40.4192 33.9468 38.9813 35.3858C38.2488 36.1183 38.2488 37.3054 38.9813 38.0378C39.3469 38.4034 39.8274 38.5874 40.3067 38.5874C40.7859 38.5874 41.2664 38.4046 41.632 38.0378C43.7789 35.8909 44.9602 33.0374 44.9602 30.0022C44.9602 26.9671 43.7777 24.1124 41.632 21.9667L41.6332 21.9644Z" fill="#E40046"/>
<path d="M18.1055 53.0132C19.7235 53.0132 21.0352 51.7015 21.0352 50.0835C21.0352 48.4655 19.7235 47.1538 18.1055 47.1538C16.4874 47.1538 15.1758 48.4655 15.1758 50.0835C15.1758 51.7015 16.4874 53.0132 18.1055 53.0132Z" fill="#002D72"/>
<path fill-rule="evenodd" clip-rule="evenodd" d="M30.2555 0H5.95547C2.67187 0 0 2.67187 0 5.95547V54.0434C0 57.3281 2.67187 59.9988 5.95547 60H30.2543C33.5379 60 36.2098 57.3281 36.2098 54.0445V5.95547C36.2098 2.6707 33.5379 0 30.2543 0H30.2555ZM24.7957 3.75L24.2344 5.47617H11.9777L11.4164 3.75H24.7957ZM32.4621 54.0445C32.4621 55.2609 31.473 56.25 30.2566 56.25H5.95547C4.73906 56.25 3.75 55.2609 3.75 54.0445V5.95547C3.75 4.73906 4.73906 3.75 5.95547 3.75H7.47305L8.83125 7.93008C9.08203 8.70234 9.80273 9.22617 10.6148 9.22617H25.5961C26.4082 9.22617 27.1289 8.70352 27.3797 7.93008L28.7379 3.75H30.2555C31.4719 3.75 32.4609 4.74023 32.4609 5.95547V54.0434L32.4621 54.0445Z" fill="#002D72"/>
</svg>
