<svg width="62" height="62" viewBox="0 0 62 62" fill="none" xmlns="http://www.w3.org/2000/svg">
<path d="M60.6564 20.5617L54.6719 14.5773V2.17158C54.6719 1.5247 54.1472 1 53.4995 1H36.2352C35.5883 1 35.0636 1.5247 35.0636 2.17158C35.0636 2.81845 35.5883 3.34315 36.2352 3.34315H52.3279V27.2326L30.9468 48.6136L9.67125 27.3381V3.34403H25.6884C26.3352 3.34403 26.8599 2.81933 26.8599 2.17246C26.8599 1.52558 26.3352 1.00088 25.6884 1.00088H8.49967C7.8528 1.00088 7.32809 1.52558 7.32809 2.17246V14.5773L1.34365 20.5617C1.12393 20.7814 1 21.0794 1 21.3905V55.1404C1 58.3712 3.6288 61 6.85964 61H55.1404C58.3712 61 61 58.3712 61 55.1404V21.3905C61 21.0794 60.877 20.7814 60.6564 20.5617ZM58.656 55.1404C58.656 55.6826 58.532 56.1959 58.3123 56.6556L42.2662 40.6095L58.656 24.2197V55.1404ZM54.6719 17.8916L58.1708 21.3905L54.6719 24.8894V17.8916ZM3.68768 56.6547C3.46796 56.1959 3.34403 55.6818 3.34403 55.1404V24.3252L19.6811 40.6622L3.68768 56.6547ZM7.32809 24.994L3.77645 21.4424L7.32809 17.8907V24.994ZM6.85964 58.6551C6.31736 58.6551 5.80408 58.5312 5.34529 58.3114L21.3387 42.3181L30.1189 51.0983C30.3474 51.3268 30.648 51.4419 30.9477 51.4419C31.2474 51.4419 31.5471 51.3277 31.7765 51.0983L40.6104 42.2644L56.6565 58.3106C56.1977 58.5303 55.6835 58.6542 55.1412 58.6542H6.85964V58.6551Z" fill="#002D72" stroke="#002D72" stroke-width="0.6"/>
<path d="M29.813 2.40075C29.828 2.47546 29.8508 2.54928 29.8798 2.6196C29.9097 2.69079 29.9458 2.75846 29.9879 2.82174C30.009 2.85426 30.0319 2.88502 30.0565 2.91491C30.0802 2.94479 30.1066 2.97292 30.1338 3.00016C30.1602 3.02741 30.1892 3.05377 30.2191 3.0775C30.249 3.10211 30.2797 3.12497 30.3114 3.14606C30.3755 3.18825 30.4432 3.22428 30.5135 3.25416C30.5847 3.28317 30.6585 3.30602 30.7333 3.32096C30.771 3.32799 30.8088 3.33414 30.8466 3.33766C30.8853 3.34205 30.924 3.34381 30.9626 3.34381C31.0013 3.34381 31.0391 3.34205 31.0778 3.33766C31.1156 3.33414 31.1534 3.32799 31.1912 3.32096C31.2659 3.30602 31.3397 3.28317 31.41 3.25416C31.4812 3.22428 31.5489 3.18825 31.613 3.14606C31.6447 3.12497 31.6754 3.10211 31.7053 3.0775C31.7352 3.05377 31.7642 3.02741 31.7906 3.00016C31.8178 2.97292 31.8442 2.94479 31.8679 2.91491C31.8925 2.88502 31.9154 2.85426 31.9365 2.82174C31.9787 2.75846 32.0147 2.69079 32.0446 2.6196C32.0736 2.54928 32.0964 2.47546 32.1114 2.40075C32.1184 2.36296 32.1246 2.32516 32.1281 2.28737C32.1325 2.2487 32.1342 2.21003 32.1342 2.17136C32.1342 2.13268 32.1325 2.09489 32.1281 2.05622C32.1246 2.01843 32.1184 1.98063 32.1114 1.94284C32.0964 1.86814 32.0736 1.79431 32.0446 1.72312C32.0147 1.6528 31.9787 1.58513 31.9365 1.52097C31.9154 1.48933 31.8925 1.45857 31.8679 1.42868C31.8442 1.3988 31.8178 1.3698 31.7906 1.34343C31.7642 1.31618 31.7352 1.28982 31.7053 1.26609C31.6754 1.24148 31.6447 1.21863 31.613 1.19753C31.5489 1.15535 31.4812 1.11931 31.41 1.08943C31.3397 1.06042 31.2659 1.03757 31.1912 1.02263C31.1534 1.0156 31.1156 1.00945 31.0778 1.00593C31.0013 0.998022 30.9231 0.998022 30.8466 1.00593C30.8088 1.00945 30.771 1.0156 30.7333 1.02263C30.6585 1.03757 30.5847 1.06042 30.5135 1.08943C30.4432 1.11931 30.3755 1.15535 30.3114 1.19753C30.2797 1.21863 30.249 1.24148 30.2191 1.26609C30.1892 1.28982 30.1602 1.31618 30.1338 1.34343C30.1066 1.3698 30.0802 1.3988 30.0565 1.42868C30.0319 1.45857 30.009 1.48933 29.9879 1.52097C29.9458 1.58513 29.9097 1.6528 29.8798 1.72312C29.8508 1.79431 29.828 1.86814 29.813 1.94284C29.806 1.98063 29.7999 2.01843 29.7963 2.05622C29.792 2.09489 29.7902 2.13356 29.7902 2.17136C29.7902 2.20915 29.792 2.2487 29.7963 2.28737C29.7999 2.32516 29.806 2.36296 29.813 2.40075Z" fill="#002D72" stroke="#002D72" stroke-width="0.6"/>
<path d="M19.9149 15.2004C18.3249 18.0894 17.9066 21.4195 18.7371 24.5783C19.4569 27.3143 21.01 29.6742 23.2301 31.4038C25.3676 33.0694 28.0298 34.0274 30.7262 34.1012C30.7376 34.1012 30.7482 34.1012 30.7596 34.1012C31.3916 34.1012 31.9127 33.5976 31.9303 32.9621C31.9479 32.3153 31.4381 31.7765 30.7913 31.758C28.5905 31.6974 26.417 30.9143 24.6715 29.5546C22.8609 28.144 21.5927 26.2166 21.0047 23.9824C20.3279 21.4081 20.6698 18.6905 21.9688 16.3316C23.2679 13.9717 25.3799 12.228 27.9181 11.4203C30.5997 10.5668 33.4473 10.8182 35.9346 12.1278C38.4175 13.4356 40.2324 15.6328 41.048 18.3161C41.5675 20.2769 41.3987 22.0954 40.4864 24.3902C40.2263 25.0441 39.4186 26.5664 37.5386 26.5664C37.2415 26.5664 36.9409 26.4284 36.6913 26.1788C36.3573 25.843 36.1675 25.3693 36.1693 24.8727V15.1837C36.1693 14.5368 35.6446 14.0121 34.9977 14.0121C34.3508 14.0121 33.8261 14.5368 33.8261 15.1837V15.5572C32.9112 14.7944 31.7748 14.3593 30.5021 14.3593C28.9297 14.3593 27.3864 15.0703 26.2676 16.3096C25.1153 17.5849 24.4816 19.3286 24.4816 21.2191C24.4816 23.1096 25.081 24.8842 26.17 26.2104C27.2739 27.5543 28.8085 28.3259 30.3791 28.3259C31.8512 28.3259 33.1775 27.6755 34.1873 26.5919C34.3904 27.0524 34.6743 27.4752 35.0302 27.8329C35.7228 28.5281 36.6131 28.9113 37.5386 28.9113C40.2465 28.9113 41.9621 27.0234 42.6643 25.2577C43.7656 22.4883 43.9642 20.1557 43.3077 17.6956C43.3042 17.6833 43.3007 17.671 43.2972 17.6596C42.3022 14.3619 40.0751 11.662 37.0271 10.0562C33.9799 8.45132 30.4924 8.14283 27.2071 9.18872C24.0949 10.1792 21.5057 12.3159 19.9157 15.203L19.9149 15.2004ZM30.3773 25.9801C28.4173 25.9801 26.823 23.8435 26.823 21.2183C26.823 18.3917 28.6924 16.7025 30.5003 16.7025C32.448 16.7025 33.8077 18.5446 33.8077 21.1831C33.8077 23.8216 32.2687 25.981 30.3764 25.981L30.3773 25.9801Z" fill="#E40046" stroke="#E40046" stroke-width="0.6"/>
</svg>
