<svg width="105" height="105" viewBox="0 0 105 105" fill="none" xmlns="http://www.w3.org/2000/svg">
<g filter="url(#filter0_d_268_539)">
<path d="M80.4844 40.2422C80.4844 55.84 67.8403 68.4844 52.2422 68.4844C36.6445 68.4844 24 55.84 24 40.2422C24 24.6442 36.6445 12 52.2422 12C67.8403 12 80.4844 24.6442 80.4844 40.2422Z" fill="#00B388"/>
<g filter="url(#filter1_d_268_539)">
<path d="M60.2305 30.9226L49.5797 41.5734L44.2546 36.2482C42.7841 34.7776 40.3997 34.7776 38.9291 36.2482C37.4585 37.7188 37.4585 40.1028 38.9291 41.5734L46.9172 49.5617C48.3877 51.0323 50.772 51.0323 52.2425 49.5617L65.5561 36.2482C67.0267 34.7776 67.0267 32.3934 65.5561 30.9226C64.0855 29.4522 61.7013 29.4522 60.2305 30.9226Z" fill="white"/>
</g>
</g>
<defs>
<filter id="filter0_d_268_539" x="0" y="0" width="104.484" height="104.484" filterUnits="userSpaceOnUse" color-interpolation-filters="sRGB">
<feFlood flood-opacity="0" result="BackgroundImageFix"/>
<feColorMatrix in="SourceAlpha" type="matrix" values="0 0 0 0 0 0 0 0 0 0 0 0 0 0 0 0 0 0 127 0" result="hardAlpha"/>
<feOffset dy="12"/>
<feGaussianBlur stdDeviation="12"/>
<feComposite in2="hardAlpha" operator="out"/>
<feColorMatrix type="matrix" values="0 0 0 0 0.82902 0 0 0 0 0.82902 0 0 0 0 0.82902 0 0 0 0.7 0"/>
<feBlend mode="normal" in2="BackgroundImageFix" result="effect1_dropShadow_268_539"/>
<feBlend mode="normal" in="SourceGraphic" in2="effect1_dropShadow_268_539" result="shape"/>
</filter>
<filter id="filter1_d_268_539" x="31.8262" y="29.8198" width="40.833" height="32.8448" filterUnits="userSpaceOnUse" color-interpolation-filters="sRGB">
<feFlood flood-opacity="0" result="BackgroundImageFix"/>
<feColorMatrix in="SourceAlpha" type="matrix" values="0 0 0 0 0 0 0 0 0 0 0 0 0 0 0 0 0 0 127 0" result="hardAlpha"/>
<feOffset dy="6"/>
<feGaussianBlur stdDeviation="3"/>
<feComposite in2="hardAlpha" operator="out"/>
<feColorMatrix type="matrix" values="0 0 0 0 0 0 0 0 0 0.302885 0 0 0 0 0.229716 0 0 0 0.12 0"/>
<feBlend mode="normal" in2="BackgroundImageFix" result="effect1_dropShadow_268_539"/>
<feBlend mode="normal" in="SourceGraphic" in2="effect1_dropShadow_268_539" result="shape"/>
</filter>
</defs>
</svg>
