<svg width="41" height="44" viewBox="0 0 41 44" fill="none" xmlns="http://www.w3.org/2000/svg">
<path d="M32.8213 4.72223H36.5461C38.1553 4.72223 39.4596 6.02023 39.4596 7.62182V32.9468L29.3589 42.9993H3.91353C2.30434 42.9993 1 41.7013 1 40.0998V7.62182C1 6.02023 2.30434 4.72223 3.91353 4.72223H7.46973" stroke="#002D72" stroke-width="1.5" stroke-linecap="round" stroke-linejoin="round"/>
<path d="M11.2725 4.72223H29.3564" stroke="#002D72" stroke-width="1.5" stroke-linecap="round" stroke-linejoin="round"/>
<path d="M11.4119 11.9233C20.8218 11.9443 30.1169 11.9443 39.4603 11.9233" stroke="#002D72" stroke-width="1.5" stroke-linecap="round" stroke-linejoin="round"/>
<path d="M1 11.9233C3.15996 11.9443 5.35731 11.9443 7.57874 11.9233" stroke="#002D72" stroke-width="1.5" stroke-linecap="round" stroke-linejoin="round"/>
<path d="M9.41773 8.24612H9.40949C8.47149 8.24612 7.71094 7.48557 7.71094 6.54756V2.69856C7.71094 1.76055 8.47149 1 9.40949 1H9.41773C10.3557 1 11.1163 1.76055 11.1163 2.69856V6.54756C11.1163 7.48557 10.3557 8.24612 9.41773 8.24612Z" stroke="#002D72" stroke-width="1.5" stroke-linecap="round" stroke-linejoin="round"/>
<path d="M31.0505 8.24612H31.0423C30.1043 8.24612 29.3437 7.48557 29.3437 6.54756V2.69856C29.3437 1.76055 30.1043 1 31.0423 1H31.0505C31.9885 1 32.7491 1.76055 32.7491 2.69856V6.54756C32.7491 7.48557 31.9885 8.24612 31.0505 8.24612Z" stroke="#002D72" stroke-width="1.5" stroke-linecap="round" stroke-linejoin="round"/>
<path d="M29.3596 43V35.847C29.3596 34.2455 30.6639 32.9474 32.2731 32.9474H39.4603L29.3596 43Z" stroke="#002D72" stroke-width="1.5" stroke-linecap="round" stroke-linejoin="round"/>
<path d="M28.2232 30.6753C29.6112 28.9881 30.6291 26.953 30.6608 24.5998C30.7058 21.2629 28.2219 18.5579 25.214 18.5579C22.9881 18.5579 21.0747 20.039 20.2298 22.161C19.385 20.039 17.4709 18.5579 15.2457 18.5579C12.2377 18.5579 9.79892 21.2629 9.79892 24.5998C9.79892 32.2376 20.2298 36.4561 20.2298 36.4561C20.2298 36.4561 23.0711 35.2791 25.7882 33.0666" stroke="#002D72" stroke-width="1.5" stroke-linecap="round" stroke-linejoin="round"/>
</svg>
