<svg width="24" height="24" viewBox="0 0 24 24" fill="none" xmlns="http://www.w3.org/2000/svg">
<path d="M8.37242 5.39284C8.13389 5.64167 8 5.97828 8 6.32913C8 6.67999 8.13389 7.01659 8.37242 7.26542L12.9061 12.0332L8.37242 16.7346C8.13389 16.9834 8 17.32 8 17.6709C8 18.0217 8.13389 18.3583 8.37242 18.6072C8.49148 18.7316 8.63312 18.8304 8.78919 18.8979C8.94525 18.9653 9.11265 19 9.28171 19C9.45078 19 9.61818 18.9653 9.77424 18.8979C9.93031 18.8304 10.072 18.7316 10.191 18.6072L15.6212 12.9761C15.7412 12.8527 15.8365 12.7058 15.9015 12.5439C15.9665 12.3821 16 12.2085 16 12.0332C16 11.8579 15.9665 11.6843 15.9015 11.5225C15.8365 11.3606 15.7412 11.2137 15.6212 11.0903L10.191 5.39284C10.072 5.26836 9.93031 5.16956 9.77424 5.10214C9.61818 5.03472 9.45078 5 9.28171 5C9.11265 5 8.94525 5.03472 8.78919 5.10214C8.63312 5.16956 8.49148 5.26836 8.37242 5.39284Z" fill="#002D72"/>
</svg>
