<svg xmlns="http://www.w3.org/2000/svg" fill="none" viewBox="0 0 90 90"><g filter="url(#a)"><circle cx="21" cy="21" r="21" fill="#fff" transform="matrix(-1 0 0 1 66 12)"/></g><path fill="#002D72" d="m41.46 32.29 5.66-5.65a1.002 1.002 0 0 1 1.71.705 1 1 0 0 1-.29.705l-4.95 5L48.54 38a1 1 0 0 1 0 1.41 1 1 0 0 1-.71.3 1 1 0 0 1-.71-.3l-5.66-5.65a1 1 0 0 1 0-1.47Z"/><defs><filter id="a" width="90" height="90" x="0" y="0" color-interpolation-filters="sRGB" filterUnits="userSpaceOnUse"><feFlood flood-opacity="0" result="BackgroundImageFix"/><feColorMatrix in="SourceAlpha" result="hardAlpha" values="0 0 0 0 0 0 0 0 0 0 0 0 0 0 0 0 0 0 127 0"/><feOffset dy="12"/><feGaussianBlur stdDeviation="12"/><feComposite in2="hardAlpha" operator="out"/><feColorMatrix values="0 0 0 0 0.82902 0 0 0 0 0.82902 0 0 0 0 0.82902 0 0 0 0.7 0"/><feBlend in2="BackgroundImageFix" result="effect1_dropShadow_154_879"/><feBlend in="SourceGraphic" in2="effect1_dropShadow_154_879" result="shape"/></filter></defs></svg>