<svg width="24" height="24" viewBox="0 0 24 24" fill="none" xmlns="http://www.w3.org/2000/svg">
<path d="M12.1269 1C7.64563 1 4 4.64563 4 9.1269C4 10.6022 4.66163 12.1888 4.68935 12.2558C4.90304 12.763 5.32468 13.5508 5.62873 14.0126L11.2009 22.4555C11.4289 22.8016 11.7664 23 12.1269 23C12.4874 23 12.8249 22.8016 13.0529 22.456L18.6255 14.0126C18.9301 13.5508 19.3512 12.763 19.5649 12.2558C19.5926 12.1893 20.2538 10.6027 20.2538 9.1269C20.2538 4.64563 16.6082 1 12.1269 1ZM18.6834 11.8848C18.4926 12.3394 18.1002 13.0723 17.8272 13.4863L12.2545 21.9296C12.1446 22.0965 12.1097 22.0965 11.9997 21.9296L6.42707 13.4863C6.15411 13.0723 5.76162 12.3389 5.57088 11.8843C5.56275 11.8647 4.95611 10.4043 4.95611 9.1269C4.95611 5.17292 8.17292 1.95611 12.1269 1.95611C16.0809 1.95611 19.2977 5.17292 19.2977 9.1269C19.2977 10.4062 18.6896 11.8704 18.6834 11.8848Z" fill="#616161" stroke="#616161"/>
<path d="M12.1269 4.82495C9.75436 4.82495 7.82446 6.75533 7.82446 9.12743C7.82446 11.4995 9.75436 13.4299 12.1269 13.4299C14.4995 13.4299 16.4294 11.4995 16.4294 9.12743C16.4294 6.75533 14.4995 4.82495 12.1269 4.82495ZM12.1269 12.4738C10.2821 12.4738 8.78057 10.9727 8.78057 9.12743C8.78057 7.28214 10.2821 5.78106 12.1269 5.78106C13.9717 5.78106 15.4733 7.28214 15.4733 9.12743C15.4733 10.9727 13.9717 12.4738 12.1269 12.4738Z" fill="#616161" stroke="#616161"/>
</svg>
