<svg width="54" height="54" viewBox="0 0 54 54" fill="none" xmlns="http://www.w3.org/2000/svg">
<path d="M29.5312 16.0312H12.6562C11.7281 16.0312 10.9688 15.2719 10.9688 14.3438V7.59375C10.9688 6.66563 11.7281 5.90625 12.6562 5.90625H16.0988C16.5037 3.51844 18.5878 1.6875 21.0938 1.6875C23.5997 1.6875 25.6838 3.51844 26.0887 5.90625H29.5312C30.4594 5.90625 31.2188 6.66563 31.2188 7.59375V14.3438C31.2188 15.2719 30.4594 16.0312 29.5312 16.0312ZM12.6562 7.59375V14.3438H29.5312V7.59375H25.3125C24.8484 7.59375 24.4688 7.21406 24.4688 6.75C24.4688 4.88531 22.9584 3.375 21.0938 3.375C19.2291 3.375 17.7188 4.88531 17.7188 6.75C17.7188 7.21406 17.3391 7.59375 16.875 7.59375H12.6562Z" fill="#616161"/>
<path d="M31.9781 50.625H5.90625C3.5775 50.625 1.6875 48.735 1.6875 46.4062V12.6562C1.6875 10.3275 3.5775 8.4375 5.90625 8.4375H8.4375C8.90156 8.4375 9.28125 8.81719 9.28125 9.28125C9.28125 9.74531 8.90156 10.125 8.4375 10.125H5.90625C4.51406 10.125 3.375 11.2641 3.375 12.6562V46.4062C3.375 47.7984 4.51406 48.9375 5.90625 48.9375H31.9781C32.4422 48.9375 32.8219 49.3172 32.8219 49.7812C32.8219 50.2453 32.4422 50.625 31.9781 50.625Z" fill="#616161"/>
<path d="M39.6562 28.9997C39.1922 28.9997 38.8125 28.62 38.8125 28.1559V12.6562C38.8125 11.2641 37.6734 10.125 36.2812 10.125H33.75C33.2859 10.125 32.9062 9.74531 32.9062 9.28125C32.9062 8.81719 33.2859 8.4375 33.75 8.4375H36.2812C38.61 8.4375 40.5 10.3275 40.5 12.6562V28.1559C40.5 28.62 40.1203 28.9997 39.6562 28.9997Z" fill="#616161"/>
<path d="M28.7972 47.25H6.75C5.82187 47.25 5.0625 46.4906 5.0625 45.5625V13.5C5.0625 12.5719 5.82187 11.8125 6.75 11.8125H8.4375C8.90156 11.8125 9.28125 12.1922 9.28125 12.6562C9.28125 13.1203 8.90156 13.5 8.4375 13.5H6.75V45.5625H28.7972C29.2613 45.5625 29.6409 45.9422 29.6409 46.4062C29.6409 46.8703 29.2613 47.25 28.7972 47.25Z" fill="#616161"/>
<path d="M36.2812 27.2784C35.8172 27.2784 35.4375 26.8988 35.4375 26.4347V13.5H33.75C33.2859 13.5 32.9062 13.1203 32.9062 12.6562C32.9062 12.1922 33.2859 11.8125 33.75 11.8125H35.4375C36.3656 11.8125 37.125 12.5719 37.125 13.5V26.4347C37.125 26.8988 36.7453 27.2784 36.2812 27.2784Z" fill="#616161"/>
<path d="M17.7188 28.6875H10.9688C10.5047 28.6875 10.125 28.3078 10.125 27.8438V21.0938C10.125 20.6297 10.5047 20.25 10.9688 20.25H14.31C14.7741 20.25 15.1537 20.6297 15.1537 21.0938C15.1537 21.5578 14.7741 21.9375 14.31 21.9375H11.8125V27H17.0775C17.2294 26.8228 17.4656 26.7047 17.7188 26.7047C18.1828 26.7047 18.5625 27.0844 18.5625 27.5484V27.8438C18.5625 28.3078 18.1828 28.6875 17.7188 28.6875Z" fill="#616161"/>
<path d="M15.1875 26.1562C14.9682 26.1562 14.7488 26.0719 14.5885 25.9116L12.901 24.2241C12.5719 23.895 12.5719 23.3634 12.901 23.0344C13.23 22.7053 13.7616 22.7053 14.0907 23.0344L15.1285 24.0722L18.7566 19.7184C19.0519 19.3641 19.5835 19.3134 19.9463 19.6087C20.3007 19.9041 20.3513 20.4356 20.056 20.7984L15.8372 25.8609C15.6853 26.0466 15.466 26.1562 15.2297 26.1647C15.2128 26.1647 15.2044 26.1647 15.1875 26.1647V26.1562Z" fill="#616161"/>
<path d="M17.7188 41.3438H10.9688C10.5047 41.3438 10.125 40.9641 10.125 40.5V33.75C10.125 33.2859 10.5047 32.9062 10.9688 32.9062H14.31C14.7741 32.9062 15.1537 33.2859 15.1537 33.75C15.1537 34.2141 14.7741 34.5938 14.31 34.5938H11.8125V39.6562H17.0775C17.2294 39.4791 17.4656 39.3609 17.7188 39.3609C18.1828 39.3609 18.5625 39.7406 18.5625 40.2047V40.5C18.5625 40.9641 18.1828 41.3438 17.7188 41.3438Z" fill="#616161"/>
<path d="M15.1875 38.8125C14.9682 38.8125 14.7488 38.7281 14.5885 38.5678L12.901 36.8803C12.5719 36.5512 12.5719 36.0197 12.901 35.6906C13.23 35.3616 13.7616 35.3616 14.0907 35.6906L15.1285 36.7284L18.7566 32.3747C19.0519 32.0203 19.5835 31.9697 19.9463 32.265C20.3007 32.5603 20.3513 33.0919 20.056 33.4547L15.8372 38.5172C15.6853 38.7028 15.466 38.8125 15.2297 38.8209C15.2128 38.8209 15.2044 38.8209 15.1875 38.8209V38.8125Z" fill="#616161"/>
<path d="M31.2188 23.625H21.9375C21.4734 23.625 21.0938 23.2453 21.0938 22.7812C21.0938 22.3172 21.4734 21.9375 21.9375 21.9375H31.2188C31.6828 21.9375 32.0625 22.3172 32.0625 22.7812C32.0625 23.2453 31.6828 23.625 31.2188 23.625Z" fill="#616161"/>
<path d="M25.3125 27H21.9375C21.4734 27 21.0938 26.6203 21.0938 26.1562C21.0938 25.6922 21.4734 25.3125 21.9375 25.3125H25.3125C25.7766 25.3125 26.1562 25.6922 26.1562 26.1562C26.1562 26.6203 25.7766 27 25.3125 27Z" fill="#616161"/>
<path d="M24.4688 36.2812H21.9375C21.4734 36.2812 21.0938 35.9016 21.0938 35.4375C21.0938 34.9734 21.4734 34.5938 21.9375 34.5938H24.4688C24.9328 34.5938 25.3125 34.9734 25.3125 35.4375C25.3125 35.9016 24.9328 36.2812 24.4688 36.2812Z" fill="#616161"/>
<path d="M24.4688 39.6562H21.9375C21.4734 39.6562 21.0938 39.2766 21.0938 38.8125C21.0938 38.3484 21.4734 37.9688 21.9375 37.9688H24.4688C24.9328 37.9688 25.3125 38.3484 25.3125 38.8125C25.3125 39.2766 24.9328 39.6562 24.4688 39.6562Z" fill="#616161"/>
<path d="M39.6562 52.3125C39.5044 52.3125 39.3441 52.2703 39.2091 52.1859C38.7113 51.8737 27 44.5247 27 35.9269C27 31.9359 30.2316 28.6875 34.2056 28.6875C36.4753 28.6875 38.3906 30.105 39.6562 31.7081C40.9219 30.1134 42.8372 28.6875 45.1069 28.6875C49.0809 28.6875 52.3125 31.9359 52.3125 35.9269C52.3125 44.5247 40.6012 51.8737 40.1034 52.1859C39.9684 52.2703 39.8166 52.3125 39.6562 52.3125ZM34.2056 30.375C31.1597 30.375 28.6875 32.8641 28.6875 35.9269C28.6875 42.7106 37.5469 49.0472 39.6562 50.4562C41.7656 49.0472 50.625 42.7106 50.625 35.9269C50.625 32.8641 48.1528 30.375 45.1069 30.375C43.0481 30.375 41.2763 32.1216 40.3819 33.6234C40.0781 34.1297 39.2428 34.1297 38.9391 33.6234C38.0447 32.13 36.2644 30.375 34.2141 30.375H34.2056Z" fill="#616161"/>
<path d="M41.521 44.9972C41.521 44.9972 41.5041 44.9972 41.4872 44.9972C41.1582 44.9887 40.8713 44.7862 40.7447 44.4825L38.3401 38.8294L37.2938 40.8797C37.1504 41.1581 36.8635 41.3437 36.5429 41.3437H33.4379C32.9738 41.3437 32.5941 40.964 32.5941 40.5C32.5941 40.0359 32.9738 39.6562 33.4379 39.6562H36.0282L37.6566 36.4584C37.8085 36.1631 38.1207 35.9775 38.4413 36.0028C38.7704 36.0112 39.0572 36.2137 39.1838 36.5175L41.5885 42.1706L42.6347 40.1287C42.7782 39.8503 43.0651 39.6647 43.3857 39.6647H45.8747C46.3388 39.6647 46.7185 40.0444 46.7185 40.5084C46.7185 40.9725 46.3388 41.3522 45.8747 41.3522H43.9088L42.2804 44.55C42.1369 44.8369 41.8416 45.014 41.5294 45.014L41.521 44.9972Z" fill="#616161"/>
</svg>
