<svg width="54" height="54" viewBox="0 0 54 54" fill="none" xmlns="http://www.w3.org/2000/svg">
<path fill-rule="evenodd" clip-rule="evenodd" d="M18.5625 4.5V9.52425C18.5625 11.052 19.1272 12.5257 20.151 13.662C21.7687 15.4597 24.7432 18.765 26.8222 21.0757C26.9505 21.2175 26.9977 21.411 26.9482 21.5955C26.901 21.7777 26.7615 21.9262 26.5815 21.9847L24.6307 22.6372C23.022 23.1727 21.9375 24.678 21.9375 26.3722V27.7672C21.9375 27.9922 21.8025 28.1947 21.5955 28.2825C19.3432 29.25 15.0862 31.0747 15.0862 31.0747C14.517 31.3177 14.1255 31.8532 14.0692 32.4697C14.013 33.0885 14.2987 33.6847 14.814 34.029L19.7797 37.3387C20.0295 37.5052 20.1037 37.8382 19.9485 38.097L18.333 40.7902C18.2317 40.959 18.0495 41.0625 17.8515 41.0625H12.906C10.5615 41.0625 8.41948 42.3855 7.37098 44.4825L5.24023 48.7462C4.82398 49.5787 5.16148 50.5935 5.99623 51.0097C6.82873 51.426 7.84348 51.0885 8.25973 50.2537L10.3905 45.9922C10.8675 45.0382 11.8417 44.4375 12.906 44.4375H17.8515C19.2352 44.4375 20.5155 43.7107 21.2265 42.525L22.8442 39.8317C23.9242 38.0295 23.4 35.6962 21.6517 34.5307L19.278 32.949L22.9252 31.3852C24.3742 30.7642 25.3125 29.3422 25.3125 27.7672V26.3722C25.3125 26.1292 25.4677 25.9155 25.6972 25.839L27.6502 25.1865C28.9102 24.768 29.8732 23.7397 30.2107 22.4572C30.5505 21.1725 30.2197 19.8045 29.331 18.8167L22.6597 11.4052C22.194 10.8877 21.9375 10.2172 21.9375 9.52425V4.5C21.9375 3.5685 21.1815 2.8125 20.25 2.8125C19.3185 2.8125 18.5625 3.5685 18.5625 4.5Z" fill="#616161"/>
<path fill-rule="evenodd" clip-rule="evenodd" d="M40.887 23.7982C43.7423 26.1719 45.5625 29.7494 45.5625 33.75C45.5625 37.7505 43.7423 41.328 40.887 43.7017C40.1715 44.298 40.0725 45.3622 40.6688 46.0777C41.265 46.7955 42.3293 46.8922 43.0448 46.2982C46.6448 43.3034 48.9375 38.7922 48.9375 33.75C48.9375 28.7077 46.6448 24.1965 43.0448 21.2017C42.3293 20.6077 41.265 20.7044 40.6688 21.4222C40.0725 22.1377 40.1715 23.2019 40.887 23.7982Z" fill="#616161"/>
<path fill-rule="evenodd" clip-rule="evenodd" d="M36.3195 28.2982C37.8833 29.5987 38.88 31.5585 38.88 33.75C38.88 35.9415 37.8833 37.9012 36.3195 39.2017C35.604 39.798 35.505 40.8622 36.1013 41.5777C36.6953 42.2955 37.7618 42.3922 38.4773 41.7982C40.7858 39.879 42.255 36.9832 42.255 33.75C42.255 30.5167 40.7858 27.621 38.4773 25.7017C37.7618 25.1077 36.6953 25.2044 36.1013 25.9222C35.505 26.6377 35.604 27.7019 36.3195 28.2982Z" fill="#616161"/>
<path fill-rule="evenodd" clip-rule="evenodd" d="M30.753 31.6732C31.3492 32.1682 31.7295 32.9152 31.7295 33.7499C31.7295 34.5847 31.3492 35.3317 30.753 35.8267C30.0375 36.423 29.9385 37.4872 30.5347 38.2027C31.131 38.9205 32.1952 39.0172 32.9107 38.4232C34.2517 37.3072 35.1045 35.6287 35.1045 33.7499C35.1045 31.8712 34.2517 30.1927 32.9107 29.0767C32.1952 28.4827 31.131 28.5794 30.5347 29.2972C29.9385 30.0127 30.0375 31.0769 30.753 31.6732Z" fill="#616161"/>
</svg>
