<svg width="54" height="54" viewBox="0 0 54 54" fill="none" xmlns="http://www.w3.org/2000/svg">
<g clip-path="url(#clip0_296_471)">
<path d="M36.4922 33.6445C35.9098 33.6445 35.4375 34.1167 35.4375 34.6992V41.9766C35.4375 44.8843 33.0718 47.25 30.1641 47.25H18.7768C18.1945 47.25 17.7225 47.7218 17.7221 48.304L17.7206 50.4009L15.2033 47.8837C15.0404 47.5096 14.6674 47.25 14.2361 47.25H7.38281C4.47504 47.25 2.10938 44.8843 2.10938 41.9766V25.7344C2.10938 22.8266 4.47504 20.4609 7.38281 20.4609H18.0352C18.6176 20.4609 19.0898 19.9888 19.0898 19.4062C19.0898 18.8237 18.6176 18.3516 18.0352 18.3516H7.38281C3.31193 18.3516 0 21.6635 0 25.7344V41.9766C0 46.0474 3.31193 49.3594 7.38281 49.3594H13.696L18.0277 53.6911C18.2294 53.8928 18.4991 54 18.7736 54C18.9094 54 19.0464 53.9737 19.1766 53.9198C19.5708 53.7568 19.8278 53.3725 19.8281 52.946L19.8307 49.3594H30.1641C34.2349 49.3594 37.5469 46.0474 37.5469 41.9766V34.6992C37.5469 34.1167 37.0746 33.6445 36.4922 33.6445Z" fill="#616161"/>
<path d="M38.6706 0H36.0013C27.5486 0 20.6719 6.87677 20.6719 15.3295C20.6719 23.7821 27.5486 30.6588 36.0012 30.6588H38.6705C39.9898 30.6588 41.2957 30.4912 42.5613 30.1601L46.5044 34.101C46.7062 34.3025 46.9758 34.4097 47.2502 34.4097C47.3862 34.4097 47.5233 34.3834 47.6537 34.3293C48.0478 34.1661 48.3047 33.7815 48.3047 33.355V27.253C49.9742 25.901 51.361 24.1932 52.3342 22.2852C53.4396 20.1183 54 17.778 54 15.3295C54 6.87677 47.1232 0 38.6706 0ZM46.6154 25.8963C46.351 26.0955 46.1953 26.4075 46.1953 26.7388V30.8098L43.6144 28.2303C43.4136 28.0297 43.1442 27.9216 42.8687 27.9216C42.7654 27.9216 42.6609 27.9369 42.5591 27.9682C41.3037 28.354 39.9954 28.5495 38.6706 28.5495H36.0013C28.7117 28.5495 22.7812 22.619 22.7812 15.3295C22.7812 8.03988 28.7118 2.10937 36.0013 2.10937H38.6706C45.9602 2.10937 51.8906 8.03988 51.8906 15.3295C51.8906 19.5198 49.9679 23.3713 46.6154 25.8963Z" fill="#616161"/>
<path d="M42.0855 11.5405C41.9333 9.33256 40.1534 7.55267 37.9453 7.40048C36.6936 7.31452 35.4991 7.73671 34.5848 8.59027C33.683 9.43202 33.1659 10.6219 33.1659 11.855C33.1659 12.4375 33.6382 12.9096 34.2206 12.9096C34.803 12.9096 35.2753 12.4375 35.2753 11.855C35.2753 11.1948 35.5413 10.583 36.0241 10.1323C36.5065 9.68208 37.137 9.45923 37.8004 9.505C38.9635 9.58516 39.901 10.5227 39.9812 11.6857C40.0622 12.8603 39.2915 13.8983 38.1489 14.154C37.2231 14.3611 36.5765 15.1656 36.5765 16.1103V18.6442C36.5765 19.2267 37.0488 19.6989 37.6312 19.6989C38.2137 19.6989 38.6859 19.2267 38.6858 18.6442V16.1946C40.811 15.6811 42.2368 13.7365 42.0855 11.5405Z" fill="#616161"/>
<path d="M38.3769 22.0704C38.1807 21.8742 37.9086 21.7614 37.6312 21.7614C37.3538 21.7614 37.0817 21.8742 36.8856 22.0704C36.6894 22.2665 36.5765 22.5387 36.5765 22.816C36.5765 23.0945 36.6895 23.3666 36.8856 23.5628C37.0817 23.7589 37.3538 23.8707 37.6312 23.8707C37.9086 23.8707 38.1807 23.7589 38.3769 23.5628C38.5731 23.3655 38.6859 23.0945 38.6859 22.816C38.6859 22.5387 38.573 22.2665 38.3769 22.0704Z" fill="#616161"/>
<path d="M29.0039 32.6953H6.75C6.1676 32.6953 5.69531 33.1675 5.69531 33.75C5.69531 34.3325 6.1676 34.8047 6.75 34.8047H29.0039C29.5864 34.8047 30.0586 34.3325 30.0586 33.75C30.0586 33.1675 29.5863 32.6953 29.0039 32.6953Z" fill="#616161"/>
<path d="M29.7495 38.9106C29.5534 38.7144 29.2813 38.6016 29.0039 38.6016C28.7265 38.6016 28.4544 38.7144 28.2582 38.9106C28.062 39.1068 27.9492 39.3789 27.9492 39.6562C27.9492 39.9336 28.0621 40.2057 28.2582 40.4019C28.4544 40.5981 28.7265 40.7109 29.0039 40.7109C29.2813 40.7109 29.5534 40.5981 29.7495 40.4019C29.9457 40.2057 30.0586 39.9347 30.0586 39.6562C30.0586 39.3789 29.9456 39.1068 29.7495 38.9106Z" fill="#616161"/>
<path d="M24.8555 38.6016H6.75C6.1676 38.6016 5.69531 39.0737 5.69531 39.6562C5.69531 40.2388 6.1676 40.7109 6.75 40.7109H24.8555C25.438 40.7109 25.9102 40.2388 25.9102 39.6562C25.9102 39.0737 25.4379 38.6016 24.8555 38.6016Z" fill="#616161"/>
<path d="M22.1484 26.7891H6.75C6.1676 26.7891 5.69531 27.2612 5.69531 27.8438C5.69531 28.4263 6.1676 28.8984 6.75 28.8984H22.1484C22.7309 28.8984 23.2031 28.4263 23.2031 27.8438C23.2031 27.2612 22.7308 26.7891 22.1484 26.7891Z" fill="#616161"/>
</g>
<defs>
<clipPath id="clip0_296_471">
<rect width="54" height="54" fill="white"/>
</clipPath>
</defs>
</svg>
