<svg width="54" height="54" viewBox="0 0 54 54" fill="none" xmlns="http://www.w3.org/2000/svg">
<path d="M48.9719 40.9161H48.651C49.0426 38.6469 48.3788 36.2262 46.6497 34.4777C45.2848 33.0972 43.4702 32.3371 41.54 32.3371C40.5494 32.3371 39.5966 32.5598 38.7101 32.9424C36.4301 29.4221 32.5691 27.2554 28.378 27.2554H27.5296V25.5314C28.7403 24.6718 29.7293 23.5192 30.4025 22.1757C30.8916 22.3871 31.4191 22.5072 31.9536 22.5072C34.1548 22.5072 35.9459 20.6957 35.9459 18.4688C35.9459 17.3616 35.4999 16.3578 34.7803 15.6291V11.4054C34.7803 5.11629 29.7218 0 23.5037 0H21.2387C15.0211 0 9.96259 5.11629 9.96259 11.4054V15.6642C9.23634 16.4064 8.79648 17.4079 8.79648 18.4688C8.79648 20.6957 10.5876 22.5072 12.7893 22.5072C13.3236 22.5072 13.851 22.3872 14.3399 22.1758C15.0131 23.5193 16.0021 24.6719 17.2128 25.5314V27.2554H16.3644C9.54644 27.2554 4 32.8703 4 39.7722V50.2835C4 50.8577 4.46032 51.3233 5.02807 51.3233H34.1091L36.4173 53.6903C36.6095 53.8878 36.8716 53.999 37.1456 54H37.1492C37.4217 54 37.6833 53.8903 37.876 53.6954L46.6497 44.822C47.1938 44.2715 47.6303 43.6536 47.9644 42.9957H48.9719C49.5397 42.9957 50 42.5301 50 41.9559C50 41.3817 49.5397 40.9161 48.9719 40.9161ZM45.196 35.948C46.5264 37.2936 46.9608 39.1912 46.5371 40.9161H40.2559C39.9497 40.9161 39.6596 41.0542 39.4643 41.2923L38.1888 42.8495L35.2311 38.4293C35.0318 38.1323 34.6834 37.9515 34.3415 37.9728C33.9866 37.9865 33.6639 38.184 33.4877 38.4953L31.418 42.1488H28.3611C27.2933 40.1621 27.5676 37.6179 29.2178 35.948C30.1946 34.9605 31.4928 34.4168 32.8737 34.4168C34.2326 34.4168 35.5167 34.9453 36.489 35.9049C36.8876 36.2989 37.5261 36.2989 37.9247 35.9049C38.8971 34.9453 40.1812 34.4168 41.54 34.4168C42.921 34.4168 44.2191 34.9605 45.196 35.948ZM31.9536 20.4276C31.6614 20.4276 31.3754 20.3496 31.115 20.2195C31.2802 19.5306 31.3773 18.8153 31.3773 18.0758V16.6197C31.5641 16.5582 31.7559 16.5217 31.9536 16.5217C33.0213 16.5217 33.8898 17.395 33.8898 18.4688C33.8898 19.5487 33.0213 20.4276 31.9536 20.4276ZM21.2387 2.07962H23.5037C28.5878 2.07962 32.7241 6.26322 32.7241 11.4054V14.5206C32.4745 14.4711 32.2175 14.4421 31.9536 14.4421C31.7568 14.4421 31.561 14.4588 31.3673 14.4886C31.3418 13.1827 31.0563 11.9254 30.5019 10.7515C30.3312 10.39 29.9703 10.16 29.5742 10.16C29.5722 10.16 29.5702 10.16 29.5682 10.16L27.5974 10.1711C25.6697 10.1711 24.1015 8.58502 24.1015 6.63538C24.1015 6.09669 23.6949 5.64736 23.1643 5.59964C22.9249 5.57831 20.8933 5.56866 19.7006 5.5646C16.2073 5.5646 13.3651 8.43931 13.3651 11.9725V14.5094C12.9173 14.4454 12.4617 14.4496 12.0187 14.5351V11.4054C12.0187 6.26322 16.1546 2.07962 21.2387 2.07962ZM12.7893 20.4276C11.7216 20.4276 10.8526 19.5487 10.8526 18.4688C10.8526 17.8646 11.1347 17.2899 11.6106 16.9289C12.119 16.5402 12.7715 16.4408 13.3651 16.6305V18.0758C13.3651 18.8154 13.4623 19.5309 13.6275 20.2198C13.3672 20.3498 13.0813 20.4276 12.7893 20.4276ZM15.4212 18.0758V11.9725C15.4212 9.58574 17.3408 7.64422 19.6971 7.64422C20.556 7.64676 21.4847 7.65234 22.1378 7.65793C22.6146 10.2676 24.8846 12.2508 27.629 12.2508L28.8955 12.2436C29.1781 13.0174 29.3212 13.8323 29.3212 14.6736V18.0758C29.3212 21.9517 26.2033 25.1052 22.3712 25.1052C18.539 25.1052 15.4212 21.9517 15.4212 18.0758ZM22.3712 27.1848C23.4626 27.1848 24.5046 26.9775 25.4735 26.6162V29.0984C25.4735 30.8287 24.082 32.2361 22.3712 32.2361C20.6604 32.2361 19.2689 30.8287 19.2689 29.0984V26.6162C20.2378 26.9775 21.2798 27.1848 22.3712 27.1848ZM13.3455 49.2437V42.0001C13.3455 41.4258 12.8852 40.9603 12.3174 40.9603C11.7497 40.9603 11.2893 41.4258 11.2893 42.0001V49.2437H6.05614V39.7722C6.05614 34.0172 10.6804 29.335 16.3644 29.335H17.2364C17.3617 32.0999 19.6071 34.3157 22.3712 34.3157C25.1353 34.3157 27.3806 32.0999 27.5059 29.335H28.378C31.5583 29.335 34.5134 30.8323 36.4547 33.3132C35.3729 32.6863 34.1512 32.3371 32.8737 32.3371C30.9436 32.3371 29.1289 33.0972 27.764 34.4777C25.7278 36.5375 25.1735 39.5572 26.0981 42.1488H25.3148C24.7471 42.1488 24.2868 42.6144 24.2868 43.1886C24.2868 43.7629 24.7471 44.2284 25.3148 44.2284H27.2455C27.3892 44.4095 27.5411 44.586 27.7043 44.7555L32.0811 49.2437H13.3455ZM45.196 43.3516L37.1542 51.4848L35.2705 49.5531C35.2678 49.5504 35.2655 49.5479 35.2628 49.5452L30.0781 44.2284H32.0138C32.3823 44.2284 32.7226 44.0289 32.9059 43.7055L34.452 40.976L37.2541 45.1637C37.4353 45.4348 37.7325 45.6033 38.0557 45.6196C38.0723 45.6201 38.0889 45.6206 38.1054 45.6206C38.4106 45.6206 38.7013 45.483 38.8971 45.2444L40.7394 42.9957H45.4832C45.3856 43.1135 45.3054 43.2409 45.196 43.3516Z" fill="#616161"/>
</svg>
