<svg width="54" height="54" viewBox="0 0 54 54" fill="none" xmlns="http://www.w3.org/2000/svg">
<g clip-path="url(#clip0_238_720)">
<path d="M20.1458 42.8224C20.7279 42.8224 21.2004 42.3503 21.2004 41.7677C21.2004 41.1852 20.7279 40.713 20.1458 40.713H7.4895C6.90695 40.713 6.43481 41.1852 6.43481 41.7677C6.43481 42.3503 6.90695 42.8224 7.4895 42.8224H20.1458Z" fill="#616161"/>
<path d="M53.2597 27.7828L41.4723 24.1029C41.3643 24.0662 41.2502 24.0465 41.1336 24.0465C41.1332 24.0465 41.1324 24.0465 41.132 24.0465C41.0158 24.0465 40.9013 24.0662 40.7937 24.1025L39.2257 24.5923V10.3359C39.2257 10.0447 39.1075 9.78099 38.9167 9.59024L29.6355 0.308991C29.4447 0.117828 29.1811 0 28.8898 0H3.16406C1.4193 0 0 1.4193 0 3.16406V20.1445C0 20.7271 0.472137 21.1992 1.05469 21.1992C1.63724 21.1992 2.10938 20.7271 2.10938 20.1445V3.16406C2.10938 2.58234 2.58234 2.10938 3.16406 2.10938H27.8351V8.37158C27.8351 10.0364 29.1893 11.3906 30.8537 11.3906H37.1163V25.2507L29.006 27.7828C28.5656 27.9204 28.2656 28.3282 28.2656 28.7897V28.8964H7.48952C6.90697 28.8964 6.43483 29.3685 6.43483 29.9511C6.43483 30.5336 6.90697 31.0058 7.48952 31.0058H28.2656V34.8047H7.48952C6.90697 34.8047 6.43483 35.2768 6.43483 35.8594C6.43483 36.4419 6.90697 36.9141 7.48952 36.9141H28.2656V38.6543C28.2656 41.9823 29.3228 45.1056 31.1425 47.6719H3.16406C2.58234 47.6719 2.10938 47.1989 2.10938 46.6172V29.6367C2.10938 29.0542 1.63724 28.582 1.05469 28.582C0.472137 28.582 0 29.0542 0 29.6367V46.6172C0 48.362 1.4193 49.7812 3.16406 49.7812H32.9371C35.0733 51.8828 37.8229 53.3849 40.9342 53.981C40.9997 53.9938 41.0665 54 41.1328 54C41.1991 54 41.2659 53.9938 41.3314 53.981C48.6722 52.5745 54 46.1286 54 38.6543V28.7897C54 28.3282 53.7001 27.9204 53.2597 27.7828ZM30.8537 9.28125C30.3523 9.28125 29.9445 8.87338 29.9445 8.37158V3.60077L35.6245 9.28125H30.8537ZM51.8906 38.6543C51.8906 45.0508 47.379 50.5764 41.1328 51.87C34.8867 50.5764 30.375 45.0508 30.375 38.6543V29.5654L41.1328 26.2065L51.8906 29.5654V38.6543Z" fill="#616161"/>
<path d="M40.8185 28.5144L33.2247 30.8854C32.7843 31.023 32.4844 31.4305 32.4844 31.8919V38.6539C32.4844 43.7658 35.9261 48.2812 40.8535 49.6342C40.9449 49.6593 41.0389 49.6716 41.1328 49.6716C41.2267 49.6716 41.3207 49.6593 41.4121 49.6342C46.3395 48.2812 49.7812 43.7658 49.7812 38.6543V31.8923C49.7812 31.4309 49.4813 31.023 49.0409 30.8854L41.4472 28.5144C41.2424 28.4506 41.0232 28.4506 40.8185 28.5144ZM47.6719 32.6677V38.6539C47.6719 42.7214 44.9973 46.3255 41.1328 47.5186C37.2684 46.3255 34.5938 42.7214 34.5938 38.6539V32.6677L41.1328 30.6263L47.6719 32.6677Z" fill="#616161"/>
<path d="M38.5035 37.7945C38.0915 37.3825 37.4241 37.3825 37.0121 37.7945C36.6001 38.2064 36.6001 38.8743 37.0121 39.2859L39.442 41.7162C39.648 41.9222 39.9179 42.0252 40.1877 42.0252C40.4576 42.0252 40.7274 41.9222 40.9334 41.7162L45.2535 37.3961C45.6655 36.9841 45.6655 36.3162 45.2535 35.9043C44.8415 35.4927 44.1741 35.4927 43.7617 35.9043L40.1877 39.4787L38.5035 37.7945Z" fill="#616161"/>
<path d="M22.677 10.3347H17.6145C17.032 10.3347 16.5598 10.8073 16.5598 11.3894V14.5535H13.3958C12.8132 14.5535 12.3411 15.026 12.3411 15.6082V20.6707C12.3411 21.2532 12.8132 21.7253 13.3958 21.7253H16.5598V24.8894C16.5598 25.472 17.032 25.9441 17.6145 25.9441H22.677C23.2591 25.9441 23.7317 25.472 23.7317 24.8894V21.7253H26.8958C27.4779 21.7253 27.9504 21.2532 27.9504 20.6707V15.6082C27.9504 15.026 27.4779 14.5535 26.8958 14.5535H23.7317V11.3894C23.7317 10.8073 23.2591 10.3347 22.677 10.3347ZM25.8411 16.6628V19.616H22.677C22.0945 19.616 21.6223 20.0885 21.6223 20.6707V23.8347H18.6692V20.6707C18.6692 20.0885 18.1966 19.616 17.6145 19.616H14.4504V16.6628H17.6145C18.1966 16.6628 18.6692 16.1907 18.6692 15.6082V12.4441H21.6223V15.6082C21.6223 16.1907 22.0945 16.6628 22.677 16.6628H25.8411Z" fill="#616161"/>
<path d="M1.05469 25.9453C1.33195 25.9453 1.60428 25.8324 1.80038 25.6363C1.99649 25.4402 2.10938 25.1679 2.10938 24.8906C2.10938 24.6134 1.99649 24.341 1.80038 24.1449C1.60428 23.9488 1.33195 23.8359 1.05469 23.8359C0.77742 23.8359 0.505096 23.9488 0.308991 24.1449C0.112884 24.341 0 24.6134 0 24.8906C0 25.1679 0.112884 25.4402 0.308991 25.6363C0.505096 25.8324 0.77742 25.9453 1.05469 25.9453Z" fill="#616161"/>
</g>
<defs>
<clipPath id="clip0_238_720">
<rect width="54" height="54" fill="white"/>
</clipPath>
</defs>
</svg>
