<svg width="24" height="24" viewBox="0 0 24 24" fill="none" xmlns="http://www.w3.org/2000/svg">
<path d="M15.6276 18.6072C15.8661 18.3583 16 18.0217 16 17.6709C16 17.32 15.8661 16.9834 15.6276 16.7346L11.0939 11.9668L15.6276 7.26542C15.8661 7.01659 16 6.67999 16 6.32913C16 5.97827 15.8661 5.64167 15.6276 5.39284C15.5085 5.26836 15.3669 5.16956 15.2108 5.10214C15.0547 5.03471 14.8874 5 14.7183 5C14.5492 5 14.3818 5.03471 14.2258 5.10214C14.0697 5.16956 13.928 5.26836 13.809 5.39284L8.37883 11.0239C8.25879 11.1473 8.16351 11.2942 8.09849 11.4561C8.03348 11.6179 8 11.7915 8 11.9668C8 12.1421 8.03348 12.3157 8.09849 12.4775C8.16351 12.6394 8.25879 12.7863 8.37883 12.9097L13.809 18.6072C13.928 18.7316 14.0697 18.8304 14.2258 18.8979C14.3818 18.9653 14.5492 19 14.7183 19C14.8874 19 15.0547 18.9653 15.2108 18.8979C15.3669 18.8304 15.5085 18.7316 15.6276 18.6072Z" fill="#002D72"/>
</svg>
